<?xml version="1.0" encoding="utf-8"?>
<!-- Generator: Adobe Illustrator 17.0.0, SVG Export Plug-In . SVG Version: 6.00 Build 0)  -->
<!DOCTYPE svg PUBLIC "-//W3C//DTD SVG 1.1//EN" "http://www.w3.org/Graphics/SVG/1.1/DTD/svg11.dtd">
<svg version="1.1" id="Capa_1" xmlns="http://www.w3.org/2000/svg" xmlns:xlink="http://www.w3.org/1999/xlink" x="0px" y="0px"
	 width="595.28px" height="624.061px" viewBox="0 0 595.28 624.061" enable-background="new 0 0 595.28 624.061"
	 xml:space="preserve">
<g>
	<path fill="#FFFFFF" d="M210.141,148.251c-15.863,0-20.735,19.715-24.365,39.908c-3.273,18.201-5.917,42.513-8.473,66.023
		c-2.239,20.61-5.238,48.181-8.65,66.786c-2.696-13.279-5.104-30.714-6.952-44.097c-2.473-17.906-5.029-36.421-8.278-50.422
		c-2.416-10.416-7.443-32.088-24.113-32.088c-15.755,0-21.856,18.377-23.86,24.415c-3.401,10.246-6.045,23.529-8.604,36.373
		c-2.141,10.756-5.386,27.049-8.688,36.069c-2.094-4.747-4.245-11.378-5.62-15.624c-5.544-17.103-11.277-34.789-27.643-34.789H6.083
		v25h46.015c2.154,3.596,4.917,12.123,6.659,17.497c5.703,17.592,12.164,37.532,30.14,37.532c15.758,0,21.859-18.38,23.865-24.421
		c3.403-10.249,6.048-23.534,8.605-36.382c1.781-8.947,4.328-21.731,7.033-30.965c3.334,13.566,6.331,35.271,8.533,51.222
		c2.473,17.906,5.029,36.421,8.278,50.422c2.416,10.416,7.443,32.088,24.113,32.088c15.86,0,20.732-19.712,24.362-39.902
		c3.272-18.196,5.915-42.503,8.469-66.011c2.233-20.54,5.22-47.993,8.616-66.597c2.787,13.765,5.282,31.992,7.194,45.954
		c1.885,13.772,3.576,26.112,5.419,36.838c2.133-19.161,8.067-37.466,17.447-54.012
		C234.588,174.603,229.251,148.251,210.141,148.251z"/>
	<path fill="#FFFFFF" d="M343.119,276.587c-4.198,10.717-6.966,24.072-9.408,35.855c-0.387,1.868-0.819,3.949-1.276,6.088
		c-2.832-11.11-5.486-25.354-7.39-35.578c-2.834-15.216-5.38-28.861-8.498-40.025c-9.535,9.926-15.651,22.314-17.748,35.735
		c0.6,3.149,1.162,6.152,1.665,8.869c7.66,41.12,13.195,70.829,33.685,70.829c12.688,0,17.075-13.424,18.517-17.836
		c2.062-6.31,3.744-14.422,5.522-23.01c2.02-9.747,4.109-19.824,6.871-28.106c2.994-8.975,5.483-11.694,6.23-12.351h44.637v-25
		h-45.168C358.795,252.06,349.494,260.313,343.119,276.587z"/>
	<path fill="#FFFFFF" d="M576.124,453.557l-85.874-85.874c-6.355-6.356-14.647-9.594-22.977-9.726
		c32.214-47.999,27.139-113.771-15.247-156.156c-48.163-48.164-126.529-48.164-174.69,0c-48.164,48.163-48.164,126.529,0,174.692
		c42.385,42.385,108.157,47.462,156.154,15.245c0.134,8.331,3.372,16.622,9.728,22.977l85.874,85.874
		c12.989,12.989,34.043,12.989,47.032,0C589.112,487.6,589.112,466.546,576.124,453.557z M425.151,349.619
		c-33.343,33.345-87.597,33.345-120.94,0c-33.343-33.343-33.343-87.597,0-120.94s87.597-33.343,120.94,0
		S458.494,316.274,425.151,349.619z"/>
</g>
</svg>
