<?xml version="1.0" encoding="utf-8"?>
<!-- Generator: Adobe Illustrator 17.0.0, SVG Export Plug-In . SVG Version: 6.00 Build 0)  -->
<!DOCTYPE svg PUBLIC "-//W3C//DTD SVG 1.1//EN" "http://www.w3.org/Graphics/SVG/1.1/DTD/svg11.dtd">
<svg version="1.1" id="Layer_1" xmlns="http://www.w3.org/2000/svg" xmlns:xlink="http://www.w3.org/1999/xlink" x="0px" y="0px"
	 width="684.616px" height="560px" viewBox="136.323 0 684.616 560" enable-background="new 136.323 0 684.616 560"
	 xml:space="preserve">
<path fill="none" stroke="#C84C1E" stroke-width="7.7301" stroke-miterlimit="10" d="M654.148,398.172H305.852
	c-3.435,0-6.22-2.785-6.22-6.22V168.048c0-3.435,2.785-6.22,6.22-6.22h348.296c3.435,0,6.22,2.785,6.22,6.22v223.905
	C660.367,395.387,657.582,398.172,654.148,398.172z"/>
<path fill="none" stroke="#C84C1E" stroke-width="6" stroke-miterlimit="10" d="M660.367,168.048c0-3.435-2.785-6.22-6.22-6.22
	h-27.827l-115.224,75.492v-75.492h-62.196v75.492l-115.223-75.492h-27.826c-3.435,0-6.22,2.785-6.22,6.22v16.086l98.856,64.768
	h-98.856v62.196h98.856l-98.856,64.769v16.086c0,3.435,2.785,6.22,6.22,6.22h27.827l115.224-75.492v75.492h62.196v-75.492
	l115.224,75.492h27.827c3.435,0,6.22-2.785,6.22-6.22v-16.086l-98.856-64.768h98.855v-62.196h-98.856l98.856-64.769V168.048z"/>
<g>
	<polygon fill="#C84C1E" points="660.367,261.341 498.659,261.341 498.659,161.828 461.341,161.828 461.341,261.341 
		299.632,261.341 299.632,298.659 461.341,298.659 461.341,398.172 498.659,398.172 498.659,298.659 660.367,298.659 	"/>
	<path fill="#C84C1E" d="M425.712,311.098l-125.904,81.727c0.44,3.004,2.917,5.348,6.043,5.348h8.567l134.141-87.074
		L425.712,311.098L425.712,311.098z"/>
	<path fill="#C84C1E" d="M543.684,311.098h-22.848l133.946,86.946c3.122-0.333,5.586-2.882,5.586-6.092v-5.114L543.684,311.098z"/>
	<path fill="#C84C1E" d="M299.632,174.914l113.983,73.989h22.848l-133.207-86.468c-2.128,0.988-3.624,3.113-3.624,5.613V174.914z"/>
	<path fill="#C84C1E" d="M533.945,248.902l126.206-81.924c-0.524-2.904-2.948-5.15-6.004-5.15h-8.911l-134.139,87.074H533.945z"/>
</g>
</svg>
