<?xml version="1.0" encoding="utf-8"?>
<!-- Generator: Adobe Illustrator 17.0.0, SVG Export Plug-In . SVG Version: 6.00 Build 0)  -->
<!DOCTYPE svg PUBLIC "-//W3C//DTD SVG 1.1//EN" "http://www.w3.org/Graphics/SVG/1.1/DTD/svg11.dtd">
<svg version="1.1" id="Capa_1" xmlns="http://www.w3.org/2000/svg" xmlns:xlink="http://www.w3.org/1999/xlink" x="0px" y="0px"
	 width="595.28px" height="607.912px" viewBox="0 0 595.28 607.912" enable-background="new 0 0 595.28 607.912"
	 xml:space="preserve">
<g>
	<path fill="#C84C1E" d="M412.013,224.006l-6.986-6.986l-48.786-48.791c-0.005-0.005-0.005-0.005-0.005-0.005l-3.958-3.958
		c-1.822-1.817-4.24-2.818-6.812-2.818H196.492c-6.093,0-12.643,4.702-12.643,15.02v185.174v84.887v2.377
		c0,4.296,4.317,8.48,9.424,9.799c0.262,0.072,0.513,0.169,0.78,0.221c0.801,0.159,1.617,0.246,2.438,0.246h205.706
		c0.821,0,1.637-0.087,2.438-0.246c0.267-0.051,0.518-0.149,0.78-0.221c5.107-1.319,9.424-5.503,9.424-9.799v-2.377v-84.887V233.199
		C414.841,229.262,414.364,226.352,412.013,224.006z M353.243,179.748l43.298,43.298h-43.298V179.748z M196.492,448.905
		c-0.364,0-0.693-0.128-1.016-0.252c-0.796-0.38-1.36-1.181-1.36-2.125v-74.621h210.46v74.621c0,0.945-0.565,1.745-1.36,2.125
		c-0.323,0.123-0.652,0.252-1.016,0.252H196.492z M194.115,361.641V176.468c0-1.114,0.169-4.753,2.377-4.753h146.783
		c-0.169,0.647-0.298,1.314-0.298,2.007v58.462c-2.731-2.464-6.309-4.004-10.266-4.004c-2.839,0-5.133,2.3-5.133,5.133
		s2.294,5.133,5.133,5.133c2.833,0,5.133,2.305,5.133,5.133v20.533c0,6.16,2.782,11.632,7.094,15.399
		c-4.312,3.768-7.094,9.24-7.094,15.4v20.533c0,2.828-2.3,5.133-5.133,5.133c-2.839,0-5.133,2.3-5.133,5.133
		s2.294,5.133,5.133,5.133c8.49,0,15.399-6.909,15.399-15.399v-20.533c0-5.662,4.604-10.266,10.266-10.266
		c2.839,0,5.133-2.3,5.133-5.133s-2.295-5.133-5.133-5.133c-5.662,0-10.266-4.604-10.266-10.266V243.58
		c0-3.958-1.545-7.535-4.004-10.266h58.462c0.693,0,1.36-0.128,2.007-0.298c0,0.077,0.005,0.108,0.005,0.185v128.442H194.115
		V361.641z"/>
	<path fill="#C84C1E" d="M280.629,425.446c-0.098,2.289-0.878,3.922-2.351,4.877c-1.473,0.955-3.455,1.437-5.929,1.437
		c-0.98,0-2.033-0.113-3.157-0.349c-1.124-0.236-2.202-0.503-3.229-0.806c-1.032-0.308-1.976-0.631-2.844-0.98
		c-0.868-0.349-1.535-0.693-2.002-1.016l-3.578,5.682c0.934,0.703,2.079,1.335,3.439,1.894c1.355,0.56,2.772,1.063,4.245,1.509
		s2.9,0.77,4.281,0.98c1.381,0.21,2.582,0.318,3.614,0.318c2.053,0,4.06-0.2,6.001-0.595c1.94-0.395,3.66-1.099,5.159-2.105
		c1.494-1.006,2.685-2.341,3.578-3.999c0.888-1.658,1.335-3.711,1.335-6.139v-40.285h-8.562L280.629,425.446L280.629,425.446z"/>
	<path fill="#C84C1E" d="M325.437,413.301c-1.612-1.17-3.357-2.166-5.231-2.982s-3.603-1.658-5.195-2.526
		c-1.596-0.868-2.926-1.868-3.999-3.018c-1.078-1.15-1.612-2.659-1.612-4.527c0-0.749,0.185-1.535,0.56-2.351
		c0.37-0.816,0.888-1.555,1.545-2.212c0.652-0.657,1.401-1.201,2.248-1.648c0.847-0.447,1.73-0.714,2.669-0.806
		c1.684-0.139,3.064-0.164,4.142-0.072c1.073,0.098,1.94,0.257,2.597,0.493c0.652,0.236,1.16,0.467,1.509,0.703
		s0.667,0.421,0.95,0.56c0.046-0.046,0.185-0.282,0.421-0.703c0.231-0.421,0.513-0.95,0.842-1.581
		c0.323-0.631,0.678-1.309,1.052-2.033c0.37-0.729,0.703-1.391,0.98-2.002c-1.36-0.888-3.136-1.535-5.333-1.93
		c-2.202-0.395-4.379-0.595-6.524-0.595c-2.105,0-4.107,0.323-6.001,0.98s-3.552,1.607-4.984,2.844s-2.561,2.746-3.403,4.527
		s-1.273,3.819-1.273,6.108c0,2.526,0.534,4.63,1.612,6.314c1.073,1.684,2.433,3.147,4.071,4.384
		c1.632,1.237,3.388,2.315,5.261,3.229c1.868,0.914,3.614,1.822,5.231,2.736c1.617,0.914,2.957,1.93,4.035,3.054
		c1.073,1.124,1.612,2.479,1.612,4.071c0,2.623-0.76,4.599-2.279,5.929c-1.519,1.329-3.711,2.002-6.56,2.002
		c-0.939,0-1.945-0.098-3.018-0.282c-1.078-0.185-2.156-0.431-3.229-0.739c-1.078-0.308-2.115-0.631-3.121-0.98
		s-1.838-0.714-2.49-1.088l-1.473,6.037c0.79,0.703,1.745,1.299,2.844,1.791c1.098,0.493,2.253,0.878,3.475,1.16
		c1.211,0.282,2.423,0.483,3.614,0.595c1.191,0.113,2.351,0.175,3.475,0.175c2.618,0,4.959-0.395,7.017-1.191
		c2.053-0.796,3.788-1.858,5.195-3.193s2.49-2.88,3.265-4.63c0.775-1.75,1.16-3.568,1.16-5.441c0-2.762-0.539-5.02-1.612-6.771
		C328.394,415.935,327.049,414.472,325.437,413.301z"/>
	<path fill="#C84C1E" d="M255.713,264.111v-20.533c0-2.828,2.3-5.133,5.133-5.133c2.839,0,5.133-2.3,5.133-5.133
		s-2.295-5.133-5.133-5.133c-8.49,0-15.399,6.909-15.399,15.399v20.533c0,5.662-4.604,10.266-10.266,10.266
		c-2.839,0-5.133,2.3-5.133,5.133c0,2.834,2.295,5.133,5.133,5.133c5.662,0,10.266,4.604,10.266,10.266v20.533
		c0,8.49,6.909,15.399,15.399,15.399c2.839,0,5.133-2.3,5.133-5.133s-2.295-5.133-5.133-5.133c-2.834,0-5.133-2.305-5.133-5.133
		v-20.533c0-6.16-2.782-11.632-7.094-15.4C252.931,275.743,255.713,270.271,255.713,264.111z"/>
	<circle fill="#C84C1E" cx="296.778" cy="261.545" r="7.7"/>
	<path fill="#C84C1E" d="M296.778,289.777c-2.839,0-5.133,2.3-5.133,5.133v15.399c0,2.833,2.295,5.133,5.133,5.133
		c2.839,0,5.133-2.3,5.133-5.133V294.91C301.912,292.077,299.617,289.777,296.778,289.777z"/>
</g>
</svg>
