<?xml version="1.0" encoding="utf-8"?>
<!-- Generator: Adobe Illustrator 17.0.0, SVG Export Plug-In . SVG Version: 6.00 Build 0)  -->
<!DOCTYPE svg PUBLIC "-//W3C//DTD SVG 1.1//EN" "http://www.w3.org/Graphics/SVG/1.1/DTD/svg11.dtd">
<svg version="1.1" id="Layer_1" xmlns="http://www.w3.org/2000/svg" xmlns:xlink="http://www.w3.org/1999/xlink" x="0px" y="0px"
	 width="512px" height="512px" viewBox="0 0 512 512" enable-background="new 0 0 512 512" xml:space="preserve">
<g>
	<g>
		<path fill="#C84C1E" d="M408.185,214.188h-4.232c-4.123-20.918-25.269-57.747-34.63-73.346c4.389-3.019,7.274-8.074,7.274-13.792
			c0-9.225-7.506-16.731-16.731-16.731c-9.225,0-16.73,7.505-16.73,16.731c0,5.718,2.885,10.773,7.275,13.792
			c-9.361,15.599-30.507,52.429-34.63,73.346h-4.231c-3.487,0-6.315,2.827-6.315,6.315c0,30.124,24.508,54.632,54.632,54.632
			s54.632-24.508,54.632-54.632C414.5,217.015,411.672,214.188,408.185,214.188z M359.867,122.949c2.261,0,4.101,1.84,4.101,4.101
			c0,2.261-1.84,4.101-4.101,4.101s-4.101-1.839-4.101-4.101C355.766,124.789,357.605,122.949,359.867,122.949z M359.857,149.633
			c10.686,18.037,27.188,48.081,31.247,64.555H328.65C332.482,198.764,347.329,170.688,359.857,149.633z M359.867,262.506
			c-21.014,0-38.475-15.513-41.529-35.688h83.06C398.342,246.993,380.883,262.506,359.867,262.506z"/>
	</g>
</g>
<g>
	<g>
		<path fill="#C84C1E" d="M312.207,365.386h-16.694v-16.037c0-3.488-2.828-6.315-6.315-6.315h-16.037V166.639
			c4.13-4.083,6.791-9.649,7.099-15.826l26.701-5.746c3.41-0.734,5.579-4.093,4.845-7.502c-0.734-3.41-4.093-5.577-7.502-4.845
			l-26.764,5.76c-4.015-7.623-12.014-12.835-21.212-12.835c-12.738,0-23.181,9.99-23.916,22.547l-66.768,14.368
			c-3.046-4.166-7.966-6.879-13.511-6.879c-9.225,0-16.731,7.505-16.731,16.731c0,5.718,2.885,10.774,7.275,13.792
			c-9.361,15.599-30.507,52.429-34.63,73.346h-4.231c-3.489,0-6.316,2.827-6.316,6.315c0,30.124,24.508,54.632,54.632,54.632
			s54.632-24.508,54.632-54.632c0-3.488-2.827-6.315-6.315-6.315h-4.231c-4.123-20.918-25.269-57.747-34.63-73.346
			c3.761-2.586,6.414-6.667,7.098-11.379l66.335-14.274c1.167,2.262,2.68,4.318,4.473,6.091v176.396H223.46
			c-3.488,0-6.315,2.827-6.315,6.315v16.037h-16.695c-3.488,0-6.315,2.827-6.315,6.315v23.664c0,3.488,2.827,6.315,6.315,6.315
			h111.756c3.487,0,6.315-2.827,6.315-6.315v-23.666C318.521,368.213,315.694,365.386,312.207,365.386z M152.132,168.309
			c2.261,0,4.101,1.84,4.101,4.101c0,2.261-1.84,4.101-4.101,4.101c-2.261,0-4.101-1.839-4.101-4.101
			C148.031,170.149,149.871,168.309,152.132,168.309z M152.132,307.866c-21.015,0-38.475-15.513-41.529-35.689h83.059
			C190.607,292.353,173.147,307.866,152.132,307.866z M183.369,259.548h-62.454c3.832-15.424,18.68-43.5,31.208-64.555
			C162.808,213.03,179.31,243.074,183.369,259.548z M256.329,138.273c6.249,0,11.332,5.083,11.332,11.332
			c0,6.249-5.084,11.332-11.332,11.332c-6.248,0-11.332-5.083-11.332-11.332C244.997,143.356,250.08,138.273,256.329,138.273z
			 M260.532,173.191v169.844h-8.407V173.191c1.366,0.243,2.769,0.377,4.204,0.377C257.765,173.568,259.166,173.433,260.532,173.191z
			 M229.774,355.664h53.109v9.722h-53.109L229.774,355.664L229.774,355.664z M305.892,389.051h-99.127v-11.036h99.127V389.051z"/>
	</g>
</g>
<g>
	<g>
		<path fill="#C84C1E" d="M336.129,132.722c-0.734-3.41-4.093-5.578-7.503-4.845l-4.601,0.99c-3.409,0.734-5.578,4.093-4.845,7.502
			c0.638,2.962,3.256,4.987,6.168,4.987c0.44,0,0.887-0.046,1.335-0.142l4.601-0.99C334.693,139.49,336.863,136.131,336.129,132.722
			z"/>
	</g>
</g>
</svg>
