<?xml version="1.0" encoding="utf-8"?>
<!-- Generator: Adobe Illustrator 17.0.0, SVG Export Plug-In . SVG Version: 6.00 Build 0)  -->
<!DOCTYPE svg PUBLIC "-//W3C//DTD SVG 1.1//EN" "http://www.w3.org/Graphics/SVG/1.1/DTD/svg11.dtd">
<svg version="1.1" id="Capa_1" xmlns="http://www.w3.org/2000/svg" xmlns:xlink="http://www.w3.org/1999/xlink" x="0px" y="0px"
	 width="375.914px" height="375.914px" viewBox="0 0 375.914 375.914" enable-background="new 0 0 375.914 375.914"
	 xml:space="preserve">
<g>
	<g>
		<path fill="#FFFFFF" d="M242.033,237.846c-4.095,0-7.66,2.558-9.561,6.346v-0.576c0-7.934-5.628-14.367-12.574-14.367
			c-4.784,0-8.943,3.052-11.066,7.545c-2.125-4.492-6.284-7.545-11.068-7.545c-3.826,0-7.255,1.963-9.561,5.047v-44.555
			c0-7.934-5.63-14.367-12.574-14.367s-12.574,6.432-12.574,14.367v87.601l-5.858-12.212c-2.284-4.764-6.591-7.468-11.034-7.468
			c-2.045,0-4.119,0.574-6.038,1.773c-6.087,3.819-8.32,12.545-4.976,19.503c0,0,29.324,61.565,33.848,68.202
			c4.349,6.377,9.711,10.884,17.152,10.884h43.659c12.837,0,23.251-12.331,23.251-27.535v-80.054
			C253.051,243.481,248.118,237.846,242.033,237.846z"/>
		<path fill="#FFFFFF" d="M278.368,17.889H108.276c-10.56,0-19.145,8.589-19.145,19.147v279.567
			c0,10.555,8.585,19.147,19.145,19.147h31.553c0,0,6.105,0,3.837-5.17c-3.614-8.238-9.477-20.229-13.829-28.83
			c-2.072-4.097-7.353-3.929-7.353-3.929h-12.355c-2.498,0-4.545-2.091-4.545-4.645V60.87c0-2.555,2.048-4.643,4.545-4.643h166.393
			c2.498,0,4.543,2.089,4.543,4.643v232.306c0,2.555-2.047,4.645-4.543,4.645h-4.738c0,0-5.904,0.133-5.904,7.244
			c0,5.86-0.022,23.096-0.022,23.441c0,7.244,6.834,7.244,6.834,7.244h5.681c10.553,0,19.145-8.59,19.145-19.147V37.036
			C297.513,26.478,288.922,17.889,278.368,17.889z M214.302,44.676h-41.96c-2.006,0-3.627-1.623-3.627-3.627
			c0-2.006,1.621-3.631,3.627-3.631h41.961c2.003,0,3.629,1.623,3.629,3.631C217.93,43.052,216.305,44.676,214.302,44.676z"/>
	</g>
</g>
</svg>
