<?xml version="1.0" encoding="utf-8"?>
<!-- Generator: Adobe Illustrator 17.0.0, SVG Export Plug-In . SVG Version: 6.00 Build 0)  -->
<!DOCTYPE svg PUBLIC "-//W3C//DTD SVG 1.1//EN" "http://www.w3.org/Graphics/SVG/1.1/DTD/svg11.dtd">
<svg version="1.1" id="Layer_1" xmlns="http://www.w3.org/2000/svg" xmlns:xlink="http://www.w3.org/1999/xlink" x="0px" y="0px"
	 width="595.28px" height="645.109px" viewBox="0 0 595.28 645.109" enable-background="new 0 0 595.28 645.109"
	 xml:space="preserve">
<g>
	<g>
		<g>
			<path fill="#FFFFFF" d="M554.008,249.483c-3.714-2.217-8.319-2.321-12.125-0.271l-79.452,42.764v-36.647
				c0-6.787-5.503-12.287-12.287-12.287h-19.981c24.92-20.211,40.88-51.06,40.88-85.572
				c0.002-60.734-49.411-110.146-110.148-110.146c-51.839,0-95.424,36.002-107.079,84.315
				c-15.247-18.397-38.26-30.138-63.966-30.138c-45.8,0-83.06,37.26-83.06,83.06c0,22.791,9.231,43.463,24.146,58.486H119.72
				c-6.787,0-12.287,5.502-12.287,12.287v55.776H76.327c-6.787,0-12.287,5.502-12.287,12.287v48.32
				c0,6.787,5.502,12.287,12.287,12.287h31.105v55.777c0,6.787,5.502,12.287,12.287,12.287H264.67l-66.599,127.75
				c-3.137,6.016-0.802,13.438,5.216,16.575c1.814,0.947,3.756,1.395,5.668,1.395c4.433,0,8.713-2.407,10.905-6.609l65.068-124.818
				l65.07,124.818c2.192,4.204,6.473,6.609,10.906,6.609c1.912,0,3.856-0.448,5.668-1.395c6.018-3.137,8.353-10.559,5.215-16.575
				l-66.599-127.75h144.954c6.785,0,12.287-5.502,12.287-12.287v-36.648l79.452,42.764c1.822,0.98,3.822,1.468,5.823,1.468
				c2.182,0,4.364-0.582,6.302-1.739c3.714-2.218,5.985-6.224,5.985-10.548V260.034
				C559.994,255.707,557.721,251.701,554.008,249.483z M107.431,359.424H88.612v-23.745h18.819V359.424z M360.895,71.896
				c47.185,0,85.574,38.387,85.574,85.574s-38.388,85.572-85.574,85.572c-47.185,0-85.572-38.387-85.572-85.572
				C275.324,110.285,313.712,71.896,360.895,71.896z M267.068,215.098c6.562,10.647,14.887,20.097,24.563,27.944h-42.867
				C256.622,235.128,262.883,225.635,267.068,215.098z M189.85,126.072c32.248,0,58.484,26.236,58.484,58.484
				s-26.236,58.486-58.484,58.486s-58.484-26.236-58.484-58.486C131.367,152.308,157.602,126.072,189.85,126.072z M437.857,312.544
				v70.015v44.929H285.151c-0.022,0-0.044,0-0.067,0h-0.324c-0.014,0-0.028,0-0.042,0H132.003v-55.776v-48.32v-55.776h305.852
				v44.929h0.002V312.544z M535.42,414.504l-72.988-39.288v-55.333l72.988-39.288V414.504z"/>
		</g>
	</g>
	<g>
		<g>
			<path fill="#FFFFFF" d="M189.85,147.234c-20.58,0-37.324,16.743-37.324,37.324s16.743,37.324,37.324,37.324
				s37.324-16.743,37.324-37.324C227.175,163.977,210.432,147.234,189.85,147.234z M189.85,199.763
				c-8.386,0-15.207-6.821-15.207-15.207s6.821-15.207,15.207-15.207s15.207,6.821,15.207,15.207S198.236,199.763,189.85,199.763z"
				/>
		</g>
	</g>
	<g>
		<g>
			<path fill="#FFFFFF" d="M360.895,103.868c-29.556,0-53.601,24.046-53.601,53.602c0,29.554,24.045,53.601,53.601,53.601
				s53.601-24.046,53.601-53.601C414.495,127.914,390.452,103.868,360.895,103.868z M360.895,186.497
				c-16.005,0-29.027-13.021-29.027-29.027s13.021-29.029,29.027-29.029c16.005,0,29.027,13.021,29.027,29.029
				S376.9,186.497,360.895,186.497z"/>
		</g>
	</g>
	<g>
		<g>
			<path fill="#FFFFFF" d="M321.253,303.347H187.66c-6.447,0-11.672,5.225-11.672,11.672v65.065c0,6.447,5.225,11.672,11.672,11.672
				h133.593c6.447,0,11.672-5.225,11.672-11.672v-65.065C332.927,308.574,327.7,303.347,321.253,303.347z M309.58,368.411H199.332
				v-41.719h110.249L309.58,368.411L309.58,368.411z"/>
		</g>
	</g>
	<g>
		<g>
			<circle fill="#FFFFFF" cx="385.699" cy="327.306" r="12.287"/>
		</g>
	</g>
	<g>
		<g>
			<circle fill="#FFFFFF" cx="385.699" cy="367.791" r="12.287"/>
		</g>
	</g>
</g>
</svg>
