<?xml version="1.0" encoding="utf-8"?>
<!-- Generator: Adobe Illustrator 17.0.0, SVG Export Plug-In . SVG Version: 6.00 Build 0)  -->
<!DOCTYPE svg PUBLIC "-//W3C//DTD SVG 1.1//EN" "http://www.w3.org/Graphics/SVG/1.1/DTD/svg11.dtd">
<svg version="1.1" id="Layer_1" xmlns="http://www.w3.org/2000/svg" xmlns:xlink="http://www.w3.org/1999/xlink" x="0px" y="0px"
	 width="512px" height="512px" viewBox="0 0 512 512" enable-background="new 0 0 512 512" xml:space="preserve">
<g>
	<g>
		<g>
			<path fill="#C84C1E" d="M141.488,200.837c-0.759-2.079-2.703-3.49-4.916-3.568c-2.224-0.07-4.25,1.196-5.152,3.218
				c-7.837,17.573-11.812,36.249-11.812,55.507c0,26.088,7.393,51.446,21.378,73.334c13.612,21.303,32.801,38.39,55.495,49.413
				c0.756,0.368,1.567,0.546,2.373,0.546c1.318,0,2.622-0.479,3.642-1.401c1.644-1.484,2.223-3.817,1.464-5.897L141.488,200.837z
				 M130.478,255.995c0-12.928,1.946-25.571,5.798-37.742l52.48,143.777C152.481,339.137,130.478,299.675,130.478,255.995z"/>
			<path fill="#C84C1E" d="M303.619,375.754l-40.212-110.167c-0.784-2.146-2.824-3.571-5.104-3.571c-0.017,0-0.034,0-0.051,0
				c-2.301,0.022-4.339,1.49-5.088,3.666l-39.295,114.175c-0.483,1.403-0.371,2.943,0.31,4.261c0.681,1.319,1.872,2.301,3.295,2.72
				c12.539,3.689,25.502,5.558,38.527,5.558c15.479,0,30.719-2.602,45.296-7.733c1.549-0.546,2.768-1.762,3.317-3.31
				c0.549-1.548,0.369-3.261-0.491-4.66C303.897,376.325,303.736,376.024,303.619,375.754z M256.001,381.528
				c-10.093,0-20.147-1.221-29.963-3.633l32.416-94.184l33.758,92.488C280.475,379.737,268.322,381.528,256.001,381.528z"/>
			<path fill="#C84C1E" d="M318.493,334.794c2.298,0,4.351-1.448,5.121-3.617l14.459-40.726
				c6.936-17.793,10.307-32.263,10.307-44.234c0-18.046-5.34-27.393-10.053-35.639c-0.029-0.05-0.058-0.101-0.089-0.151
				c-0.523-0.851-1.044-1.692-1.559-2.524c-5.631-9.092-10.495-16.945-10.495-25.346c0-8.564,6.329-17.808,16.553-17.808
				c0.169,0,0.428,0.022,0.704,0.045c0.215,0.018,0.429,0.036,0.644,0.05c2.306,0.15,4.444-1.172,5.348-3.292
				c0.904-2.12,0.372-4.58-1.328-6.138c-25.201-23.093-57.911-35.811-92.106-35.811c-45.999,0-88.6,22.978-113.958,61.466
				c-1.082,1.643-1.192,3.741-0.288,5.488c0.904,1.746,2.681,2.868,4.646,2.933c3.346,0.111,6.244,0.167,8.61,0.167
				c12.62,0,31.103-1.359,34.729-1.635c0.58,1.045,0.636,3.538,0.073,4.47c-1.431,0.16-7.629,0.827-14.329,1.177
				c-1.697,0.088-3.254,0.965-4.21,2.37c-0.956,1.404-1.199,3.176-0.658,4.787l42.879,127.639c0.743,2.213,2.816,3.703,5.151,3.703
				c0.002,0,0.004,0,0.006,0c2.337-0.003,4.41-1.499,5.149-3.715l28.661-85.952c0.393-1.18,0.371-2.458-0.065-3.623l-15.594-41.688
				c-0.754-2.015-2.626-3.396-4.773-3.521c-6.172-0.36-12.133-1.059-13.209-1.189c-0.49-1.037-0.377-3.43,0.201-4.458
				c3.731,0.279,22.43,1.632,34.278,1.632c12.622,0,31.106-1.359,34.73-1.635c0.581,1.045,0.637,3.538,0.074,4.47
				c-1.426,0.16-7.634,0.828-14.33,1.178c-1.701,0.088-3.262,0.97-4.218,2.381c-0.955,1.411-1.193,3.188-0.643,4.8l44.437,130.263
				c0.746,2.189,2.797,3.665,5.11,3.68C318.471,334.794,318.481,334.794,318.493,334.794z M281.484,204.042
				c4.634-0.377,7.986-0.766,8.192-0.79c6.248-0.738,10.294-6.789,9.623-14.388c-0.643-7.264-5.346-12.092-11.414-11.729
				c-0.035,0.002-0.071,0.004-0.105,0.007c-0.21,0.017-21.159,1.647-34.48,1.647c-12.508,0-33.86-1.632-34.074-1.648
				c-0.033-0.003-0.065-0.005-0.098-0.006c-6.174-0.37-11.003,4.839-11.449,12.376c-0.445,7.526,3.656,13.274,9.777,13.755
				c0.865,0.105,5.198,0.62,10.394,1.016l13.693,36.606l-22.917,68.727l-35.465-105.57c4.655-0.378,8.02-0.768,8.229-0.793
				c6.247-0.738,10.291-6.792,9.62-14.392c-0.643-7.261-5.345-12.093-11.412-11.725c-0.035,0.002-0.071,0.004-0.105,0.007
				c-0.199,0.017-19.119,1.489-32.436,1.636c23.734-30.424,60.017-48.307,98.946-48.307c27.665,0,54.275,9.046,76.06,25.674
				c-9.831,4.362-16.745,14.559-16.745,26.413c0,11.494,5.889,21.002,12.124,31.068c0.494,0.798,0.993,1.604,1.495,2.419
				c4.417,7.73,8.576,15.062,8.576,30.172c0,10.465-3.228,24.044-9.595,40.362c-0.02,0.052-0.039,0.104-0.058,0.157l-9.264,26.092
				L281.484,204.042z"/>
			<path fill="#C84C1E" d="M375.683,190.559c-1.258-2.295-3.975-3.367-6.464-2.55c-2.488,0.819-4.037,3.297-3.685,5.892
				c0.553,4.084,0.834,8.369,0.834,12.734c0,14.292-3.043,28.555-9.575,44.887c-0.032,0.08-0.062,0.161-0.09,0.242l-39.997,115.647
				c-0.742,2.148-0.07,4.531,1.686,5.974c0.995,0.817,2.22,1.236,3.452,1.236c0.94,0,1.886-0.244,2.734-0.74
				c20.255-11.808,37.237-28.729,49.108-48.933c12.238-20.826,18.706-44.669,18.706-68.953
				C392.391,233.136,386.614,210.508,375.683,190.559z M332.274,355.648l34.659-100.212c4.972-12.454,8.065-23.859,9.45-35.019
				c3.391,11.504,5.141,23.505,5.141,35.577C381.525,295.155,362.985,332.063,332.274,355.648z"/>
		</g>
	</g>
</g>
<g>
	<g>
		<path fill="#C84C1E" d="M259.349,316.597c-2.846-0.949-5.924,0.59-6.874,3.437l-0.725,2.173c-0.949,2.847,0.59,5.924,3.437,6.874
			c0.57,0.19,1.149,0.28,1.719,0.28c2.275,0,4.396-1.44,5.155-3.717l0.725-2.173C263.735,320.624,262.196,317.547,259.349,316.597z"
			/>
	</g>
</g>
<g>
	<g>
		<path fill="#C84C1E" d="M252.647,336.704c-2.847-0.952-5.924,0.59-6.874,3.437l-9.057,27.171c-0.949,2.847,0.59,5.924,3.437,6.873
			c0.57,0.191,1.149,0.281,1.719,0.281c2.275,0,4.396-1.44,5.155-3.717l9.056-27.171
			C257.033,340.73,255.494,337.653,252.647,336.704z"/>
	</g>
</g>
</svg>
