<?xml version="1.0" encoding="utf-8"?>
<!-- Generator: Adobe Illustrator 17.0.2, SVG Export Plug-In . SVG Version: 6.00 Build 0)  -->
<!DOCTYPE svg PUBLIC "-//W3C//DTD SVG 1.1//EN" "http://www.w3.org/Graphics/SVG/1.1/DTD/svg11.dtd">
<svg version="1.1" id="Calque_1" xmlns="http://www.w3.org/2000/svg" xmlns:xlink="http://www.w3.org/1999/xlink" x="0px" y="0px"
	 width="48px" height="48px" viewBox="0 0 48 48" enable-background="new 0 0 48 48" xml:space="preserve">
<path fill="none" d="M9.245-69.621h48v48h-48C9.245-21.621,9.245-69.621,9.245-69.621z"/>
<circle fill="none" stroke="#0033FF" stroke-miterlimit="10" cx="33.245" cy="-45.621" r="22.248"/>
<circle fill="none" stroke="#0033FF" stroke-miterlimit="10" cx="106.019" cy="-41.033" r="22.248"/>
<g>
	<path fill="#0033FF" d="M45.563-33.33H20.928c-0.298,0-0.54-0.242-0.54-0.54v-23.502c0-0.298,0.242-0.54,0.54-0.54h24.635
		c0.298,0,0.54,0.242,0.54,0.54v23.502C46.103-33.572,45.861-33.33,45.563-33.33z M21.407-34.349h23.677v-22.544H21.407V-34.349z"/>
	<path fill="#0033FF" d="M42.164-41.033H24.1c-0.298,0-0.54-0.242-0.54-0.54v-10.588c0-0.298,0.242-0.54,0.54-0.54h18.064
		c0.298,0,0.54,0.242,0.54,0.54v10.588C42.705-41.276,42.462-41.033,42.164-41.033z M24.579-42.052h17.106v-9.63H24.579V-42.052z"/>
	<path fill="#0033FF" d="M42.308-56.201H26.59c-0.101,0-0.183-0.082-0.183-0.183c0-0.101,0.082-0.183,0.183-0.183h15.718
		c0.101,0,0.183,0.082,0.183,0.183C42.491-56.283,42.409-56.201,42.308-56.201z"/>
	<g>
		<circle fill="#0033FF" cx="24.38" cy="-56.497" r="0.34"/>
	</g>
	<g>
		<circle fill="#0033FF" cx="25.456" cy="-56.497" r="0.34"/>
	</g>
	<path fill="#0033FF" d="M34.661-38.881H24.182c-0.281,0-0.51-0.228-0.51-0.51s0.228-0.51,0.51-0.51h10.479
		c0.281,0,0.51,0.228,0.51,0.51S34.942-38.881,34.661-38.881z"/>
	<path fill="#0033FF" d="M34.661-36.728H24.182c-0.281,0-0.51-0.228-0.51-0.51c0-0.282,0.228-0.51,0.51-0.51h10.479
		c0.281,0,0.51,0.228,0.51,0.51C35.171-36.956,34.943-36.728,34.661-36.728z"/>
	<path fill="#0033FF" d="M42.421-38.881H37.55c-0.281,0-0.51-0.228-0.51-0.51s0.228-0.51,0.51-0.51h4.871
		c0.281,0,0.51,0.228,0.51,0.51S42.702-38.881,42.421-38.881z"/>
	<path fill="#0033FF" d="M42.478-36.841H37.55c-0.281,0-0.51-0.228-0.51-0.51s0.228-0.51,0.51-0.51h4.928
		c0.281,0,0.51,0.228,0.51,0.51S42.759-36.841,42.478-36.841z"/>
	<g>
		<circle fill="#0033FF" cx="23.191" cy="-56.525" r="0.34"/>
	</g>
	<path fill="#0033FF" d="M45.537-55.166H20.812c-0.188,0-0.34-0.152-0.34-0.34s0.152-0.34,0.34-0.34h24.725
		c0.188,0,0.34,0.152,0.34,0.34C45.877-55.318,45.725-55.166,45.537-55.166z"/>
</g>
<g>
	<circle fill="none" stroke="#FFFFFF" stroke-miterlimit="10" cx="24.38" cy="24" r="22.248"/>
	<path fill="none" stroke="#FFFFFF" stroke-miterlimit="10" d="M38.54,25.416H27.212v-2.832H38.54V25.416z M38.54,16.92H27.212
		v2.832H38.54V16.92z M27.212,31.08H38.54v-2.832H27.212V31.08z M24.38,19.752v8.496c0,1.558-1.274,2.832-2.832,2.832h-8.496
		c-1.558,0-2.832-1.274-2.832-2.832v-8.496c0-1.558,1.274-2.832,2.832-2.832h8.496C23.106,16.92,24.38,18.194,24.38,19.752z
		 M22.256,28.248L19.07,24l-2.478,3.2l-1.77-2.138l-2.478,3.186C12.344,28.248,22.256,28.248,22.256,28.248z"/>
</g>
<g>
	<g>
		<g>
			<path fill="#0033FF" d="M110.807-54.156h-9.575c-1.141,0-2.068,0.926-2.068,2.068v21.62c0,1.141,0.926,2.068,2.068,2.068h9.575
				c1.141,0,2.068-0.926,2.068-2.068v-21.614C112.875-53.223,111.948-54.156,110.807-54.156z M101.232-53.026h9.575
				c0.52,0,0.938,0.424,0.938,0.938v0.83h-11.457v-0.825C100.288-52.602,100.712-53.026,101.232-53.026z M111.745-50.687v17.241
				h-11.457v-17.241C100.288-50.687,111.745-50.687,111.745-50.687z M110.807-29.525h-9.575c-0.52,0-0.938-0.424-0.938-0.938v-2.418
				h11.451v2.418C111.745-29.943,111.321-29.525,110.807-29.525z"/>
			<path fill="#0033FF" d="M106.011-32.304c-0.576,0-1.045,0.469-1.045,1.045s0.469,1.045,1.045,1.045s1.045-0.469,1.045-1.045
				C107.056-31.835,106.587-32.304,106.011-32.304z M106.011-30.779c-0.266,0-0.48-0.215-0.48-0.48s0.215-0.48,0.48-0.48
				c0.266,0,0.48,0.215,0.48,0.48S106.276-30.779,106.011-30.779z"/>
		</g>
	</g>
	<g>
		<g>
			<circle fill="#0033FF" cx="104.237" cy="-35.558" r="0.565"/>
			<circle fill="#0033FF" cx="106.073" cy="-35.558" r="0.565"/>
			<circle fill="#0033FF" cx="107.909" cy="-35.558" r="0.565"/>
			<path fill="#0033FF" d="M112.536-43.863l-2.553-2.294c-0.006-0.006-0.011-0.006-0.011-0.011
				c-0.006-0.006-0.017-0.011-0.023-0.017c-0.006-0.006-0.017-0.011-0.023-0.011c-0.006-0.006-0.017-0.006-0.023-0.011
				c-0.011-0.006-0.017-0.006-0.028-0.011c-0.011,0-0.017-0.006-0.028-0.006s-0.017,0-0.028-0.006c-0.011,0-0.017,0-0.028,0
				s-0.017,0-0.028,0s-0.017,0-0.028,0.006c-0.011,0-0.017,0.006-0.028,0.006s-0.017,0.006-0.028,0.011s-0.017,0.006-0.023,0.011
				c-0.006,0.006-0.017,0.011-0.023,0.011c-0.006,0.006-0.017,0.011-0.023,0.017c-0.006,0.006-0.011,0.006-0.011,0.011l-3.519,3.288
				l-1.644-1.774c-0.006-0.006-0.006-0.006-0.011-0.011c-0.006-0.006-0.017-0.011-0.023-0.017s-0.017-0.011-0.023-0.017
				c-0.006-0.006-0.017-0.011-0.023-0.011c-0.006-0.006-0.017-0.006-0.023-0.011c-0.011-0.006-0.017-0.006-0.028-0.011
				c-0.011,0-0.017-0.006-0.028-0.006s-0.017,0-0.028-0.006c-0.011,0-0.017,0-0.028,0s-0.017,0-0.028,0s-0.017,0-0.028,0.006
				c-0.011,0-0.017,0.006-0.028,0.006s-0.017,0.006-0.028,0.011c-0.006,0.006-0.017,0.006-0.023,0.011
				c-0.011,0.006-0.017,0.011-0.023,0.017c-0.006,0-0.006,0.006-0.011,0.006l-4.44,3.327c-0.124,0.096-0.153,0.271-0.056,0.395
				c0.056,0.073,0.141,0.113,0.226,0.113c0.056,0,0.119-0.017,0.169-0.056l4.254-3.169l1.667,1.791l0,0l0,0
				c0.006,0.006,0.017,0.011,0.023,0.023c0.006,0.006,0.017,0.011,0.023,0.017c0.011,0.006,0.023,0.011,0.028,0.017
				c0.006,0.006,0.011,0.006,0.023,0.011c0.011,0.006,0.028,0.011,0.04,0.011c0.006,0,0.011,0.006,0.017,0.006
				c0.017,0.006,0.04,0.006,0.056,0.006c0.017,0,0.034,0,0.051-0.006c0.006,0,0.011,0,0.011-0.006
				c0.011-0.006,0.023-0.006,0.034-0.011c0.006,0,0.011-0.006,0.017-0.006c0.011-0.006,0.023-0.011,0.034-0.017
				c0.006-0.006,0.011-0.006,0.011-0.011c0.011-0.006,0.023-0.011,0.028-0.023l0,0l0,0l3.536-3.305l2.361,2.118
				c0.056,0.051,0.119,0.073,0.186,0.073c0.079,0,0.153-0.034,0.209-0.096C112.666-43.58,112.654-43.761,112.536-43.863z"/>
		</g>
	</g>
</g>
</svg>
