<?xml version="1.0" encoding="UTF-8" standalone="no"?>
<svg width="48px" height="48px" viewBox="0 0 48 48" version="1.1" xmlns="http://www.w3.org/2000/svg" xmlns:xlink="http://www.w3.org/1999/xlink">
    <!-- Generator: Sketch 41.1 (35376) - http://www.bohemiancoding.com/sketch -->
    <title>48 copy 2</title>
    <desc>Created with Sketch.</desc>
    <defs></defs>
    <g id="Page-1" stroke="none" stroke-width="1" fill="none" fill-rule="evenodd">
        <g id="48-copy-2">
            <path d="M24.248,2 C36.535,2 46.496,11.961 46.496,24.248 C46.496,36.535 36.535,46.496 24.248,46.496 C11.961,46.496 2,36.535 2,24.248 C2,11.961 11.961,2 24.248,2 Z" id="Page-1" fill="#0033FF"></path>
            <path d="M37.5644768,14.0322486 L11.4355232,14.0322486 C10.3680793,14.0322486 9.5,14.9004295 9.5,15.9678734 L9.5,31.4517542 C9.5,32.5191981 10.3680793,33.3872774 11.4355232,33.3872774 L37.5644768,33.3872774 C38.6319207,33.3872774 39.5,32.5191981 39.5,31.4517542 L39.5,15.9678734 C39.5,14.9004295 38.6319207,14.0322486 37.5644768,14.0322486 L37.5644768,14.0322486 L37.5644768,14.0322486 Z M24.9837792,15.0000102 L37.5644768,15.0000102 C38.0982495,15.0000102 38.5322384,15.433999 38.5322384,15.9677718 L38.5322384,26.2180783 C38.3803271,26.1639186 38.2186609,26.1290654 38.0483576,26.1290654 L37.5644768,26.1290654 L37.5644768,19.154455 L34.3776919,15.9676702 L25.9515408,15.9676702 L25.9515408,26.1289638 L24.9837792,26.1289638 L24.9837792,15.0000102 L24.9837792,15.0000102 L24.9837792,15.0000102 Z M26.919404,29.0322486 L36.5968168,29.0322486 L36.5968168,30.483891 L26.919404,30.483891 L26.919404,29.0322486 L26.919404,29.0322486 L26.919404,29.0322486 Z M26.4355232,28.0645886 L26.4355232,27.096827 L30.306468,27.096827 L30.306468,28.0645886 L26.4355232,28.0645886 L26.4355232,28.0645886 L26.4355232,28.0645886 Z M26.919404,26.129167 L26.919404,16.9355334 L33.6936336,16.9355334 L33.6936336,19.8387166 L36.5968168,19.8387166 L36.5968168,19.8388182 L36.5968168,26.129167 L26.919404,26.129167 L26.919404,26.129167 L26.919404,26.129167 Z M34.6612936,18.8710566 L34.6612936,17.6196933 L35.9125553,18.8710566 L34.6612936,18.8710566 L34.6612936,18.8710566 L34.6612936,18.8710566 Z M24.0162208,30.4837893 L12.4031832,30.4837893 L12.4031832,24.9009714 L13.1420109,27.7340417 C13.3133303,28.3887338 13.9093917,28.826584 14.5593081,28.826584 C14.6754517,28.826584 14.7935259,28.8125614 14.9110921,28.782992 L20.7751746,27.316819 C21.1511425,27.2229286 21.4675652,26.9872882 21.6655072,26.6533881 C21.8634491,26.319488 21.9185234,25.9289895 21.8208733,25.5545458 L19.5722807,16.9355334 L24.0161192,16.9355334 L24.0161192,26.6768607 L23.3856109,27.096827 L22.0806976,27.096827 L22.0806976,28.0645886 L23.3857125,28.0645886 L24.0162208,28.4845548 L24.0162208,30.4837893 L24.0162208,30.4837893 L24.0162208,30.4837893 Z M18.7772611,17.7223223 L20.371568,23.8350517 L13.5688868,25.535849 L11.9745798,19.4231197 L18.7772611,17.7223223 L18.7772611,17.7223223 L18.7772611,17.7223223 Z M11.7302007,18.4867564 L11.6643555,18.2337402 C11.6324491,18.1107886 11.650333,17.9821466 11.715162,17.8728111 C11.7804991,17.7624594 11.8845508,17.6850304 12.0079089,17.6545465 L15.5261552,16.7748833 L17.8729059,16.1878654 C17.9106043,16.1787202 17.9489124,16.1738428 17.9866108,16.1738428 C18.2057899,16.1738428 18.4128771,16.3243316 18.4699835,16.5425961 L18.53339,16.7859591 L11.7302007,18.4867564 L11.7302007,18.4867564 L11.7302007,18.4867564 Z M18.1763222,25.3813974 L20.6164552,24.7712117 L20.8840021,25.7985185 C20.9159085,25.9214701 20.8980246,26.0501121 20.8331956,26.1594476 C20.7678585,26.2697993 20.6638068,26.3472283 20.5404487,26.3777122 L18.5841965,26.8668769 C18.6528868,26.7154736 18.693532,26.5480155 18.693532,26.3709042 C18.693532,25.9615056 18.4878674,25.6006781 18.1763222,25.3813974 L18.1763222,25.3813974 L18.1763222,25.3813974 Z M17.7257704,26.3710058 C17.7257704,26.5045252 17.617451,26.6129462 17.48383,26.6129462 C17.3503106,26.6129462 17.2418896,26.5045252 17.2418896,26.3710058 C17.2418896,26.2374864 17.3503106,26.1290654 17.48383,26.1290654 C17.6173494,26.1289638 17.7257704,26.2373848 17.7257704,26.3710058 L17.7257704,26.3710058 L17.7257704,26.3710058 Z M16.7498798,27.3257609 L14.6764678,27.8439869 C14.4185742,27.9079014 14.1456418,27.7457272 14.0788821,27.4897642 L13.8132659,26.4726187 L16.4116103,25.823312 C16.3269667,25.9883314 16.2742296,26.1726573 16.2742296,26.3710058 C16.2742296,26.7610978 16.4629248,27.1045495 16.7498798,27.3257609 L16.7498798,27.3257609 L16.7498798,27.3257609 Z M24.0162208,15.9678734 L19.2693725,15.9678734 C18.9573192,15.4007716 18.2933803,15.0857715 17.6372655,15.2493683 L14.763042,15.9678734 L12.4031832,15.9678734 C11.8999959,15.9678734 11.4896829,16.3554251 11.4441603,16.8470285 C11.2143118,16.9694721 11.0188086,17.1485141 10.8823424,17.378769 C10.6844004,17.7126691 10.6293262,18.1031676 10.7269762,18.4776113 L11.43532,21.1911847 L11.43532,30.483891 C11.43532,31.0175621 11.8693088,31.4516526 12.4030816,31.4516526 L24.0160176,31.4516526 L24.0160176,32.4194142 L11.4355232,32.4194142 C10.9017505,32.4194142 10.4677616,31.9854253 10.4677616,31.4517542 L10.4677616,15.9678734 C10.4677616,15.4342022 10.9017505,15.0001118 11.4355232,15.0001118 L24.0162208,15.0001118 L24.0162208,15.9678734 L24.0162208,15.9678734 L24.0162208,15.9678734 Z M25.1305083,27.096827 L25.4677616,27.096827 L25.4677616,28.0645886 L25.1305083,28.0645886 L24.4046871,27.5807078 L25.1305083,27.096827 L25.1305083,27.096827 L25.1305083,27.096827 Z M38.5322384,31.4516526 C38.5322384,31.9853237 38.0982495,32.4193126 37.5644768,32.4193126 L24.9837792,32.4193126 L24.9837792,31.451551 L24.9837792,29.0322486 L25.9515408,29.0322486 L25.9515408,31.4516526 L37.5644768,31.4516526 L37.5644768,29.0322486 L38.0483576,29.0322486 C38.2186609,29.0322486 38.3803271,28.9973953 38.5322384,28.9432356 L38.5322384,31.4516526 L38.5322384,31.4516526 L38.5322384,31.4516526 Z M38.0484592,28.064487 L31.2742296,28.064487 L31.2742296,27.0967254 L38.0484592,27.0967254 C38.3150916,27.0967254 38.53234,27.3139738 38.53234,27.5806062 C38.53234,27.8472385 38.3150916,28.064487 38.0484592,28.064487 L38.0484592,28.064487 L38.0484592,28.064487 Z" id="graphic-design-2" fill="#FFFFFF"></path>
        </g>
    </g>
</svg>