<?xml version="1.0" encoding="UTF-8" standalone="no"?>
<svg width="48px" height="48px" viewBox="0 0 48 48" version="1.1" xmlns="http://www.w3.org/2000/svg" xmlns:xlink="http://www.w3.org/1999/xlink">
    <!-- Generator: Sketch 41.1 (35376) - http://www.bohemiancoding.com/sketch -->
    <title>48 copy 3</title>
    <desc>Created with Sketch.</desc>
    <defs></defs>
    <g id="Page-1" stroke="none" stroke-width="1" fill="none" fill-rule="evenodd">
        <g id="48-copy-3">
            <path d="M24.248,2 C36.535,2 46.496,11.961 46.496,24.248 C46.496,36.535 36.535,46.496 24.248,46.496 C11.961,46.496 2,36.535 2,24.248 C2,11.961 11.961,2 24.248,2 Z" id="Page-1" fill="#0033FF"></path>
            <path d="M37.6190935,12.6726737 L37.6190935,10 L34.9463263,10 L34.9463263,10.8909536 L26.0369775,10.8909536 L26.0369775,10 L23.3642103,10 L23.3642103,12.6727672 L26.0369775,12.6727672 L26.0369775,11.7818136 L27.5431044,11.7818136 C26.1002161,12.7400284 25.1460239,14.3784326 25.1460239,16.236488 L12.6728608,16.236488 C11.9360747,16.236488 11.3364304,16.8361324 11.3364304,17.5729184 L11.3364304,23.1527912 C10.9306181,22.8106853 10.5902895,22.8939432 10.4593219,22.9505399 C10.3212447,23.0102237 10,23.2134105 10,23.8095 L10,36.2825696 C10,37.0193557 10.5996443,37.619 11.3364304,37.619 L24.7004536,37.619 C25.2835399,37.619 25.4849493,37.3303101 25.5535201,37.1583684 C25.6217168,36.985959 25.6728877,36.638053 25.247898,36.2385084 L24.8215986,35.8371864 L36.2825696,35.8371864 C37.0193557,35.8371864 37.619,35.237542 37.619,34.500756 L37.619,17.5729184 C37.619,16.8361324 37.0193557,16.236488 36.2825696,16.236488 L35.8370928,16.236488 C35.8370928,14.3784326 34.8829006,12.7400284 33.4400123,11.7818136 L34.9461392,11.7818136 L34.9461392,12.6727672 L37.6190935,12.6727672 L37.6190935,12.6726737 L37.6190935,12.6726737 Z M35.8371864,10.89086 L36.72814,10.89086 L36.72814,11.7818136 L35.8371864,11.7818136 L35.8371864,10.89086 L35.8371864,10.89086 Z M25.1460239,11.7818136 L24.2550703,11.7818136 L24.2550703,10.89086 L25.1460239,10.89086 L25.1460239,11.7818136 L25.1460239,11.7818136 Z M13.5638144,18.9092553 C13.8098444,18.9092553 14.0092912,18.7098085 14.0092912,18.4637785 C14.0092912,18.2177484 13.8098444,18.0183017 13.5638144,18.0183017 C13.3177843,18.0183017 13.1183376,18.2177484 13.1183376,18.4637785 C13.1183376,18.7098085 13.3177843,18.9092553 13.5638144,18.9092553 L13.5638144,18.9092553 Z M15.3457215,18.9092553 C15.5917516,18.9092553 15.7911983,18.7098085 15.7911983,18.4637785 C15.7911983,18.2177484 15.5917516,18.0183017 15.3457215,18.0183017 C15.0996915,18.0183017 14.9002447,18.2177484 14.9002447,18.4637785 C14.9002447,18.7098085 15.0996915,18.9092553 15.3457215,18.9092553 L15.3457215,18.9092553 Z M17.1275352,18.9092553 C17.3735652,18.9092553 17.573012,18.7098085 17.573012,18.4637785 C17.573012,18.2177484 17.3735652,18.0183017 17.1275352,18.0183017 C16.8815051,18.0183017 16.6820584,18.2177484 16.6820584,18.4637785 C16.6820584,18.7098085 16.8815051,18.9092553 17.1275352,18.9092553 L17.1275352,18.9092553 Z M12.2274775,17.5727313 C12.2274775,17.3274478 12.4274837,17.1273481 12.6728608,17.1273481 L25.2221722,17.1273481 C25.22264,17.1309029 25.2275045,17.1318384 25.2302174,17.13399 C25.3999139,18.1367338 25.8503488,19.0552841 26.521651,19.8001153 L12.2274775,19.8001153 L12.2274775,17.5727313 L12.2274775,17.5727313 L12.2274775,17.5727313 Z M13.1183376,34.5006624 L18.8519102,34.5006624 L13.1183376,29.1042377 L13.1183376,34.5006624 L13.1183376,34.5006624 L13.1183376,34.5006624 Z M14.0092912,31.1663219 L16.6054424,33.6097088 L14.0092912,33.6097088 L14.0092912,31.1663219 L14.0092912,31.1663219 Z M11.3365239,36.7279529 C11.0910533,36.7280464 10.8910471,36.528508 10.8910471,36.2825696 L10.8910471,35.8370928 L11.7820007,35.8370928 L11.7820007,34.9461392 L10.8910471,34.9461392 L10.8910471,34.0551856 L11.7820007,34.0551856 L11.7820007,33.1642321 L10.8910471,33.1642321 L10.8910471,32.2732785 L11.7820007,32.2732785 L11.7820007,31.3823249 L10.8910471,31.3823249 L10.8910471,30.4913713 L11.7820007,30.4913713 L11.7820007,29.6004177 L10.8910471,29.6004177 L10.8910471,28.7096512 L11.7820007,28.7096512 L11.7820007,27.8186976 L10.8910471,27.8186976 L10.8910471,26.927744 L11.7820007,26.927744 L11.7820007,26.0367904 L10.8910471,26.0367904 L10.8910471,23.9493546 L15.5515277,28.3358324 L16.8955355,29.6005112 L24.4684539,36.7279529 L11.3365239,36.7279529 L11.3365239,36.7279529 Z M14.0092912,25.66082 L14.0092912,22.4730696 L23.8095935,22.4730696 L23.8095935,28.7095576 L17.2487737,28.7095576 L14.0092912,25.66082 L14.0092912,25.66082 Z M36.7280464,34.5011302 C36.72814,34.7465073 36.5281338,34.9461392 36.2826632,34.9461392 L23.8750773,34.9461392 L18.1953885,29.6005112 L24.7005471,29.6005112 L24.7005471,21.582116 L13.1183376,21.582116 L13.1183376,24.8219728 L12.227384,23.9835933 L12.227384,20.6911624 L27.5630302,20.6911624 C27.6490011,20.7472914 27.7291719,20.8100623 27.8186976,20.8617945 L27.8186976,21.3647099 C27.5501206,21.5682709 27.3732208,21.8876446 27.3732208,22.2498635 C27.3732208,22.5015083 27.4601271,22.7314499 27.6017592,22.9180787 C27.4601271,23.1051752 27.3732208,23.3350232 27.3732208,23.5867616 C27.3732208,24.2006253 27.8730491,24.7004536 28.4869128,24.7004536 L32.4961104,24.7004536 C33.1099741,24.7004536 33.6098024,24.2006253 33.6098024,23.5867616 C33.6098024,23.3351168 33.5228961,23.1051752 33.381264,22.9185464 C33.5228961,22.7319176 33.6098024,22.5020696 33.6098024,22.2503312 C33.6098024,21.8882059 33.4329962,21.5687386 33.1643256,21.3651776 L33.1643256,20.8622622 C33.2538513,20.8106236 33.3340221,20.7477591 33.419993,20.6916302 L36.7280464,20.6916302 L36.7280464,34.5011302 L36.7280464,34.5011302 Z M28.4870063,23.3639297 L32.496204,23.3639297 C32.6191264,23.3639297 32.7189424,23.4637456 32.7189424,23.5866681 C32.7189424,23.7095905 32.6191264,23.8094065 32.496204,23.8094065 L28.4870063,23.8094065 C28.3640839,23.8094065 28.2642679,23.7095905 28.2642679,23.5866681 C28.2642679,23.4638392 28.3640839,23.3639297 28.4870063,23.3639297 L28.4870063,23.3639297 Z M28.2642679,22.2502377 C28.2642679,22.1273153 28.3640839,22.0274993 28.4870063,22.0274993 L32.496204,22.0274993 C32.6191264,22.0274993 32.7189424,22.1273153 32.7189424,22.2502377 C32.7189424,22.3731601 32.6191264,22.4729761 32.496204,22.4729761 L28.4870063,22.4729761 C28.3640839,22.4730696 28.2642679,22.3731601 28.2642679,22.2502377 L28.2642679,22.2502377 Z M35.7610381,17.1274416 L36.2826632,17.1274416 C36.5281338,17.1274416 36.72814,17.3274478 36.72814,17.5729184 L36.72814,19.8003024 L34.4611851,19.8003024 C35.1187358,19.0710937 35.5628093,18.1748079 35.740551,17.196106 C35.7485962,17.175619 35.7566413,17.1541964 35.7610381,17.1274416 L35.7610381,17.1274416 Z M34.9463263,16.236488 C34.9463263,17.9145566 34.0153341,19.4335932 32.5158491,20.2006889 L32.2735591,20.3250146 L32.2735591,21.1366392 L30.9371287,21.1366392 L30.9371287,17.955063 C31.7032889,17.7558988 32.2735591,17.0641095 32.2735591,16.236488 C32.2735591,15.2537636 31.4743764,14.4545809 30.4916519,14.4545809 C29.5089275,14.4545809 28.7097447,15.2537636 28.7097447,16.236488 C28.7097447,17.064203 29.2799214,17.7559924 30.0461751,17.955063 L30.0461751,21.1366392 L28.7097447,21.1366392 L28.7097447,20.3250146 L28.4674548,20.2006889 C26.9679698,19.4335932 26.0369775,17.9145566 26.0369775,16.236488 C26.0369775,13.7801915 28.0353554,11.7818136 30.4916519,11.7818136 C32.9479485,11.7818136 34.9463263,13.7801915 34.9463263,16.236488 L34.9463263,16.236488 Z M30.4916519,17.1274416 C30.0003365,17.1274416 29.6006983,16.727897 29.6006983,16.236488 C29.6006983,15.7451726 30.0002429,15.3455344 30.4916519,15.3455344 C30.9830609,15.3455344 31.3826055,15.745079 31.3826055,16.236488 C31.382512,16.727897 30.9829674,17.1274416 30.4916519,17.1274416 L30.4916519,17.1274416 Z M25.5915007,26.036884 L35.8372799,26.036884 L35.8372799,26.9278376 L25.5915007,26.9278376 L25.5915007,26.036884 L25.5915007,26.036884 Z M25.5915007,27.8186976 L35.8372799,27.8186976 L35.8372799,28.7096512 L25.5915007,28.7096512 L25.5915007,27.8186976 L25.5915007,27.8186976 Z M25.5915007,29.6005112 L35.8372799,29.6005112 L35.8372799,30.4914648 L25.5915007,30.4914648 L25.5915007,29.6005112 L25.5915007,29.6005112 Z M25.5915007,31.3823249 L35.8372799,31.3823249 L35.8372799,32.2732785 L25.5915007,32.2732785 L25.5915007,31.3823249 L25.5915007,31.3823249 Z" id="graphic-design-3" fill="#FFFFFF"></path>
        </g>
    </g>
</svg>