<?xml version="1.0" encoding="UTF-8" standalone="no"?>
<svg width="48px" height="48px" viewBox="0 0 48 48" version="1.1" xmlns="http://www.w3.org/2000/svg" xmlns:xlink="http://www.w3.org/1999/xlink">
    <!-- Generator: Sketch 41.1 (35376) - http://www.bohemiancoding.com/sketch -->
    <title>48 copy</title>
    <desc>Created with Sketch.</desc>
    <defs></defs>
    <g id="Page-1" stroke="none" stroke-width="1" fill="none" fill-rule="evenodd">
        <g id="48-copy">
            <path d="M24.248,2 C36.535,2 46.496,11.961 46.496,24.248 C46.496,36.535 36.535,46.496 24.248,46.496 C11.961,46.496 2,36.535 2,24.248 C2,11.961 11.961,2 24.248,2 Z" id="Page-1" fill="#0033FF"></path>
            <path d="M37.5644768,12.7016424 L11.4355232,12.7016424 C10.3680793,12.7016424 9.5,13.5697217 9.5,14.6371656 L9.5,32.0565696 C9.5,33.1240135 10.3680793,33.9920928 11.4355232,33.9920928 L20.1451744,33.9920928 L20.1451744,36.4114968 L16.7581104,36.4114968 L16.7581104,37.3792584 L20.1451744,37.3792584 L28.8548256,37.3792584 L32.2418896,37.3792584 L32.2418896,36.4114968 L28.8548256,36.4114968 L28.8548256,33.9920928 L37.5644768,33.9920928 C38.6319207,33.9920928 39.5,33.1240135 39.5,32.0565696 L39.5,14.6371656 C39.5,13.5697217 38.6319207,12.7016424 37.5644768,12.7016424 L37.5644768,12.7016424 L37.5644768,12.7016424 Z M27.887064,36.4113952 L21.1128344,36.4113952 L21.1128344,33.9919912 L27.887064,33.9919912 L27.887064,36.4113952 L27.887064,36.4113952 L27.887064,36.4113952 Z M38.5322384,32.0565696 C38.5322384,32.5902408 38.0982495,33.0243312 37.5644768,33.0243312 L28.8548256,33.0243312 L20.1451744,33.0243312 L11.4355232,33.0243312 C10.9018521,33.0243312 10.4677616,32.5903424 10.4677616,32.0565696 L10.4677616,14.6371656 C10.4677616,14.1034945 10.9017505,13.669404 11.4355232,13.669404 L37.5644768,13.669404 C38.0981479,13.669404 38.5322384,14.1033929 38.5322384,14.6371656 L38.5322384,32.0565696 L38.5322384,32.0565696 Z M11.4355232,32.0565696 L37.5644768,32.0565696 L37.5644768,14.6371656 L11.4355232,14.6371656 L11.4355232,32.0565696 L11.4355232,32.0565696 Z M12.4031832,15.6050288 L36.5967152,15.6050288 L36.5967152,31.0889096 L12.4031832,31.0889096 L12.4031832,15.6050288 L12.4031832,15.6050288 Z M13.8548256,17.540552 C14.1220656,17.540552 14.3387064,17.3239112 14.3387064,17.0566712 C14.3387064,16.7894312 14.1220656,16.5727904 13.8548256,16.5727904 C13.5875856,16.5727904 13.3709448,16.7894312 13.3709448,17.0566712 C13.3709448,17.3239112 13.5875856,17.540552 13.8548256,17.540552 L13.8548256,17.540552 Z M15.306468,17.540552 C15.573708,17.540552 15.7903488,17.3239112 15.7903488,17.0566712 C15.7903488,16.7894312 15.573708,16.5727904 15.306468,16.5727904 C15.039228,16.5727904 14.8225872,16.7894312 14.8225872,17.0566712 C14.8225872,17.3239112 15.039228,17.540552 15.306468,17.540552 L15.306468,17.540552 Z M16.7581104,17.540552 C17.0253504,17.540552 17.2419912,17.3239112 17.2419912,17.0566712 C17.2419912,16.7894312 17.0253504,16.5727904 16.7581104,16.5727904 C16.4908704,16.5727904 16.2742296,16.7894312 16.2742296,17.0566712 C16.2742296,17.3239112 16.4908704,17.540552 16.7581104,17.540552 L16.7581104,17.540552 Z M13.3709448,24.31468 L20.1451744,24.31468 L20.1451744,18.508212 L13.3709448,18.508212 L13.3709448,24.31468 L13.3709448,24.31468 Z M14.3387064,19.475872 L19.1774128,19.475872 L19.1774128,23.3468168 L14.3387064,23.3468168 L14.3387064,19.475872 L14.3387064,19.475872 Z M21.112936,24.31468 L27.8871656,24.31468 L27.8871656,18.508212 L21.112936,18.508212 L21.112936,24.31468 L21.112936,24.31468 Z M22.0806976,19.475872 L26.919404,19.475872 L26.919404,23.3468168 L22.0806976,23.3468168 L22.0806976,19.475872 L22.0806976,19.475872 Z M28.8548256,24.31468 L35.6290552,24.31468 L35.6290552,18.508212 L28.8548256,18.508212 L28.8548256,24.31468 L28.8548256,24.31468 L28.8548256,24.31468 Z M29.8225872,19.475872 L34.6612936,19.475872 L34.6612936,23.3468168 L29.8225872,23.3468168 L29.8225872,19.475872 L29.8225872,19.475872 Z M13.3709448,25.28234 L27.887064,25.28234 L27.887064,26.2501016 L13.3709448,26.2501016 L13.3709448,25.28234 L13.3709448,25.28234 Z M13.3709448,27.2178632 L27.887064,27.2178632 L27.887064,28.1856248 L13.3709448,28.1856248 L13.3709448,27.2178632 L13.3709448,27.2178632 Z M13.3709448,29.1532848 L27.887064,29.1532848 L27.887064,30.1210464 L13.3709448,30.1210464 L13.3709448,29.1532848 L13.3709448,29.1532848 Z M29.3387064,25.28234 L35.6290552,25.28234 L35.6290552,26.2501016 L29.3387064,26.2501016 L29.3387064,25.28234 L29.3387064,25.28234 Z M29.3387064,27.2178632 L35.6290552,27.2178632 L35.6290552,28.1856248 L29.3387064,28.1856248 L29.3387064,27.2178632 L29.3387064,27.2178632 Z M29.3387064,29.1532848 L35.6290552,29.1532848 L35.6290552,30.1210464 L29.3387064,30.1210464 L29.3387064,29.1532848 L29.3387064,29.1532848 Z" id="web-design" fill="#FFFFFF"></path>
        </g>
    </g>
</svg>