<?xml version="1.0" encoding="UTF-8" standalone="no"?>
<svg width="45px" height="45px" viewBox="0 0 45 45" version="1.1" xmlns="http://www.w3.org/2000/svg" xmlns:xlink="http://www.w3.org/1999/xlink">
    <!-- Generator: Sketch 41.1 (35376) - http://www.bohemiancoding.com/sketch -->
    <title>Page 1</title>
    <desc>Created with Sketch.</desc>
    <defs></defs>
    <g id="Page-1" stroke="none" stroke-width="1" fill="none" fill-rule="evenodd">
        <g id="48" transform="translate(-2.000000, -2.000000)">
            <path d="M24.248,2 C36.535,2 46.496,11.961 46.496,24.248 C46.496,36.535 36.535,46.496 24.248,46.496 C11.961,46.496 2,36.535 2,24.248 C2,11.961 11.961,2 24.248,2 Z" id="Page-1" fill="#0033FF"></path>
            <path d="M38,8.00970403 L35.0153647,10.2437867 L32.0138013,17.2420077 L29.6000863,17.2420077 L28.6523263,15.1882042 L29.271551,15.1882042 C30.4042266,15.1882042 31.3253545,14.2768882 31.3253545,13.1442126 L31.3253545,11.0805973 L32.3522562,11.0805973 L32.3522562,8 L29.271551,8 L29.271551,11.0805973 L30.2984527,11.0805973 L30.2984527,13.1442126 C30.2984527,13.7100652 29.8379427,14.1613025 29.271551,14.1613025 L28.1784463,14.1613025 L26.8660305,11.322012 L28.4381907,10.5384657 L23.29042,8.33371071 L22.08022,12.5690873 C22.0473341,10.0491671 19.9899725,8.00927274 17.4622891,8.00927274 C14.9141194,8.00927274 12.8413392,10.0820529 12.8413392,12.6302227 C12.8413392,14.1700361 13.6212195,15.6143188 14.8951426,16.4681654 L14.8951426,17.2418998 L13.6516254,17.2418998 L13.5715133,17.6629468 C13.322012,18.9573562 13.2988301,20.2876705 13.5027225,21.6144267 L10,27.8578899 L13.8682409,28.7414955 L13.8682409,35.2123565 L19.0026417,35.2123565 L19.0026417,39.8333064 L31.3252466,39.8333064 L31.3252466,32.6785271 C34.9192948,30.1359642 36.9720201,26.047981 36.969001,21.6867756 L36.9700792,19.8137905 C36.9700792,19.1077686 36.9048466,18.3823387 36.773411,17.6675832 L36.6973961,17.2418998 L35.6894711,17.2418998 L38,11.7065071 L38,8.00970403 L38,8.00970403 L38,8.00970403 Z M30.2983449,10.0635075 L30.2983449,9.03660575 L31.3252466,9.03660575 L31.3252466,10.0635075 L30.2983449,10.0635075 L30.2983449,10.0635075 L30.2983449,10.0635075 Z M28.469028,17.2418998 L26.5215375,17.2418998 L25.588118,15.1880964 L27.521268,15.1880964 L28.469028,17.2418998 L28.469028,17.2418998 L28.469028,17.2418998 Z M23.956871,9.73799127 L25.9978435,10.6124319 L25.5162003,10.8485633 L27.0472802,14.1613025 L25.1213543,14.1613025 L23.8700739,11.414955 L23.4105343,11.6469891 L23.956871,9.73799127 L23.956871,9.73799127 L23.956871,9.73799127 Z M25.3934983,17.2420077 L23.1102485,17.2420077 L23.1102485,16.2249178 C23.1102485,15.6586339 23.5707585,15.188312 24.1371503,15.188312 L24.4600787,15.188312 L24.4600787,15.1882042 L25.3934983,17.2420077 L25.3934983,17.2420077 L25.3934983,17.2420077 Z M23.3772171,12.8144913 L24,14.1849156 C22.9320179,14.2568333 22.0833468,15.1389293 22.0833468,16.22481 L22.0833468,17.2418998 L20.0295434,17.2418998 L20.0295434,16.4681654 C21.0569842,15.7796108 21.7541646,14.7050515 21.9893256,13.5082215 L23.3772171,12.8144913 L23.3772171,12.8144913 L23.3772171,12.8144913 Z M13.8683487,12.6307618 C13.8683487,10.6494151 15.4810502,9.03671357 17.4623969,9.03671357 C19.4437436,9.03671357 21.0564451,10.6494151 21.0564451,12.6307618 C21.0564451,13.9061944 20.3674592,15.0978489 19.2589358,15.7401477 L19.0027495,15.8879724 L19.0027495,17.2418998 L17.9758478,17.2418998 L17.9758478,14.0760149 C18.5719985,13.8634967 19.0027495,13.2986145 19.0027495,12.6301148 C19.0027495,11.7809046 18.3116071,11.0897623 17.4623969,11.0897623 C16.6131867,11.0897623 15.9220443,11.7810125 15.9220443,12.6302227 C15.9220443,13.2987223 16.3527953,13.8634967 16.948946,14.0761227 L16.948946,17.2420077 L15.9220443,17.2420077 L15.9220443,15.8879724 L15.665858,15.7396086 C14.5573346,15.0973098 13.8683487,13.9060866 13.8683487,12.6307618 L13.8683487,12.6307618 L13.8683487,12.6307618 Z M17.4623969,13.1442126 C17.1789315,13.1442126 16.948946,12.9135802 16.948946,12.6307618 C16.948946,12.3472964 17.1789315,12.1173109 17.4623969,12.1173109 C17.7458623,12.1173109 17.9758478,12.3472964 17.9758478,12.6307618 C17.9758478,12.9142272 17.7458623,13.1442126 17.4623969,13.1442126 L17.4623969,13.1442126 L17.4623969,13.1442126 Z M35.8331986,18.2689094 C35.9077039,18.7822524 35.9452262,19.3029274 35.9452262,19.8091541 L35.9463044,21.6858052 C35.9494312,25.7990188 33.91978,29.6507628 30.5243409,31.988463 L30.2984527,32.1425414 L30.2984527,38.8065125 L20.0296512,38.8065125 L20.0296512,34.1855626 L14.8951426,34.1855626 L14.8951426,27.9225834 L11.5675239,27.1631894 L14.5731845,21.8044099 L14.5439646,21.6211117 C14.3530109,20.4977088 14.3422287,19.2957033 14.5080597,18.2689094 L14.8951426,18.2689094 L20.0295434,18.2689094 L35.8331986,18.2689094 L35.8331986,18.2689094 L35.8331986,18.2689094 Z M34.5768505,17.2418998 L33.1305192,17.2418998 L35.6900102,11.2746779 L36.8282926,11.8415009 L34.5768505,17.2418998 L34.5768505,17.2418998 L34.5768505,17.2418998 Z M36.9730983,10.7725484 L36.405197,10.4886517 L36.9730983,10.0635075 L36.9730983,10.7725484 L36.9730983,10.7725484 Z M18.4892986,21.3495067 C17.6400884,21.3495067 16.948946,20.8360559 16.948946,19.8091541 L15.9220443,19.8091541 C15.9220443,21.3495067 17.0736967,22.3764084 18.4892986,22.3764084 C19.9049005,22.3764084 21.0565529,21.3495067 21.0565529,19.8091541 L20.0296512,19.8091541 C20.0295434,20.8360559 19.3385088,21.3495067 18.4892986,21.3495067 L18.4892986,21.3495067 Z" id="idea-1" fill="#FFFFFF"></path>
        </g>
    </g>
</svg>