<?xml version="1.0" encoding="utf-8"?>
<!-- Generator: Adobe Illustrator 17.0.2, SVG Export Plug-In . SVG Version: 6.00 Build 0)  -->
<!DOCTYPE svg PUBLIC "-//W3C//DTD SVG 1.1//EN" "http://www.w3.org/Graphics/SVG/1.1/DTD/svg11.dtd">
<svg version="1.1" id="Calque_1" xmlns="http://www.w3.org/2000/svg" xmlns:xlink="http://www.w3.org/1999/xlink" x="0px" y="0px"
	 width="48px" height="48px" viewBox="0 0 48 48" enable-background="new 0 0 48 48" xml:space="preserve">
<circle fill="none" stroke="#FFFFFF" stroke-miterlimit="10" cx="24.38" cy="24" r="22.248"/>
<g>
	<g>
		<g>
			<path fill="#FFFFFF" d="M29.168,10.877h-9.575c-1.141,0-2.068,0.926-2.068,2.068v21.62c0,1.141,0.926,2.068,2.068,2.068h9.575
				c1.141,0,2.068-0.926,2.068-2.068V12.951C31.235,11.809,30.309,10.877,29.168,10.877z M19.592,12.007h9.575
				c0.52,0,0.938,0.424,0.938,0.938v0.83H18.649V12.95C18.649,12.431,19.073,12.007,19.592,12.007z M30.105,14.346v17.241H18.649
				V14.346H30.105z M29.168,35.508h-9.575c-0.52,0-0.938-0.424-0.938-0.938v-2.418h11.451v2.418
				C30.105,35.09,29.682,35.508,29.168,35.508z"/>
			<path fill="#FFFFFF" d="M24.371,32.729c-0.576,0-1.045,0.469-1.045,1.045s0.469,1.045,1.045,1.045s1.045-0.469,1.045-1.045
				S24.948,32.729,24.371,32.729z M24.371,34.254c-0.266,0-0.48-0.215-0.48-0.48s0.215-0.48,0.48-0.48s0.48,0.215,0.48,0.48
				S24.637,34.254,24.371,34.254z"/>
		</g>
	</g>
	<g>
		<g>
			<circle fill="#FFFFFF" cx="22.598" cy="29.475" r="0.565"/>
			<circle fill="#FFFFFF" cx="24.434" cy="29.475" r="0.565"/>
			<circle fill="#FFFFFF" cx="26.27" cy="29.475" r="0.565"/>
			<path fill="#FFFFFF" d="M30.896,21.17l-2.553-2.294c-0.006-0.006-0.011-0.006-0.011-0.011c-0.006-0.006-0.017-0.011-0.023-0.017
				s-0.017-0.011-0.023-0.011c-0.006-0.006-0.017-0.006-0.023-0.011c-0.011-0.006-0.017-0.006-0.028-0.011
				c-0.011,0-0.017-0.006-0.028-0.006s-0.017,0-0.028-0.006c-0.011,0-0.017,0-0.028,0s-0.017,0-0.028,0s-0.017,0-0.028,0.006
				c-0.011,0-0.017,0.006-0.028,0.006s-0.017,0.006-0.028,0.011s-0.017,0.006-0.023,0.011s-0.017,0.011-0.023,0.011
				c-0.006,0.006-0.017,0.011-0.023,0.017s-0.011,0.006-0.011,0.011l-3.519,3.288l-1.644-1.774
				c-0.006-0.006-0.006-0.006-0.011-0.011s-0.017-0.011-0.023-0.017s-0.017-0.011-0.023-0.017s-0.017-0.011-0.023-0.011
				c-0.006-0.006-0.017-0.006-0.023-0.011c-0.011-0.006-0.017-0.006-0.028-0.011c-0.011,0-0.017-0.006-0.028-0.006
				s-0.017,0-0.028-0.006c-0.011,0-0.017,0-0.028,0s-0.017,0-0.028,0s-0.017,0-0.028,0.006c-0.011,0-0.017,0.006-0.028,0.006
				s-0.017,0.006-0.028,0.011c-0.006,0.006-0.017,0.006-0.023,0.011c-0.011,0.006-0.017,0.011-0.023,0.017
				c-0.006,0-0.006,0.006-0.011,0.006l-4.44,3.327c-0.124,0.096-0.153,0.271-0.056,0.395c0.056,0.073,0.141,0.113,0.226,0.113
				c0.056,0,0.119-0.017,0.169-0.056l4.254-3.169l1.667,1.791l0,0l0,0c0.006,0.006,0.017,0.011,0.023,0.023
				c0.006,0.006,0.017,0.011,0.023,0.017c0.011,0.006,0.023,0.011,0.028,0.017s0.011,0.006,0.023,0.011
				c0.011,0.006,0.028,0.011,0.04,0.011c0.006,0,0.011,0.006,0.017,0.006c0.017,0.006,0.04,0.006,0.056,0.006
				c0.017,0,0.034,0,0.051-0.006c0.006,0,0.011,0,0.011-0.006c0.011-0.006,0.023-0.006,0.034-0.011c0.006,0,0.011-0.006,0.017-0.006
				c0.011-0.006,0.023-0.011,0.034-0.017c0.006-0.006,0.011-0.006,0.011-0.011c0.011-0.006,0.023-0.011,0.028-0.023l0,0l0,0
				l3.536-3.305l2.361,2.118c0.056,0.051,0.119,0.073,0.186,0.073c0.079,0,0.153-0.034,0.209-0.096
				C31.026,21.453,31.015,21.272,30.896,21.17z"/>
		</g>
	</g>
</g>
</svg>
