<?xml version="1.0" encoding="utf-8"?>
<!-- Generator: Adobe Illustrator 17.0.2, SVG Export Plug-In . SVG Version: 6.00 Build 0)  -->
<!DOCTYPE svg PUBLIC "-//W3C//DTD SVG 1.1//EN" "http://www.w3.org/Graphics/SVG/1.1/DTD/svg11.dtd">
<svg version="1.1" id="Calque_1" xmlns="http://www.w3.org/2000/svg" xmlns:xlink="http://www.w3.org/1999/xlink" x="0px" y="0px"
	 width="48px" height="48px" viewBox="0 0 48 48" enable-background="new 0 0 48 48" xml:space="preserve">
<path fill="none" d="M0,0h48v48H0V0z"/>
<circle fill="none" stroke="#000000" stroke-miterlimit="10" cx="24" cy="24" r="19.586"/>
<circle fill="none" stroke="#0033FF" stroke-miterlimit="10" cx="135.794" cy="24" r="22.248"/>
<circle fill="none" stroke="#0033FF" stroke-miterlimit="10" cx="81.118" cy="24" r="22.248"/>
<g>
	<path d="M36.318,36.292H11.682c-0.298,0-0.54-0.242-0.54-0.54V12.249c0-0.298,0.242-0.54,0.54-0.54h24.635
		c0.298,0,0.54,0.242,0.54,0.54v23.502C36.858,36.049,36.616,36.292,36.318,36.292z M12.162,35.272h23.677V12.728H12.162V35.272z"/>
	<path d="M32.919,28.588H14.855c-0.298,0-0.54-0.242-0.54-0.54V17.46c0-0.298,0.242-0.54,0.54-0.54h18.064
		c0.298,0,0.54,0.242,0.54,0.54v10.588C33.459,28.346,33.217,28.588,32.919,28.588z M15.334,27.569H32.44V17.94H15.334V27.569z"/>
	<path d="M33.062,13.42H17.344c-0.101,0-0.183-0.082-0.183-0.183s0.082-0.183,0.183-0.183h15.718c0.101,0,0.183,0.082,0.183,0.183
		S33.163,13.42,33.062,13.42z"/>
	<g>
		<circle cx="15.135" cy="13.124" r="0.34"/>
	</g>
	<g>
		<circle cx="16.211" cy="13.124" r="0.34"/>
	</g>
	<path d="M25.416,30.741H14.937c-0.281,0-0.51-0.228-0.51-0.51s0.228-0.51,0.51-0.51h10.479c0.281,0,0.51,0.228,0.51,0.51
		C25.925,30.513,25.697,30.741,25.416,30.741z"/>
	<path d="M25.416,32.893H14.937c-0.281,0-0.51-0.228-0.51-0.51c0-0.282,0.228-0.51,0.51-0.51h10.479c0.281,0,0.51,0.228,0.51,0.51
		C25.926,32.665,25.697,32.893,25.416,32.893z"/>
	<path d="M33.176,30.741h-4.871c-0.281,0-0.51-0.228-0.51-0.51s0.228-0.51,0.51-0.51h4.871c0.281,0,0.51,0.228,0.51,0.51
		C33.685,30.513,33.457,30.741,33.176,30.741z"/>
	<path d="M33.233,32.78h-4.928c-0.281,0-0.51-0.228-0.51-0.51s0.228-0.51,0.51-0.51h4.928c0.281,0,0.51,0.228,0.51,0.51
		C33.743,32.552,33.514,32.78,33.233,32.78z"/>
	<g>
		<circle cx="13.946" cy="13.096" r="0.34"/>
	</g>
	<path d="M36.291,14.455H11.567c-0.188,0-0.34-0.152-0.34-0.34s0.152-0.34,0.34-0.34h24.725c0.188,0,0.34,0.152,0.34,0.34
		C36.631,14.303,36.479,14.455,36.291,14.455z"/>
</g>
</svg>
