<?xml version="1.0" encoding="utf-8"?>
<!-- Generator: Adobe Illustrator 21.0.0, SVG Export Plug-In . SVG Version: 6.00 Build 0)  -->
<svg version="1.1" id="Calque_1" xmlns="http://www.w3.org/2000/svg" xmlns:xlink="http://www.w3.org/1999/xlink" x="0px" y="0px"
	 viewBox="0 0 20 20" style="enable-background:new 0 0 20 20;" xml:space="preserve">
<style type="text/css">
	.st0{fill:#00C9FF;}
</style>
<path class="st0" d="M1.5,19.5c-0.1,0-0.3,0-0.4-0.1c-0.4-0.2-0.6-0.5-0.6-0.9V1c0-0.6,0.4-1,1-1s1,0.4,1,1v15.1l2.7-2.7
	c0.4-0.4,1-0.4,1.4,0l4.4,4.4c0.4,0.4,0.4,1,0,1.4s-1,0.4-1.4,0l-3.7-3.7l-3.7,3.7C2,19.4,1.8,19.5,1.5,19.5z"/>
<path class="st0" d="M19,19.5c-0.6,0-1-0.4-1-1V3.4l-2.7,2.7c-0.4,0.4-1,0.4-1.4,0L9.5,1.7c-0.4-0.4-0.4-1,0-1.4s1-0.4,1.4,0L14.6,4
	l3.7-3.7C18.6,0,19-0.1,19.4,0.1S20,0.6,20,1v17.5C20,19.1,19.6,19.5,19,19.5z"/>
</svg>
