<?xml version="1.0" encoding="utf-8"?>
<!-- Generator: Adobe Illustrator 17.0.0, SVG Export Plug-In . SVG Version: 6.00 Build 0)  -->
<!DOCTYPE svg PUBLIC "-//W3C//DTD SVG 1.1//EN" "http://www.w3.org/Graphics/SVG/1.1/DTD/svg11.dtd">
<svg version="1.1" xmlns="http://www.w3.org/2000/svg" xmlns:xlink="http://www.w3.org/1999/xlink" x="0px" y="0px" width="1667px"
	 height="1667px" viewBox="0 0 1667 1667" enable-background="new 0 0 1667 1667" xml:space="preserve">
<g id="Calque_3">
	<rect fill="#FFFFFF" width="1667" height="1667"/>
</g>
<g id="Calque_1" display="none">
	<path display="inline" fill="#00B1FF" d="M585.23,994.46l-32.51,32.51l52.15,52.16l32.52-32.51L585.23,994.46z M1023.78,555.85
		l-86.31,86.37l53.88-53.88l52.16,52.15l32.51-32.51L1023.78,555.85z M1211.7,1009.51l-82.49-1.04L712.8,591.6L588.52,716.15
		l416.39,416.06l-2.07,79.73l45.03,38.48l2.65-106.38l63.76-5.63c10.58-0.95,19.13-9.02,20.68-19.53l9.53-64.34l103.4,1.27
		L1211.7,1009.51z M1092.1,1094.18l-55.72,4.94L621.19,683.46l59.05-59.05l419.33,419.33L1092.1,1094.18z M1218.94,1279.26
		l57.44-57.44l12.75,70.54l-41.24-236.55l19.07,110.86l-103.4,103.4l-115.69-19.65l241.26,41.94L1218.94,1279.26z"/>
	<polygon display="inline" fill="#9A69FF" points="712.75,591.55 712.8,591.6 588.52,716.15 588.33,715.97 548.45,756.31 
		515.93,723.7 721.02,518.6 753.36,550.94 	"/>
	<path display="inline" fill="#58627C" d="M1307.52,1012.27l-162.91-162.91l216.33-216.33l-239.65-239.66L904.96,609.7
		L727.57,432.21c0,0-120.17-120.17-263.66,23.32l-11.49,11.49c-143.49,143.49-22.98,263.66-22.98,263.66l177.04,177.5
		l-216.33,216.33l239.65,239.65l216.33-216.33l162.45,162.56l360.97,62.39L1307.52,1012.27z M1023.75,555.82l97.54-97.53
		l174.62,174.62l-183.82,183.82L937.47,642.22l86.31-86.37L1023.75,555.82z M629.8,1299.14l-174.62-174.63l97.54-97.54l86.39-86.39
		l174.63,174.62L629.8,1299.14z M1047.87,1250.42l-45.03-38.48l-5.73-5.74c-241.77-241.97-374.9-373.98-449.56-448.98l0.9-0.91
		l-32.52-32.61l-0.55,0.55c-8.96-9.27-16.61-17.3-23.14-24.31c-42.14-45.18-38.38-48.21-42.46-67.6
		c-11.38-53.42,25.85-95.47,60.66-130.28c66.29-66.29,128.67-61.58,171.06-22.98l39.52,39.52l32.34,32.34l0.06-0.06l458.28,458.63
		l36.19,46.3l41.24,236.55L1047.87,1250.42z"/>
	<line display="inline" fill="#58627C" x1="1121.29" y1="458.29" x2="1023.78" y2="555.85"/>
	<line display="inline" fill="#58627C" x1="1211.7" y1="1009.51" x2="753.36" y2="550.94"/>
	<line display="inline" fill="#58627C" x1="721.02" y1="518.6" x2="692.08" y2="489.64"/>
	<line display="inline" fill="#58627C" x1="997.11" y1="1206.2" x2="548.45" y2="756.31"/>
	<line display="inline" fill="#58627C" x1="515.93" y1="723.7" x2="492.24" y2="699.94"/>
	<line display="inline" fill="none" x1="588.52" y1="716.15" x2="548.45" y2="756.31"/>
	<line display="inline" fill="none" x1="753.36" y1="550.94" x2="712.8" y2="591.6"/>
</g>
<g id="Calque_2" display="none">
	<g display="inline">
		<g>
			<path fill="#58627C" d="M1059.879,225.146h-452.09c-53.877,0-97.62,43.742-97.62,97.62v1020.738
				c0,53.877,43.742,97.62,97.62,97.62h452.09c53.878,0,97.62-43.742,97.62-97.62V323.032
				C1157.499,269.155,1113.757,225.146,1059.879,225.146z M607.789,278.49h452.09c24.538,0,44.276,20.004,44.276,44.276v39.208
				H563.247v-38.941C563.247,298.494,583.251,278.49,607.789,278.49z M1104.155,388.912v814.03H563.247v-814.03H1104.155z
				 M1059.879,1388.045h-452.09c-24.538,0-44.276-20.004-44.276-44.276v-114.156h540.641v114.156
				C1104.155,1368.308,1084.151,1388.045,1059.879,1388.045z"/>
			<path fill="#58627C" d="M833.434,1256.819c-27.205,0-49.343,22.138-49.343,49.343s22.138,49.343,49.343,49.343
				c27.205,0,49.343-22.138,49.343-49.343S860.639,1256.819,833.434,1256.819z M833.434,1328.833
				c-12.536,0-22.671-10.135-22.671-22.671s10.135-22.671,22.671-22.671s22.671,10.135,22.671,22.671
				S845.97,1328.833,833.434,1328.833z"/>
		</g>
	</g>
	<g display="inline">
		<circle fill="#9A69FF" cx="703.541" cy="507.602" r="37.074"/>
		<path fill="#9A69FF" d="M705.408,544.143v-1.067c0,0-0.8,0-2.134,0.533c-1.334-0.267-2.134-0.533-2.134-0.533v1.067
			c-13.603,4.001-56.811,20.804-56.811,78.416c23.738,0,47.476,0,56.811,0c2.667,0,4.001,0,4.001,0c9.335,0,33.073,0,56.811,0
			C762.22,564.947,719.011,548.144,705.408,544.143z"/>
		<g>
			<path fill="#00B1FF" d="M1031.34,539.342H831.033c-7.468,0-13.336-5.868-13.336-13.336c0-7.468,5.868-13.336,13.336-13.336
				h200.307c7.468,0,13.336,5.868,13.336,13.336C1044.676,533.474,1038.542,539.342,1031.34,539.342z"/>
		</g>
		<g>
			<path fill="#00B1FF" d="M1031.34,730.847H640.329c-7.468,0-13.336-5.868-13.336-13.336c0-7.468,5.868-13.336,13.336-13.336
				h390.745c7.468,0,13.336,5.868,13.336,13.336C1044.409,724.979,1038.542,730.847,1031.34,730.847z"/>
		</g>
		<g>
			<path fill="#00B1FF" d="M959.326,808.996H640.329c-7.468,0-13.336-5.868-13.336-13.336c0-7.468,5.868-13.336,13.336-13.336
				h318.73c7.468,0,13.336,5.868,13.336,13.336C972.395,803.128,966.527,808.996,959.326,808.996z"/>
		</g>
		<g>
			<path fill="#00B1FF" d="M1031.34,887.145H640.329c-7.468,0-13.336-5.868-13.336-13.336s5.868-13.336,13.336-13.336h390.745
				c7.468,0,13.336,5.868,13.336,13.336S1038.542,887.145,1031.34,887.145z"/>
		</g>
		<g>
			<path fill="#00B1FF" d="M998.8,965.294H640.329c-7.468,0-13.336-5.868-13.336-13.336s5.868-13.336,13.336-13.336H998.8
				c7.468,0,13.336,5.868,13.336,13.336S1006.268,965.294,998.8,965.294z"/>
		</g>
		<g>
			<path fill="#00B1FF" d="M1031.34,1043.443H640.329c-7.468,0-13.336-5.868-13.336-13.336c0-7.468,5.868-13.336,13.336-13.336
				h390.745c7.468,0,13.336,5.868,13.336,13.336C1044.409,1037.575,1038.542,1043.443,1031.34,1043.443z"/>
		</g>
		<g>
			<path fill="#00B1FF" d="M831.033,1121.325H640.329c-7.468,0-13.336-5.868-13.336-13.336c0-7.468,5.868-13.336,13.336-13.336
				h190.705c7.468,0,13.336,5.868,13.336,13.336C844.369,1115.457,838.502,1121.325,831.033,1121.325z"/>
		</g>
		<g>
			<path fill="#00B1FF" d="M959.326,597.487H831.033c-7.468,0-13.336-5.868-13.336-13.336s5.868-13.336,13.336-13.336h128.292
				c7.468,0,13.336,5.868,13.336,13.336S966.527,597.487,959.326,597.487z"/>
		</g>
	</g>
</g>
<g id="Calque_4" display="none">
	<g display="inline">
		<path fill="#9A69FF" stroke="#FFFFFF" stroke-width="40" stroke-miterlimit="10" d="M1302.706,488.573H364.294v273.703h938.412
			V488.573z M1224.505,684.076h-782.01V566.774h782.01V684.076z"/>
		<path fill="#58627C" stroke="#FFFFFF" stroke-width="20" stroke-miterlimit="10" d="M309.187,1375.575h1048.585
			c78.724,0,142.529-63.804,142.529-142.487V434.512c0-78.682-63.804-142.487-142.487-142.487H309.187
			c-78.682,0-142.487,63.804-142.487,142.487v798.535C166.7,1311.771,230.504,1375.575,309.187,1375.575z M250.05,434.512
			c0-32.59,26.547-59.137,59.137-59.137h1048.585c32.632,0,59.178,26.547,59.178,59.137v798.535
			c0,32.632-26.547,59.178-59.137,59.178H309.187c-32.59,0-59.137-26.547-59.137-59.137V434.512z"/>
		
			<line fill="none" stroke="#00B1FF" stroke-width="30" stroke-linecap="round" stroke-miterlimit="10" x1="390.166" y1="1167.2" x2="562.612" y2="1167.2"/>
		
			<line fill="none" stroke="#00B1FF" stroke-width="30" stroke-linecap="round" stroke-miterlimit="10" x1="390.166" y1="1025.167" x2="735.059" y2="1025.167"/>
		
			<line fill="none" stroke="#00B1FF" stroke-width="30" stroke-linecap="round" stroke-miterlimit="10" x1="390.166" y1="883.134" x2="735.059" y2="883.134"/>
		
			<line fill="none" stroke="#00B1FF" stroke-width="30" stroke-linecap="round" stroke-miterlimit="10" x1="390.166" y1="1096.083" x2="674.098" y2="1096.083"/>
		
			<line fill="none" stroke="#00B1FF" stroke-width="30" stroke-linecap="round" stroke-miterlimit="10" x1="390.166" y1="954.051" x2="657.599" y2="954.051"/>
		
			<line fill="none" stroke="#00B1FF" stroke-width="30" stroke-linecap="round" stroke-miterlimit="10" x1="931.941" y1="1167.2" x2="1104.387" y2="1167.2"/>
		
			<line fill="none" stroke="#00B1FF" stroke-width="30" stroke-linecap="round" stroke-miterlimit="10" x1="931.941" y1="1096.083" x2="1215.873" y2="1096.083"/>
		
			<line fill="none" stroke="#00B1FF" stroke-width="30" stroke-linecap="round" stroke-miterlimit="10" x1="931.941" y1="954.051" x2="1199.374" y2="954.051"/>
		
			<line fill="none" stroke="#00B1FF" stroke-width="30" stroke-linecap="round" stroke-miterlimit="10" x1="931.941" y1="1167.2" x2="1276.834" y2="1167.2"/>
		
			<line fill="none" stroke="#00B1FF" stroke-width="30" stroke-linecap="round" stroke-miterlimit="10" x1="931.941" y1="1025.167" x2="1276.834" y2="1025.167"/>
		
			<line fill="none" stroke="#00B1FF" stroke-width="30" stroke-linecap="round" stroke-miterlimit="10" x1="931.941" y1="883.134" x2="1276.834" y2="883.134"/>
	</g>
</g>
<g id="Calque_5" display="none">
	
		<polygon display="inline" fill="none" stroke="#00B1FF" stroke-width="40" stroke-linejoin="round" stroke-miterlimit="10" points="
		718.832,654.979 1023.007,833.8 718.832,1012.621 	"/>
</g>
<g id="Calque_6">
	<circle fill="none" stroke="#58627C" stroke-width="68" stroke-miterlimit="10" cx="1093.013" cy="936" r="205"/>
	<circle fill="none" stroke="#58627C" stroke-width="68" stroke-miterlimit="10" cx="572.569" cy="936" r="205"/>
	<path fill="#FFFFFF" stroke="#58627C" stroke-width="68" stroke-miterlimit="10" d="M526.857,740.651"/>
	<path fill="none" stroke="#9A69FF" stroke-width="68" stroke-miterlimit="10" d="M519.315,731c0,113.218-91.782,205-205,205
		s-205-91.782-205-205s91.782-205,205-205S519.315,617.782,519.315,731"/>
	<circle fill="none" stroke="#00B1FF" stroke-width="68" stroke-miterlimit="10" cx="833.5" cy="731" r="205"/>
	<circle fill="none" stroke="#9A69FF" stroke-width="68" stroke-miterlimit="10" cx="1352.685" cy="731" r="205"/>
</g>
</svg>
