<?xml version="1.0" encoding="UTF-8"?>
<svg width="199px" height="199px" viewBox="0 0 199 199" version="1.1" xmlns="http://www.w3.org/2000/svg" xmlns:xlink="http://www.w3.org/1999/xlink" style="background: #5BC3EB;">
    <!-- Generator: Sketch 41.2 (35397) - http://www.bohemiancoding.com/sketch -->
    <title>accessibility</title>
    <desc>Created with Sketch.</desc>
    <defs></defs>
    <g id="Page-1" stroke="none" stroke-width="1" fill="none" fill-rule="evenodd">
        <g id="accessibility" stroke="#FFFFFF" stroke-width="2">
            <circle id="Oval-Copy" fill="#5BC3EB" cx="100" cy="100" r="95"></circle>
            <path d="M131.428571,31.0627273 L68.5714286,31 C61.6257143,31 56,36.6140909 56,43.5454545 L56,156.454545 C56,163.385906 61.6257143,169 68.5714286,169 L131.428571,169 C138.374286,169 144,163.385906 144,156.454545 L144,43.5454545 C144,36.6140909 138.374286,31.0627273 131.428571,31.0627273 Z M135.300207,145 L64.699793,145 L64.699793,44 L135.300207,44 L135.300207,145 Z M99.5900621,163.996444 C102.910631,163.996444 105.602484,161.310153 105.602484,157.996444 C105.602484,154.682736 102.910631,151.996444 99.5900621,151.996444 C96.2694929,151.996444 93.5776398,154.682736 93.5776398,157.996444 C93.5776398,161.310153 96.2694929,163.996444 99.5900621,163.996444 Z" id="Page-1"></path>
            <g id="Page-1" transform="translate(78.000000, 63.000000)">
                <path d="M27.5849057,6.1 C27.5849057,9.4689385 24.8606021,12.2 21.5,12.2 C18.1393979,12.2 15.4150943,9.4689385 15.4150943,6.1 C15.4150943,2.7310615 18.1393979,0 21.5,0 C24.8606021,0 27.5849057,2.7310615 27.5849057,6.1 Z" id="Fill-1"></path>
                <path d="M43,33.6513824 L43,27.5739118 C38.27,27.6346865 33.5092857,25.2948603 30.4992857,22.0130262 L26.5371429,17.6676347 C26.015,17.090275 25.37,16.6344647 24.6635714,16.3002038 C24.6328571,16.3002038 24.6328571,16.2698165 24.6021429,16.2698165 L24.5714286,16.2698165 C23.4964286,15.6620694 22.2678571,15.3581959 20.9164286,15.4797453 C17.6914286,15.7532315 15.3571429,18.5792553 15.3571429,21.7699274 L15.3571429,39.728853 C15.3571429,43.0714618 18.1214286,45.8063235 21.5,45.8063235 L36.8571429,45.8063235 L36.8571429,61 L43,61 L43,44.2869559 C43,40.9443471 40.2357143,38.2094853 36.8571429,38.2094853 L27.6428571,38.2094853 L27.6428571,27.7258485 C31.605,30.9772953 37.625,33.620995 43,33.6513824 Z M24.0492857,48.8450588 C22.79,52.3699918 19.3807143,54.9225294 15.3571429,54.9225294 C10.2585714,54.9225294 6.14285714,50.8506241 6.14285714,45.8063235 C6.14285714,41.8255803 8.72285714,38.4829715 12.2857143,37.2067027 L12.2857143,30.9165206 C5.28285714,32.3143388 0,38.4525841 0,45.8063235 C0,54.1932329 6.88,61 15.3571429,61 C22.79,61 28.9942857,55.7733768 30.4071429,48.8450588 L24.0492857,48.8450588 Z" id="Fill-3"></path>
            </g>
        </g>
    </g>
</svg>