<?xml version="1.0" encoding="utf-8"?>
<!-- Generator: Adobe Illustrator 17.1.0, SVG Export Plug-In . SVG Version: 6.00 Build 0)  -->
<!DOCTYPE svg PUBLIC "-//W3C//DTD SVG 1.1//EN" "http://www.w3.org/Graphics/SVG/1.1/DTD/svg11.dtd" [
	<!ENTITY ns_flows "http://ns.adobe.com/Flows/1.0/">
	<!ENTITY ns_extend "http://ns.adobe.com/Extensibility/1.0/">
	<!ENTITY ns_ai "http://ns.adobe.com/AdobeIllustrator/10.0/">
	<!ENTITY ns_graphs "http://ns.adobe.com/Graphs/1.0/">
	<!ENTITY ns_vars "http://ns.adobe.com/Variables/1.0/">
	<!ENTITY ns_imrep "http://ns.adobe.com/ImageReplacement/1.0/">
	<!ENTITY ns_sfw "http://ns.adobe.com/SaveForWeb/1.0/">
	<!ENTITY ns_custom "http://ns.adobe.com/GenericCustomNamespace/1.0/">
	<!ENTITY ns_adobe_xpath "http://ns.adobe.com/XPath/1.0/">
]>
<svg version="1.1" id="Calque_1" xmlns:x="&ns_extend;" xmlns:i="&ns_ai;" xmlns:graph="&ns_graphs;"
	 xmlns="http://www.w3.org/2000/svg" xmlns:xlink="http://www.w3.org/1999/xlink" xmlns:a="http://ns.adobe.com/AdobeSVGViewerExtensions/3.0/"
	 x="0px" y="0px" viewBox="0 0 500 500" enable-background="new 0 0 500 500" xml:space="preserve">
<metadata>
	<sfw  xmlns="&ns_sfw;">
		<slices></slices>
		<sliceSourceBounds  bottomLeftOrigin="true" width="370.8" height="482.3" x="64.6" y="-488.7"></sliceSourceBounds>
	</sfw>
</metadata>
<g>
	<g>
		<g>
			<g>
				<path fill="#1D1E3E" d="M140.5,422.5c0,0-25-31-33.1-80.6c8.7,17.8,75.2-67,147-67c71.3,0,123.1,85,132.3,67.3
					c-5.2,40.2-21.3,66.1-21.3,66.1c-6,11.6-8.8,5.3-8.8,5.3c-4.2-6-6.9,3.7-6.9,3.7c-4.5,14.5-18.1,33.1-18.1,33.1
					c-12.2,12.9-16-1.1-16-1.1c-2.4-8.7-7.1,0.4-7.1,0.4c-11.8,19.4-33.2,32.3-33.2,32.3s-7.8,5.5-17.7,6.6
					c-9.9,0.2-18.4-4.4-18.4-4.4s-22.9-10.1-37-27.9c0,0-5.9-8.5-7.1,0.4c0,0-2.1,14.4-15.8,3.1c0,0-15.9-16.8-22.1-30.6
					c0,0-3.9-9.2-7.3-2.8C149.9,426.6,148,433.3,140.5,422.5z"/>
			</g>
		</g>
		<g>
			<g opacity="0.3">
				<path fill="#262952" d="M355.2,215.6c-0.9-22.9-20.2-40.8-43-40c-3,0.1-6,0.5-8.7,1.3c-0.1,0-0.1,0-0.2,0
					c-17.7,0.8-31.6,19.3-30.9,41.6c0.6,21.4,14.5,38.4,31.4,39c3.7,0.9,7.6,1.3,11.6,1.3C338.3,257.9,356.2,238.6,355.2,215.6z"/>
			</g>
			<g>
				<g>
					<g>
						
							<path fill="#FFFFFF" stroke="#262952" stroke-width="3.2179" stroke-linecap="round" stroke-linejoin="round" stroke-miterlimit="10" d="
							M276,216.7c-0.8-22.9,17-42.1,39.8-42.9c22.9-0.8,42.1,17.1,43,40c0.9,22.9-16.9,42.3-39.8,43
							C296.1,257.6,276.8,239.7,276,216.7z"/>
						<path fill="#9E5A36" d="M289.4,216.3c-0.6-15.5,11.5-28.5,27-29c15.5-0.5,28.5,11.6,29.2,27.1c0.7,15.5-11.4,28.7-27,29.2
							C303,244,289.9,231.8,289.4,216.3z"/>
						<path fill="#262952" d="M300,216c-0.3-9.8,7.1-18.1,16.9-18.4c9.7-0.3,17.8,7.3,18.2,17.1c0.3,9.8-7.1,18.1-16.9,18.4
							C308.5,233.4,300.3,225.8,300,216z"/>
						<path fill="#FFFFFF" d="M297.2,227.4c-0.2-5.4,3.9-9.8,9.2-10c5.3-0.2,9.7,4,9.9,9.4c0.2,5.4-3.9,9.8-9.2,10.1
							C301.8,237,297.4,232.8,297.2,227.4z"/>
						<path fill="#FFFFFF" d="M318.5,199.2c-0.2-3.5,2.6-6.6,6.1-6.6c3.5-0.1,6.5,2.7,6.6,6.2c0.1,3.5-2.6,6.6-6.1,6.7
							C321.6,205.5,318.6,202.7,318.5,199.2z"/>
						<path fill="#FFFFFF" d="M323.1,236.2c-0.1-2.7,1.9-5,4.6-5c2.6-0.1,4.9,2,5,4.7c0.1,2.7-1.9,5-4.6,5
							C325.4,241,323.2,238.9,323.1,236.2z"/>
					</g>
					<path opacity="0.2" fill="#262952" enable-background="new    " d="M312.5,255.3c-1,0.2-2,0.3-3.1,0.3
						c-17.8,0.8-32.8-16.7-33.4-39c-0.7-22.2,13.2-40.8,30.9-41.6c1.8-0.1,3.5,0,5.3,0.3c-16.2,2.7-28.5,20.3-27.9,41.3
						C284.9,236.7,297.1,252.9,312.5,255.3z"/>
				</g>
			</g>
			<g>
				<path opacity="0.3" fill="#262952" enable-background="new    " d="M223.4,215.6c-0.9-22.9-20.2-40.8-43-40
					c-3,0.1-6,0.5-8.7,1.3c-0.1,0-0.1,0-0.2,0c-17.1,0.8-30.7,18.1-31,39.3c0,0.1,0,0.1,0,0.2c0,0.7,0,1.3,0,2.1
					c0.6,21.4,14.5,38.4,31.5,39c3.7,0.9,7.6,1.3,11.6,1.3C206.5,257.9,224.4,238.6,223.4,215.6z"/>
			</g>
			<g>
				<g>
					<g>
						
							<path fill="#FFFFFF" stroke="#262952" stroke-width="3.2179" stroke-linecap="round" stroke-linejoin="round" stroke-miterlimit="10" d="
							M144.1,216.7c-0.8-22.9,17-42.1,39.8-42.9c22.9-0.8,42.1,17.1,43,40c0.9,22.9-16.9,42.3-39.8,43
							C164.3,257.6,145,239.7,144.1,216.7z"/>
						<path fill="#9E5A36" d="M157.5,216.3c-0.6-15.5,11.5-28.5,27-29c15.5-0.5,28.5,11.6,29.2,27.1c0.7,15.5-11.4,28.7-27,29.2
							C171.2,244,158.1,231.8,157.5,216.3z"/>
						<path fill="#262952" d="M168.2,216c-0.3-9.8,7.1-18.1,16.8-18.4c9.7-0.3,17.8,7.3,18.2,17.1c0.3,9.8-7.1,18.1-16.8,18.4
							C176.6,233.4,168.5,225.8,168.2,216z"/>
						<path fill="#FFFFFF" d="M165.4,227.4c-0.2-5.4,3.9-9.8,9.2-10c5.3-0.2,9.7,4,9.9,9.4c0.2,5.4-3.9,9.8-9.2,10.1
							C170,237,165.6,232.8,165.4,227.4z"/>
						<path fill="#FFFFFF" d="M186.6,199.2c-0.2-3.5,2.6-6.6,6.1-6.6c3.5-0.1,6.5,2.7,6.6,6.2c0.2,3.5-2.6,6.6-6.1,6.7
							C189.8,205.5,186.7,202.7,186.6,199.2z"/>
						<path fill="#FFFFFF" d="M191.3,236.2c-0.1-2.7,1.9-5,4.6-5c2.6-0.1,4.9,2,5,4.7c0.1,2.7-1.9,5-4.6,5
							C193.5,241,191.3,238.9,191.3,236.2z"/>
					</g>
					<path opacity="0.2" fill="#262952" enable-background="new    " d="M180.7,255.3c-1,0.2-2,0.3-3.1,0.3
						c-17.8,0.8-32.8-16.7-33.4-39c-0.7-22.2,13.2-40.8,30.9-41.6c1.8-0.1,3.5,0,5.3,0.3c-16.2,2.7-28.5,20.3-27.9,41.3
						C153,236.7,165.2,252.9,180.7,255.3z"/>
				</g>
			</g>
		</g>
		<g>
			<path fill="#FFFFFF" stroke="#262952" stroke-width="1.7398" stroke-miterlimit="10" d="M172.9,322.3v-7.7l-7.6-1.4l2.9-7.2
				l-11.1-4.3l5-9.2l-13.6-0.9v-9.7c0,0,9.7-28.1,49.2-26.7l-5,9.7l7.6,5.7l-3.8,4.9l6.4,4.8l-5.1,2.9l8.9,4.3l-4.6,4.9l8.5,6.2
				C210.7,298.5,193.2,305,172.9,322.3z"/>
			<path fill="#FFFFFF" d="M172.9,322.3v-7.7l-7.6-1.4l2.9-7.2l-11.1-4.3l5-9.2l-13.6-0.9v-9.7c0,0,9.7-28.1,49.2-26.7l-5,9.7
				l7.6,5.7l-3.8,4.9l6.4,4.8l-5.1,2.9l8.9,4.3l-4.6,4.9l8.5,6.2C210.7,298.5,193.2,305,172.9,322.3z"/>
		</g>
		<line fill="none" stroke="#000000" stroke-width="1.7398" stroke-miterlimit="10" x1="126.6" y1="178.4" x2="126.6" y2="178.4"/>
		<g>
			<path fill="#262952" d="M137.3,290.7c-0.5,0-1-0.1-1.4-0.2c-0.2,0-0.3,0-0.5,0c-1.1,0-2.2-0.5-2.9-1.3c-1.7-1.7-2.4-4.9-2.3-9.7
				c-0.2-1.6-1.9-16.7-3.5-35c-1.3-15.4-2.2-28.7-2.6-39.3c-0.4-12.9-0.1-22,0.9-27.3v-0.2l0,0c0.5-2.6,1.6-6,4.3-6.3
				c2.2-0.5,35.6-7.8,68.6-7.8c6.2,0,12.2,0.3,17.6,0.8c9.7,0.9,18.3,2.7,25.4,5.3c1.1,0.4,2.3,0.8,3.5,1.3c0.8,0.3,3.3,2,4.5,9.1
				c0.4,2.4,0.6,5.2,0.6,8.3c0,4.3-0.4,9.2-1.1,14.9c0,0.2-2.5,24.2-6,40.9c-2.2,10-3.9,13.8-5,15.5v0.1l-0.6,0.7
				c-0.7,0.8-1.4,1.2-2.3,1.3l-0.5,0.1l-0.4-0.2c-0.2-0.1-15-6.1-32.8-7.1c-1.5-0.1-3.1-0.1-4.6-0.1c-24.6,0-42.1,10.5-51.8,31.1
				C143.8,286.5,141.9,290.7,137.3,290.7z M138.3,277.8c0.6,0.2,1.1,0.3,1.6,0.3c1.5,0,1.9-0.8,2-0.8c6.7-14,17.3-23.2,31.5-27.4
				c5.8-1.7,12.2-2.5,19-2.5c3.3,0,6.6,0.2,10.1,0.6c13.9,1.5,25,5.7,28,6.9c0.6-0.7,2-2.9,3.9-11c3.5-15.3,6.1-39.6,6.1-39.8
				c2.9-21.8-1.3-26-1.8-26.3c-0.3-0.2-0.8-0.3-1.1-0.4c-6.6-2.6-14.8-4.5-24.4-5.4c-5.1-0.5-10.7-0.8-16.6-0.8
				c-31.3,0-63.2,7.1-63.5,7.1H133l0,0c-0.7,0.6-4.9,6.5,0.6,66.1c1.5,16.5,3.1,29.7,3.1,29.8v0.1c0.2,2.5,0.8,3.4,1.1,3.4h0.2
				L138.3,277.8z"/>
			<path fill="#262952" d="M197.8,165.5c5.9,0,11.8,0.3,17.5,0.8c9,0.8,17.5,2.4,24.9,5.2c1.2,0.4,2.4,0.8,3.4,1.3
				c0,0,2.3,1.1,3.4,7.7c0.3,2.1,0.6,4.7,0.6,8.1c0,3.9-0.3,8.7-1.1,14.6c0,0-2.4,23.9-6,40.8c-1.6,7.3-3.4,13.4-5.2,15.4l0,0
				c-0.4,0.4-0.8,0.7-1.2,0.8c0,0-15-6.2-33.4-7.2c-1.5-0.1-3.1-0.1-4.7-0.1c-19.4,0-41.3,6.6-53.4,32.2c0,0-1.5,4-5.2,4
				c-0.4,0-0.9-0.1-1.4-0.2c0,0-0.3,0.1-0.5,0.1c-1.2,0-3.8-0.9-3.4-9.4c0,0-1.8-15.7-3.5-35c-1.1-12.6-2.2-26.8-2.5-39.2
				c-0.4-11.4-0.3-21.3,0.9-26.9l0,0c0.6-3.2,1.6-5,2.9-5.1C129.5,173.3,163.7,165.5,197.8,165.5 M137.8,279.5
				C137.8,279.5,137.9,279.5,137.8,279.5c0.8,0.2,1.5,0.3,2.1,0.3c2.9,0,3.6-1.9,3.6-1.9c7.2-15.1,18.5-22.9,30.4-26.5
				c6.1-1.8,12.4-2.4,18.5-2.4c3.4,0,6.7,0.3,9.8,0.6c15.9,1.8,28.3,7.1,28.3,7.1c1.9-0.3,3.9-5.5,5.5-12.5c3.6-15.5,6.2-40,6.2-40
				c3.4-25.3-2.7-28.1-2.7-28.1c-0.4-0.2-0.9-0.3-1.3-0.5c-7.2-2.9-15.8-4.6-24.8-5.5c-5.5-0.5-11.1-0.8-16.7-0.8
				c-31.9,0-63.9,7.1-63.9,7.1c-6,0.4-3.6,39.4-0.9,68.1c1.5,16.7,3.1,29.9,3.1,29.9C135.3,279.3,137.4,279.5,137.8,279.5
				 M197.8,162c-32.8,0-66,7.1-68.9,7.8c-4,0.5-5.2,5.4-5.6,7.5l0,0l-0.1,0.4c-1.1,5.5-1.4,14.5-1,27.7c0.3,10.7,1.2,23.9,2.6,39.4
				c1.6,17.8,3.3,32.8,3.5,34.9c-0.2,5.3,0.8,8.8,2.7,10.8c1.2,1.2,2.6,1.8,4.2,1.8c0.2,0,0.3,0,0.4,0c0.5,0.1,1,0.2,1.5,0.2
				c4.7,0,7.5-3.8,8.4-6.1c9.4-19.9,26.3-30.1,50.2-30.1c1.5,0,3,0,4.5,0.1c17.6,0.9,32.1,6.9,32.3,7l0.8,0.3l0.9-0.2
				c1.2-0.2,2.4-0.8,3.3-1.8l1.1-1.3v-0.3c1.3-2.1,2.9-6.3,5-15.5c3.5-16.6,6-39.6,6.1-41.2c0.8-5.6,1.1-10.7,1.1-15
				c0-3.2-0.2-6.1-0.6-8.6c-1.3-7.7-4.2-9.8-5.4-10.3l0,0l0,0c-1.3-0.5-2.4-1-3.6-1.4c-7.2-2.6-15.9-4.5-25.7-5.4
				C210.1,162.4,204.1,162,197.8,162L197.8,162z M134.2,179.7c4.3-0.9,33.7-7,62.6-7c5.8,0,11.3,0.3,16.4,0.8
				c9.4,0.9,17.4,2.7,23.9,5.2h0.1h0.1c0.3,0.1,0.5,0.2,0.8,0.3c0.6,0.8,3.5,5.9,1,24.5v0.1v0.1c0,0.3-2.6,24.5-6.1,39.6
				c-1.3,5.5-2.3,8.1-2.9,9.2c-4.3-1.6-14.6-5-27.1-6.5c-3.5-0.4-7-0.6-10.3-0.6c-7,0-13.5,0.8-19.5,2.6
				c-14.7,4.3-25.6,13.8-32.5,28.1c-0.1,0-0.3,0.1-0.5,0.1c-0.3,0-0.7-0.1-1-0.2c-0.1-0.3-0.3-0.9-0.3-1.9v-0.1V274
				c0-0.2-1.6-13.4-3.1-29.8c-1.5-16.5-2.4-30.2-2.7-41.1C132.3,185.9,133.6,181.1,134.2,179.7L134.2,179.7z"/>
		</g>
		<g opacity="0.2">
			<path fill="#D5D1DB" d="M241.6,203.1c0,0-2.5,24.5-6.2,40c-1.7,7.1-3.5,12.3-5.5,12.5c0,0-12.4-5.3-28.3-7.1
				c-8.9-1-18.9-0.8-28.3,1.9c-12,3.5-23.2,11.3-30.4,26.5c0,0-1.1,2.8-5.6,1.6c0,0-2.5,0.3-2.9-5.1c0,0-1.6-13.2-3.1-29.9
				c-2.6-28.7-5-67.6,0.9-68.1c0,0,44.2-9.9,80.6-6.4c9,0.8,17.6,2.5,24.8,5.5c0.4,0.2,0.9,0.3,1.3,0.5
				C239,175.1,245,177.8,241.6,203.1z"/>
		</g>
		<g>
			<path fill="#262952" d="M362.8,289.8c-4.5,0-6.5-4.3-6.8-5c-9.8-20.3-27.1-30.7-51.3-30.7c-20.2,0-37.9,7.5-38.1,7.6l-0.4,0.2
				l-0.5-0.1c-2.9-0.4-6-4.3-10.5-30.2c-2.4-14-3.9-28.1-3.9-28.2c-0.8-5.5-1.2-10.6-1.3-14.9c0-3.2,0.2-6,0.5-8.3
				c1.1-7,3.5-8.7,4.3-9c11.8-5.2,28.1-7.8,48.4-7.8c32.4,0,64.5,6.7,66.7,7.2c3.3,0.3,4.4,5.3,4.9,9.7v0.2
				c2,15.9-0.4,50.5-2.8,76.7c-1.1,11.8-2,20.4-2.1,21.6c0.2,4.9-0.5,8.1-2.2,9.7c-0.8,0.8-1.8,1.3-2.9,1.3l0,0c-0.2,0-0.3,0-0.5,0
				C363.8,289.8,363.3,289.8,362.8,289.8z M358.1,276.4c0,0,0.2,0.3,0.8,0.6c0.3,0.2,0.8,0.3,1.3,0.3c0.5,0,1-0.1,1.6-0.3l0.3-0.1
				h0.2c0,0,0.2-0.2,0.3-0.4s0.3-0.6,0.4-1.3c0.1-0.5,0.2-1.1,0.3-1.8v-0.1c4.8-43,7.5-91.3,2.9-96l0,0H366c0,0-0.2,0-0.3-0.1l0,0
				l-1-0.3c-0.2-0.1-0.4-0.1-0.7-0.2c-3.5-0.7-13-2.5-25.4-3.9c-12.4-1.5-24-2.3-34.5-2.3c-18.5,0-33.2,2.4-43.7,6.9
				c-0.4,0.3-4.6,4.5-1.5,26.3c3.3,28.7,7.8,48.2,10.4,50.8c3.2-1.3,16.1-6.2,31.7-7.5c2.4-0.2,4.7-0.3,7-0.3
				c7.1,0,13.8,0.9,19.7,2.8c13.1,4.1,23,12.6,29.6,25.2l0.1,0.2c0.2,0.3,0.3,0.6,0.4,0.8L358.1,276.4L358.1,276.4L358.1,276.4z"/>
			<path fill="#262952" d="M303.1,165.1c33.4,0,66.5,7.2,66.5,7.2c1.7,0.1,2.8,3.2,3.4,8.2l0,0c2.1,16.1-0.6,52.8-2.8,76.4
				c-1.2,12.7-2.1,21.7-2.1,21.7c0.3,8.5-2.3,9.4-3.4,9.4c-0.3,0-0.5-0.1-0.5-0.1c-0.5,0.2-1,0.2-1.5,0.2c-3.7,0-5.2-3.9-5.2-3.9
				c-12.1-25.2-33.7-31.7-52.9-31.7c-20.8,0-38.7,7.6-38.7,7.6c-6.7-0.9-12.9-56.9-12.9-56.9c-0.8-6-1.2-10.8-1.3-14.7
				c0-3.4,0.2-6,0.5-8.1c1-6.6,3.3-7.7,3.3-7.7C268.6,167,285.9,165.1,303.1,165.1 M269.2,256.5c0,0,14.3-6.2,31.8-7.6
				c2.3-0.2,4.5-0.3,6.9-0.3c6.4,0,12.9,0.8,19.2,2.8c11.2,3.5,21.6,10.8,28.7,24.5l0,0c0.3,0.4,0.4,0.8,0.6,1.2c0,0,0.4,1,1.7,1.5
				c0.5,0.3,1.1,0.3,1.9,0.3c0.6,0,1.3-0.1,2-0.3c0,0,0,0,0.1,0c0.3,0,1.2-0.1,1.8-1.3c0.3-0.4,0.5-1,0.7-1.8
				c0.1-0.6,0.2-1.2,0.3-1.9c0,0,10-89.6,2.4-97.5c-0.3-0.3-0.7-0.5-1.1-0.5c0,0-0.4-0.1-1.1-0.3l0,0l0,0c-0.3-0.1-0.5-0.1-0.8-0.2
				c-3.9-0.8-13.4-2.5-25.5-3.9c-10.3-1.3-22.5-2.3-34.7-2.3c-16.1,0-32.4,1.8-44.5,7.1c0,0-6,2.8-2.4,28.1
				C257.1,204,262.9,255.6,269.2,256.5 M303.1,161.6c-20.6,0-37.1,2.7-49,8l0,0l0,0c-1.2,0.6-4.1,2.7-5.3,10.3
				c-0.4,2.4-0.6,5.4-0.5,8.6c0.1,4.4,0.5,9.4,1.3,15.1c0.1,0.9,1.7,14.6,3.9,28.2c1.4,8.3,2.9,15,4.2,19.9
				c2.3,8.1,4.5,11.3,7.7,11.8l0.9,0.2l0.8-0.3c0.2-0.1,17.6-7.4,37.4-7.4c23.5,0,40.2,10,49.7,29.7c0.9,2.4,3.7,6,8.4,6
				c0.5,0,1.1-0.1,1.6-0.2c0.2,0,0.3,0,0.4,0c1.6,0,3.1-0.7,4.2-1.8c2-2.1,2.9-5.6,2.7-10.9c0.2-1.6,1.1-10.1,2.1-21.5
				c2.4-26.2,4.8-60.8,2.8-77l0,0V180c-0.4-3.2-1.3-10.5-6.4-11.1C367.2,168.2,335.2,161.6,303.1,161.6L303.1,161.6z M261.4,179
				c10.3-4.4,24.7-6.6,42.7-6.6c10.5,0,22,0.8,34.4,2.3c12.4,1.5,21.8,3.3,25.2,3.9l0,0l0,0c0.3,0,0.4,0.1,0.6,0.1l0.7,0.2
				c0.9,1.9,3,10.7,0.4,49.4c-1.5,22.8-3.9,44.6-4,44.9v0.1v0.1c0,0.6-0.1,1-0.2,1.4v0.1v0.1c0,0.3-0.1,0.3-0.1,0.5
				c-0.4,0.1-0.8,0.2-1,0.2c-0.3,0-0.4-0.1-0.5-0.1l0,0l0,0c0-0.1-0.1-0.2-0.1-0.3c-0.2-0.3-0.3-0.6-0.5-0.9l-0.1-0.2
				c-6.8-13.1-17.1-21.8-30.6-26c-6.1-1.9-12.9-2.9-20.3-2.9c-2.4,0-4.7,0.1-7.1,0.3c-14.1,1.2-26.1,5.3-30.8,7.1
				c-2.5-4.8-6.6-23.4-9.4-48.7v-0.1v-0.1C257.9,184.9,260.8,179.8,261.4,179L261.4,179z"/>
		</g>
		<path fill="#262952" stroke="#262952" stroke-width="3.4795" stroke-miterlimit="10" d="M252.2,180.5c-0.3,2.1-0.5,4.7-0.5,8.1
			c-1.6-0.7-3-0.4-4.1,0.1c0-3.3-0.3-6-0.6-8.1C248.2,179.9,250,179.3,252.2,180.5z"/>
		<g>
			<path fill="#1D1E3E" d="M286.1,291.2v47.1c0,19.7-16,35.7-35.7,35.7h-3.6c-19.7,0-35.7-16-35.7-35.7v-47.1H286.1z"/>
			<line fill="none" x1="286.1" y1="291.2" x2="211.1" y2="291.2"/>
			
				<path fill="#C21F1F" stroke="#C21F1F" stroke-width="4.2906" stroke-linecap="round" stroke-linejoin="round" stroke-miterlimit="10" d="
				M277.3,349.1c0,11.3-12.7,20.5-28.3,20.5s-28.3-9.2-28.3-20.5c0-10.3,10.5-18.8,24.2-20.3c1.4,3.1,3.4,8.6,3.4,15
				c0-6.4,2.3-11.9,3.8-15C266.3,329.9,277.3,338.6,277.3,349.1z"/>
			<g>
				<path fill="#FFFFFF" d="M282.7,309.8c-21.9-6.7-45.5-6.7-67.4,0c-1.2-3.9-2.4-7.6-3.5-11.5c24.3-7.5,50.2-7.5,74.5,0
					C285,302.1,283.9,306,282.7,309.8z"/>
			</g>
			<g>
				<path fill="#4A4B65" d="M281.1,296.2v42c0,16.9-13.8,30.7-30.7,30.7h-3.6c-16.9,0-30.7-13.8-30.7-30.7v-42H281.1 M286.1,291.2
					h-75v47.1c0,19.7,16,35.7,35.7,35.7h3.6c19.7,0,35.7-16,35.7-35.7V291.2L286.1,291.2z"/>
			</g>
		</g>
		<g>
			<g>
				<g>
					<g>
						<g>
							<path fill="#262952" d="M348.6,155.3c-11.9-8.2-22-12-31.8-12c-9.7,0-19.7,3.8-31.8,12l-4,2.8l2.1-4.5
								c6.6-14.2,19.6-22.9,33.7-22.9s27.1,8.8,33.7,22.9l2.1,4.5L348.6,155.3z"/>
							<path fill="#262952" d="M316.9,132c14.1,0,26.3,9,32.5,22.2c-9.5-6.5-20.6-12.3-32.5-12.3s-23,5.8-32.5,12.3
								C290.6,141,302.8,132,316.9,132 M316.9,129.3c-14.7,0-28.1,9.1-35,23.8l-4.2,8.9l8.2-5.5c11.8-8.1,21.6-11.8,31-11.8
								s19.2,3.8,31,11.8l8.2,5.5l-4.2-8.9C344.9,138.4,331.6,129.3,316.9,129.3L316.9,129.3z"/>
						</g>
					</g>
					<g>
						<g>
							<path fill="#262952" d="M218,155.3c-12-8.2-22.1-12-31.8-12s-19.7,3.8-31.8,12l-4,2.8l2.1-4.5c6.6-14.2,19.6-22.9,33.7-22.9
								s27.1,8.8,33.7,22.9l2.1,4.5L218,155.3z"/>
							<path fill="#262952" d="M186.2,132c14.1,0,26.3,9,32.5,22.2c-9.5-6.5-20.6-12.3-32.5-12.3c-11.9,0-23,5.8-32.5,12.3
								C159.9,141,172.1,132,186.2,132 M186.2,129.3c-14.7,0-28.1,9.1-35,23.8l-4.2,8.9l8.2-5.5c11.8-8.1,21.6-11.8,31-11.8
								c9.4,0,19.2,3.8,31,11.8l8.2,5.5l-4.2-8.9C214.3,138.4,200.9,129.3,186.2,129.3L186.2,129.3z"/>
						</g>
					</g>
				</g>
			</g>
		</g>
		<g>
			<path fill="#1D1E3E" stroke="#1D1E3E" stroke-width="3.9226" stroke-miterlimit="10" d="M363.1,310
				c-22.9-96.7-113.4-38.2-113.4-38.2l0.3,22.8c53.7,0,96.3,50.1,96.3,50.1c55.8,54.4,84.2-35,84.2-35
				C376.5,372.8,363.1,310,363.1,310z M350.7,290.7l-13.6,1l5.1,9.2l-11,4.4l3,7.2l-7.6,1.4v7.7c-20.3-17.1-37.9-23.4-37.9-23.4
				l8.5-6.3l-4.7-4.8l8.9-4.4l-5.1-2.9l6.4-4.9l-3.9-4.8l7.6-5.8l-5.1-9.7c39.5-1.6,49.4,26.3,49.4,26.3V290.7z"/>
			<path fill="#1D1E3E" stroke="#1D1E3E" stroke-width="3.9226" stroke-miterlimit="10" d="M136.9,310.9c0,0-12.9,63-67.5,0.3
				c0,0,29.1,89.1,84.4,34.2c0,0,42.7-50.9,95.9-50.8l-0.1-22.9C249.7,271.8,159,214,136.9,310.9z M198.2,255.1l-5,9.7l7.6,5.7
				l-3.8,4.9l6.4,4.8l-5.1,2.9l8.9,4.3l-4.6,4.9l8.5,6.2c0,0-17.5,6.6-37.7,23.8v-7.7l-7.6-1.4l2.9-7.2l-11.1-4.3l5-9.2l-13.6-0.9
				v-9.7C149.1,281.8,158.7,253.9,198.2,255.1z"/>
			<path fill="#FFFFFF" d="M350.7,290.7l-13.6,1l5.1,9.2l-11,4.4l3,7.2l-7.6,1.4v7.7c-20.3-17.1-37.9-23.4-37.9-23.4l8.5-6.3
				l-4.7-4.8l8.9-4.4l-5.1-2.9l6.4-4.9l-3.9-4.8l7.6-5.8l-5.1-9.7c39.5-1.6,49.4,26.3,49.4,26.3V290.7z"/>
		</g>
		<g>
			<g>
				<g>
					<g>
						<g>
							<defs>
								<path id="SVGID_1_" d="M241.7,203.1c0,0-2.5,24.5-6.2,40c-1.7,7.1-3.5,12.3-5.5,12.5c0,0-12.4-5.3-28.3-7.1
									c-8.9-1-18.9-0.8-28.3,1.9c-12,3.5-23.2,11.3-30.4,26.5c0,0-1.1,2.8-5.6,1.6c0,0-2.5,0.3-2.9-5.1c0,0-1.6-13.2-3.1-29.9
									c-2.6-28.7-5-67.6,0.9-68.1c0,0,44.2-9.9,80.6-6.4c9,0.8,17.6,2.5,24.8,5.5c0.4,0.2,0.9,0.3,1.3,0.5
									C239,175.1,245,177.8,241.7,203.1z"/>
							</defs>
							<clipPath id="SVGID_2_">
								<use xlink:href="#SVGID_1_"  overflow="visible"/>
							</clipPath>
							<polygon opacity="0.8" clip-path="url(#SVGID_2_)" fill="#FFFFFF" enable-background="new    " points="257.1,134.9 
								212.9,271.3 206.1,266.5 254.5,132.6 							"/>
						</g>
					</g>
				</g>
			</g>
			<g>
				<g>
					<g>
						<g>
							<defs>
								<path id="SVGID_4_" d="M241.7,203.1c0,0-2.5,24.5-6.2,40c-1.7,7.1-3.5,12.3-5.5,12.5c0,0-12.4-5.3-28.3-7.1
									c-8.9-1-18.9-0.8-28.3,1.9c-12,3.5-23.2,11.3-30.4,26.5c0,0-1.1,2.8-5.6,1.6c0,0-2.5,0.3-2.9-5.1c0,0-1.6-13.2-3.1-29.9
									c-2.6-28.7-5-67.6,0.9-68.1c0,0,44.2-9.9,80.6-6.4c9,0.8,17.6,2.5,24.8,5.5c0.4,0.2,0.9,0.3,1.3,0.5
									C239,175.1,245,177.8,241.7,203.1z"/>
							</defs>
							<clipPath id="SVGID_5_">
								<use xlink:href="#SVGID_4_"  overflow="visible"/>
							</clipPath>
							<polygon opacity="0.8" clip-path="url(#SVGID_5_)" fill="#FFFFFF" enable-background="new    " points="246.5,173.5 
								224.2,255.7 222.4,251.6 246.4,171.2 							"/>
						</g>
					</g>
				</g>
			</g>
		</g>
		<g>
			<g>
				<path id="SVGID_3_" opacity="0.2" fill="#D5D1DB" enable-background="new    " d="M257.7,203.1c0,0,2.5,24.5,6.2,40
					c1.7,7.1,3.5,12.3,5.5,12.5c0,0,12.4-5.3,28.3-7.1c8.9-1,18.9-0.8,28.3,1.9c12,3.5,23.2,11.3,30.4,26.5c0,0,1.1,2.8,5.6,1.6
					c0,0,2.5,0.3,2.9-5.1c0,0,1.6-13.2,3.1-29.9c2.6-28.7,5-67.6-0.9-68.1c0,0-44.2-9.9-80.6-6.4c-9,0.8-17.6,2.5-24.8,5.5
					c-0.4,0.2-0.9,0.3-1.3,0.5C260.4,175.1,254.4,177.8,257.7,203.1z"/>
			</g>
		</g>
		<g>
			<g>
				<g>
					<g>
						<g>
							<defs>
								<path id="SVGID_6_" d="M257.7,203.1c0,0,2.5,24.5,6.2,40c1.7,7.1,3.5,12.3,5.5,12.5c0,0,12.4-5.3,28.3-7.1
									c8.9-1,18.9-0.8,28.3,1.9c12,3.5,23.2,11.3,30.4,26.5c0,0,1.1,2.8,5.6,1.6c0,0,2.5,0.3,2.9-5.1c0,0,1.6-13.2,3.1-29.9
									c2.6-28.7,5-67.6-0.9-68.1c0,0-44.2-9.9-80.6-6.4c-9,0.8-17.6,2.5-24.8,5.5c-0.4,0.2-0.9,0.3-1.3,0.5
									C260.4,175.1,254.4,177.8,257.7,203.1z"/>
							</defs>
							<clipPath id="SVGID_7_">
								<use xlink:href="#SVGID_6_"  overflow="visible"/>
							</clipPath>
							<polygon opacity="0.8" clip-path="url(#SVGID_7_)" fill="#FFFFFF" enable-background="new    " points="385.2,134.9 
								341,271.3 334.1,266.5 382.6,132.6 							"/>
						</g>
					</g>
				</g>
			</g>
			<g>
				<g>
					<g>
						<g>
							<defs>
								<path id="SVGID_8_" d="M257.7,203.1c0,0,2.5,24.5,6.2,40c1.7,7.1,3.5,12.3,5.5,12.5c0,0,12.4-5.3,28.3-7.1
									c8.9-1,18.9-0.8,28.3,1.9c12,3.5,23.2,11.3,30.4,26.5c0,0,1.1,2.8,5.6,1.6c0,0,2.5,0.3,2.9-5.1c0,0,1.6-13.2,3.1-29.9
									c2.6-28.7,5-67.6-0.9-68.1c0,0-44.2-9.9-80.6-6.4c-9,0.8-17.6,2.5-24.8,5.5c-0.4,0.2-0.9,0.3-1.3,0.5
									C260.4,175.1,254.4,177.8,257.7,203.1z"/>
							</defs>
							<clipPath id="SVGID_9_">
								<use xlink:href="#SVGID_8_"  overflow="visible"/>
							</clipPath>
							<polygon opacity="0.8" clip-path="url(#SVGID_9_)" fill="#FFFFFF" enable-background="new    " points="374.5,173.5 
								347.1,269.3 345.3,265.1 374.4,171.2 							"/>
						</g>
					</g>
				</g>
			</g>
		</g>
	</g>
	<g>
		<path fill="#1D1E3E" stroke="#1D1E3E" stroke-width="5.0256" stroke-miterlimit="1" d="M387.5,93.8c0,0,25.3,40,14.8,97.7
			c-0.3,1.8-2.8,2-3.4,0.3C386.3,162.4,356.5,77,244,77C134,77,114.5,164.3,102.6,192.5c-0.7,1.5-2.9,1.4-3.4-0.1
			c-16.4-48.4,0.1-80.5,0.1-80.5c7.7-14.9,11.3-6.8,11.3-6.8c5.4,7.6,8.8-4.7,8.8-4.7c5.6-18.6,23.1-42.4,23.1-42.4
			c15.6-16.6,20.6,1.3,20.6,1.3c2.9,11.2,9.1-0.6,9.1-0.6c15.1-24.9,42.5-41.3,42.5-41.3s10.1-7.1,22.8-8.5
			c12.8-0.3,23.5,5.5,23.5,5.5s29.2,12.9,47.4,35.7c0,0,7.6,10.9,9.1-0.6c0,0,2.7-18.4,20.3-3.9c0,0,20.3,21.5,28.3,39.2
			c0,0,4.9,11.8,9.3,3.6C375.5,88.6,377.9,80,387.5,93.8z"/>
	</g>
</g>
</svg>
