<?xml version="1.0" encoding="utf-8"?>
<!-- Generator: Adobe Illustrator 17.1.0, SVG Export Plug-In . SVG Version: 6.00 Build 0)  -->
<!DOCTYPE svg PUBLIC "-//W3C//DTD SVG 1.1//EN" "http://www.w3.org/Graphics/SVG/1.1/DTD/svg11.dtd" [
	<!ENTITY ns_flows "http://ns.adobe.com/Flows/1.0/">
	<!ENTITY ns_extend "http://ns.adobe.com/Extensibility/1.0/">
	<!ENTITY ns_ai "http://ns.adobe.com/AdobeIllustrator/10.0/">
	<!ENTITY ns_graphs "http://ns.adobe.com/Graphs/1.0/">
	<!ENTITY ns_vars "http://ns.adobe.com/Variables/1.0/">
	<!ENTITY ns_imrep "http://ns.adobe.com/ImageReplacement/1.0/">
	<!ENTITY ns_sfw "http://ns.adobe.com/SaveForWeb/1.0/">
	<!ENTITY ns_custom "http://ns.adobe.com/GenericCustomNamespace/1.0/">
	<!ENTITY ns_adobe_xpath "http://ns.adobe.com/XPath/1.0/">
]>
<svg version="1.1" id="Calque_1" xmlns:x="&ns_extend;" xmlns:i="&ns_ai;" xmlns:graph="&ns_graphs;"
	 xmlns="http://www.w3.org/2000/svg" xmlns:xlink="http://www.w3.org/1999/xlink" xmlns:a="http://ns.adobe.com/AdobeSVGViewerExtensions/3.0/"
	 x="0px" y="0px" viewBox="0 0 500 500" enable-background="new 0 0 500 500" xml:space="preserve">
<metadata>
	<sfw  xmlns="&ns_sfw;">
		<slices></slices>
		<sliceSourceBounds  bottomLeftOrigin="true" width="496.3" height="491.5" x="1.9" y="-496.3"></sliceSourceBounds>
	</sfw>
</metadata>
<g>
	<g>
		<path fill="none" stroke="#1D1E3E" stroke-width="34.9059" stroke-miterlimit="10" d="M175.8,315.9c0,0-19.1,60.8-66.4,59.5"/>
		<g>
			<g>
				<path fill="#FFFFFF" d="M88.9,343.4c0,0-1.9-6.5,5.7-11.2c7-4.3,22.9-5.8,39.3,12.3c17.2,18.9,24.7,47.7,12.1,64.9
					c-13.1,17.9-29.6,12.7-32.6,9.7c0,0-4.2,5-15.7,13.3c-12.4,8.9-24.6,25.7-29,37.3c-4.4,11.6-11.5,23-18.6,24.7
					c-7.2,1.7-13.7-7.1-15-15.2c0,0-1.4,4.5-6.7,5.8c-5.3,1.3-14.3-6.9-14.6-23.5c0,0-2.8,2.6-5.3-1.3c-2.6-3.9-10.8-20.6,2-50.4
					c12.8-29.9,31.4-44.3,35.8-47.7c4.4-3.4-0.3-3.5,3.9-8.4c4.3-4.8,0.3-8.7-5.2-11.7c-5.5-3.1-17.9-13.5-11.5-28.3
					c6.2-14.6,24.6-22.2,35.9-16.2c11.3,6-0.8,21.4,1.2,26.6c1.9,4.8,5.3,2.2,10.1,7.4c4,4.3,3.1,10,3.1,10S87.8,343,88.9,343.4z"/>
				<path d="M68.8,469.7c-3.9,10.4-10,20.6-16.4,23.9l0,0c-0.8,0.4-1.6,0.7-2.3,0.9l0,0c-5.2,1.2-10-2.9-12.8-8.4l0,0
					c-1.1-2.1-1.9-4.3-2.3-6.5l0,0c-0.4,0.9-1.5,3.2-4.3,4.7l0,0c-0.7,0.3-1.4,0.6-2.3,0.9l0,0c-3.3,0.8-8-2-11.2-8.1l0,0
					c-2-3.8-3.4-8.9-3.6-15.2l0,0c-0.1,0.1-0.3,0.2-0.6,0.4l0,0c-1,0.5-3,0.9-4.7-1.8l0,0c-0.3-0.4-0.6-1-1-1.8l0,0
					c-3.1-6-8.4-22.2,3-48.8l0,0c12.8-29.9,31.4-44.3,35.8-47.7l0,0c2.2-1.7,2.1-2.5,2-3.6l0,0c-0.1-1.1-0.2-2.4,2-4.8l0,0
					c2-2.3,2.2-4.3,1.2-6.1l0,0c-1.1-2-3.5-3.9-6.4-5.5l0,0c-3.1-1.7-8.2-5.6-11.1-11.2l0,0c-2.4-4.6-3.4-10.5-0.5-17.2l0,0
					c2.8-6.6,8.2-11.8,14.2-15l0,0c7.3-3.8,15.6-4.6,21.9-1.3l0,0c1.9,1,3.2,2.3,4,3.8l0,0c1.9,3.6,0.8,8.3-0.6,12.6l0,0
					c-1.4,4.3-2.9,8.2-2.1,10.3l0,0c0.1,0.3,0.2,0.5,0.3,0.8l0,0c1,1.8,2.2,2.2,3.8,2.8l0,0c1.6,0.6,3.6,1.3,5.9,3.8l0,0
					c0.7,0.8,1.3,1.6,1.7,2.5l0,0c1.8,3.4,1.4,6.9,1.3,7.5l0,0c0.5,0.2,3.8,1.4,4.9,1.8l0,0c-0.1-0.5-0.3-1.9,0-3.7l0,0
					c0.5-2.2,1.9-5.1,5.7-7.4l0,0c0.3-0.2,0.6-0.4,1-0.6l0,0c7.5-3.9,22.7-4.4,38.5,12.8l0,0c4.3,4.7,8,10.1,10.9,15.7l0,0
					c8.8,16.9,10.6,36.3,1.1,49.3l0,0c-3.6,4.9-7.5,8.1-11.3,10.1l0,0c-9.8,5.1-19,1.9-21.4-0.3l0,0c-0.6,0.7-5,5.6-15.6,13.3l0,0
					C85.4,441.3,73.2,458.1,68.8,469.7L68.8,469.7z M50.1,494.3c0.8-0.2,1.5-0.5,2.3-0.9l0,0c6.3-3.3,12.4-13.5,16.3-23.8l0,0
					c4.4-11.6,16.6-28.4,29-37.4l0,0c5.7-4.1,9.7-7.5,12.2-9.8l0,0c2.5-2.3,3.5-3.5,3.5-3.5l0.1-0.1l0.1,0.1l0,0
					c2.1,2.2,11.3,5.5,21.2,0.3l0,0c3.7-1.9,7.6-5.1,11.2-10l0,0c9.4-12.8,7.6-32.2-1.1-49.1l0,0c-2.9-5.6-6.6-11-10.9-15.7l0,0
					c-15.7-17.2-30.8-16.7-38.2-12.8l0,0c-0.3,0.2-0.7,0.4-1,0.5l0,0c-3.8,2.3-5.1,5.1-5.6,7.3l0,0c-0.2,1.1-0.2,2.1-0.2,2.7l0,0
					c0.1,0.7,0.2,1.1,0.2,1.1l0.1,0.2l-0.2-0.1l0,0c-1.1-0.4-5.2-1.9-5.2-1.9l-0.1,0l0-0.1l0,0c0,0,0.2-0.9,0.1-2.3l0,0
					c-0.1-1.4-0.4-3.3-1.4-5.1l0,0c-0.4-0.8-1-1.7-1.7-2.4l0,0c-2.3-2.4-4.2-3.1-5.8-3.7l0,0c-1.6-0.6-3-1-4-2.9l0,0
					c-0.1-0.2-0.2-0.5-0.4-0.8l0,0c-0.9-2.2,0.8-6.1,2.1-10.4l0,0c1.3-4.3,2.4-8.9,0.6-12.4l0,0c-0.7-1.4-2-2.7-3.9-3.7l0,0
					c-6.1-3.2-14.4-2.4-21.7,1.3l0,0c-6,3.1-11.3,8.3-14.1,14.9l0,0c-2.8,6.7-1.9,12.4,0.5,17l0,0c2.9,5.6,8,9.5,11,11.1l0,0
					c2.9,1.6,5.4,3.4,6.5,5.5l0,0c1,1.9,0.8,4-1.2,6.4l0,0c-2.1,2.4-2,3.6-1.9,4.6l0,0c0.1,1.1,0.2,2-2.1,3.7l0,0
					c-4.4,3.4-23,17.8-35.7,47.6l0,0c-11.3,26.5-6.1,42.6-3,48.6l0,0c0.4,0.7,0.7,1.3,1,1.7l0,0c1.8,2.6,3.5,2.2,4.5,1.7l0,0
					c0.4-0.2,0.7-0.5,0.7-0.5l0.2-0.2l0,0.2l0,0c0.1,6.4,1.6,11.5,3.6,15.3l0,0c3.2,6.1,7.8,8.8,11,8l0,0c0.8-0.2,1.6-0.5,2.2-0.8
					l0,0c1.7-0.9,2.8-2.1,3.5-3.1l0,0c0.3-0.5,0.6-0.9,0.7-1.3l0,0c0.1-0.3,0.2-0.5,0.2-0.5l0.1-0.4l0.1,0.4l0,0
					c0.4,2.3,1.2,4.7,2.3,6.9l0,0C40.3,491.4,45,495.5,50.1,494.3L50.1,494.3z M88.9,343.4L88.9,343.4L88.9,343.4L88.9,343.4z"/>
			</g>
			<g>
				<path fill="#1D1E3E" d="M62.9,485.1c-2.9,4.4-6.1,8-9.7,9.8l0,0c-0.9,0.5-1.8,0.8-2.7,1l0,0c-3.1,0.7-6.1-0.2-8.5-1.9l0,0
					c-2.5-1.8-4.5-4.3-6-7.2l0,0c-0.6-1.1-1.1-2.3-1.5-3.5l0,0c-0.8,0.8-1.7,1.6-3,2.3l0,0c-0.8,0.4-1.6,0.7-2.6,1l0,0
					c-2.3,0.6-4.7-0.1-6.9-1.7l0,0c-2.2-1.5-4.3-4-6-7.2l0,0c-1.9-3.6-3.2-8.2-3.6-13.7l0,0c-0.5,0.1-1,0.1-1.5,0l0,0
					c-1.3-0.3-2.6-1.2-3.6-2.8l0,0c-0.3-0.5-0.7-1.1-1.1-1.9l0,0c-3.3-6.4-8.6-23.1,3-50.1l0,0c6.5-15.1,14.4-26.3,21.3-34.2l0,0
					c6.9-7.9,12.8-12.4,15-14.1l0,0c1-0.8,1.3-1.2,1.4-1.4l0,0c0.1-0.1,0.1-0.2,0-0.5l0,0c0-0.4-0.2-1.3,0.1-2.4l0,0
					c0.3-1.1,0.9-2.4,2.2-3.9l0,0c0.9-1,1.2-1.8,1.4-2.5l0,0c0.1-0.7,0-1.2-0.3-1.9l0,0c-0.4-0.8-1.1-1.6-2.1-2.4l0,0
					c-1-0.8-2.3-1.6-3.7-2.4l0,0c-3.3-1.8-8.6-5.8-11.7-11.9l0,0c-2.6-4.9-3.6-11.4-0.6-18.5l0,0c3-7,8.6-12.4,14.9-15.7l0,0
					c3.8-2,7.9-3.2,11.9-3.5l0,0c4-0.3,7.9,0.4,11.3,2.2l0,0c2.2,1.1,3.7,2.7,4.6,4.4l0,0c1.1,2.2,1.3,4.6,1.1,6.9l0,0
					c-0.3,3.5-1.6,7-2.6,10l0,0c-0.5,1.5-0.9,2.8-1.1,3.9l0,0c-0.2,1.1-0.2,1.9,0,2.2l0,0c0.1,0.2,0.2,0.4,0.3,0.6l0,0
					c0.4,0.7,0.7,1,1.1,1.3l0,0c0.6,0.4,1.7,0.7,3.2,1.3l0,0c1.5,0.6,3.3,1.6,5.2,3.7l0,0c0.8,0.9,1.5,1.9,2,2.8l0,0
					c1.4,2.8,1.6,5.6,1.6,7.2l0,0c0.5,0.2,1.1,0.4,1.6,0.6l0,0c0-0.5,0.1-1.1,0.2-1.8l0,0c0.5-2.6,2.3-5.9,6.4-8.4l0,0
					c0.3-0.2,0.7-0.4,1.1-0.6l0,0c4.1-2.1,10.1-3.3,17.2-1.7l0,0c7.1,1.6,15.1,6,23.1,14.8l0,0c4.4,4.8,8.2,10.3,11.2,16l0,0
					c4.5,8.6,7.2,17.9,7.6,26.8l0,0c0.4,8.9-1.6,17.3-6.6,24.1l0,0c-3.7,5.1-7.8,8.5-11.8,10.5l0,0c-5.3,2.7-10.4,3.2-14.5,2.8l0,0
					c-2.1-0.2-3.9-0.7-5.3-1.3l0,0c-0.8-0.3-1.5-0.7-2-1l0,0c-1.9,2-6.5,6.3-14.9,12.4l0,0c-6,4.3-12.1,10.7-17.1,17.3l0,0
					c-5.1,6.7-9.1,13.7-11.3,19.3l0,0C68.3,475.5,65.7,480.8,62.9,485.1L62.9,485.1z M112.1,418L112.1,418L112.1,418L112.1,418
					l1.2-1.4l1.3,1.3l0,0c0.3,0.3,1.1,0.9,2.3,1.3l0,0c1.8,0.7,4.3,1.3,7.3,1.3l0,0c3-0.1,6.3-0.7,9.8-2.6l0,0
					c3.5-1.8,7.2-4.8,10.7-9.6l0,0c4.5-6.1,6.3-13.8,6-22l0,0c-0.4-8.3-2.9-17.1-7.2-25.4l0,0c-2.9-5.5-6.5-10.7-10.7-15.3l0,0
					c-7.7-8.4-15.1-12.4-21.4-13.8l0,0c-6.3-1.4-11.6-0.4-15,1.4l0,0c-0.3,0.2-0.6,0.3-0.9,0.5l0,0c-3.4,2.1-4.5,4.4-4.9,6.3l0,0
					c-0.2,0.9-0.2,1.7-0.1,2.3l0,0c0,0.3,0.1,0.5,0.1,0.6l0,0c0,0.1,0,0.1,0,0.1l0,0c0,0,0,0,0,0l0.9,3.1l-3.1-1.2l0,0
					c-0.5-0.2-1.8-0.7-3-1.1l0,0c-1.2-0.4-2.2-0.8-2.2-0.8l-1.3-0.5l0.2-1.3l0,0l0,0c0,0,0,0,0,0l0,0l0,0c0-0.2,0.4-3.5-1.2-6.5l0,0
					c-0.4-0.7-0.9-1.4-1.5-2.1l0,0c-2.1-2.2-3.6-2.7-5.2-3.3l0,0c-0.8-0.3-1.7-0.6-2.5-1.1l0,0c-0.9-0.5-1.7-1.4-2.3-2.5l0,0
					c-0.1-0.3-0.3-0.6-0.4-0.9l0,0c-0.3-0.9-0.4-1.8-0.3-2.6l0,0c0.1-1.6,0.6-3.2,1.1-4.9l0,0c0.8-2.6,1.9-5.5,2.4-8.2l0,0
					c0.3-1.3,0.4-2.6,0.3-3.8l0,0c-0.1-1.2-0.3-2.2-0.8-3.1l0,0c-0.6-1.1-1.6-2.2-3.2-3l0,0c-2.8-1.5-6.1-2-9.6-1.8l0,0
					c-3.5,0.2-7.2,1.3-10.7,3.1l0,0c-5.7,3-10.7,7.9-13.4,14.1l0,0c-2.6,6.3-1.8,11.4,0.4,15.7l0,0c2.7,5.2,7.6,9,10.4,10.5l0,0
					c1.5,0.8,2.9,1.7,4.2,2.7l0,0c1.2,1,2.3,2.1,3,3.4l0,0c0.6,1.2,0.9,2.6,0.7,4l0,0c-0.2,1.4-1,2.8-2.1,4.1l0,0
					c-1,1.1-1.3,1.8-1.5,2.3l0,0c-0.1,0.3-0.1,0.6-0.1,0.9l0,0c0,0.2,0.1,0.5,0.1,0.9l0,0c0,0.6-0.1,1.5-0.5,2.2l0,0
					c-0.5,0.8-1.1,1.5-2.2,2.3l0,0c-2.2,1.7-7.8,6-14.5,13.7l0,0c-6.7,7.6-14.4,18.6-20.7,33.3l0,0c-11.2,26.2-6,41.7-3.1,47.3l0,0
					c0.4,0.7,0.7,1.2,0.9,1.6l0,0c0.7,1.1,1.3,1.3,1.6,1.4l0,0c0.3,0.1,0.6,0,0.9-0.2l0,0c0.1-0.1,0.2-0.1,0.3-0.2l0,0
					c0,0,0,0,0.1,0l0,0c0,0,0,0,0,0l0,0l2.7-2.5l0.1,3.7l0,0c0.1,6.2,1.5,11.1,3.4,14.6l0,0c1.5,2.9,3.3,4.9,5,6l0,0
					c1.7,1.2,3.2,1.5,4.2,1.2l0,0c0.7-0.2,1.3-0.4,1.9-0.7l0,0c1.4-0.7,2.3-1.8,2.9-2.6l0,0c0.3-0.4,0.5-0.8,0.6-1l0,0
					c0.1-0.1,0.1-0.2,0.1-0.3l0,0c0,0,0,0,0-0.1l0,0c0,0,0,0,0,0l2-6.7l1.2,6.9l0,0c0.4,2.1,1.1,4.4,2.2,6.4l0,0
					c1.3,2.5,3.1,4.7,5,6.1l0,0c1.9,1.4,3.9,1.9,5.9,1.4l0,0c0.6-0.2,1.3-0.4,1.9-0.7l0,0c2.8-1.4,5.8-4.6,8.5-8.7l0,0
					c2.7-4.1,5.2-9.2,7.1-14.3l0,0c2.3-6,6.5-13.2,11.7-20.1l0,0c5.2-6.9,11.4-13.4,17.8-18l0,0c5.7-4.1,9.6-7.4,12-9.6l0,0
					c1.2-1.1,2.1-2,2.6-2.6l0,0c0.3-0.3,0.5-0.5,0.6-0.6l0,0C112,418.1,112.1,418,112.1,418L112.1,418
					C112.1,418,112.1,418,112.1,418L112.1,418z M88.9,343.4l-1.6,0.5L88.9,343.4L88.9,343.4z"/>
			</g>
			<g>
				<g>
					<path fill="#1D1E3E" d="M87.9,344.7c0.6,0.2,1.1,0.4,1.7,0.7c0.5,0.2,1.1,0.5,1.6,0.7c1,0.5,2,1.1,3,1.7
						c0.9,0.6,1.8,1.4,2.5,2.2c0.4,0.4,0.7,0.8,1,1.3c0.2,0.2,0.3,0.4,0.5,0.7c0.1,0.1,0.1,0.2,0.2,0.3c0.1,0.1,0.1,0.2,0.2,0.3
						c0.5,1,0.9,2,1.2,3.1c0.3,1.1,0.6,2.3,0.8,3.4c0.2,1.2,0.4,2.3,0.5,3.5c0.1,0.6,0.1,1.2,0.2,1.8l0.1,0.9c0,0.3,0,0.6,0,0.9l0,0
						l0.2,1.6l1.2,0.1c0.1,0,0.2,0,0.3,0l0.4,0c0.2,0,0.5,0.1,0.7,0.1c0.5,0.1,1,0.2,1.4,0.3c1,0.2,1.9,0.4,2.9,0.7
						c1.9,0.6,3.8,1.3,5.6,2.1c1.8,0.9,3.5,1.9,5.1,3.2c1.6,1.2,3,2.7,4.2,4.4c-1-1.8-2.2-3.5-3.6-5c-1.4-1.5-3.1-2.8-4.8-4
						c-1.7-1.2-3.6-2.2-5.5-3c-1-0.4-1.9-0.8-2.9-1.2c-0.5-0.2-1-0.3-1.5-0.5c-0.3-0.1-0.5-0.2-0.8-0.2l-0.4-0.1
						c-0.1,0-0.3-0.1-0.4-0.1l1.4,1.6l0,0c0-0.4,0-0.7,0-1l-0.1-1c0-0.6-0.1-1.3-0.2-1.9c-0.1-1.3-0.3-2.5-0.5-3.8
						c-0.2-1.3-0.5-2.5-0.9-3.8c-0.4-1.3-0.8-2.5-1.5-3.7c-1.3-2.5-3.3-4.5-5.5-6c-1.1-0.8-2.3-1.4-3.4-2c-0.6-0.3-1.2-0.5-1.8-0.8
						c-0.6-0.2-1.2-0.5-1.8-0.7L87.9,344.7z"/>
				</g>
			</g>
			<g>
				<path fill="#1D1E3E" d="M119,398.9c0.1,0.9,0.1,1.8,0.1,2.7c0,0.9-0.1,1.8-0.2,2.7c-0.3,1.8-0.7,3.5-1.4,5.1
					c-1.3,3.3-3.2,6.2-5.6,8.7l2.6,2.1c1.1-1.6,2-3.2,2.8-5c0.8-1.7,1.4-3.5,1.8-5.4c0.4-1.8,0.6-3.7,0.6-5.5c0-0.9-0.1-1.8-0.2-2.8
					C119.4,400.7,119.3,399.8,119,398.9z"/>
			</g>
			<g>
				<path fill="#1D1E3E" d="M78,373.5c0.9-0.7,1.8-1.3,2.8-1.8c1-0.5,2-1,3-1.4c2-0.8,4.2-1.4,6.3-1.8c4.3-0.9,8.7-1.1,13-0.8l0-3.4
					c-4.6,0.3-9.1,1.1-13.4,2.5c-2.2,0.7-4.2,1.6-6.2,2.7c-1,0.5-2,1.1-2.9,1.8C79.6,372.1,78.8,372.7,78,373.5z"/>
			</g>
			<g>
				<path fill="#1D1E3E" d="M47.8,377c-0.4,0.9-0.6,2-0.7,3c-0.1,1-0.1,2.1-0.1,3.1c0.1,2.1,0.5,4.1,1,6.2c1.1,4,2.8,7.8,4.9,11.4
					c2.1,3.6,4.5,6.9,7.1,10c1.3,1.6,2.7,3.1,4.2,4.5c1.4,1.4,2.9,2.8,4.5,4.1c-2.4-3.3-4.8-6.6-7.1-9.9c-2.3-3.3-4.5-6.6-6.5-10.1
					c-2-3.5-3.8-7-5.2-10.7c-0.7-1.9-1.3-3.8-1.7-5.7c-0.2-1-0.4-2-0.4-3c0-0.5-0.1-1-0.1-1.5C47.7,378,47.7,377.5,47.8,377z"/>
			</g>
			<g>
				<path fill="#1D1E3E" d="M37.1,396.3c-1.9,2.3-3.7,4.7-5.4,7.1c-1.7,2.5-3.3,5-4.8,7.5c-3,5.1-5.7,10.5-7.9,16.1
					c-2.2,5.6-4,11.4-5.2,17.3c-1.2,5.9-1.8,12-1.7,18.1l3.4-0.1c-0.4-5.8-0.1-11.7,0.8-17.5c0.9-5.8,2.3-11.5,4.3-17.1
					c1.9-5.6,4.3-11,7.1-16.3c1.4-2.6,2.9-5.2,4.5-7.7C33.6,401.1,35.3,398.7,37.1,396.3z"/>
			</g>
			<g>
				<path fill="#1D1E3E" d="M56.9,417.3c-1.1,1-2,2-3,3c-1,1-1.9,2.1-2.8,3.2c-1.8,2.2-3.5,4.5-5,6.9c-3.1,4.8-5.8,9.9-7.8,15.3
					c-2.1,5.4-3.5,11-4.3,16.7c-0.8,5.7-1,11.6-0.5,17.4l3.3-0.4c-0.7-5.5-0.9-11.1-0.4-16.7c0.5-5.6,1.7-11.1,3.4-16.5
					c1.7-5.4,4.1-10.5,6.9-15.4c1.4-2.4,3-4.8,4.7-7.1c0.8-1.1,1.7-2.3,2.6-3.4C54.9,419.4,55.9,418.4,56.9,417.3z"/>
			</g>
			<g>
				<path fill="#1D1E3E" d="M97.4,349C97.4,349,97.4,349,97.4,349C97.4,349,97.4,349,97.4,349C97.4,349,97.4,349,97.4,349
					c0.1-0.1,0.2-0.1,0.3-0.1c0.1,0,0.3-0.1,0.5-0.1c0.3-0.1,0.7-0.1,1.1-0.1c0.8,0,1.6,0.1,2.4,0.2c1.6,0.3,3.2,0.9,4.8,1.7
					c3.1,1.5,6.1,3.6,8.8,5.8c2.8,2.2,5.4,4.7,7.7,7.4c1.1,1.4,2.2,2.8,3.1,4.4c0.5,0.8,0.9,1.6,1.2,2.4c0.4,0.8,0.7,1.7,0.8,2.6
					c-0.1-0.9-0.3-1.8-0.6-2.6c-0.3-0.9-0.7-1.7-1.1-2.5c-0.8-1.6-1.8-3.2-2.8-4.7c-2.1-3-4.6-5.7-7.3-8.2c-2.7-2.5-5.5-4.8-8.8-6.7
					c-1.6-0.9-3.4-1.8-5.3-2.3c-1-0.3-1.9-0.5-3-0.5c-0.5,0-1.1,0-1.6,0.1c-0.3,0-0.6,0.1-0.9,0.2c-0.1,0-0.3,0.1-0.5,0.1
					c-0.1,0-0.2,0.1-0.2,0.1l-0.1,0.1c-0.1,0-0.1,0-0.2,0.1L97.4,349z"/>
			</g>
			<g>
				<path fill="#1D1E3E" d="M59.6,300.1c1.2,0.7,2.4,1.5,3.5,2.3c0.5,0.4,1.1,0.8,1.5,1.3c0.5,0.5,0.9,1,1.2,1.5
					c0.3,0.5,0.5,1.1,0.6,1.6c0,0.5-0.1,1-0.5,1.4c-0.2,0.2-0.4,0.4-0.6,0.6l-0.4,0.3c-0.1,0.1-0.3,0.2-0.4,0.4
					c-0.5,0.5-1,1-1.5,1.5c-1,1.1-1.8,2.3-2.5,3.6c-0.7,1.3-1.2,2.6-1.5,4.1c-0.3,1.4-0.4,2.9-0.2,4.3c0.1,0.7,0.2,1.4,0.4,2.1
					c0.2,0.7,0.5,1.3,0.8,2c-0.2-0.7-0.3-1.4-0.4-2c-0.1-0.7-0.1-1.4-0.1-2c0-0.7,0.1-1.4,0.2-2c0.1-0.7,0.2-1.3,0.4-2
					c0.4-1.3,0.9-2.5,1.6-3.7c0.7-1.1,1.5-2.2,2.4-3.2c0.4-0.5,0.9-1,1.4-1.4c0.1-0.1,0.2-0.2,0.4-0.3l0.4-0.3
					c0.3-0.3,0.6-0.5,0.8-0.9c0.2-0.3,0.5-0.7,0.6-1.1c0.1-0.4,0.2-0.9,0.1-1.3c-0.1-0.9-0.5-1.6-0.9-2.3c-0.5-0.6-1-1.1-1.6-1.6
					c-0.6-0.5-1.2-0.8-1.8-1.2C62.3,301,61,300.4,59.6,300.1z"/>
			</g>
		</g>
	</g>
	<g>
		<path fill="none" stroke="#1D1E3E" stroke-width="34.9059" stroke-miterlimit="10" d="M324.2,315.9c0,0,19.1,60.8,66.4,59.5"/>
		<g>
			<g>
				<path fill="#FFFFFF" d="M411.1,343.4c0,0,1.9-6.5-5.7-11.2c-7-4.3-22.9-5.8-39.3,12.3c-17.2,18.9-24.7,47.7-12.1,64.9
					c13.1,17.9,29.6,12.7,32.6,9.7c0,0,4.2,5,15.7,13.3c12.4,8.9,24.6,25.7,29,37.3c4.4,11.6,11.5,23,18.6,24.7
					c7.2,1.7,13.7-7.1,15-15.2c0,0,1.4,4.5,6.7,5.8c5.3,1.3,14.3-6.9,14.6-23.5c0,0,2.8,2.6,5.3-1.3c2.6-3.9,10.8-20.6-2-50.4
					c-12.8-29.9-31.4-44.3-35.8-47.7c-4.4-3.4,0.3-3.5-3.9-8.4c-4.3-4.8-0.3-8.7,5.2-11.7c5.5-3.1,17.9-13.5,11.5-28.3
					c-6.2-14.6-24.6-22.2-35.9-16.2c-11.3,6,0.8,21.4-1.2,26.6c-1.9,4.8-5.3,2.2-10.1,7.4c-4,4.3-3,10-3,10S412.2,343,411.1,343.4z"
					/>
				<path d="M431.2,469.7c-4.4-11.6-16.6-28.4-28.9-37.3l0,0c-10.6-7.7-15-12.6-15.6-13.3l0,0c-2.4,2.2-11.5,5.4-21.4,0.3l0,0
					c-3.8-2-7.7-5.2-11.3-10.1l0,0c-9.5-12.9-7.7-32.4,1.1-49.3l0,0c2.9-5.6,6.6-11,10.9-15.7l0,0c15.7-17.3,31-16.7,38.5-12.8l0,0
					c0.3,0.2,0.7,0.4,1,0.6l0,0c3.8,2.3,5.2,5.2,5.7,7.4l0,0c0.4,1.8,0.1,3.2,0,3.7l0,0c1.2-0.4,4.4-1.6,4.9-1.8l0,0
					c-0.1-0.6-0.4-4.1,1.3-7.5l0,0c0.4-0.8,1-1.7,1.7-2.5l0,0c2.3-2.5,4.3-3.2,5.9-3.8l0,0c1.6-0.6,2.9-1,3.8-2.8l0,0
					c0.1-0.2,0.2-0.5,0.3-0.8l0,0c0.8-2.1-0.7-6-2.1-10.3l0,0c-1.3-4.3-2.4-8.9-0.6-12.6l0,0c0.8-1.5,2-2.8,4-3.8l0,0
					c6.2-3.3,14.6-2.5,21.9,1.3l0,0c6,3.1,11.4,8.3,14.2,15l0,0c2.9,6.7,1.9,12.6-0.5,17.2l0,0c-2.9,5.7-8,9.6-11.1,11.2l0,0
					c-2.9,1.6-5.4,3.4-6.4,5.5l0,0c-1,1.8-0.8,3.8,1.2,6.1l0,0c2.2,2.4,2.1,3.7,2,4.8l0,0c-0.1,1.1-0.2,1.9,2,3.6l0,0
					c4.4,3.4,23,17.8,35.8,47.7l0,0c11.4,26.6,6.1,42.8,3,48.8l0,0c-0.4,0.7-0.7,1.3-1,1.8l0,0c-1.8,2.7-3.7,2.3-4.7,1.8l0,0
					c-0.2-0.1-0.4-0.3-0.6-0.4l0,0c-0.2,6.3-1.6,11.4-3.6,15.2l0,0c-3.2,6.1-7.8,9-11.2,8.1l0,0c-0.9-0.2-1.6-0.5-2.3-0.9l0,0
					c-2.8-1.5-4-3.8-4.3-4.7l0,0c-0.4,2.2-1.2,4.5-2.3,6.5l0,0c-2.8,5.4-7.6,9.6-12.8,8.4l0,0c-0.8-0.2-1.6-0.5-2.3-0.9l0,0
					C441.1,490.3,435.1,480.1,431.2,469.7L431.2,469.7z M449.9,494.3c5,1.2,9.8-2.9,12.6-8.3l0,0c1.1-2.2,1.9-4.5,2.3-6.9l0,0
					l0.1-0.4l0.1,0.4c0,0,0.1,0.2,0.2,0.5l0,0c0.1,0.3,0.4,0.8,0.7,1.3l0,0c0.7,1,1.8,2.2,3.5,3.1l0,0c0.6,0.3,1.4,0.6,2.2,0.8l0,0
					c3.2,0.8,7.8-1.9,11-8l0,0c2-3.8,3.4-9,3.6-15.3l0,0l0-0.2l0.2,0.2c0,0,0.3,0.2,0.7,0.5l0,0c1,0.5,2.7,0.9,4.5-1.7l0,0
					c0.3-0.4,0.6-1,1-1.7l0,0c3.1-5.9,8.3-22-3-48.6l0,0c-12.8-29.8-31.3-44.2-35.7-47.6l0,0c-2.2-1.7-2.2-2.7-2.1-3.7l0,0
					c0.1-1.1,0.2-2.2-1.9-4.6l0,0c-2.1-2.3-2.2-4.5-1.2-6.4l0,0c1.1-2.1,3.6-3.9,6.5-5.5l0,0c3-1.7,8.1-5.5,11-11.1l0,0
					c2.4-4.6,3.3-10.4,0.5-17l0,0c-2.8-6.6-8.1-11.7-14.1-14.9l0,0c-7.3-3.8-15.5-4.6-21.7-1.3l0,0c-1.9,1-3.1,2.3-3.9,3.7l0,0
					c-1.8,3.5-0.8,8.1,0.6,12.4l0,0c1.3,4.3,3,8.2,2.1,10.4l0,0c-0.1,0.3-0.2,0.5-0.4,0.8l0,0c-1,1.9-2.3,2.3-4,2.9l0,0
					c-1.6,0.6-3.6,1.3-5.8,3.7l0,0c-0.7,0.8-1.3,1.6-1.7,2.4l0,0c-1,1.8-1.3,3.7-1.4,5.1l0,0c-0.1,1.4,0.1,2.3,0.1,2.3l0,0l0,0.1
					l-0.1,0c0,0-4.1,1.5-5.2,1.9l0,0l-0.2,0.1l0.1-0.2c0,0,0.1-0.4,0.2-1.1l0,0c0.1-0.7,0.1-1.6-0.2-2.7l0,0c-0.5-2.2-1.9-5-5.6-7.3
					l0,0c-0.3-0.2-0.6-0.4-1-0.5l0,0c-7.4-3.9-22.5-4.4-38.2,12.8l0,0c-4.3,4.7-8,10.1-10.9,15.7l0,0c-8.8,16.9-10.6,36.2-1.1,49.1
					l0,0c3.6,4.9,7.4,8.1,11.2,10l0,0c9.9,5.1,19.1,1.8,21.2-0.3l0,0l0.1-0.1l0.1,0.1c0,0,1,1.2,3.5,3.5l0,0
					c2.5,2.3,6.4,5.6,12.2,9.8l0,0c12.4,8.9,24.6,25.7,29,37.4l0,0c3.9,10.3,10,20.5,16.3,23.8l0,0
					C448.4,493.8,449.2,494.1,449.9,494.3L449.9,494.3z M411.1,343.4L411.1,343.4L411.1,343.4L411.1,343.4z"/>
			</g>
			<g>
				<path fill="#1D1E3E" d="M437.1,485.1c-2.9-4.4-5.4-9.6-7.4-14.9l0,0c-2.1-5.6-6.2-12.6-11.3-19.3l0,0
					c-5.1-6.7-11.1-13-17.1-17.3l0,0c-8.5-6.1-13-10.5-14.9-12.4l0,0c-0.6,0.4-1.3,0.7-2,1l0,0c-1.5,0.6-3.3,1.1-5.3,1.3l0,0
					c-4.1,0.5-9.2,0-14.5-2.8l0,0c-4-2.1-8.1-5.4-11.8-10.5l0,0c-5-6.8-7-15.3-6.6-24.1l0,0c0.4-8.9,3.1-18.1,7.6-26.8l0,0
					c3-5.7,6.8-11.2,11.2-16l0,0c8-8.8,16.1-13.2,23.1-14.8l0,0c7.1-1.6,13.1-0.5,17.2,1.7l0,0c0.4,0.2,0.7,0.4,1.1,0.6l0,0
					c4.1,2.5,5.9,5.8,6.4,8.4l0,0c0.1,0.6,0.2,1.2,0.2,1.8l0,0c0.6-0.2,1.2-0.4,1.6-0.6l0,0c0-1.6,0.1-4.3,1.6-7.2l0,0
					c0.5-1,1.1-1.9,2-2.8l0,0c1.9-2,3.7-3,5.2-3.7l0,0c1.5-0.6,2.6-0.9,3.2-1.3l0,0c0.4-0.3,0.7-0.6,1.1-1.3l0,0
					c0.1-0.2,0.2-0.4,0.3-0.6l0,0c0.1-0.3,0.2-1.1,0-2.2l0,0c-0.2-1.1-0.6-2.4-1.1-3.9l0,0c-1-3-2.2-6.5-2.6-10l0,0
					c-0.2-2.3,0-4.7,1.1-6.9l0,0c0.9-1.8,2.4-3.3,4.6-4.4l0,0c3.4-1.8,7.3-2.4,11.3-2.2l0,0c4,0.3,8.1,1.5,11.9,3.5l0,0
					c6.3,3.3,11.9,8.7,14.9,15.7l0,0c3.1,7.1,2,13.6-0.6,18.5l0,0c-3.2,6-8.4,10.1-11.7,11.9l0,0c-1.4,0.8-2.7,1.6-3.7,2.4l0,0
					c-1,0.8-1.7,1.7-2.1,2.4l0,0c-0.4,0.7-0.5,1.3-0.3,1.9l0,0c0.1,0.7,0.5,1.5,1.4,2.5l0,0c1.3,1.5,2,2.7,2.2,3.9l0,0
					c0.3,1.1,0.1,2,0.1,2.4l0,0c0,0.3,0,0.3,0,0.5l0,0c0.1,0.2,0.4,0.6,1.4,1.4l0,0c2.2,1.7,8.1,6.3,15,14.1l0,0
					c6.9,7.9,14.8,19.1,21.3,34.2l0,0c11.5,27,6.3,43.7,3,50.1l0,0c-0.4,0.8-0.8,1.4-1.1,1.9l0,0c-1,1.6-2.3,2.5-3.6,2.8l0,0
					c-0.6,0.1-1.1,0.1-1.5,0l0,0c-0.4,5.5-1.8,10.1-3.6,13.7l0,0c-1.7,3.3-3.8,5.7-6,7.2l0,0c-2.2,1.5-4.6,2.2-6.9,1.7l0,0
					c-1-0.2-1.8-0.6-2.6-1l0,0c-1.3-0.7-2.3-1.5-3-2.3l0,0c-0.4,1.2-0.9,2.4-1.5,3.5l0,0c-1.5,2.9-3.5,5.5-6,7.2l0,0
					c-2.4,1.8-5.4,2.7-8.5,1.9l0,0c-0.9-0.2-1.8-0.6-2.7-1l0,0C443.2,493.1,440,489.5,437.1,485.1L437.1,485.1z M387.9,418
					C387.9,418,387.9,418,387.9,418L387.9,418c0.1,0.1,0.1,0.1,0.2,0.2l0,0c0.1,0.1,0.3,0.4,0.6,0.6l0,0c0.5,0.6,1.4,1.4,2.6,2.6
					l0,0c2.4,2.2,6.3,5.5,12,9.6l0,0c6.4,4.6,12.6,11.1,17.8,18l0,0c5.2,6.9,9.4,14.1,11.7,20.1l0,0c1.9,5.1,4.4,10.1,7.1,14.3l0,0
					c2.7,4.1,5.7,7.3,8.5,8.7l0,0c0.7,0.3,1.3,0.6,1.9,0.7l0,0c2,0.5,3.9-0.1,5.9-1.4l0,0c1.9-1.4,3.7-3.5,5-6.1l0,0
					c1.1-2,1.8-4.3,2.2-6.4l0,0l1.2-6.9l2,6.7c0,0,0,0,0,0l0,0c0,0,0,0,0,0.1l0,0c0,0.1,0.1,0.2,0.1,0.3l0,0c0.1,0.3,0.3,0.6,0.6,1
					l0,0c0.6,0.8,1.5,1.9,2.9,2.6l0,0c0.5,0.3,1.2,0.5,1.9,0.7l0,0c1,0.3,2.5,0,4.2-1.2l0,0c1.7-1.2,3.5-3.2,5-6l0,0
					c1.9-3.6,3.2-8.5,3.4-14.6l0,0l0.1-3.7l2.7,2.5l0,0c0,0,0,0,0,0l0,0c0,0,0,0,0.1,0l0,0c0.1,0,0.2,0.1,0.3,0.2l0,0
					c0.3,0.1,0.6,0.2,0.9,0.2l0,0c0.3-0.1,0.8-0.3,1.6-1.4l0,0c0.2-0.4,0.6-0.9,0.9-1.6l0,0c2.9-5.6,8.1-21.1-3.1-47.3l0,0
					c-6.3-14.8-14-25.7-20.7-33.3l0,0c-6.7-7.7-12.3-12-14.5-13.7l0,0c-1-0.8-1.7-1.5-2.2-2.3l0,0c-0.5-0.8-0.6-1.7-0.5-2.2l0,0
					c0-0.4,0.1-0.7,0.1-0.9l0,0c0-0.3,0-0.5-0.1-0.9l0,0c-0.1-0.4-0.5-1.2-1.5-2.3l0,0c-1.2-1.3-1.9-2.7-2.1-4.1l0,0
					c-0.2-1.4,0.1-2.8,0.7-4l0,0c0.7-1.3,1.7-2.4,3-3.4l0,0c1.2-1,2.7-1.9,4.2-2.7l0,0c2.8-1.5,7.7-5.3,10.4-10.5l0,0
					c2.2-4.3,3.1-9.4,0.4-15.7l0,0c-2.6-6.2-7.7-11.1-13.4-14.1l0,0c-3.5-1.8-7.1-2.9-10.7-3.1l0,0c-3.5-0.2-6.8,0.3-9.6,1.8l0,0
					c-1.7,0.9-2.6,1.9-3.2,3l0,0c-0.5,0.9-0.7,2-0.8,3.1l0,0c-0.1,1.2,0.1,2.5,0.3,3.8l0,0c0.5,2.7,1.6,5.5,2.4,8.2l0,0
					c0.6,1.8,1,3.4,1.1,4.9l0,0c0.1,0.9,0,1.8-0.3,2.6l0,0c-0.1,0.3-0.3,0.6-0.4,0.9l0,0c-0.6,1.2-1.4,2-2.3,2.5l0,0
					c-0.9,0.5-1.7,0.8-2.5,1.1l0,0c-1.6,0.6-3.1,1.1-5.2,3.3l0,0c-0.6,0.7-1.1,1.4-1.5,2.1l0,0c-1.6,3-1.2,6.3-1.2,6.5l0,0l0,0
					c0,0,0,0,0,0l0,0l0,0l0.2,1.3l-1.3,0.5c0,0-1,0.4-2.2,0.8l0,0c-1.2,0.4-2.5,0.9-3,1.1l0,0l-3.1,1.2l0.9-3.1c0,0,0,0,0,0l0,0
					c0,0,0-0.1,0-0.1l0,0c0-0.1,0.1-0.4,0.1-0.6l0,0c0-0.6,0.1-1.4-0.1-2.3l0,0c-0.4-1.8-1.5-4.2-4.9-6.3l0,0
					c-0.3-0.2-0.6-0.3-0.9-0.5l0,0c-3.4-1.7-8.6-2.8-15-1.4l0,0c-6.3,1.5-13.7,5.4-21.4,13.8l0,0c-4.2,4.6-7.8,9.8-10.7,15.3l0,0
					c-4.3,8.2-6.9,17.1-7.2,25.4l0,0c-0.4,8.3,1.5,16,6,22l0,0c3.5,4.7,7.1,7.7,10.7,9.6l0,0c3.5,1.8,6.8,2.5,9.8,2.6l0,0
					c3,0.1,5.5-0.5,7.3-1.3l0,0c1.2-0.5,2-1,2.3-1.3l0,0l1.3-1.3L387.9,418L387.9,418L387.9,418L387.9,418L387.9,418z M411.1,343.4
					l1.6,0.5L411.1,343.4L411.1,343.4z"/>
			</g>
			<g>
				<g>
					<path fill="#1D1E3E" d="M412.1,344.7c-0.6,0.2-1.1,0.4-1.7,0.7c-0.5,0.2-1.1,0.5-1.6,0.7c-1,0.5-2,1.1-3,1.7
						c-0.9,0.6-1.8,1.4-2.5,2.2c-0.4,0.4-0.7,0.8-1,1.3c-0.2,0.2-0.3,0.4-0.5,0.7c-0.1,0.1-0.1,0.2-0.2,0.3
						c-0.1,0.1-0.1,0.2-0.2,0.3c-0.5,1-0.9,2-1.2,3.1c-0.3,1.1-0.6,2.3-0.8,3.4c-0.2,1.2-0.4,2.3-0.5,3.5c-0.1,0.6-0.1,1.2-0.2,1.8
						l-0.1,0.9c0,0.3,0,0.6,0,0.9l0,0l-0.2,1.6l-1.2,0.1c-0.1,0-0.2,0-0.3,0l-0.4,0c-0.2,0-0.5,0.1-0.7,0.1c-0.5,0.1-1,0.2-1.4,0.3
						c-1,0.2-1.9,0.4-2.9,0.7c-1.9,0.6-3.8,1.3-5.6,2.1c-1.8,0.9-3.5,1.9-5.1,3.2c-1.6,1.2-3,2.7-4.2,4.4c1-1.8,2.2-3.5,3.6-5
						c1.4-1.5,3.1-2.8,4.8-4c1.7-1.2,3.6-2.2,5.5-3c1-0.4,1.9-0.8,2.9-1.2c0.5-0.2,1-0.3,1.5-0.5c0.3-0.1,0.5-0.2,0.8-0.2l0.4-0.1
						c0.1,0,0.3-0.1,0.4-0.1l-1.4,1.6l0,0c0-0.4,0-0.7,0-1l0.1-1c0-0.6,0.1-1.3,0.2-1.9c0.1-1.3,0.3-2.5,0.5-3.8
						c0.2-1.3,0.5-2.5,0.9-3.8c0.4-1.3,0.8-2.5,1.5-3.7c1.3-2.5,3.3-4.5,5.5-6c1.1-0.8,2.3-1.4,3.4-2c0.6-0.3,1.2-0.5,1.8-0.8
						c0.6-0.2,1.2-0.5,1.8-0.7L412.1,344.7z"/>
				</g>
			</g>
			<g>
				<path fill="#1D1E3E" d="M381,398.9c-0.1,0.9-0.1,1.8-0.1,2.7c0,0.9,0.1,1.8,0.2,2.7c0.3,1.8,0.7,3.5,1.4,5.1
					c1.3,3.3,3.2,6.2,5.6,8.7l-2.6,2.1c-1.1-1.6-2-3.2-2.8-5c-0.8-1.7-1.4-3.5-1.8-5.4c-0.4-1.8-0.6-3.7-0.6-5.5
					c0-0.9,0.1-1.8,0.2-2.8C380.6,400.7,380.7,399.8,381,398.9z"/>
			</g>
			<g>
				<path fill="#1D1E3E" d="M422,373.5c-0.9-0.7-1.8-1.3-2.8-1.8c-1-0.5-2-1-3-1.4c-2-0.8-4.2-1.4-6.3-1.8c-4.3-0.9-8.7-1.1-13-0.8
					l0-3.4c4.6,0.3,9.1,1.1,13.4,2.5c2.2,0.7,4.2,1.6,6.2,2.7c1,0.5,2,1.1,2.9,1.8C420.4,372.1,421.2,372.7,422,373.5z"/>
			</g>
			<g>
				<path fill="#1D1E3E" d="M452.2,377c0.4,0.9,0.6,2,0.7,3c0.1,1,0.1,2.1,0.1,3.1c-0.1,2.1-0.5,4.1-1,6.2c-1.1,4-2.8,7.8-4.9,11.4
					c-2.1,3.6-4.5,6.9-7.1,10c-1.3,1.6-2.7,3.1-4.2,4.5c-1.4,1.4-2.9,2.8-4.5,4.1c2.4-3.3,4.8-6.6,7.1-9.9c2.3-3.3,4.5-6.6,6.5-10.1
					c2-3.5,3.8-7,5.2-10.7c0.7-1.9,1.3-3.8,1.7-5.7c0.2-1,0.4-2,0.4-3c0-0.5,0.1-1,0.1-1.5C452.3,378,452.3,377.5,452.2,377z"/>
			</g>
			<g>
				<path fill="#1D1E3E" d="M462.9,396.3c1.9,2.3,3.7,4.7,5.4,7.1c1.7,2.5,3.3,5,4.8,7.5c3,5.1,5.7,10.5,7.9,16.1
					c2.2,5.6,4,11.4,5.2,17.3c1.2,5.9,1.8,12,1.7,18.1l-3.4-0.1c0.4-5.8,0.1-11.7-0.8-17.5c-0.9-5.8-2.3-11.5-4.3-17.1
					c-1.9-5.6-4.3-11-7.1-16.3c-1.4-2.6-2.9-5.2-4.5-7.7C466.4,401.1,464.7,398.7,462.9,396.3z"/>
			</g>
			<g>
				<path fill="#1D1E3E" d="M443.1,417.3c1.1,1,2,2,3,3c1,1,1.9,2.1,2.8,3.2c1.8,2.2,3.5,4.5,5,6.9c3.1,4.8,5.8,9.9,7.8,15.3
					c2.1,5.4,3.5,11,4.3,16.7c0.8,5.7,1,11.6,0.5,17.4l-3.3-0.4c0.7-5.5,0.9-11.1,0.4-16.7c-0.5-5.6-1.7-11.1-3.4-16.5
					c-1.7-5.4-4.1-10.5-6.9-15.4c-1.4-2.4-3-4.8-4.7-7.1c-0.8-1.1-1.7-2.3-2.6-3.4C445.1,419.4,444.1,418.4,443.1,417.3z"/>
			</g>
			<g>
				<path fill="#1D1E3E" d="M402.6,349C402.6,349,402.6,349,402.6,349C402.6,349,402.6,349,402.6,349C402.6,349,402.6,349,402.6,349
					c-0.1-0.1-0.2-0.1-0.3-0.1c-0.1,0-0.3-0.1-0.5-0.1c-0.3-0.1-0.7-0.1-1.1-0.1c-0.8,0-1.6,0.1-2.4,0.2c-1.6,0.3-3.2,0.9-4.8,1.7
					c-3.1,1.5-6.1,3.6-8.8,5.8c-2.8,2.2-5.4,4.7-7.7,7.4c-1.1,1.4-2.2,2.8-3.1,4.4c-0.5,0.8-0.9,1.6-1.2,2.4
					c-0.4,0.8-0.7,1.7-0.8,2.6c0.1-0.9,0.3-1.8,0.6-2.6c0.3-0.9,0.7-1.7,1.1-2.5c0.8-1.6,1.8-3.2,2.8-4.7c2.1-3,4.6-5.7,7.3-8.2
					c2.7-2.5,5.5-4.8,8.8-6.7c1.6-0.9,3.4-1.8,5.3-2.3c1-0.3,1.9-0.5,3-0.5c0.5,0,1.1,0,1.6,0.1c0.3,0,0.6,0.1,0.9,0.2
					c0.1,0,0.3,0.1,0.5,0.1c0.1,0,0.2,0.1,0.2,0.1l0.1,0.1c0.1,0,0.1,0,0.2,0.1L402.6,349z"/>
			</g>
			<g>
				<path fill="#1D1E3E" d="M440.4,300.1c-1.2,0.7-2.4,1.5-3.5,2.3c-0.5,0.4-1.1,0.8-1.5,1.3c-0.5,0.5-0.9,1-1.2,1.5
					c-0.3,0.5-0.5,1.1-0.6,1.6c0,0.5,0.1,1,0.5,1.4c0.2,0.2,0.4,0.4,0.6,0.6l0.4,0.3c0.1,0.1,0.3,0.2,0.4,0.4c0.5,0.5,1,1,1.5,1.5
					c1,1.1,1.8,2.3,2.5,3.6c0.7,1.3,1.2,2.6,1.5,4.1c0.3,1.4,0.4,2.9,0.2,4.3c-0.1,0.7-0.2,1.4-0.4,2.1c-0.2,0.7-0.5,1.3-0.8,2
					c0.2-0.7,0.3-1.4,0.4-2c0.1-0.7,0.1-1.4,0.1-2c0-0.7-0.1-1.4-0.2-2c-0.1-0.7-0.2-1.3-0.4-2c-0.4-1.3-0.9-2.5-1.6-3.7
					c-0.7-1.1-1.5-2.2-2.4-3.2c-0.4-0.5-0.9-1-1.4-1.4c-0.1-0.1-0.2-0.2-0.4-0.3l-0.4-0.3c-0.3-0.3-0.6-0.5-0.8-0.9
					c-0.2-0.3-0.5-0.7-0.6-1.1c-0.1-0.4-0.2-0.9-0.1-1.3c0.1-0.9,0.5-1.6,0.9-2.3c0.5-0.6,1-1.1,1.6-1.6c0.6-0.5,1.2-0.8,1.8-1.2
					C437.7,301,439,300.4,440.4,300.1z"/>
			</g>
		</g>
	</g>
</g>
<g>
	<g>
		<g>
			<g>
				<path fill="#1D1E3E" d="M255.8,405c-8.2,0-15.2-3.4-16.2-3.9c-1.7-0.8-19.9-9.2-31.6-23.8c-0.9,3.3-3.5,7.7-8.7,7.7
					c-2.9,0-6.1-1.4-9.6-4.3l-0.3-0.3c-0.5-0.6-13.5-14.4-18.8-26.1c-0.1-0.3-0.3-0.6-0.4-0.9c-1.5,2.1-3.5,2.3-4.4,2.3
					c-2.8,0-5.5-2-8.6-6.5c-1.6-2.1-21.3-27.5-27.9-67.8l6.6-2.1c0,0,0,0,0,0.1c0,0,0.1,0,0.1,0c3.7,0,13.4-7.2,23.7-14.7
					c22.9-16.9,57.5-42.4,93.9-42.4c37,0,67.3,26.3,87.3,43.7c7.3,6.3,15.5,13.5,18.4,13.6c0,0,0-0.1,0.1-0.1l6.6,2.1
					c-4.2,32.5-16.7,53.8-17.9,55.7c-1.7,3.3-4.4,7.5-8.4,7.5c0,0,0,0,0,0c-1.7,0-3-0.8-3.9-1.7c-0.1,0.3-0.2,0.6-0.3,0.8
					c-3.8,12.4-14.9,27.7-15.4,28.4l-0.3,0.3c-3.6,3.8-6.9,5.6-10.1,5.6c-4.6,0-7.3-3.7-8.5-6.6c-9.8,16-26.7,26.5-28.3,27.5
					c-1,0.7-7.7,5.1-16.1,6l-0.3,0L255.8,405z"/>
				<path fill="#FFFFFF" d="M253.6,225.7c53.2,0,93.1,57.4,105.8,57.4c1.3,0,2.3-0.6,3.1-2c-4.3,33-17.5,54.4-17.5,54.4
					c-2.4,4.6-4.2,5.8-5.3,5.8c-1.3,0-1.9-1.4-1.9-1.4c-0.8-1.2-1.6-1.6-2.2-1.6c-2.2,0-3.4,4.6-3.4,4.6
					c-3.7,11.9-14.9,27.2-14.9,27.2c-3.2,3.4-5.6,4.5-7.6,4.5c-4.2,0-5.6-5.4-5.6-5.4c-0.6-2.3-1.5-3.1-2.3-3.1
					c-1.7,0-3.5,3.5-3.5,3.5c-9.7,16-27.3,26.5-27.3,26.5s-6.4,4.6-14.6,5.5c-0.1,0-0.3,0-0.4,0c-8,0-14.7-3.6-14.7-3.6
					s-18.8-8.3-30.4-23c0,0-2.1-3-3.8-3c-0.9,0-1.7,0.8-2,3.3c0,0-0.9,6.1-5.6,6.1c-1.8,0-4.3-0.9-7.4-3.5c0,0-13.1-13.8-18.2-25.2
					c0,0-1.7-4.2-3.8-4.2c-0.7,0-1.5,0.5-2.2,1.9c0,0-0.5,1.7-2,1.7c-1.2,0-3-1.1-5.8-5.1c0,0-20.6-25.5-27.2-66.3
					c0.7,1.4,1.8,2,3.3,2C150.3,282.8,200.2,225.7,253.6,225.7 M253.6,218.7c-37.5,0-72.7,25.9-96,43.1c-8.3,6.1-18.6,13.7-21.7,14
					c0,0,0,0,0.1,0c1.1,0,2.5,0.8,3,1.9l-13.2,4.2c6.6,40.6,26.3,66.6,28.5,69.4c2.4,3.4,6.2,7.9,11.4,7.9c1.1,0,2.1-0.2,3.1-0.6
					c6.1,11.5,17.5,23.6,18,24.2l0.6,0.6c4.2,3.5,8.1,5.1,11.9,5.1c4.2,0,7.4-2.1,9.5-4.9c11.8,12.5,27.1,19.7,29.2,20.7
					c1.6,0.8,8.9,4.3,17.7,4.3c0.2,0,0.4,0,0.6,0l0.6,0c9.1-1,16.1-5.5,17.6-6.5c2-1.2,16.2-10.3,26.4-24.1c2.2,2.2,5.1,3.8,8.6,3.8
					c4.3,0,8.4-2.2,12.6-6.7l0.6-0.7c0.4-0.6,10.2-14.1,14.8-26.2c0.6,0.1,1.3,0.2,2,0.2c6.4,0,10-6.6,11.4-9.3
					c1.6-2.6,14.1-24.3,18.3-56.9l-13.1-4.1c0.4-0.8,1.8-1.8,3.1-1.8c0.2,0,0.4,0,0.4,0c-2.6-0.6-10.4-7.4-16.6-12.8
					C322.8,245.5,291.9,218.7,253.6,218.7L253.6,218.7z"/>
			</g>
		</g>
		<g>
			<g opacity="0.3">
				<path fill="#262952" d="M336.6,176.9c-0.8-18.8-16.6-33.5-35.4-32.9c-2.5,0.1-4.9,0.4-7.2,1c-0.1,0-0.1,0-0.1,0
					c-14.6,0.6-26,15.9-25.4,34.2c0.5,17.6,12,31.6,25.9,32.1c3,0.8,6.2,1.1,9.5,1C322.7,211.6,337.4,195.7,336.6,176.9z"/>
			</g>
			<g>
				<g>
					<g>
						
							<path fill="#FFFFFF" stroke="#262952" stroke-width="2.6476" stroke-linecap="round" stroke-linejoin="round" stroke-miterlimit="10" d="
							M271.4,177.8c-0.7-18.8,14-34.6,32.8-35.3s34.6,14,35.4,32.9c0.8,18.9-13.9,34.8-32.8,35.4C288,211.4,272.1,196.6,271.4,177.8
							z"/>
						<path fill="#9E5A36" d="M282.4,177.4c-0.5-12.8,9.5-23.4,22.2-23.9s23.4,9.5,24,22.3c0.6,12.8-9.4,23.6-22.2,24
							C293.6,200.2,282.8,190.2,282.4,177.4z"/>
						<path fill="#262952" d="M291.1,177.1c-0.3-8.1,5.9-14.9,13.9-15.1c8-0.3,14.7,6,15,14.1c0.3,8.1-5.9,14.9-13.9,15.1
							C298.1,191.5,291.4,185.2,291.1,177.1z"/>
						<path fill="#FFFFFF" d="M288.9,186.5c-0.1-4.4,3.2-8.1,7.5-8.2c4.4-0.1,8,3.3,8.2,7.7c0.1,4.4-3.2,8.1-7.5,8.3
							C292.7,194.4,289,191,288.9,186.5z"/>
						<path fill="#FFFFFF" d="M306.3,163.3c-0.1-2.9,2.1-5.4,5-5.5s5.3,2.2,5.5,5.1c0.1,2.9-2.1,5.4-5,5.5
							C308.9,168.5,306.5,166.2,306.3,163.3z"/>
						<path fill="#FFFFFF" d="M310.1,193.8c-0.1-2.2,1.6-4.1,3.8-4.1c2.1-0.1,4,1.7,4.1,3.9s-1.6,4.1-3.8,4.1
							C312,197.7,310.2,196,310.1,193.8z"/>
					</g>
					<path opacity="0.2" fill="#262952" enable-background="new    " d="M301.4,209.5c-0.8,0.1-1.7,0.2-2.6,0.3
						c-14.7,0.6-27-13.8-27.5-32.1c-0.6-18.3,10.9-33.5,25.4-34.2c1.5-0.1,2.9,0,4.4,0.3c-13.3,2.2-23.4,16.7-23,33.9
						C278.7,194.2,288.8,207.5,301.4,209.5z"/>
				</g>
			</g>
			<g>
				<path opacity="0.3" fill="#262952" enable-background="new    " d="M228.1,176.9c-0.8-18.8-16.6-33.5-35.4-32.9
					c-2.5,0.1-4.9,0.4-7.2,1c-0.1,0-0.1,0-0.1,0c-14.1,0.6-25.2,14.9-25.5,32.4c0,0.1,0,0.1,0,0.1c0,0.6,0,1.1,0,1.7
					c0.5,17.6,12,31.6,25.9,32.1c3,0.8,6.2,1.1,9.5,1C214.2,211.6,228.9,195.7,228.1,176.9z"/>
			</g>
			<g>
				<g>
					<g>
						
							<path fill="#FFFFFF" stroke="#262952" stroke-width="2.6476" stroke-linecap="round" stroke-linejoin="round" stroke-miterlimit="10" d="
							M162.9,177.8c-0.7-18.8,14-34.6,32.8-35.3s34.6,14,35.4,32.9c0.8,18.9-13.9,34.8-32.8,35.4
							C179.5,211.4,163.6,196.6,162.9,177.8z"/>
						<path fill="#9E5A36" d="M173.9,177.4c-0.5-12.8,9.5-23.4,22.2-23.9c12.7-0.4,23.4,9.5,24,22.3c0.6,12.8-9.4,23.6-22.2,24
							C185.2,200.2,174.4,190.2,173.9,177.4z"/>
						<path fill="#262952" d="M182.7,177.1c-0.3-8.1,5.9-14.9,13.8-15.1c8-0.3,14.7,6,15,14.1c0.3,8.1-5.9,14.9-13.8,15.1
							C189.6,191.5,182.9,185.2,182.7,177.1z"/>
						<path fill="#FFFFFF" d="M180.4,186.5c-0.1-4.4,3.2-8.1,7.5-8.2c4.4-0.1,8,3.3,8.2,7.7c0.1,4.4-3.2,8.1-7.5,8.3
							C184.2,194.4,180.5,191,180.4,186.5z"/>
						<path fill="#FFFFFF" d="M197.9,163.3c-0.1-2.9,2.1-5.4,5-5.5c2.9-0.1,5.3,2.2,5.5,5.1c0.1,2.9-2.1,5.4-5,5.5
							C200.4,168.5,197.9,166.2,197.9,163.3z"/>
						<path fill="#FFFFFF" d="M201.7,193.8c-0.1-2.2,1.6-4.1,3.8-4.1c2.1-0.1,4,1.7,4.1,3.9c0.1,2.2-1.6,4.1-3.8,4.1
							C203.5,197.7,201.7,196,201.7,193.8z"/>
					</g>
					<path opacity="0.2" fill="#262952" enable-background="new    " d="M193,209.5c-0.8,0.1-1.7,0.2-2.6,0.3
						c-14.7,0.6-27-13.8-27.5-32.1c-0.6-18.3,10.9-33.5,25.4-34.2c1.5-0.1,2.9,0,4.4,0.3c-13.3,2.2-23.4,16.7-23,33.9
						C170.2,194.2,180.2,207.5,193,209.5z"/>
				</g>
			</g>
		</g>
		<g>
			<path fill="#FFFFFF" stroke="#262952" stroke-width="1.4314" stroke-miterlimit="10" d="M186.6,264.6v-6.4l-6.3-1.2l2.4-5.9
				l-9.1-3.5l4.1-7.5l-11.2-0.8v-8c0,0,8-23.1,40.4-22l-4.1,8l6.3,4.7l-3.1,4l5.3,3.9l-4.2,2.4l7.3,3.5l-3.8,4l7,5.1
				C217.6,245,203.3,250.4,186.6,264.6z"/>
			<path fill="#FFFFFF" d="M186.6,264.6v-6.4l-6.3-1.2l2.4-5.9l-9.1-3.5l4.1-7.5l-11.2-0.8v-8c0,0,8-23.1,40.4-22l-4.1,8l6.3,4.7
				l-3.1,4l5.3,3.9l-4.2,2.4l7.3,3.5l-3.8,4l7,5.1C217.6,245,203.3,250.4,186.6,264.6z"/>
		</g>
		<line fill="none" stroke="#000000" stroke-width="1.4314" stroke-miterlimit="10" x1="148.5" y1="146.2" x2="148.5" y2="146.2"/>
		<g>
			<path fill="#262952" d="M157.3,238.7c-0.4,0-0.8-0.1-1.2-0.1c-0.1,0-0.3,0-0.4,0c-0.9,0-1.8-0.4-2.4-1.1c-1.4-1.4-1.9-4-1.9-8
				c-0.1-1.3-1.6-13.8-2.9-28.8c-1.1-12.7-1.8-23.6-2.1-32.4c-0.3-10.6-0.1-18.1,0.8-22.5v-0.1l0,0c0.4-2.1,1.3-4.9,3.5-5.2
				c1.8-0.4,29.3-6.4,56.4-6.4c5.1,0,10,0.2,14.5,0.6c8,0.8,15.1,2.2,20.9,4.4c0.9,0.3,1.9,0.7,2.9,1.1c0.6,0.3,2.7,1.7,3.7,7.5
				c0.3,2,0.5,4.3,0.5,6.8c0,3.5-0.3,7.6-0.9,12.2c0,0.1-2.1,19.9-5,33.7c-1.8,8.2-3.2,11.3-4.1,12.7v0.1l-0.5,0.6
				c-0.6,0.6-1.2,1-1.9,1l-0.4,0.1l-0.3-0.1c-0.1-0.1-12.3-5-27-5.9c-1.2-0.1-2.6-0.1-3.8-0.1c-20.3,0-34.6,8.6-42.7,25.6
				C162.6,235.1,161,238.7,157.3,238.7z M158.1,228c0.5,0.1,0.9,0.2,1.3,0.2c1.2,0,1.6-0.6,1.7-0.7c5.5-11.5,14.2-19.1,25.9-22.5
				c4.8-1.4,10-2.1,15.6-2.1c2.7,0,5.5,0.1,8.3,0.5c11.4,1.2,20.6,4.7,23,5.7c0.5-0.6,1.7-2.4,3.2-9.1c2.9-12.6,5-32.6,5-32.8
				c2.4-18-1.1-21.4-1.5-21.6c-0.3-0.1-0.6-0.3-0.9-0.3c-5.5-2.1-12.2-3.7-20-4.4c-4.2-0.4-8.8-0.6-13.6-0.6
				c-25.8,0-52,5.8-52.3,5.9h-0.1l0,0c-0.6,0.5-4,5.3,0.5,54.4c1.2,13.5,2.6,24.5,2.6,24.5v0.1c0.1,2.1,0.7,2.8,0.9,2.8h0.1
				L158.1,228z"/>
			<path fill="#262952" d="M207.1,135.7c4.8,0,9.7,0.2,14.4,0.6c7.4,0.7,14.4,2,20.5,4.3c1,0.3,1.9,0.7,2.8,1.1c0,0,1.9,0.9,2.8,6.4
				c0.3,1.7,0.5,3.9,0.5,6.6c0,3.2-0.3,7.1-0.9,12c0,0-2,19.7-5,33.6c-1.3,6-2.8,11-4.3,12.7l0,0c-0.3,0.3-0.7,0.6-1,0.6
				c0,0-12.3-5.1-27.4-5.9c-1.2-0.1-2.6-0.1-3.9-0.1c-16,0-34,5.4-44,26.5c0,0-1.2,3.3-4.3,3.3c-0.3,0-0.8-0.1-1.2-0.1
				c0,0-0.2,0.1-0.4,0.1c-1,0-3.1-0.8-2.8-7.7c0,0-1.5-12.9-2.9-28.8c-0.9-10.4-1.8-22.1-2.1-32.3c-0.3-9.4-0.2-17.5,0.8-22.1l0,0
				c0.5-2.6,1.3-4.1,2.4-4.2C150.9,142,179,135.7,207.1,135.7 M157.7,229.4C157.7,229.4,157.8,229.4,157.7,229.4
				c0.7,0.1,1.2,0.2,1.7,0.2c2.4,0,3-1.6,3-1.6c5.9-12.4,15.2-18.9,25-21.8c5-1.5,10.2-2,15.2-2c2.8,0,5.5,0.2,8.1,0.5
				c13.1,1.5,23.3,5.8,23.3,5.8c1.6-0.2,3.2-4.5,4.5-10.3c3-12.8,5.1-32.9,5.1-32.9c2.8-20.8-2.2-23.1-2.2-23.1
				c-0.3-0.1-0.8-0.3-1.1-0.4c-5.9-2.4-13-3.8-20.4-4.5c-4.5-0.4-9.1-0.6-13.8-0.6c-26.3,0-52.5,5.9-52.5,5.9c-5,0.3-3,32.4-0.8,56
				c1.2,13.8,2.6,24.6,2.6,24.6C155.6,229.3,157.4,229.4,157.7,229.4 M207.1,132.8c-27,0-54.3,5.9-56.7,6.4
				c-3.3,0.4-4.3,4.4-4.6,6.2l0,0l-0.1,0.3c-0.9,4.5-1.2,12-0.8,22.8c0.3,8.8,1,19.7,2.1,32.4c1.3,14.7,2.7,27,2.9,28.7
				c-0.1,4.4,0.6,7.3,2.2,8.9c1,1,2.1,1.5,3.5,1.5c0.1,0,0.3,0,0.3,0c0.4,0.1,0.8,0.1,1.2,0.1c3.9,0,6.2-3.1,6.9-5
				c7.7-16.4,21.6-24.7,41.3-24.7c1.2,0,2.5,0,3.7,0.1c14.4,0.8,26.4,5.7,26.5,5.7l0.7,0.3l0.8-0.1c1-0.1,1.9-0.6,2.7-1.5l0.9-1
				v-0.2c1.1-1.7,2.4-5.2,4.1-12.8c2.9-13.7,4.9-32.6,5-33.9c0.6-4.6,0.9-8.8,0.9-12.4c0-2.6-0.1-5-0.5-7.1c-1-6.4-3.5-8.1-4.4-8.5
				l0,0l0,0c-1-0.4-2-0.8-3-1.2c-5.9-2.1-13.1-3.7-21.2-4.4C217.2,133,212.3,132.8,207.1,132.8L207.1,132.8z M154.7,147.3
				c3.5-0.8,27.7-5.7,51.5-5.7c4.8,0,9.3,0.2,13.5,0.6c7.7,0.8,14.3,2.2,19.6,4.3h0.1h0.1c0.2,0.1,0.4,0.1,0.6,0.2
				c0.5,0.7,2.9,4.8,0.8,20.2v0.1v0.1c0,0.2-2.1,20.1-5,32.6c-1,4.5-1.9,6.6-2.4,7.6c-3.5-1.3-12-4.1-22.3-5.3
				c-2.9-0.3-5.7-0.5-8.4-0.5c-5.7,0-11.1,0.7-16,2.1c-12.1,3.5-21.1,11.3-26.8,23.2c-0.1,0-0.2,0.1-0.4,0.1c-0.3,0-0.6-0.1-0.8-0.1
				c-0.1-0.3-0.2-0.8-0.3-1.6V225v-0.1c0-0.1-1.3-11-2.6-24.5c-1.2-13.6-2-24.9-2.2-33.8C153.1,152.4,154.3,148.4,154.7,147.3
				L154.7,147.3z"/>
		</g>
		<g opacity="0.2">
			<path fill="#D5D1DB" d="M243.1,166.6c0,0-2.1,20.1-5.1,32.9c-1.4,5.8-2.9,10.1-4.5,10.3c0,0-10.2-4.4-23.3-5.8
				c-7.3-0.8-15.6-0.7-23.3,1.6c-9.9,2.9-19.1,9.3-25,21.8c0,0-0.9,2.3-4.6,1.3c0,0-2.1,0.2-2.4-4.2c0,0-1.3-10.9-2.6-24.6
				c-2.1-23.6-4.1-55.7,0.8-56c0,0,36.4-8.2,66.3-5.3c7.4,0.7,14.4,2.1,20.4,4.5c0.3,0.1,0.8,0.3,1.1,0.4
				C240.9,143.5,245.9,145.8,243.1,166.6z"/>
		</g>
		<g>
			<path fill="#262952" d="M342.8,237.9c-3.7,0-5.3-3.5-5.6-4.1c-8.1-16.7-22.3-25.2-42.2-25.2c-16.6,0-31.2,6.2-31.3,6.2l-0.3,0.1
				l-0.4-0.1c-2.4-0.3-5-3.5-8.6-24.9c-1.9-11.5-3.2-23.1-3.2-23.2c-0.6-4.6-1-8.7-1-12.2c0-2.6,0.1-4.9,0.4-6.8
				c0.9-5.7,2.9-7.1,3.5-7.4c9.7-4.3,23.1-6.4,39.8-6.4c26.6,0,53.1,5.5,54.9,5.9c2.7,0.3,3.6,4.4,4,8v0.1
				c1.7,13.1-0.3,41.5-2.3,63.1c-0.9,9.7-1.7,16.8-1.7,17.8c0.1,4-0.4,6.6-1.8,8c-0.7,0.7-1.5,1.1-2.4,1.1l0,0c-0.1,0-0.3,0-0.4,0
				C343.6,237.9,343.2,237.9,342.8,237.9z M338.9,226.8c0,0,0.1,0.3,0.6,0.5c0.3,0.1,0.6,0.2,1,0.2c0.4,0,0.8-0.1,1.3-0.2l0.3-0.1
				h0.1c0,0,0.1-0.1,0.3-0.3c0.1-0.2,0.3-0.5,0.3-1c0.1-0.4,0.1-0.9,0.2-1.5v-0.1c3.9-35.4,6.2-75.1,2.4-79l0,0h-0.1
				c0,0-0.1,0-0.2-0.1l0,0l-0.8-0.2c-0.1-0.1-0.3-0.1-0.6-0.1c-2.9-0.6-10.7-2.1-20.9-3.2c-10.2-1.2-19.8-1.9-28.4-1.9
				c-15.2,0-27.3,1.9-35.9,5.7c-0.3,0.3-3.8,3.7-1.2,21.6c2.7,23.6,6.4,39.7,8.6,41.8c2.6-1.1,13.3-5.1,26.1-6.2
				c1.9-0.1,3.9-0.2,5.7-0.2c5.9,0,11.3,0.8,16.2,2.3c10.8,3.4,18.9,10.4,24.3,20.7l0.1,0.1c0.1,0.2,0.3,0.5,0.3,0.7L338.9,226.8
				L338.9,226.8L338.9,226.8z"/>
			<path fill="#262952" d="M293.7,135.3c27.5,0,54.7,5.9,54.7,5.9c1.4,0.1,2.3,2.6,2.8,6.7l0,0c1.7,13.3-0.5,43.4-2.3,62.8
				c-1,10.4-1.7,17.8-1.7,17.8c0.3,7-1.9,7.7-2.8,7.7c-0.3,0-0.4-0.1-0.4-0.1c-0.4,0.1-0.8,0.1-1.2,0.1c-3,0-4.3-3.2-4.3-3.2
				c-10-20.7-27.7-26.1-43.6-26.1c-17.1,0-31.9,6.3-31.9,6.3c-5.5-0.8-10.6-46.8-10.6-46.8c-0.7-4.9-1-8.8-1-12.1
				c0-2.8,0.1-4.9,0.4-6.6c0.8-5.5,2.7-6.4,2.7-6.4C265.3,136.8,279.5,135.3,293.7,135.3 M265.8,210.5c0,0,11.8-5.1,26.2-6.3
				c1.9-0.1,3.7-0.2,5.7-0.2c5.3,0,10.6,0.6,15.8,2.3c9.2,2.9,17.8,8.9,23.6,20.2l0,0c0.2,0.3,0.3,0.6,0.5,1c0,0,0.3,0.8,1.4,1.2
				c0.4,0.2,0.9,0.3,1.6,0.3c0.5,0,1-0.1,1.7-0.2c0,0,0,0,0.1,0c0.2,0,1-0.1,1.5-1.1c0.2-0.3,0.4-0.8,0.6-1.5c0.1-0.5,0.1-1,0.2-1.6
				c0,0,8.2-73.7,2-80.2c-0.3-0.3-0.6-0.4-0.9-0.4c0,0-0.3-0.1-0.9-0.2l0,0l0,0c-0.2-0.1-0.4-0.1-0.7-0.1c-3.2-0.6-11-2.1-20.9-3.2
				c-8.4-1-18.5-1.9-28.6-1.9c-13.3,0-26.6,1.5-36.6,5.8c0,0-5,2.3-2,23.1C255.9,167.3,260.6,209.8,265.8,210.5 M293.7,132.4
				c-16.9,0-30.5,2.2-40.3,6.6l0,0l0,0c-1,0.5-3.4,2.2-4.4,8.5c-0.3,2-0.5,4.4-0.4,7.1c0.1,3.6,0.4,7.7,1,12.4
				c0.1,0.8,1.4,12,3.2,23.2c1.2,6.8,2.4,12.4,3.5,16.4c1.9,6.6,3.7,9.3,6.4,9.7l0.8,0.1l0.7-0.3c0.1-0.1,14.5-6.1,30.8-6.1
				c19.4,0,33.1,8.2,40.9,24.4c0.8,1.9,3,5,6.9,5c0.4,0,0.9-0.1,1.3-0.1c0.1,0,0.2,0,0.3,0c1.3,0,2.6-0.6,3.5-1.5
				c1.7-1.7,2.4-4.6,2.2-9c0.1-1.3,0.9-8.3,1.7-17.7c1.9-21.6,3.9-50.1,2.3-63.3l0,0v-0.2c-0.3-2.6-1.1-8.6-5.3-9.1
				C346.4,137.9,320.1,132.4,293.7,132.4L293.7,132.4z M259.4,146.7c8.5-3.6,20.3-5.4,35.1-5.4c8.6,0,18.1,0.6,28.3,1.9
				c10.2,1.2,17.9,2.7,20.7,3.2l0,0l0,0c0.2,0,0.3,0.1,0.5,0.1l0.6,0.1c0.8,1.6,2.5,8.8,0.3,40.6c-1.2,18.7-3.2,36.7-3.3,36.9v0.1
				v0.1c0,0.5-0.1,0.8-0.1,1.2v0.1v0.1c0,0.2-0.1,0.3-0.1,0.4c-0.3,0.1-0.6,0.1-0.8,0.1c-0.3,0-0.3-0.1-0.4-0.1l0,0l0,0
				c0-0.1-0.1-0.1-0.1-0.2c-0.1-0.3-0.3-0.5-0.4-0.8l-0.1-0.1c-5.6-10.8-14-18-25.2-21.4c-5-1.6-10.6-2.4-16.7-2.4
				c-1.9,0-3.9,0.1-5.9,0.2c-11.6,1-21.5,4.4-25.4,5.8c-2.1-3.9-5.4-19.3-7.7-40.1v-0.1V167C256.5,151.6,258.8,147.4,259.4,146.7
				L259.4,146.7z"/>
		</g>
		<path fill="#262952" stroke="#262952" stroke-width="2.8628" stroke-miterlimit="10" d="M251.8,148c-0.3,1.7-0.4,3.9-0.4,6.6
			c-1.3-0.6-2.5-0.3-3.4,0.1c0-2.7-0.2-4.9-0.5-6.6C248.5,147.5,250,147,251.8,148z"/>
		<g>
			<path fill="#1D1E3E" d="M279.7,239v38.7c0,16.2-13.1,29.4-29.4,29.4h-3c-16.2,0-29.4-13.1-29.4-29.4V239H279.7z"/>
			<line fill="none" x1="279.7" y1="239" x2="218" y2="239"/>
			
				<path fill="#C21F1F" stroke="#C21F1F" stroke-width="3.5301" stroke-linecap="round" stroke-linejoin="round" stroke-miterlimit="10" d="
				M272.5,286.7c0,9.3-10.4,16.9-23.3,16.9s-23.3-7.5-23.3-16.9c0-8.5,8.6-15.5,19.9-16.7c1.2,2.6,2.8,7.1,2.8,12.3
				c0-5.3,1.9-9.8,3.1-12.3C263.4,270.9,272.5,278,272.5,286.7z"/>
			<g>
				<path fill="#FFFFFF" d="M276.9,254.4c-18-5.5-37.4-5.5-55.4,0c-1-3.2-1.9-6.3-2.9-9.5c20-6.2,41.3-6.2,61.3,0
					C278.8,248,277.9,251.2,276.9,254.4z"/>
			</g>
			<g>
				<path fill="#4A4B65" d="M275.6,243.2v34.6c0,13.9-11.3,25.2-25.2,25.2h-3c-13.9,0-25.2-11.3-25.2-25.2v-34.6H275.6 M279.7,239
					H218v38.7c0,16.2,13.1,29.4,29.4,29.4h3c16.2,0,29.4-13.1,29.4-29.4V239L279.7,239z"/>
			</g>
		</g>
		<g>
			<g>
				<g>
					<g>
						<g>
							<path fill="#262952" d="M331.2,127.2c-9.8-6.8-18.1-9.9-26.1-9.9c-8,0-16.2,3.1-26.1,9.9l-3.3,2.3l1.7-3.7
								c5.5-11.7,16.1-18.9,27.7-18.9s22.3,7.3,27.7,18.9l1.7,3.7L331.2,127.2z"/>
							<path fill="#262952" d="M305,108.1c11.6,0,21.6,7.4,26.8,18.3c-7.8-5.3-16.9-10.1-26.8-10.1s-18.9,4.8-26.8,10.1
								C283.4,115.5,293.4,108.1,305,108.1 M305,105.9c-12.1,0-23.1,7.5-28.8,19.6l-3.5,7.3l6.7-4.6c9.7-6.6,17.8-9.7,25.5-9.7
								s15.8,3.1,25.5,9.7l6.7,4.6l-3.5-7.3C328.1,113.3,317.1,105.9,305,105.9L305,105.9z"/>
						</g>
					</g>
					<g>
						<g>
							<path fill="#262952" d="M223.7,127.2c-9.9-6.8-18.2-9.9-26.1-9.9c-8,0-16.2,3.1-26.1,9.9l-3.3,2.3l1.7-3.7
								c5.5-11.7,16.1-18.9,27.7-18.9s22.3,7.3,27.7,18.9l1.7,3.7L223.7,127.2z"/>
							<path fill="#262952" d="M197.5,108.1c11.6,0,21.6,7.4,26.8,18.3c-7.8-5.3-16.9-10.1-26.8-10.1c-9.8,0-18.9,4.8-26.8,10.1
								C175.9,115.5,185.9,108.1,197.5,108.1 M197.5,105.9c-12.1,0-23.1,7.5-28.8,19.6l-3.5,7.3l6.7-4.6c9.7-6.6,17.8-9.7,25.5-9.7
								s15.8,3.1,25.5,9.7l6.7,4.6l-3.5-7.3C220.6,113.3,209.6,105.9,197.5,105.9L197.5,105.9z"/>
						</g>
					</g>
				</g>
			</g>
		</g>
		<g>
			<path fill="#1D1E3E" stroke="#1D1E3E" stroke-width="3.2273" stroke-miterlimit="10" d="M343.1,254.5
				c-18.8-79.6-93.3-31.5-93.3-31.5l0.3,18.7c44.2,0,79.2,41.2,79.2,41.2c45.9,44.7,69.3-28.8,69.3-28.8
				C354,306.2,343.1,254.5,343.1,254.5z M332.9,238.6l-11.2,0.8l4.2,7.5l-9.1,3.6l2.5,5.9l-6.3,1.2v6.4
				c-16.7-14-31.2-19.3-31.2-19.3l7-5.2l-3.9-3.9l7.3-3.6l-4.2-2.4l5.3-4l-3.2-3.9l6.3-4.8l-4.2-8c32.5-1.3,40.6,21.6,40.6,21.6
				V238.6z"/>
			<path fill="#1D1E3E" stroke="#1D1E3E" stroke-width="3.2273" stroke-miterlimit="10" d="M156.9,255.3c0,0-10.6,51.8-55.5,0.2
				c0,0,23.9,73.3,69.5,28.1c0,0,35.1-41.9,78.9-41.8l-0.1-18.8C249.7,223,175.1,175.5,156.9,255.3z M207.4,209.4l-4.1,8l6.3,4.7
				l-3.1,4l5.3,3.9l-4.2,2.4l7.3,3.5l-3.8,4l7,5.1c0,0-14.4,5.4-31,19.6v-6.4l-6.3-1.2l2.4-5.9l-9.1-3.5l4.1-7.5l-11.2-0.8v-8
				C167,231.3,174.9,208.3,207.4,209.4z"/>
			<path fill="#FFFFFF" d="M332.9,238.6l-11.2,0.8l4.2,7.5l-9.1,3.6l2.5,5.9l-6.3,1.2v6.4c-16.7-14-31.2-19.3-31.2-19.3l7-5.2
				l-3.9-3.9l7.3-3.6l-4.2-2.4l5.3-4l-3.2-3.9l6.3-4.8l-4.2-8c32.5-1.3,40.6,21.6,40.6,21.6V238.6z"/>
		</g>
		<g>
			<g>
				<g>
					<g>
						<g>
							<defs>
								<path id="SVGID_1_" d="M243.2,166.6c0,0-2.1,20.1-5.1,32.9c-1.4,5.8-2.9,10.1-4.5,10.3c0,0-10.2-4.4-23.3-5.8
									c-7.3-0.8-15.6-0.7-23.3,1.6c-9.9,2.9-19.1,9.3-25,21.8c0,0-0.9,2.3-4.6,1.3c0,0-2.1,0.2-2.4-4.2c0,0-1.3-10.9-2.6-24.6
									c-2.1-23.6-4.1-55.7,0.8-56c0,0,36.4-8.2,66.3-5.3c7.4,0.7,14.4,2.1,20.4,4.5c0.3,0.1,0.8,0.3,1.1,0.4
									C240.9,143.5,245.9,145.8,243.2,166.6z"/>
							</defs>
							<clipPath id="SVGID_2_">
								<use xlink:href="#SVGID_1_"  overflow="visible"/>
							</clipPath>
							<polygon opacity="0.8" clip-path="url(#SVGID_2_)" fill="#FFFFFF" enable-background="new    " points="255.8,110.4 
								219.4,222.7 213.8,218.7 253.7,108.6 							"/>
						</g>
					</g>
				</g>
			</g>
			<g>
				<g>
					<g>
						<g>
							<defs>
								<path id="SVGID_4_" d="M243.2,166.6c0,0-2.1,20.1-5.1,32.9c-1.4,5.8-2.9,10.1-4.5,10.3c0,0-10.2-4.4-23.3-5.8
									c-7.3-0.8-15.6-0.7-23.3,1.6c-9.9,2.9-19.1,9.3-25,21.8c0,0-0.9,2.3-4.6,1.3c0,0-2.1,0.2-2.4-4.2c0,0-1.3-10.9-2.6-24.6
									c-2.1-23.6-4.1-55.7,0.8-56c0,0,36.4-8.2,66.3-5.3c7.4,0.7,14.4,2.1,20.4,4.5c0.3,0.1,0.8,0.3,1.1,0.4
									C240.9,143.5,245.9,145.8,243.2,166.6z"/>
							</defs>
							<clipPath id="SVGID_5_">
								<use xlink:href="#SVGID_4_"  overflow="visible"/>
							</clipPath>
							<polygon opacity="0.8" clip-path="url(#SVGID_5_)" fill="#FFFFFF" enable-background="new    " points="247.1,142.2 
								228.8,209.8 227.3,206.5 247,140.3 							"/>
						</g>
					</g>
				</g>
			</g>
		</g>
		<g>
			<g>
				<path id="SVGID_3_" opacity="0.2" fill="#D5D1DB" enable-background="new    " d="M256.4,166.6c0,0,2.1,20.1,5.1,32.9
					c1.4,5.8,2.9,10.1,4.5,10.3c0,0,10.2-4.4,23.3-5.8c7.3-0.8,15.6-0.7,23.3,1.6c9.9,2.9,19.1,9.3,25,21.8c0,0,0.9,2.3,4.6,1.3
					c0,0,2.1,0.2,2.4-4.2c0,0,1.3-10.9,2.6-24.6c2.1-23.6,4.1-55.7-0.8-56c0,0-36.4-8.2-66.3-5.3c-7.4,0.7-14.4,2.1-20.4,4.5
					c-0.3,0.1-0.8,0.3-1.1,0.4C258.6,143.5,253.6,145.8,256.4,166.6z"/>
			</g>
		</g>
		<g>
			<g>
				<g>
					<g>
						<g>
							<defs>
								<path id="SVGID_6_" d="M256.4,166.6c0,0,2.1,20.1,5.1,32.9c1.4,5.8,2.9,10.1,4.5,10.3c0,0,10.2-4.4,23.3-5.8
									c7.3-0.8,15.6-0.7,23.3,1.6c9.9,2.9,19.1,9.3,25,21.8c0,0,0.9,2.3,4.6,1.3c0,0,2.1,0.2,2.4-4.2c0,0,1.3-10.9,2.6-24.6
									c2.1-23.6,4.1-55.7-0.8-56c0,0-36.4-8.2-66.3-5.3c-7.4,0.7-14.4,2.1-20.4,4.5c-0.3,0.1-0.8,0.3-1.1,0.4
									C258.6,143.5,253.6,145.8,256.4,166.6z"/>
							</defs>
							<clipPath id="SVGID_7_">
								<use xlink:href="#SVGID_6_"  overflow="visible"/>
							</clipPath>
							<polygon opacity="0.8" clip-path="url(#SVGID_7_)" fill="#FFFFFF" enable-background="new    " points="361.2,110.4 
								324.9,222.7 319.2,218.7 359.1,108.6 							"/>
						</g>
					</g>
				</g>
			</g>
			<g>
				<g>
					<g>
						<g>
							<defs>
								<path id="SVGID_8_" d="M256.4,166.6c0,0,2.1,20.1,5.1,32.9c1.4,5.8,2.9,10.1,4.5,10.3c0,0,10.2-4.4,23.3-5.8
									c7.3-0.8,15.6-0.7,23.3,1.6c9.9,2.9,19.1,9.3,25,21.8c0,0,0.9,2.3,4.6,1.3c0,0,2.1,0.2,2.4-4.2c0,0,1.3-10.9,2.6-24.6
									c2.1-23.6,4.1-55.7-0.8-56c0,0-36.4-8.2-66.3-5.3c-7.4,0.7-14.4,2.1-20.4,4.5c-0.3,0.1-0.8,0.3-1.1,0.4
									C258.6,143.5,253.6,145.8,256.4,166.6z"/>
							</defs>
							<clipPath id="SVGID_9_">
								<use xlink:href="#SVGID_8_"  overflow="visible"/>
							</clipPath>
							<polygon opacity="0.8" clip-path="url(#SVGID_9_)" fill="#FFFFFF" enable-background="new    " points="352.5,142.2 
								329.8,221 328.4,217.6 352.4,140.3 							"/>
						</g>
					</g>
				</g>
			</g>
		</g>
	</g>
	<g>
		<path fill="#1D1E3E" stroke="#1D1E3E" stroke-width="4.1348" stroke-miterlimit="1" d="M363.1,76.6c0,0,20.8,32.9,12.2,80.4
			c-0.3,1.5-2.3,1.7-2.8,0.3c-10.3-24.3-34.8-94.5-127.3-94.5c-90.6,0-106.6,71.8-116.4,95.1c-0.6,1.2-2.4,1.2-2.8-0.1
			C112.5,118,126,91.6,126,91.6c6.4-12.2,9.3-5.6,9.3-5.6c4.4,6.3,7.3-3.9,7.3-3.9c4.6-15.3,19-34.9,19-34.9
			c12.9-13.6,16.9,1.1,16.9,1.1c2.4,9.2,7.5-0.5,7.5-0.5c12.4-20.5,35-34,35-34s8.3-5.9,18.7-7c10.5-0.2,19.4,4.6,19.4,4.6
			s24.1,10.6,39,29.4c0,0,6.2,9,7.5-0.5c0,0,2.2-15.1,16.7-3.2c0,0,16.7,17.7,23.3,32.2c0,0,4,9.7,7.7,3
			C353.2,72.4,355.2,65.3,363.1,76.6z"/>
	</g>
</g>
</svg>
