<svg id="Calque_1" data-name="Calque 1" xmlns="http://www.w3.org/2000/svg" viewBox="0 0 135 135"><defs><style>.cls-1{fill:#fff;}.cls-2{fill:#000100;}</style></defs><title>blog</title><circle class="cls-1" cx="67.5" cy="67.5" r="67.15"/><path class="cls-2" d="M36.07,38.4h0a5,5,0,0,0-4.94,4.94V58.77H34V43.35s0,0,0-.07L66.73,63.8a1.45,1.45,0,0,0,1.55,0l4.11-2.58,4.11-2.58,4.11-2.58,4.11-2.58L83.16,51,79,53.59l-4.11,2.58-4.1,2.59L67.5,60.85,36.41,41.31H98.59l-3.11,2-4.11,2.58-4.11,2.58,1.55,2.46,4.11-2.58L97,45.73l3.92-2.46s0,0,0,.07V79s0,0,0,0v13l-9.81-8a1.45,1.45,0,0,0-.91-0.32H36.07a2,2,0,0,1-2-2V61.64H31.13V81.76a5,5,0,0,0,4.94,4.94H89.72l11.78,9.57a1.45,1.45,0,0,0,2.37-1.13V80.28s0,0,0,0V43.34a5,5,0,0,0-4.94-4.94H36.07Zm-1.39,3.46-0.51.81A2,2,0,0,1,34.68,41.86Zm65.64,0a2,2,0,0,1,.51.81Z"/></svg>