<svg id="Calque_1" data-name="Calque 1" xmlns="http://www.w3.org/2000/svg" viewBox="0 0 135 135"><defs><style>.cls-1{fill:#fff;}.cls-2{fill:#000100;}</style></defs><title>community</title><circle class="cls-1" cx="67.5" cy="67.5" r="67.15"/><path class="cls-2" d="M106,60.23A7.25,7.25,0,0,0,99,66H95.8A28.17,28.17,0,0,0,69,39.31V36a7.24,7.24,0,1,0-3,0v3.34A28.16,28.16,0,0,0,39.58,66H36a7.24,7.24,0,1,0,0,3H39.6a28.13,28.13,0,0,0,9.94,20v0.18h0.2A28,28,0,0,0,66,95.55V99a7.25,7.25,0,1,0,3,0V95.57a28,28,0,0,0,16.68-6.42h0.2V89a28.1,28.1,0,0,0,9.94-20H99A7.25,7.25,0,1,0,106,60.23ZM28.92,71.76a4.27,4.27,0,1,1,4.27-4.27A4.27,4.27,0,0,1,28.92,71.76ZM63.21,28.92a4.27,4.27,0,1,1,4.27,4.27A4.27,4.27,0,0,1,63.21,28.92ZM60.83,64.09a6.85,6.85,0,1,1,6.85,6.85A6.86,6.86,0,0,1,60.83,64.09ZM52.57,87.56a15.2,15.2,0,0,1,30.23,0A25,25,0,0,1,52.57,87.56ZM71.76,106a4.27,4.27,0,1,1-4.27-4.27A4.27,4.27,0,0,1,71.76,106ZM85.45,85.32A18.22,18.22,0,0,0,73.56,72,9.83,9.83,0,1,0,61.8,72,18.22,18.22,0,0,0,49.91,85.32,25.23,25.23,0,1,1,85.45,85.32ZM106,71.76a4.27,4.27,0,1,1,4.27-4.27A4.27,4.27,0,0,1,106,71.76Z"/><rect class="cls-2" x="66.22" y="27.42" width="2.96" height="2.96"/><rect class="cls-2" x="66.22" y="104.48" width="2.96" height="2.96"/><rect class="cls-2" x="27.69" y="66" width="2.96" height="2.96"/><rect class="cls-2" x="104.73" y="66" width="2.96" height="2.96"/></svg>