<svg id="Calque_1" data-name="Calque 1" xmlns="http://www.w3.org/2000/svg" width="100" height="125" viewBox="0 0 100 125">
  <title>identite</title>
  <g>
    <path d="M88.87,14.3H11.13c-4.85,0-9.27,3.95-9.27,8.8V77.74A9.63,9.63,0,0,0,11.13,87H41.86c0.16,2,.31,8.12-0.32,10.19-1.14,1.7-13.25,5.27-23.74,7.72a1.4,1.4,0,0,0-1.2,1.29v4.9a1.6,1.6,0,0,0,1.62,1.45H81.79a1.6,1.6,0,0,0,1.62-1.45v-4.9a1.53,1.53,0,0,0-1.2-1.41c-10.54-2.44-22.68-5.9-23.78-7.49C57.76,95.14,57.79,89,57.9,87h31a9.63,9.63,0,0,0,9.27-9.27V23.1C98.14,18.25,93.73,14.3,88.87,14.3ZM55.68,98.15c1,3.18,14,6.6,24.78,9.2v2.26H19.54v-2.26c10.81-2.59,23.67-6,24.66-9.2,0.85-2.78.69-9.18,0.55-11.14H55C54.9,89,54.82,95.37,55.68,98.15Zm39.52-20c0,3.27-3.63,5.91-6.9,5.91H10.72a5.91,5.91,0,0,1-5.91-5.91v-55a5.91,5.91,0,0,1,5.91-5.91H88.3c3.27,0,6.9,2.65,6.9,5.91v55Z"/>
    <path d="M90.28,27.53a1.45,1.45,0,0,0-1.45-1.45H11.16a1.45,1.45,0,0,0-1.45,1.45V70.82a1.44,1.44,0,0,0,1.45,1.44H88.84a1.44,1.44,0,0,0,1.44-1.45V27.53ZM87.33,29V32H12.67V29H87.33ZM12.67,69.32V34.93H87.33V69.32H12.67Z"/>
    <circle cx="49.5" cy="21.2" r="2.08"/>
    <path d="M82,58.33l1.15-.88a1.45,1.45,0,0,0-1.75-2.3l-0.75.57L78.94,48.5a1.44,1.44,0,0,0-.67-0.92L62.56,38.31A1.43,1.43,0,0,0,62,38.14a1.46,1.46,0,0,0-1.63.47l-5,6.15H50c-0.8,0-1,.53-1,1.33v5.5s-7.09,6-13.75,3.33v-4.5c0-.8-0.36-1.73-1.16-1.73H28.33a2.18,2.18,0,0,0-1.91,1.73V56.2c0,0.8,1.11,1.33,1.91,1.33h5.78a1.33,1.33,0,0,0,.31,0,13.64,13.64,0,0,0,4.94.94,14.54,14.54,0,0,0,5.69-1.19l-3.79,4.63a1.45,1.45,0,0,0,2.24,1.84l8.35-10A0.19,0.19,0,0,1,52,53.6h3.8c0.8,0,1.1-.94,1.1-1.73V47l4-4.73,4.4,15.21a1.51,1.51,0,0,0,.74.87l6.45,3.55-0.34.27a1.45,1.45,0,0,0,1.76,2.3l1.15-.88L77.72,67a1.45,1.45,0,0,0,2,.27l4.59-3.5a1.44,1.44,0,0,0,.27-2Zm-52.62-6.7h2.95v2.95H29.37V51.63Zm24.56-1H51V47.7h2.95v2.95Zm10.28-8,12.07,7.12,1.85,7.89-0.18.13-5.25-6.9a1.45,1.45,0,0,0-2.3,1.75l5.25,6.9-0.41.31L75.06,60l-7-3.87Zm14.94,21.5-1.75-2.3,0.16-.12,1-.75h0l1.15-.87,1.75,2.3Z"/>
    <path d="M25.44,37.36A1.45,1.45,0,0,0,24,35.91h-8.9a1.45,1.45,0,0,0-1.44,1.45V65.91a1.44,1.44,0,0,0,1.45,1.44H24a1.44,1.44,0,0,0,1.44-1.45V37.36Zm-2.95,27H16.6V38.86h5.89V64.41Z"/>
  </g>
</svg>
