<svg id="Calque_1" data-name="Calque 1" xmlns="http://www.w3.org/2000/svg" width="100" height="125" viewBox="0 0 100 125">
  <title>illustration</title>
  <g>
    <path d="M98.31,65.48c-0.06,0-6.51.06-11.49,2.38h0L81,70.78C65.91,78.44,40.6,91.26,27.69,95.91c-2,.72-6.83,2-8.5-1.67a6.81,6.81,0,0,1,3-8.82l1.14-.61c23.75-12.6,45.25-25.67,41.93-35.86L81.57,27.52l16.51,3.24,0.16,0,0.56-2.86-15.27-3,6.54-8.59a4.76,4.76,0,0,0-.92-6.68l-7.91-6a4.76,4.76,0,0,0-6.67.92L61.13,22.33H42.74c-4.29,0-8.14,2.73-11.44,8.1-8,13-18.3,31-21.84,38.76C7,74.58,7.93,79.12,11.91,81a8.36,8.36,0,0,0,3.64.92h0.39L7.11,93.58a4.77,4.77,0,0,0-.89,2l-3,16.13a2.11,2.11,0,0,0,2.07,2.5A2.13,2.13,0,0,0,6.21,114l14.71-7.26a4.76,4.76,0,0,0,1.68-1.39l4.74-6.25c0.45-.13.9-0.27,1.33-0.43,2.51-.9,5.56-2.14,9.33-3.78a7.75,7.75,0,0,0,2.59,4.27,7.84,7.84,0,0,0,5,1.85l0.68,0a10.42,10.42,0,0,0,9.49-11.09L56,90a6,6,0,0,0,3.9,1.43l0.53,0a7.91,7.91,0,0,0,7.24-8.08,4.45,4.45,0,0,0,2.49.52,5.68,5.68,0,0,0,5.18-6.15L75.25,77l6.6-3.34L83.08,73l5-2.53c4.33-2,10.19-2.09,10.25-2.09H98.5l0-2.91H98.31ZM72.39,78.41A2.68,2.68,0,0,1,71.76,80a2.75,2.75,0,0,1-1.88,1,1.59,1.59,0,0,1-1.14-.36,1.25,1.25,0,0,1-.21-0.24ZM64.72,83.1a5,5,0,0,1-4.56,5.41,3.14,3.14,0,0,1-2.31-.73,3.09,3.09,0,0,1-1-1.67c2.46-1.19,5.09-2.48,7.81-3.83ZM52.91,90a7.43,7.43,0,0,1-1.74,5.39h0A7.44,7.44,0,0,1,46.08,98a4.93,4.93,0,0,1-5.32-4.39c3.42-1.53,7.27-3.32,11.76-5.47ZM9,109.37l-2.6,1.28,0.53-2.84ZM62.43,52.65c-0.65,2.22-2.65,4.86-6,7.85Zm-39.17,47L20.69,103l-2-1.48,1.81-2.4A8.8,8.8,0,0,0,23.26,99.64Zm-5,5.17-6.32,3.12-4.4-3.3,1.3-7Zm-8.38-10L68,18.05l2.1,1.57L22.64,81.87l-1.82,1a9.72,9.72,0,0,0-5.14,8.4l-3.86,5.07Zm4.31,3.27,2.25-3c0,0.11.09,0.22,0.14,0.33a7.14,7.14,0,0,0,1.52,2.17l-1.64,2.18ZM69.79,15.73L76.9,6.36h0A1.85,1.85,0,0,1,79.49,6l7.91,6a1.85,1.85,0,0,1,.36,2.59l-7.08,9.29Zm4.72,7.17L35.36,74.84l-0.05.07c-2,1.15-4.12,2.34-6.46,3.62L72.47,21.37Zm4.4,3.3L47.65,67.26C45.9,68.45,44,69.69,42,71l34.89-46.3ZM49.51,37.66a10.09,10.09,0,0,0-8.6,4.51C38,46.61,28.37,62.48,23.58,70.84s-7.32,9-10.41,7.55c-3.49-1.67-1.9-6.14-1.06-8C15.56,62.88,26,44.59,33.78,32c2.73-4.45,5.74-6.71,9-6.71H58.92ZM47,41L36.48,54.84c3-5,5.63-9.18,6.87-11.08A6.77,6.77,0,0,1,47,41Z" style="fill: #010101"/>
    <path d="M75.46,118.09a8.22,8.22,0,0,0-10.34,0,5.33,5.33,0,0,1-6.93,0,8.22,8.22,0,0,0-10.35,0,5.33,5.33,0,0,1-6.93,0,8.22,8.22,0,0,0-10.35,0,5.33,5.33,0,0,1-6.93,0,8,8,0,0,0-5.17-1.83,8,8,0,0,0-5.18,1.83,5.14,5.14,0,0,1-3.47,1.28,5.15,5.15,0,0,1-3.47-1.28,8,8,0,0,0-5.17-1.83H1v2.92H1.19a5.14,5.14,0,0,1,3.47,1.28,8,8,0,0,0,5.18,1.83A8,8,0,0,0,15,120.46a5.34,5.34,0,0,1,6.94,0,8.22,8.22,0,0,0,10.34,0,5.33,5.33,0,0,1,6.93,0,8.22,8.22,0,0,0,10.34,0,5.33,5.33,0,0,1,6.93,0,8.22,8.22,0,0,0,10.34,0,5.33,5.33,0,0,1,6.93,0,8,8,0,0,0,5.17,1.83h0.16v-2.92H78.93A5.13,5.13,0,0,1,75.46,118.09Z" style="fill: #010101"/>
  </g>
</svg>
