<svg id="Calque_1" data-name="Calque 1" xmlns="http://www.w3.org/2000/svg" viewBox="0 0 135 135"><defs><style>.cls-1{fill:#fff;}.cls-2{fill:#000100;}</style></defs><title>javascript</title><circle class="cls-1" cx="67.5" cy="67.5" r="67.15"/><path class="cls-2" d="M58.28,58V76.2A1.85,1.85,0,0,0,60.13,78H92.37a1.85,1.85,0,0,0,1.85-1.85V58a1.85,1.85,0,0,0-1.85-1.85H82.94L82.87,37.52a1.42,1.42,0,0,0-1.42-1.41H42.19a1.42,1.42,0,0,0-1.42,1.42V90.81a8.05,8.05,0,0,0,8,8l37.36,0a8.06,8.06,0,0,0,8-8.08,1.42,1.42,0,0,0-1.42-1.42H55.45A1.42,1.42,0,0,0,54,90.81a5.21,5.21,0,0,1-10.42,0V38.94H80l0.07,17.24h-20A1.85,1.85,0,0,0,58.28,58Zm-1.54,34.2H91.2a5.22,5.22,0,0,1-5,3.83L54.94,96A8,8,0,0,0,56.74,92.23ZM76.9,69.38a0.72,0.72,0,0,1,.5-0.26,0.67,0.67,0,0,1,.54.16,4.22,4.22,0,0,0,2.71,1.09,2.82,2.82,0,0,0,1.72-.49A1.35,1.35,0,0,0,83,68.82q0-1.08-2.49-1.54h0a8,8,0,0,1-1.91-.6,2.71,2.71,0,0,1-1.18-1A2.32,2.32,0,0,1,77,64.46a2.41,2.41,0,0,1,1.08-2,4.2,4.2,0,0,1,3.78-.58,5.37,5.37,0,0,1,1,.4l0.84,0.52a0.74,0.74,0,0,1,.31.47,0.69,0.69,0,0,1-.1.55,0.73,0.73,0,0,1-1,.21,7.57,7.57,0,0,0-1.18-.68,2.71,2.71,0,0,0-1.1-.23,2.52,2.52,0,0,0-1.53.44,1.21,1.21,0,0,0-.6.94,0.72,0.72,0,0,0,.11.41,3.17,3.17,0,0,0,2.14,1h0a9,9,0,0,1,2,.6,2.64,2.64,0,0,1,1.76,2.38A2.57,2.57,0,0,1,83.32,71a4.44,4.44,0,0,1-2.68.84A5.88,5.88,0,0,1,77,70.41a0.72,0.72,0,0,1-.26-0.5A0.7,0.7,0,0,1,76.9,69.38ZM68.1,68.8a0.73,0.73,0,0,1,.45-0.38,0.79,0.79,0,0,1,.59,0,0.73,0.73,0,0,1,.39.45,1.94,1.94,0,0,0,.71,1,2,2,0,0,0,1.23.38,1.79,1.79,0,0,0,1.3-.57,1.86,1.86,0,0,0,.57-1.37V62.7a0.74,0.74,0,0,1,.23-0.55,0.78,0.78,0,0,1,.56-0.23,0.78,0.78,0,0,1,.78.78v5.63a3.52,3.52,0,0,1-3.53,3.51,3.5,3.5,0,0,1-3.34-2.44A0.75,0.75,0,0,1,68.1,68.8Z"/></svg>