<svg id="Calque_1" data-name="Calque 1" xmlns="http://www.w3.org/2000/svg" viewBox="0 0 135 135"><defs><style>.cls-1{fill:#fff;}.cls-2{fill:#000100;}</style></defs><title>motion</title><circle class="cls-1" cx="67.5" cy="67.5" r="67.15"/><path class="cls-2" d="M99.72,26.78H35.28c-4,0-7.68,3.27-7.68,7.3V79.36A8,8,0,0,0,35.28,87H60.75c0.13,1.63.25,6.73-.26,8.44-0.95,1.41-11,4.37-19.68,6.4a1.16,1.16,0,0,0-1,1.07V107a1.33,1.33,0,0,0,1.34,1.2H93.85a1.33,1.33,0,0,0,1.34-1.2V103a1.27,1.27,0,0,0-1-1.17c-8.74-2-18.79-4.89-19.71-6.21C73.93,93.78,74,88.67,74,87H99.72a8,8,0,0,0,7.68-7.68V34.08C107.4,30.06,103.74,26.78,99.72,26.78ZM72.2,96.28c0.81,2.64,11.58,5.47,20.54,7.62v1.87H42.26V103.9c9-2.15,19.62-5,20.43-7.62,0.71-2.3.57-7.61,0.46-9.23h8.5C71.57,88.67,71.5,94,72.2,96.28ZM105,79.7c0,2.71-3,4.9-5.72,4.9H34.94A4.9,4.9,0,0,1,30,79.7V34.13a4.9,4.9,0,0,1,4.9-4.9h64.3c2.71,0,5.72,2.19,5.72,4.9V79.7Z"/><path class="cls-2" d="M100.69,40.09a1.2,1.2,0,0,0-1.2-1.2H35.11a1.2,1.2,0,0,0-1.2,1.2V76a1.2,1.2,0,0,0,1.2,1.2H99.49a1.2,1.2,0,0,0,1.2-1.2V40.09Zm-2.44,1.25v2.44H36.36V41.33H98.24ZM36.36,74.72V46.22H98.24v28.5H36.36Z"/><path class="cls-2" d="M84.71,53.49l0-.07-0.05-.13a10.3,10.3,0,0,0-4.8-4.83,0.69,0.69,0,0,0-.29-0.12,10.83,10.83,0,0,0-4.5-1A10.77,10.77,0,1,0,84.71,53.49Zm-6.34,6.56a4.7,4.7,0,0,1-1,1.57,4.21,4.21,0,0,1-7.18-3,4.18,4.18,0,0,1,1.23-3,4.49,4.49,0,0,1,1.53-1,17.61,17.61,0,0,0,6.41-3.91,9.2,9.2,0,0,1,2.9,2.86A18.5,18.5,0,0,0,78.37,60.05Zm-6-7.57-0.16.06a6.46,6.46,0,0,0-2.38,1.51,6.43,6.43,0,1,0,10.62,6.64l0-.1a15.17,15.17,0,0,1,2.7-4.66A8.19,8.19,0,0,1,83.47,58,8.46,8.46,0,0,1,75,66.5a8.48,8.48,0,1,1,0-17,8.15,8.15,0,0,1,2,.25A16.84,16.84,0,0,1,72.4,52.48Z"/><path class="cls-2" d="M63,61.71H54.81a1.11,1.11,0,0,0-1.11,1.11,1.16,1.16,0,0,0,1.11,1.11H63a1.11,1.11,0,0,0,1.11-1.11A1.16,1.16,0,0,0,63,61.71Z"/><path class="cls-2" d="M59.23,58a1.16,1.16,0,0,0-1.11-1.11H50a1.11,1.11,0,0,0,0,2.22h8.15A1.11,1.11,0,0,0,59.23,58Z"/><path class="cls-2" d="M63,52.12H54.81a1.11,1.11,0,0,0-1.11,1.11,1.16,1.16,0,0,0,1.11,1.11H63a1.11,1.11,0,0,0,1.11-1.11A1.16,1.16,0,0,0,63,52.12Z"/></svg>