<svg id="Calque_1" data-name="Calque 1" xmlns="http://www.w3.org/2000/svg" width="100" height="125" viewBox="0 0 100 125">
  <title>ux</title>
  <path d="M85,69.81a5.46,5.46,0,0,0-.7-7.83l-2.34-2-0.23-.23L85,56h0a5.46,5.46,0,0,0-.7-7.83l-2.34-2A5.19,5.19,0,0,0,79.38,45V10A5.36,5.36,0,0,0,74,4.58H33.55A5.36,5.36,0,0,0,28.17,10V34.74a11,11,0,0,0-3.74-2.45,8.69,8.69,0,0,0-8.88,1.87A6.46,6.46,0,0,0,14,41.29a30.15,30.15,0,0,1,1.52,4.91A56.32,56.32,0,0,1,16.6,68.53L16.25,70.4c-1.64,8.88-3.16,17.18-.47,23.61a28.6,28.6,0,0,0,8.07,10.76L24.08,105a1.79,1.79,0,0,1,.47,2l-2.45,6.43,34.25,8.07,1.87-4.68a1.69,1.69,0,0,1,1.29-1.05,13.07,13.07,0,0,0,7.36-4.09c3.62-3.74,6.9-10.4,8.18-13.21a5.92,5.92,0,0,0,1.52.23,5.38,5.38,0,0,0,4.21-2l2.57-2.92a5.74,5.74,0,0,0,1.29-4.09,5.68,5.68,0,0,0-2-3.86l-0.23-.23,2.69-3.16h0a5.46,5.46,0,0,0-.7-7.83l-2-1.64L85,69.81h0Zm-14.73,4,2,1.64-2.69,3.16a5.64,5.64,0,0,0-1.29,3.51H31.56V17.21H76.1V45.26L76,45.38l-0.7.35A0.44,0.44,0,0,0,75,46a2.73,2.73,0,0,0-.82.82L69.67,52a5.46,5.46,0,0,0,.7,7.83l2.34,2,0.23,0.23-3.16,3.74A5.48,5.48,0,0,0,70.26,73.79Zm2,14.38-0.7.82c-0.23.23-.35,0.58-0.58,0.82,0,0.12-.12.12-0.12,0.23l-0.35.7a0.23,0.23,0,0,1-.12.23c-0.12.35-.12,0.58-0.23,0.94v1.17c0,0.35.12,0.58,0.12,0.94v0.12a3,3,0,0,0,.23.58H33.55a2,2,0,0,1-2-2V85.48H69.32a7.56,7.56,0,0,0,.94,1.05Zm9.82-37.53a2.1,2.1,0,0,1,.23,3l-4.56,5.26-0.12.12a2.45,2.45,0,0,1-.7.47,2.32,2.32,0,0,1-1.29.12,4.15,4.15,0,0,1-1.05-.47l-2.34-2a2.1,2.1,0,0,1-.23-3l4.56-5.26,0.23-.23a2.1,2.1,0,0,1,1.05-.47h0.35a2.86,2.86,0,0,1,1.4.47ZM33.55,8H74a2,2,0,0,1,2,2V13.7H31.56V10A2,2,0,0,1,33.55,8ZM64.41,109.33A10.21,10.21,0,0,1,59,112.48a5,5,0,0,0-4,3.16l-0.7,2L26.65,111l1.05-2.81a5.24,5.24,0,0,0-1.29-5.61l-0.23-.23a26,26,0,0,1-7.25-9.59c-2.34-5.38-.82-13.33.7-21.63L20,69.23c1.29-6.9.82-15.66-1.05-23.73a34.7,34.7,0,0,0-1.75-5.26,3.18,3.18,0,0,1,.7-3.51A5,5,0,0,1,23,35.56a8.21,8.21,0,0,1,5,6.78v50.5a5.36,5.36,0,0,0,5.38,5.38H71.19C69.91,101.14,67.22,106.4,64.41,109.33ZM80.66,91.44l-2.57,2.92a2.16,2.16,0,0,1-2.81.47h0c-0.12-.12-0.23-0.12-0.35-0.23l-0.47-.47-0.35-.35V93.66C74,93.54,74,93.43,73.88,93.31h0a2.9,2.9,0,0,1,0-2h0C74,91.21,74,91.09,74.11,91l1.17-1.4h1.4c0.35,0,.58-0.12.94-0.12a0.41,0.41,0,0,0,.23-0.12,0.61,0.61,0,0,0,.47-0.23c0.12,0,.23-0.12.35-0.12a0.41,0.41,0,0,0,.23-0.12c0.23-.12.47-0.35,0.7-0.47s0.12-.12.23-0.12L80.08,88l0.23,0.23a2.44,2.44,0,0,1,.82,1.52A2,2,0,0,1,80.66,91.44ZM76.34,86.3H75.75a0.43,0.43,0,0,1-.35-0.12,2.56,2.56,0,0,1-.58-0.35l-2.34-2a2.1,2.1,0,0,1-.23-3l3.16-3.74h1.4c0.35,0,.58-0.12.82-0.12h0.23c0.12,0,.23-0.12.35-0.12h0a7639436.29,7639436.29,0,0,1,.47-0.23A2.1,2.1,0,0,0,79.49,76l0.23-.23c0.12-.12.23-0.12,0.35-0.23l2,1.75a2.1,2.1,0,0,1,.23,3l-3,3.62h0l-1.4,1.64-0.47.47a0.11,0.11,0,0,0-.12.12l-0.12.12a0.36,0.36,0,0,0-.23.12c-0.12,0-.23.12-0.35,0.12m5.85-18.94-3.16,3.62h0l-1.4,1.64a2.1,2.1,0,0,1-.82.58l-0.35.12a0.43,0.43,0,0,0-.35.12H75.75a0.43,0.43,0,0,1-.35-0.12,2.56,2.56,0,0,1-.58-0.35l-2.34-2a2.1,2.1,0,0,1-.23-3l4.09-4.79a1.48,1.48,0,0,0,.7-0.12h0.35l1.05-.35a6.94,6.94,0,0,0,.94-0.47,1.71,1.71,0,0,0,.47.23l2.34,2A2.14,2.14,0,0,1,82.41,67.59Z"/>
  <rect x="48.16" y="9.72" width="11.22" height="2.22"/>
  <path d="M53.66,86.53a2.81,2.81,0,1,0,2.81,2.81A2.84,2.84,0,0,0,53.66,86.53Z"/>
  <path d="M67,60H40.8a1.42,1.42,0,0,1-1.42-1.42V57.77a11,11,0,0,1,11-11h6.9a11.24,11.24,0,0,1,11.13,11v0.85A1.42,1.42,0,0,1,67,60ZM42.24,57.16H65.52a8.37,8.37,0,0,0-8.24-7.55h-6.9A8.17,8.17,0,0,0,42.24,57.16Z"/>
  <path d="M53.77,48.21A8.21,8.21,0,1,1,62,40,8.21,8.21,0,0,1,53.77,48.21Zm0-13.56A5.36,5.36,0,1,0,59.13,40,5.36,5.36,0,0,0,53.77,34.65Z"/>
</svg>
