<?xml version="1.0" encoding="utf-8"?>
<!-- Generator: Adobe Illustrator 17.1.0, SVG Export Plug-In . SVG Version: 6.00 Build 0)  -->
<!DOCTYPE svg PUBLIC "-//W3C//DTD SVG 1.1//EN" "http://www.w3.org/Graphics/SVG/1.1/DTD/svg11.dtd" [
	<!ENTITY ns_flows "http://ns.adobe.com/Flows/1.0/">
	<!ENTITY ns_extend "http://ns.adobe.com/Extensibility/1.0/">
	<!ENTITY ns_ai "http://ns.adobe.com/AdobeIllustrator/10.0/">
	<!ENTITY ns_graphs "http://ns.adobe.com/Graphs/1.0/">
	<!ENTITY ns_vars "http://ns.adobe.com/Variables/1.0/">
	<!ENTITY ns_imrep "http://ns.adobe.com/ImageReplacement/1.0/">
	<!ENTITY ns_sfw "http://ns.adobe.com/SaveForWeb/1.0/">
	<!ENTITY ns_custom "http://ns.adobe.com/GenericCustomNamespace/1.0/">
	<!ENTITY ns_adobe_xpath "http://ns.adobe.com/XPath/1.0/">
]>
<svg version="1.1" id="Calque_1" xmlns:x="&ns_extend;" xmlns:i="&ns_ai;" xmlns:graph="&ns_graphs;"
	 xmlns="http://www.w3.org/2000/svg" xmlns:xlink="http://www.w3.org/1999/xlink" xmlns:a="http://ns.adobe.com/AdobeSVGViewerExtensions/3.0/"
	 x="0px" y="0px" viewBox="0 0 100 100" enable-background="new 0 0 100 100" xml:space="preserve">
<metadata>
	<sfw  xmlns="&ns_sfw;">
		<slices></slices>
		<sliceSourceBounds  width="106" height="107" bottomLeftOrigin="true" x="-2.5" y="-104.5"></sliceSourceBounds>
	</sfw>
</metadata>
<g>
	<linearGradient id="SVGID_1_" gradientUnits="userSpaceOnUse" x1="4.1276" y1="4.3442" x2="96.0816" y2="96.2982">
		<stop  offset="0" style="stop-color:#2F2965"/>
		<stop  offset="1" style="stop-color:#2C2B53"/>
		<a:midPointStop  offset="0" style="stop-color:#2F2965"/>
		<a:midPointStop  offset="0.5" style="stop-color:#2F2965"/>
		<a:midPointStop  offset="1" style="stop-color:#2C2B53"/>
	</linearGradient>
	<rect x="4" y="4.5" opacity="0.95" fill="url(#SVGID_1_)" width="92.3" height="91.6"/>
	<g>
		
			<image overflow="visible" opacity="0.4"  a:adobe-opacity-share="1" width="106" height="107" xlink:href="FF1888F0B3ADA5EE.png"  transform="matrix(1 0 0 1 -2.5399 -2.5399)">
		</image>
		<g>
			<g>
				<linearGradient id="SVGID_2_" gradientUnits="userSpaceOnUse" x1="-0.5752" y1="0.5887" x2="100.5752" y2="99.4113">
					<stop  offset="0" style="stop-color:#D199FE"/>
					<stop  offset="1" style="stop-color:#C179FF"/>
					<a:midPointStop  offset="0" style="stop-color:#D199FE"/>
					<a:midPointStop  offset="0.5" style="stop-color:#D199FE"/>
					<a:midPointStop  offset="1" style="stop-color:#C179FF"/>
				</linearGradient>
				<path fill="url(#SVGID_2_)" d="M0,0v100h100V0H0z M92.1,92.1H8.2V8.1h83.9V92.1z"/>
			</g>
		</g>
	</g>
	<g>
		<g opacity="0.1"  a:adobe-blending-mode="multiply"  a:adobe-opacity-share="1">
			<path  a:adobe-blending-mode="normal"  a:adobe-opacity-share="0" d="M27.2,59.3l-3.6,12.2h-8l13.5-43.2H39l13.7,43.2h-8.3
				l-3.8-12.2H27.2z M39.3,53.3L36,42.6c-0.8-2.6-1.5-5.6-2.1-8.1h-0.1c-0.6,2.5-1.3,5.5-2,8.1l-3.3,10.6H39.3z"/>
		</g>
		<g>
			<linearGradient id="SVGID_3_" gradientUnits="userSpaceOnUse" x1="15.8997" y1="49.0477" x2="83.0544" y2="49.0477">
				<stop  offset="0" style="stop-color:#D199FE"/>
				<stop  offset="1" style="stop-color:#C179FF"/>
				<a:midPointStop  offset="0" style="stop-color:#D199FE"/>
				<a:midPointStop  offset="0.5" style="stop-color:#D199FE"/>
				<a:midPointStop  offset="1" style="stop-color:#C179FF"/>
			</linearGradient>
			<path fill="url(#SVGID_3_)" d="M27.2,58.4l-3.6,12.2h-8l13.5-43.2H39l13.7,43.2h-8.3l-3.8-12.2H27.2z M39.3,52.4L36,41.8
				c-0.8-2.6-1.5-5.6-2.1-8.1h-0.1c-0.6,2.5-1.3,5.5-2,8.1l-3.3,10.6H39.3z"/>
		</g>
	</g>
	<g>
		<g opacity="0.1"  a:adobe-blending-mode="multiply"  a:adobe-opacity-share="1">
			<path  a:adobe-blending-mode="normal"  a:adobe-opacity-share="0" d="M62.9,58.1c0.2,5.6,4.5,8.1,9.4,8.1c3.6,0,6.1-0.5,8.5-1.4
				l1.1,5.5c-2.6,1.1-6.3,2-10.7,2c-9.9,0-15.7-6.3-15.7-15.8c0-8.7,5.1-16.8,14.9-16.8c10,0,13.2,8.3,13.2,15.2
				c0,1.5-0.1,2.6-0.3,3.3H62.9z M76.3,52.6c0.1-2.9-1.2-7.6-6.3-7.6c-4.8,0-6.8,4.4-7.1,7.6H76.3z"/>
		</g>
		<g>
			<linearGradient id="SVGID_4_" gradientUnits="userSpaceOnUse" x1="15.8999" y1="55.0445" x2="83.0545" y2="55.0445">
				<stop  offset="0" style="stop-color:#D199FE"/>
				<stop  offset="1" style="stop-color:#C179FF"/>
				<a:midPointStop  offset="0" style="stop-color:#D199FE"/>
				<a:midPointStop  offset="0.5" style="stop-color:#D199FE"/>
				<a:midPointStop  offset="1" style="stop-color:#C179FF"/>
			</linearGradient>
			<path fill="url(#SVGID_4_)" d="M62.9,57.3c0.2,5.6,4.5,8.1,9.4,8.1c3.6,0,6.1-0.5,8.5-1.4l1.1,5.5c-2.6,1.1-6.3,2-10.7,2
				c-9.9,0-15.7-6.3-15.7-15.8c0-8.7,5.1-16.8,14.9-16.8c10,0,13.2,8.3,13.2,15.2c0,1.5-0.1,2.6-0.3,3.3H62.9z M76.3,51.7
				c0.1-2.9-1.2-7.6-6.3-7.6c-4.8,0-6.8,4.4-7.1,7.6H76.3z"/>
		</g>
	</g>
</g>
</svg>
