<?xml version="1.0" encoding="utf-8"?>
<!-- Generator: Adobe Illustrator 17.1.0, SVG Export Plug-In . SVG Version: 6.00 Build 0)  -->
<!DOCTYPE svg PUBLIC "-//W3C//DTD SVG 1.1//EN" "http://www.w3.org/Graphics/SVG/1.1/DTD/svg11.dtd" [
	<!ENTITY ns_flows "http://ns.adobe.com/Flows/1.0/">
	<!ENTITY ns_extend "http://ns.adobe.com/Extensibility/1.0/">
	<!ENTITY ns_ai "http://ns.adobe.com/AdobeIllustrator/10.0/">
	<!ENTITY ns_graphs "http://ns.adobe.com/Graphs/1.0/">
	<!ENTITY ns_vars "http://ns.adobe.com/Variables/1.0/">
	<!ENTITY ns_imrep "http://ns.adobe.com/ImageReplacement/1.0/">
	<!ENTITY ns_sfw "http://ns.adobe.com/SaveForWeb/1.0/">
	<!ENTITY ns_custom "http://ns.adobe.com/GenericCustomNamespace/1.0/">
	<!ENTITY ns_adobe_xpath "http://ns.adobe.com/XPath/1.0/">
]>
<svg version="1.1" id="Calque_1" xmlns:x="&ns_extend;" xmlns:i="&ns_ai;" xmlns:graph="&ns_graphs;"
	 xmlns="http://www.w3.org/2000/svg" xmlns:xlink="http://www.w3.org/1999/xlink" xmlns:a="http://ns.adobe.com/AdobeSVGViewerExtensions/3.0/"
	 x="0px" y="0px" viewBox="0 0 100 100" enable-background="new 0 0 100 100" xml:space="preserve">
<metadata>
	<sfw  xmlns="&ns_sfw;">
		<slices></slices>
		<sliceSourceBounds  width="106" height="107" bottomLeftOrigin="true" x="-2.5" y="-104.5"></sliceSourceBounds>
	</sfw>
</metadata>
<g>
	<linearGradient id="SVGID_1_" gradientUnits="userSpaceOnUse" x1="4.1274" y1="4.344" x2="96.081" y2="96.2976">
		<stop  offset="0" style="stop-color:#5E4421"/>
		<stop  offset="1" style="stop-color:#373100"/>
		<a:midPointStop  offset="0" style="stop-color:#5E4421"/>
		<a:midPointStop  offset="0.5" style="stop-color:#5E4421"/>
		<a:midPointStop  offset="1" style="stop-color:#373100"/>
	</linearGradient>
	<rect x="4" y="4.5" opacity="0.95" fill="url(#SVGID_1_)" width="92.3" height="91.6"/>
	<g>
		
			<image overflow="visible" opacity="0.4"  a:adobe-opacity-share="1" width="106" height="107" xlink:href="503581C8CC7DE426.png"  transform="matrix(1 0 0 1 -2.5399 -2.5399)">
		</image>
		<g>
			<g>
				<linearGradient id="SVGID_2_" gradientUnits="userSpaceOnUse" x1="-0.5752" y1="0.5887" x2="100.5752" y2="99.4113">
					<stop  offset="0" style="stop-color:#FDC45E"/>
					<stop  offset="1" style="stop-color:#FC9C0D"/>
					<a:midPointStop  offset="0" style="stop-color:#FDC45E"/>
					<a:midPointStop  offset="0.5" style="stop-color:#FDC45E"/>
					<a:midPointStop  offset="1" style="stop-color:#FC9C0D"/>
				</linearGradient>
				<path fill="url(#SVGID_2_)" d="M0,0v100h100V0H0z M92,92.1H8.2V8.1H92V92.1z"/>
			</g>
		</g>
	</g>
	<g>
		<g opacity="0.1"  a:adobe-blending-mode="multiply"  a:adobe-opacity-share="1">
			<path  a:adobe-blending-mode="normal"  a:adobe-opacity-share="0" d="M36.4,59.3l-3.6,12h-7.8L38.3,29H48l13.4,42.3h-8.1l-3.7-12
				H36.4z M48.3,53.5L45,43.1c-0.8-2.6-1.5-5.5-2.1-7.9h-0.1c-0.6,2.4-1.2,5.4-2,7.9l-3.2,10.4H48.3z"/>
		</g>
		<g>
			<linearGradient id="SVGID_3_" gradientUnits="userSpaceOnUse" x1="24.3722" y1="49.3199" x2="71.7569" y2="49.3199">
				<stop  offset="0" style="stop-color:#FDC45E"/>
				<stop  offset="1" style="stop-color:#FC9C0D"/>
				<a:midPointStop  offset="0" style="stop-color:#FDC45E"/>
				<a:midPointStop  offset="0.5" style="stop-color:#FDC45E"/>
				<a:midPointStop  offset="1" style="stop-color:#FC9C0D"/>
			</linearGradient>
			<path fill="url(#SVGID_3_)" d="M36.4,58.5l-3.6,12h-7.8l13.2-42.3H48l13.4,42.3h-8.1l-3.7-12H36.4z M48.3,52.6L45,42.2
				c-0.8-2.6-1.5-5.5-2.1-7.9h-0.1c-0.6,2.4-1.2,5.4-2,7.9l-3.2,10.4H48.3z"/>
		</g>
	</g>
	<g>
		<g opacity="0.1"  a:adobe-blending-mode="multiply"  a:adobe-opacity-share="1">
			<path  a:adobe-blending-mode="normal"  a:adobe-opacity-share="0" d="M72.4,32.2c0,2.3-1.7,4.1-4.3,4.1c-2.5,0-4.2-1.8-4.2-4.1
				c0-2.4,1.7-4.2,4.2-4.2C70.7,28,72.3,29.8,72.4,32.2z M64.3,71.3V40.8h7.6v30.6H64.3z"/>
		</g>
		<g>
			<linearGradient id="SVGID_4_" gradientUnits="userSpaceOnUse" x1="24.3713" y1="48.8175" x2="71.7573" y2="48.8175">
				<stop  offset="0" style="stop-color:#FDC45E"/>
				<stop  offset="1" style="stop-color:#FC9C0D"/>
				<a:midPointStop  offset="0" style="stop-color:#FDC45E"/>
				<a:midPointStop  offset="0.5" style="stop-color:#FDC45E"/>
				<a:midPointStop  offset="1" style="stop-color:#FC9C0D"/>
			</linearGradient>
			<path fill="url(#SVGID_4_)" d="M72.4,31.4c0,2.3-1.7,4.1-4.3,4.1c-2.5,0-4.2-1.8-4.2-4.1c0-2.4,1.7-4.2,4.2-4.2
				C70.7,27.2,72.3,29,72.4,31.4z M64.3,70.5V39.9h7.6v30.6H64.3z"/>
		</g>
	</g>
</g>
</svg>
