<?xml version="1.0" encoding="utf-8"?>
<!-- Generator: Adobe Illustrator 17.1.0, SVG Export Plug-In . SVG Version: 6.00 Build 0)  -->
<!DOCTYPE svg PUBLIC "-//W3C//DTD SVG 1.1//EN" "http://www.w3.org/Graphics/SVG/1.1/DTD/svg11.dtd" [
	<!ENTITY ns_flows "http://ns.adobe.com/Flows/1.0/">
	<!ENTITY ns_extend "http://ns.adobe.com/Extensibility/1.0/">
	<!ENTITY ns_ai "http://ns.adobe.com/AdobeIllustrator/10.0/">
	<!ENTITY ns_graphs "http://ns.adobe.com/Graphs/1.0/">
	<!ENTITY ns_vars "http://ns.adobe.com/Variables/1.0/">
	<!ENTITY ns_imrep "http://ns.adobe.com/ImageReplacement/1.0/">
	<!ENTITY ns_sfw "http://ns.adobe.com/SaveForWeb/1.0/">
	<!ENTITY ns_custom "http://ns.adobe.com/GenericCustomNamespace/1.0/">
	<!ENTITY ns_adobe_xpath "http://ns.adobe.com/XPath/1.0/">
]>
<svg version="1.1" id="Calque_1" xmlns:x="&ns_extend;" xmlns:i="&ns_ai;" xmlns:graph="&ns_graphs;"
	 xmlns="http://www.w3.org/2000/svg" xmlns:xlink="http://www.w3.org/1999/xlink" xmlns:a="http://ns.adobe.com/AdobeSVGViewerExtensions/3.0/"
	 x="0px" y="0px" viewBox="0 0 100 100" enable-background="new 0 0 100 100" xml:space="preserve">
<metadata>
	<sfw  xmlns="&ns_sfw;">
		<slices></slices>
		<sliceSourceBounds  width="106" height="107" bottomLeftOrigin="true" x="-2.5" y="-104.5"></sliceSourceBounds>
	</sfw>
</metadata>
<g>
	<linearGradient id="SVGID_1_" gradientUnits="userSpaceOnUse" x1="4.1272" y1="4.344" x2="96.0818" y2="96.2985">
		<stop  offset="0" style="stop-color:#58223A"/>
		<stop  offset="1" style="stop-color:#412734"/>
		<a:midPointStop  offset="0" style="stop-color:#58223A"/>
		<a:midPointStop  offset="0.5" style="stop-color:#58223A"/>
		<a:midPointStop  offset="1" style="stop-color:#412734"/>
	</linearGradient>
	<rect x="4" y="4.5" opacity="0.95" fill="url(#SVGID_1_)" width="92.3" height="91.6"/>
	<g>
		
			<image overflow="visible" opacity="0.4"  a:adobe-opacity-share="1" width="106" height="107" xlink:href="677717EE71A261FC.png"  transform="matrix(1 0 0 1 -2.5399 -2.5399)">
		</image>
		<g>
			<g>
				<linearGradient id="SVGID_2_" gradientUnits="userSpaceOnUse" x1="-0.5752" y1="0.5887" x2="100.5752" y2="99.4113">
					<stop  offset="0" style="stop-color:#E955AB"/>
					<stop  offset="1" style="stop-color:#E33594"/>
					<a:midPointStop  offset="0" style="stop-color:#E955AB"/>
					<a:midPointStop  offset="0.5" style="stop-color:#E955AB"/>
					<a:midPointStop  offset="1" style="stop-color:#E33594"/>
				</linearGradient>
				<path fill="url(#SVGID_2_)" d="M0,0v100h100V0H0z M92.1,92.1H8.2V8.1h83.9V92.1z"/>
			</g>
		</g>
	</g>
	<g>
		<g opacity="0.1"  a:adobe-blending-mode="multiply"  a:adobe-opacity-share="1">
			<path  a:adobe-blending-mode="normal"  a:adobe-opacity-share="0" d="M37.1,28.9v42.3h-7.5V28.9H37.1z"/>
		</g>
		<g>
			<g>
				<linearGradient id="SVGID_3_" gradientUnits="userSpaceOnUse" x1="29.5154" y1="49.1863" x2="70.3174" y2="49.1863">
					<stop  offset="0" style="stop-color:#E955AB"/>
					<stop  offset="1" style="stop-color:#E33594"/>
					<a:midPointStop  offset="0" style="stop-color:#E955AB"/>
					<a:midPointStop  offset="0.5" style="stop-color:#E955AB"/>
					<a:midPointStop  offset="1" style="stop-color:#E33594"/>
				</linearGradient>
				<path fill="url(#SVGID_3_)" d="M37.1,28v42.3h-7.5V28H37.1z"/>
			</g>
		</g>
	</g>
	<g>
		<g opacity="0.1"  a:adobe-blending-mode="multiply"  a:adobe-opacity-share="1">
			<path  a:adobe-blending-mode="normal"  a:adobe-opacity-share="0" d="M70,26.6v36c0,3.1,0.1,6.5,0.2,8.6H64l-0.3-4.8h-0.1
				c-1.6,3.4-4.9,5.5-8.9,5.5c-6.5,0-11.7-6.2-11.7-15.6C43,46,48.7,39.9,55.3,39.9c3.8,0,6.5,1.8,7.7,4h0.1V26.6H70z M63.1,53.4
				c0-0.6-0.1-1.4-0.2-2c-0.6-3-2.8-5.5-6-5.5c-4.4,0-6.9,4.4-6.9,10.1c0,5.6,2.5,9.7,6.9,9.7c2.8,0,5.3-2.1,5.9-5.5
				c0.2-0.7,0.2-1.4,0.2-2.3V53.4z"/>
		</g>
		<g>
			<linearGradient id="SVGID_4_" gradientUnits="userSpaceOnUse" x1="29.5159" y1="48.4018" x2="70.3189" y2="48.4018">
				<stop  offset="0" style="stop-color:#E955AB"/>
				<stop  offset="1" style="stop-color:#E33594"/>
				<a:midPointStop  offset="0" style="stop-color:#E955AB"/>
				<a:midPointStop  offset="0.5" style="stop-color:#E955AB"/>
				<a:midPointStop  offset="1" style="stop-color:#E33594"/>
			</linearGradient>
			<path fill="url(#SVGID_4_)" d="M70,25.8v36c0,3.1,0.1,6.5,0.2,8.6H64l-0.3-4.8h-0.1C62,68.9,58.7,71,54.7,71
				C48.2,71,43,64.8,43,55.4C43,45.2,48.7,39.1,55.3,39.1c3.8,0,6.5,1.8,7.7,4h0.1V25.8H70z M63.1,52.5c0-0.6-0.1-1.4-0.2-2
				c-0.6-3-2.8-5.5-6-5.5c-4.4,0-6.9,4.4-6.9,10.1c0,5.6,2.5,9.7,6.9,9.7c2.8,0,5.3-2.1,5.9-5.5c0.2-0.7,0.2-1.4,0.2-2.3V52.5z"/>
		</g>
	</g>
</g>
</svg>
