<?xml version="1.0" encoding="utf-8"?>
<!-- Generator: Adobe Illustrator 17.1.0, SVG Export Plug-In . SVG Version: 6.00 Build 0)  -->
<!DOCTYPE svg PUBLIC "-//W3C//DTD SVG 1.1//EN" "http://www.w3.org/Graphics/SVG/1.1/DTD/svg11.dtd" [
	<!ENTITY ns_flows "http://ns.adobe.com/Flows/1.0/">
	<!ENTITY ns_extend "http://ns.adobe.com/Extensibility/1.0/">
	<!ENTITY ns_ai "http://ns.adobe.com/AdobeIllustrator/10.0/">
	<!ENTITY ns_graphs "http://ns.adobe.com/Graphs/1.0/">
	<!ENTITY ns_vars "http://ns.adobe.com/Variables/1.0/">
	<!ENTITY ns_imrep "http://ns.adobe.com/ImageReplacement/1.0/">
	<!ENTITY ns_sfw "http://ns.adobe.com/SaveForWeb/1.0/">
	<!ENTITY ns_custom "http://ns.adobe.com/GenericCustomNamespace/1.0/">
	<!ENTITY ns_adobe_xpath "http://ns.adobe.com/XPath/1.0/">
]>
<svg version="1.1" id="Calque_1" xmlns:x="&ns_extend;" xmlns:i="&ns_ai;" xmlns:graph="&ns_graphs;"
	 xmlns="http://www.w3.org/2000/svg" xmlns:xlink="http://www.w3.org/1999/xlink" xmlns:a="http://ns.adobe.com/AdobeSVGViewerExtensions/3.0/"
	 x="0px" y="0px" viewBox="0 0 263.9 264" enable-background="new 0 0 263.9 264" xml:space="preserve">
<metadata>
	<sfw  xmlns="&ns_sfw;">
		<slices></slices>
		<sliceSourceBounds  width="263.9" height="264" bottomLeftOrigin="true" x="-344" y="-82"></sliceSourceBounds>
	</sfw>
</metadata>
<path fill="#FF3366" d="M240.1,0H23.9C10.7,0,0,10.7,0,23.9V240c0,13.3,10.7,24,23.9,24H240c13.2,0,23.9-10.7,23.9-23.9V23.9
	C264,10.7,253.3,0,240.1,0z"/>
<g>
	<path fill="#FFFFFF" d="M88.2,83.1c8.8,0,16.1-6.9,16.1-15.9s-7.4-15.9-16.1-15.9c-8.8,0-16.1,6.9-16.1,15.9S79.5,83.1,88.2,83.1z"
		/>
	<path fill="#FFFFFF" d="M54.8,168.2c-0.9,4-1.4,8.4-1.4,11.9c0,14,7.6,23.3,23.7,23.3c13.4,0,24.2-7.9,32-20.8l-4.8,19.1h26.6
		l15.2-60.9c3.8-15.4,11.1-23.4,22.3-23.4c8.8,0,14.2,5.5,14.2,14.5c0,2.6-0.2,5.5-1.2,8.5l-7.8,28c-1.2,4-1.7,8.1-1.7,11.9
		c0,13.3,7.8,23,24.2,23c14,0,25.1-9,31.3-30.6l-10.4-4c-5.2,14.5-9.7,17.1-13.3,17.1s-5.5-2.4-5.5-7.1c0-2.1,0.5-4.5,1.2-7.4
		L207,144c1.9-6.4,2.6-12.1,2.6-17.3c0-20.4-12.3-31-27.3-31c-14,0-28.2,12.6-35.3,25.9l5.2-23.8h-40.6l-5.7,21h19l-11.7,46.8
		c-9.2,20.4-26,20.7-28.1,20.3c-3.5-0.8-5.7-2.1-5.7-6.6c0-2.6,0.5-6.3,1.7-10.9l17.8-70.6H53.8l-5.7,21h18.7L54.8,168.2z"/>
</g>
</svg>
