<svg id="Layer_1" data-name="Layer 1" xmlns="http://www.w3.org/2000/svg" xmlns:xlink="http://www.w3.org/1999/xlink" viewBox="0 0 260 260"><defs><style>.cls-1{fill:url(#linear-gradient);}.cls-2{fill:url(#linear-gradient-2);}.cls-3{fill:url(#linear-gradient-3);}.cls-4{fill:url(#linear-gradient-4);}.cls-5{fill:url(#linear-gradient-5);}.cls-6{fill:url(#linear-gradient-6);}.cls-7{fill:url(#linear-gradient-7);}.cls-8{fill:url(#linear-gradient-8);}.cls-9{fill:url(#linear-gradient-9);}.cls-10{fill:url(#linear-gradient-10);}</style><linearGradient id="linear-gradient" x1="-4543.29" y1="-4263.35" x2="-4283.29" y2="-4263.35" gradientTransform="translate(-4133.1 4543.29) rotate(90)" gradientUnits="userSpaceOnUse"><stop offset="0" stop-color="#f27154"/><stop offset="1" stop-color="#f05b4a"/></linearGradient><linearGradient id="linear-gradient-2" x1="140.45" y1="60.17" x2="140.45" y2="80.32" gradientUnits="userSpaceOnUse"><stop offset="0" stop-color="#fff"/><stop offset="1" stop-color="#f7f7ff"/></linearGradient><linearGradient id="linear-gradient-3" x1="193.59" y1="60.17" x2="193.59" y2="80.32" xlink:href="#linear-gradient-2"/><linearGradient id="linear-gradient-4" x1="193.59" y1="119.93" x2="193.59" y2="140.08" xlink:href="#linear-gradient-2"/><linearGradient id="linear-gradient-5" x1="193.59" y1="179.68" x2="193.59" y2="199.84" xlink:href="#linear-gradient-2"/><linearGradient id="linear-gradient-6" x1="140.45" y1="119.93" x2="140.45" y2="140.08" xlink:href="#linear-gradient-2"/><linearGradient id="linear-gradient-7" x1="77.2" y1="169.34" x2="77.2" y2="210.19" xlink:href="#linear-gradient-2"/><linearGradient id="linear-gradient-8" x1="77.2" y1="109.58" x2="77.2" y2="150.43" xlink:href="#linear-gradient-2"/><linearGradient id="linear-gradient-9" x1="77.16" y1="49.82" x2="77.16" y2="90.67" xlink:href="#linear-gradient-2"/><linearGradient id="linear-gradient-10" x1="140.45" y1="169.34" x2="140.45" y2="210.19" xlink:href="#linear-gradient-2"/></defs><title>lingo_chiclet</title><rect class="cls-1" x="0.25" width="260" height="260"/><path class="cls-2" d="M140.45,80.32a10.08,10.08,0,1,0-10.08-10.08A10.09,10.09,0,0,0,140.45,80.32Z"/><path class="cls-3" d="M193.59,80.32a10.08,10.08,0,1,0-10.08-10.08A10.09,10.09,0,0,0,193.59,80.32Z"/><path class="cls-4" d="M193.59,119.93A10.08,10.08,0,1,0,203.67,130,10.09,10.09,0,0,0,193.59,119.93Z"/><path class="cls-5" d="M193.59,179.68a10.08,10.08,0,1,0,10.08,10.08A10.09,10.09,0,0,0,193.59,179.68Z"/><path class="cls-6" d="M140.45,140.08A10.08,10.08,0,1,0,130.37,130,10.09,10.09,0,0,0,140.45,140.08Z"/><path class="cls-7" d="M77.1,169.34A20.45,20.45,0,0,0,56.88,190a20.32,20.32,0,0,0,40.65,0A20.55,20.55,0,0,0,77.1,169.34Z"/><path class="cls-8" d="M77.1,109.58a20.42,20.42,0,1,0,20.42,20.62A20.45,20.45,0,0,0,77.1,109.58Z"/><path class="cls-9" d="M72.9,90.23a20.62,20.62,0,0,0,4.25.44,20.41,20.41,0,0,0,11.1-3.3A20,20,0,0,0,97,74.65,20.55,20.55,0,0,0,81.31,50.26a19.85,19.85,0,0,0-15.33,3,20.73,20.73,0,0,0-8.72,13A20.22,20.22,0,0,0,72.9,90.23Z"/><path class="cls-10" d="M140.35,169.34A20.45,20.45,0,0,0,120.13,190a20.32,20.32,0,0,0,40.65,0A20.55,20.55,0,0,0,140.35,169.34Z"/></svg>