<?xml version="1.0" encoding="utf-8"?>
<!-- Generator: Adobe Illustrator 17.1.0, SVG Export Plug-In . SVG Version: 6.00 Build 0)  -->
<!DOCTYPE svg PUBLIC "-//W3C//DTD SVG 1.1//EN" "http://www.w3.org/Graphics/SVG/1.1/DTD/svg11.dtd" [
	<!ENTITY ns_flows "http://ns.adobe.com/Flows/1.0/">
	<!ENTITY ns_extend "http://ns.adobe.com/Extensibility/1.0/">
	<!ENTITY ns_ai "http://ns.adobe.com/AdobeIllustrator/10.0/">
	<!ENTITY ns_graphs "http://ns.adobe.com/Graphs/1.0/">
	<!ENTITY ns_vars "http://ns.adobe.com/Variables/1.0/">
	<!ENTITY ns_imrep "http://ns.adobe.com/ImageReplacement/1.0/">
	<!ENTITY ns_sfw "http://ns.adobe.com/SaveForWeb/1.0/">
	<!ENTITY ns_custom "http://ns.adobe.com/GenericCustomNamespace/1.0/">
	<!ENTITY ns_adobe_xpath "http://ns.adobe.com/XPath/1.0/">
]>
<svg version="1.1" id="Calque_1" xmlns:x="&ns_extend;" xmlns:i="&ns_ai;" xmlns:graph="&ns_graphs;"
	 xmlns="http://www.w3.org/2000/svg" xmlns:xlink="http://www.w3.org/1999/xlink" xmlns:a="http://ns.adobe.com/AdobeSVGViewerExtensions/3.0/"
	 x="0px" y="0px" viewBox="0 0 100 100" enable-background="new 0 0 100 100" xml:space="preserve">
<metadata>
	<sfw  xmlns="&ns_sfw;">
		<slices></slices>
		<sliceSourceBounds  width="106" height="107" bottomLeftOrigin="true" x="-2.5" y="-104.5"></sliceSourceBounds>
	</sfw>
</metadata>
<g>
	<linearGradient id="SVGID_1_" gradientUnits="userSpaceOnUse" x1="4.1276" y1="4.3442" x2="96.0817" y2="96.2983">
		<stop  offset="0" style="stop-color:#32297C"/>
		<stop  offset="1" style="stop-color:#282761"/>
		<a:midPointStop  offset="0" style="stop-color:#32297C"/>
		<a:midPointStop  offset="0.5" style="stop-color:#32297C"/>
		<a:midPointStop  offset="1" style="stop-color:#282761"/>
	</linearGradient>
	<rect x="4" y="4.5" opacity="0.95" fill="url(#SVGID_1_)" width="92.3" height="91.6"/>
	<g>
		
			<image overflow="visible" opacity="0.4"  a:adobe-opacity-share="1" width="106" height="107" xlink:href="EB6810E72A4843C7.png"  transform="matrix(1 0 0 1 -2.5399 -2.5399)">
		</image>
		<g>
			<g>
				<linearGradient id="SVGID_2_" gradientUnits="userSpaceOnUse" x1="-0.5752" y1="0.5887" x2="100.5752" y2="99.4113">
					<stop  offset="0" style="stop-color:#95C8FD"/>
					<stop  offset="1" style="stop-color:#73B4F4"/>
					<a:midPointStop  offset="0" style="stop-color:#95C8FD"/>
					<a:midPointStop  offset="0.5" style="stop-color:#95C8FD"/>
					<a:midPointStop  offset="1" style="stop-color:#73B4F4"/>
				</linearGradient>
				<path fill="url(#SVGID_2_)" d="M0,0v100h100V0H0z M92.1,92.1H8.2V8.1h83.9V92.1z"/>
			</g>
		</g>
	</g>
	<g>
		<g opacity="0.1"  a:adobe-blending-mode="multiply"  a:adobe-opacity-share="1">
			<path  a:adobe-blending-mode="normal"  a:adobe-opacity-share="0" d="M26.3,29.5c2.7-0.5,6.4-0.9,11.5-0.9
				c5.5,0,9.6,1.2,12.2,3.5c2.5,2.1,4,5.4,4,9.4c0,4-1.2,7.3-3.6,9.6c-3,3.1-7.7,4.5-13.1,4.5c-1.4,0-2.7-0.1-3.7-0.3v15.9h-7.5
				V29.5z M33.8,49.2c0.9,0.3,2.1,0.3,3.7,0.3c5.6,0,9.1-2.8,9.1-7.8c0-4.7-3.2-7.2-8.4-7.2c-2.1,0-3.6,0.2-4.4,0.4V49.2z"/>
		</g>
		<g>
			<linearGradient id="SVGID_3_" gradientUnits="userSpaceOnUse" x1="26.0206" y1="49.052" x2="75.8112" y2="49.052">
				<stop  offset="0" style="stop-color:#95C8FD"/>
				<stop  offset="1" style="stop-color:#73B4F4"/>
				<a:midPointStop  offset="0" style="stop-color:#95C8FD"/>
				<a:midPointStop  offset="0.5" style="stop-color:#95C8FD"/>
				<a:midPointStop  offset="1" style="stop-color:#73B4F4"/>
			</linearGradient>
			<path fill="url(#SVGID_3_)" d="M26.3,28.6c2.7-0.5,6.4-0.9,11.5-0.9c5.5,0,9.6,1.2,12.2,3.5c2.5,2.1,4,5.4,4,9.4
				c0,4-1.2,7.3-3.6,9.6c-3,3.1-7.7,4.5-13.1,4.5c-1.4,0-2.7-0.1-3.7-0.3v15.9h-7.5V28.6z M33.8,48.3c0.9,0.3,2.1,0.3,3.7,0.3
				c5.6,0,9.1-2.8,9.1-7.8c0-4.7-3.2-7.2-8.4-7.2c-2.1,0-3.6,0.2-4.4,0.4V48.3z"/>
		</g>
	</g>
	<g>
		<g opacity="0.1"  a:adobe-blending-mode="multiply"  a:adobe-opacity-share="1">
			<path  a:adobe-blending-mode="normal"  a:adobe-opacity-share="0" d="M56.4,64.1c1.7,1.1,5,2.2,7.7,2.2c3.3,0,4.8-1.4,4.8-3.4
				c0-2.1-1.2-3.1-4.9-4.5c-5.8-2.1-8.3-5.3-8.2-8.9c0-5.4,4.4-9.6,11.3-9.6c3.3,0,6.2,0.9,7.9,1.8l-1.5,5.5
				c-1.3-0.8-3.7-1.8-6.3-1.8c-2.7,0-4.2,1.3-4.2,3.2c0,1.9,1.4,2.9,5.2,4.3c5.4,2,7.9,4.8,8,9.4c0,5.5-4.2,9.6-12.1,9.6
				c-3.6,0-6.9-0.9-9.1-2.2L56.4,64.1z"/>
		</g>
		<g>
			<linearGradient id="SVGID_4_" gradientUnits="userSpaceOnUse" x1="26.0205" y1="55.0784" x2="75.8122" y2="55.0784">
				<stop  offset="0" style="stop-color:#95C8FD"/>
				<stop  offset="1" style="stop-color:#73B4F4"/>
				<a:midPointStop  offset="0" style="stop-color:#95C8FD"/>
				<a:midPointStop  offset="0.5" style="stop-color:#95C8FD"/>
				<a:midPointStop  offset="1" style="stop-color:#73B4F4"/>
			</linearGradient>
			<path fill="url(#SVGID_4_)" d="M56.4,63.3c1.7,1.1,5,2.2,7.7,2.2c3.3,0,4.8-1.4,4.8-3.4c0-2.1-1.2-3.1-4.9-4.5
				c-5.8-2.1-8.3-5.3-8.2-8.9c0-5.4,4.4-9.6,11.3-9.6c3.3,0,6.2,0.9,7.9,1.8l-1.5,5.5c-1.3-0.8-3.7-1.8-6.3-1.8
				c-2.7,0-4.2,1.3-4.2,3.2c0,1.9,1.4,2.9,5.2,4.3c5.4,2,7.9,4.8,8,9.4c0,5.5-4.2,9.6-12.1,9.6c-3.6,0-6.9-0.9-9.1-2.2L56.4,63.3z"
				/>
		</g>
	</g>
</g>
</svg>
