<!-- Generator: Adobe Illustrator 18.1.1, SVG Export Plug-In  -->
<svg version="1.1"
	 xmlns="http://www.w3.org/2000/svg" xmlns:xlink="http://www.w3.org/1999/xlink" xmlns:a="http://ns.adobe.com/AdobeSVGViewerExtensions/3.0/"
	 x="0px" y="0px" width="122px" height="122px" viewBox="0 0 122 122" enable-background="new 0 0 122 122" xml:space="preserve">
<defs>
</defs>
<g>
	<g>
		<path fill="#E9A823" d="M79.1,7.5c-1.9-5.7-8-8.8-13.7-7c-5.7,1.9-8.8,8-7,13.7l28.1,86.4c1.9,5.3,7.7,8.3,13.2,6.7
			c5.8-1.7,9.3-7.8,7.4-13.4C107.1,93.7,79.1,7.5,79.1,7.5z"/>
		<path fill="#3FB991" d="M35.6,21.7c-1.9-5.7-8-8.8-13.7-7s-8.8,8-7,13.7L43,114.8c1.9,5.3,7.7,8.3,13.2,6.7
			c5.8-1.7,9.3-7.8,7.4-13.4C63.6,107.9,35.6,21.7,35.6,21.7z"/>
		<path fill="#E11765" d="M114.5,79.1c5.7-1.9,8.8-8,7-13.7c-1.9-5.7-8-8.8-13.7-7L21.3,86.5c-5.3,1.9-8.3,7.7-6.7,13.2
			c1.7,5.8,7.8,9.3,13.4,7.4C28.2,107.1,114.5,79.1,114.5,79.1z"/>
		<path fill="#472A49" d="M39.3,103.5c5.6-1.8,12.9-4.2,20.7-6.7c-1.8-5.6-4.2-12.9-6.7-20.7l-20.7,6.7L39.3,103.5z"/>
		<path fill="#CD2027" d="M82.8,89.4c7.8-2.5,15.1-4.9,20.7-6.7c-1.8-5.6-4.2-12.9-6.7-20.7l-20.7,6.7L82.8,89.4z"/>
		<path fill="#71CBDC" d="M100.3,35.6c5.7-1.9,8.8-8,7-13.7s-8-8.8-13.7-7L7.2,43c-5.3,1.9-8.3,7.7-6.7,13.2
			c1.7,5.8,7.8,9.3,13.4,7.4C14.1,63.6,100.3,35.6,100.3,35.6z"/>
		<path fill="#1D947E" d="M25.2,60c5.6-1.8,12.9-4.2,20.7-6.7c-2.5-7.8-4.9-15.1-6.7-20.7l-20.7,6.7L25.2,60z"/>
		<path fill="#66873A" d="M68.7,45.8c7.8-2.5,15.1-4.9,20.7-6.7c-2.5-7.8-4.9-15.1-6.7-20.7L62,25.2L68.7,45.8z"/>
	</g>
</g>
</svg>
