<?xml version="1.0" encoding="utf-8"?>
<!-- Generator: Adobe Illustrator 18.1.0, SVG Export Plug-In . SVG Version: 6.00 Build 0)  -->
<!DOCTYPE svg PUBLIC "-//W3C//DTD SVG 1.1//EN" "http://www.w3.org/Graphics/SVG/1.1/DTD/svg11.dtd">
<svg version="1.1" id="Calque_1" xmlns="http://www.w3.org/2000/svg" xmlns:xlink="http://www.w3.org/1999/xlink" x="0px" y="0px"
	 viewBox="0 -41 1190.6 923.8" enable-background="new 0 -41 1190.6 923.8" xml:space="preserve">
<path fill="#1A173D" d="M596.6,219.5c-96.4,0-174.6,78.2-174.6,174.6c0,48.8,20.8,95.7,56.7,129c2,1.3,3.3,3.3,5.2,4.6
	c18.2,16.9,28,40.4,28,65.8c0,0.7,0,2,0.7,2.6c1.3,10.4,9.1,18.2,18.9,20.8c-0.7,2-0.7,3.9-0.7,5.9v12.4c0,10.4,5.9,19.5,14.3,23.4
	c-0.7,2-1.3,4.6-1.3,7.2V678c0,14.3,12.4,25.4,26.7,25.4h53.4c14.3,0,30.6-11.1,30.6-25.4v-12.4c0-2.6-0.7-4.6-1.3-7.2
	c9.1-3.9,14.3-13,14.3-23.4v-12.4c0-2-2.6-3.9-2.6-5.9c9.8-2.6,16.3-11.1,17.6-20.8c0-0.7,0-2,0-2.6c0-24.7,9.8-48.2,28-65.1
	c2-1.3,3.3-2.6,4.6-4.6c35.8-33.2,56.7-80.1,56.7-129C771.1,297.7,693,219.5,596.6,219.5z M627.8,672.2c0,2.6-2,4.6-4.6,4.6h-56
	c-2.6,0-4.6-2-4.6-4.6v-10.4c0-2.6,2-4.6,4.6-4.6h56c2.6,0,4.6,2,4.6,4.6L627.8,672.2L627.8,672.2z M647.4,635.1
	c0,2.6-7.8,9.1-10.4,9.1h-13.7h-53.4h-13.7c-2.6,0-6.5-7.2-6.5-9.1v-12.4c0-2.6,3.9-3.9,6.5-3.9H637c2.6,0,10.4,1.3,10.4,3.9V635.1z
	 M660.4,592.1c0,2.6-2.6,6.5-4.6,6.5h-18.2h-81.4H538c-2.6,0-7.2-3.9-7.2-6.5v-12.4c0-2.6,4.6-7.2,7.2-7.2h117.9
	c2.6,0,4.6,4.6,4.6,7.2V592.1L660.4,592.1z M525.6,553c-6.5-17.6-17.6-33.2-32.6-45.6c-31.9-29.3-49.5-70.3-49.5-113.3
	c0-84.7,69-153.7,153.7-153.7s153.7,69,153.7,153.7c0,43-18.2,84-49.5,113.3c-15,12.4-26.1,28-33.2,45.6H525.6z"/>
<path fill="#A3D9FF" stroke="#A3D9FF" stroke-miterlimit="10" d="M596.6,219.5c-96.4,0-174.6,78.2-174.6,174.6
	c0,48.8,20.8,95.7,56.7,129c2,1.3,3.3,3.3,5.2,4.6c18.2,16.9,28,40.4,28,65.8c0,0.7,0,2,0.7,2.6c1.3,10.4,9.1,18.2,18.9,20.8
	c-0.7,2-0.7,3.9-0.7,5.9v12.4c0,10.4,5.9,19.5,14.3,23.4c-0.7,2-1.3,4.6-1.3,7.2V678c0,14.3,12.4,25.4,26.7,25.4h53.4
	c14.3,0,30.6-11.1,30.6-25.4v-12.4c0-2.6-0.7-4.6-1.3-7.2c9.1-3.9,14.3-13,14.3-23.4v-12.4c0-2-2.6-3.9-2.6-5.9
	c9.8-2.6,16.3-11.1,17.6-20.8c0-0.7,0-2,0-2.6c0-24.7,9.8-48.2,28-65.1c2-1.3,3.3-2.6,4.6-4.6c35.8-33.2,56.7-80.1,56.7-129
	C771.1,297.7,693,219.5,596.6,219.5z M627.8,672.2c0,2.6-2,4.6-4.6,4.6h-56c-2.6,0-4.6-2-4.6-4.6v-10.4c0-2.6,2-4.6,4.6-4.6h56
	c2.6,0,4.6,2,4.6,4.6L627.8,672.2L627.8,672.2z M647.4,635.1c0,2.6-7.8,9.1-10.4,9.1h-13.7h-53.4h-13.7c-2.6,0-6.5-7.2-6.5-9.1
	v-12.4c0-2.6,3.9-3.9,6.5-3.9H637c2.6,0,10.4,1.3,10.4,3.9V635.1z M660.4,592.1c0,2.6-2.6,6.5-4.6,6.5h-18.2h-81.4H538
	c-2.6,0-7.2-3.9-7.2-6.5v-12.4c0-2.6,4.6-7.2,7.2-7.2h117.9c2.6,0,4.6,4.6,4.6,7.2V592.1L660.4,592.1z M525.6,553
	c-6.5-17.6-17.6-33.2-32.6-45.6c-31.9-29.3-49.5-70.3-49.5-113.3c0-84.7,69-153.7,153.7-153.7s153.7,69,153.7,153.7
	c0,43-18.2,84-49.5,113.3c-15,12.4-26.1,28-33.2,45.6H525.6z"/>
<line fill="none" stroke="#A3D9FF" stroke-width="14" stroke-linecap="round" stroke-linejoin="round" stroke-miterlimit="10" stroke-dasharray="2,30" x1="745.4" y1="541.3" x2="813.8" y2="610.3"/>
<line fill="none" stroke="#A3D9FF" stroke-width="14" stroke-linecap="round" stroke-linejoin="round" stroke-miterlimit="10" stroke-dasharray="2,30" x1="809.2" y1="394.1" x2="906.3" y2="394.1"/>
<line fill="none" stroke="#A3D9FF" stroke-width="14" stroke-linecap="round" stroke-linejoin="round" stroke-miterlimit="10" stroke-dasharray="2,30" x1="745.4" y1="245.6" x2="814.4" y2="176.6"/>
<line fill="none" stroke="#A3D9FF" stroke-width="14" stroke-linecap="round" stroke-linejoin="round" stroke-miterlimit="10" stroke-dasharray="2,30" x1="600.2" y1="185" x2="600.2" y2="88"/>
<line fill="none" stroke="#A3D9FF" stroke-width="14" stroke-linecap="round" stroke-linejoin="round" stroke-miterlimit="10" stroke-dasharray="2,30" x1="449.7" y1="246.3" x2="380.7" y2="177.2"/>
<line fill="none" stroke="#A3D9FF" stroke-width="14" stroke-linecap="round" stroke-linejoin="round" stroke-miterlimit="10" stroke-dasharray="2,30" x1="384.6" y1="394.1" x2="287.5" y2="394.1"/>
<line fill="none" stroke="#A3D9FF" stroke-width="14" stroke-linecap="round" stroke-linejoin="round" stroke-miterlimit="10" stroke-dasharray="2,30" x1="450.4" y1="540.6" x2="382" y2="609.7"/>
</svg>
