<?xml version="1.0" encoding="utf-8"?>
<!-- Generator: Adobe Illustrator 18.1.0, SVG Export Plug-In . SVG Version: 6.00 Build 0)  -->
<!DOCTYPE svg PUBLIC "-//W3C//DTD SVG 1.1//EN" "http://www.w3.org/Graphics/SVG/1.1/DTD/svg11.dtd">
<svg version="1.1" id="Calque_1" xmlns="http://www.w3.org/2000/svg" xmlns:xlink="http://www.w3.org/1999/xlink" x="0px" y="0px"
	 viewBox="0 978.2 1190.6 925.9" enable-background="new 0 978.2 1190.6 925.9" xml:space="preserve">
<g>
	<path fill="#FFFFFF" d="M373.6,1152.6c-18.8,0-34.3,15.3-34.3,34.1v452.6c0,18.9,15.4,34.1,34.3,34.1h43.9l9.6,6.7l-6.7-2.9
		l22.8,31.7c11,15.3,32.5,18.6,47.7,7.6l365-266c15.2-11,18.8-32.6,7.8-47.8l-52.4-72.1c-6.9-9.4-18.1-14.4-29.1-14.1
		c-4,0.2-8.3,1.1-12.1,2.9c6-14.4,1.8-31.7-11.4-41.3l-72.3-52.5c-5.6-4.3-12.1-6.3-18.6-6.5c-8.7-0.4-17.2,2.5-23.7,8.5
		c1.3-15.7-7.8-31-23.3-35.9l-84.9-27.6c-3.4-1.1-6.7-1.6-10.1-1.8c-12.3,0-23.7,6.5-30,17.1c-3.1-15.3-16.8-26.7-33.1-26.7H373.6
		L373.6,1152.6z M373.6,1165.4h89.1c12.1,0,21.3,9.2,21.3,21.3v92.7H351.9v-92.7C351.9,1174.6,361.5,1165.4,373.6,1165.4
		L373.6,1165.4z M523.4,1175.1c2.7-0.2,5.6,0.2,8.5,1.1l84.9,27.6c11.4,3.6,17.5,15.7,13.9,27.2l-28.6,88.4l-105.2-34.3V1215
		l8.1-24.9C507.5,1181.6,515.1,1175.8,523.4,1175.1L523.4,1175.1z M667.2,1231.7c4,0.2,8.5,1.6,12.1,4.3l72.1,52.3
		c9.6,7.2,11.6,20.7,4.7,30.3l-54.4,75l-89.1-65.1l21.7-67.4l14.8-20.4C653.5,1234.6,660.2,1231.4,667.2,1231.7L667.2,1231.7z
		 M351.9,1292.3H484v114.5H351.9V1292.3L351.9,1292.3z M496.7,1298.6l101.2,33l-35.2,108.7l-66.1-21.6L496.7,1298.6L496.7,1298.6z
		 M782.9,1329.1c6.9-0.2,13.7,2.9,18.1,9l52.4,72.3c6.9,9.7,4.9,22.9-4.7,30.1l-75.2,54.6l-64.9-89.6l41.2-56.8l21.3-15.5
		C774.6,1330.7,778.7,1329.3,782.9,1329.1L782.9,1329.1z M608.3,1341.2l86,62.4l-67,92.5l-56.2-40.4L608.3,1341.2L608.3,1341.2z
		 M701,1416.2l62.5,86.4l-92.2,67.1l-40.8-56.1L701,1416.2L701,1416.2z M351.9,1419.3H484v114.5H351.9V1419.3L351.9,1419.3z
		 M496.7,1432.2l62.2,20.2L523.8,1561l-27.1-8.8L496.7,1432.2L496.7,1432.2z M567.1,1468.3l52.6,38.4l-67,92.5l-22.8-16.4
		L567.1,1468.3L567.1,1468.3z M622.6,1524.4l38.3,52.8l-92.2,67.1l-16.3-22.7L622.6,1524.4L622.6,1524.4z M351.9,1546.4H484v92.9
		c0,12.1-9.2,21.3-21.3,21.3h-89.1c-12.1,0-21.7-9.2-21.7-21.3V1546.4L351.9,1546.4z M496.7,1565.5l23.1,7.6l-23.7,73
		c0.4-2.2,0.7-4.5,0.7-6.7V1565.5L496.7,1565.5z M525.9,1595.4l19.5,14.2l-44.1,60.8c0.9-1.6,1.6-3.4,2-4.9L525.9,1595.4
		L525.9,1595.4z M544.2,1632.4l14.1,19.5l-60.5,43.8c1.1-1.1,2.2-2.2,3.1-3.6L544.2,1632.4L544.2,1632.4z M493.8,1653.3l-2.7,8.1
		c-3.6,11.4-15.7,17.5-27.1,13.9l-5.4-1.8h4C476.6,1673.5,488.5,1665.2,493.8,1653.3L493.8,1653.3z M494.3,1679.6l-3.6,4.9
		c-6.9,9.7-20.2,11.9-30,4.7l-4.5-3.1l4,1.1C472.6,1691.2,485.6,1687.9,494.3,1679.6L494.3,1679.6z M450.4,1697.3l3.1,2.2
		c10.3,7.6,23.7,8.3,34.7,3.2l-4.7,3.6c-9.8,7.2-23.1,4.9-30-4.7L450.4,1697.3L450.4,1697.3z"/>
</g>
<g>
	<g>
		<polyline fill="none" stroke="#FFFFFF" stroke-width="11" stroke-linecap="round" stroke-linejoin="round" points="1011.1,1855.3 
			1011.1,1856.3 1010.1,1856.3 		"/>
		
			<line fill="none" stroke="#FFFFFF" stroke-width="11" stroke-linecap="round" stroke-linejoin="round" stroke-dasharray="2.0119,30.178" x1="979.9" y1="1856.3" x2="190.3" y2="1856.3"/>
		<polyline fill="none" stroke="#FFFFFF" stroke-width="11" stroke-linecap="round" stroke-linejoin="round" points="175.2,1856.3 
			174.2,1856.3 174.2,1855.3 		"/>
		
			<line fill="none" stroke="#FFFFFF" stroke-width="11" stroke-linecap="round" stroke-linejoin="round" stroke-dasharray="2.0119,30.178" x1="174.2" y1="1825.1" x2="174.2" y2="1035.5"/>
		<polyline fill="none" stroke="#FFFFFF" stroke-width="11" stroke-linecap="round" stroke-linejoin="round" points="174.2,1020.4 
			174.2,1019.4 175.2,1019.4 		"/>
		
			<line fill="none" stroke="#FFFFFF" stroke-width="11" stroke-linecap="round" stroke-linejoin="round" stroke-dasharray="2.0119,30.178" x1="205.3" y1="1019.4" x2="995" y2="1019.4"/>
		<polyline fill="none" stroke="#FFFFFF" stroke-width="11" stroke-linecap="round" stroke-linejoin="round" points="1010.1,1019.4 
			1011.1,1019.4 1011.1,1020.4 		"/>
		
			<line fill="none" stroke="#FFFFFF" stroke-width="11" stroke-linecap="round" stroke-linejoin="round" stroke-dasharray="2.0119,30.178" x1="1011.1" y1="1050.6" x2="1011.1" y2="1840.2"/>
	</g>
</g>
</svg>
