<?xml version="1.0" encoding="utf-8"?>
<!-- Generator: Adobe Illustrator 18.1.0, SVG Export Plug-In . SVG Version: 6.00 Build 0)  -->
<!DOCTYPE svg PUBLIC "-//W3C//DTD SVG 1.1//EN" "http://www.w3.org/Graphics/SVG/1.1/DTD/svg11.dtd">
<svg version="1.1" id="Calque_1" xmlns="http://www.w3.org/2000/svg" xmlns:xlink="http://www.w3.org/1999/xlink" x="0px" y="0px"
	 viewBox="0 2972.1 1190.6 925.9" enable-background="new 0 2972.1 1190.6 925.9" xml:space="preserve">
<path fill="none" stroke="#FFFFFF" stroke-width="14.4252" stroke-linecap="round" stroke-linejoin="round" stroke-miterlimit="10" d="
	M875.1,3222c-0.5-7.1-6.4-12.8-13.7-12.8H336.7c-7.3,0-13.2,5.6-13.7,12.8l-0.1,354.5c0,7.6,6.2,13.8,13.8,13.8h524.6
	c7.6,0,13.8-6.2,13.8-13.8L875.1,3222z M853.1,3524.1H345v-292.7h508.1V3524.1z"/>
<path fill="none" stroke="#FFFFFF" stroke-width="14.4252" stroke-linecap="round" stroke-linejoin="round" stroke-miterlimit="10" d="
	M687.4,3666.8c-22.1-5.5-27.6-22.1-27.6-44.2v-5.5h-60.7h-60.7v5.5c0,22.1-5.5,38.7-27.6,44.2c-5.4,1.3-5.5,11,0,11h88.4h88.4
	C692.9,3677.9,692.8,3668.2,687.4,3666.8z"/>
<g>
	<g>
		<polyline fill="none" stroke="#FFFFFF" stroke-width="11" stroke-linecap="round" stroke-linejoin="round" points="1011.1,3849.3 
			1011.1,3850.3 1010.1,3850.3 		"/>
		
			<line fill="none" stroke="#FFFFFF" stroke-width="11" stroke-linecap="round" stroke-linejoin="round" stroke-dasharray="2.0119,30.178" x1="979.9" y1="3850.3" x2="190.3" y2="3850.3"/>
		<polyline fill="none" stroke="#FFFFFF" stroke-width="11" stroke-linecap="round" stroke-linejoin="round" points="175.2,3850.3 
			174.2,3850.3 174.2,3849.3 		"/>
		
			<line fill="none" stroke="#FFFFFF" stroke-width="11" stroke-linecap="round" stroke-linejoin="round" stroke-dasharray="2.0119,30.178" x1="174.2" y1="3819.1" x2="174.2" y2="3029.4"/>
		<polyline fill="none" stroke="#FFFFFF" stroke-width="11" stroke-linecap="round" stroke-linejoin="round" points="174.2,3014.4 
			174.2,3013.4 175.2,3013.4 		"/>
		
			<line fill="none" stroke="#FFFFFF" stroke-width="11" stroke-linecap="round" stroke-linejoin="round" stroke-dasharray="2.0119,30.178" x1="205.3" y1="3013.4" x2="995" y2="3013.4"/>
		<polyline fill="none" stroke="#FFFFFF" stroke-width="11" stroke-linecap="round" stroke-linejoin="round" points="1010.1,3013.4 
			1011.1,3013.4 1011.1,3014.4 		"/>
		
			<line fill="none" stroke="#FFFFFF" stroke-width="11" stroke-linecap="round" stroke-linejoin="round" stroke-dasharray="2.0119,30.178" x1="1011.1" y1="3044.5" x2="1011.1" y2="3834.2"/>
	</g>
</g>
</svg>
