<?xml version="1.0" encoding="utf-8"?>
<!-- Generator: Adobe Illustrator 18.1.0, SVG Export Plug-In . SVG Version: 6.00 Build 0)  -->
<!DOCTYPE svg PUBLIC "-//W3C//DTD SVG 1.1//EN" "http://www.w3.org/Graphics/SVG/1.1/DTD/svg11.dtd">
<svg version="1.1" id="Calque_1" xmlns="http://www.w3.org/2000/svg" xmlns:xlink="http://www.w3.org/1999/xlink" x="0px" y="0px"
	 viewBox="0 951.4 1190.6 923.8" enable-background="new 0 951.4 1190.6 923.8" xml:space="preserve">
<g>
	<g>
		<path fill="#1A173D" d="M451.5,1433.5h9.7v9.8h-9.7V1433.5z"/>
		<path fill="#1A173D" d="M473.2,1436.1h8.2v-51.3h-8.2v-7.2H499v7.2h-8.3v21.9h34.1v-21.9h-8.3v-7.2h25.8v7.2h-8.2v51.3h8.2v7.3
			h-25.8v-7.3h8.3v-21.8h-34.1v21.8h8.3v7.3h-25.8V1436.1z"/>
		<path fill="#1A173D" d="M565.1,1436.1h8.3v-50.8H558v10.2h-8.1v-17.9h56.4v17.9h-8.1v-10.2h-15.5v50.8h8.3v7.3h-25.9L565.1,1436.1
			L565.1,1436.1z"/>
		<path fill="#1A173D" d="M612.5,1436.1h8.2l4.2-51.3h-8.4v-7.2h18.6l16.9,40c1,2.7,1.5,4.7,1.5,4.7h0.2c0,0,0.5-2,1.5-4.7l16.9-40
			h18.6v7.2h-8.4l4.2,51.3h8.2v7.3h-25.3v-7.3h7.9l-3-39.3c-0.1-2,0.3-5.4,0.3-5.4h-0.3c0,0-0.7,3.2-1.5,5l-15.1,34.5h-8.2
			l-15.1-34.5c-0.7-1.9-1.5-5-1.5-5h-0.3c0,0,0.4,3.4,0.3,5.4l-3,39.3h7.9v7.3h-25.3L612.5,1436.1L612.5,1436.1z"/>
		<path fill="#1A173D" d="M703.2,1436.1h8.2v-50.8h-8.2v-7.6h25.8v7.6h-8.3v50.5h22.9v-10.6h8.2v18.2h-48.6V1436.1z"/>
	</g>
</g>
<g>
	<g>
		<polyline fill="none" stroke="#1A173D" stroke-width="11" stroke-linecap="round" stroke-linejoin="round" points="1020.1,1825.7 
			1020.1,1826.7 1019.1,1826.7 		"/>
		
			<line fill="none" stroke="#1A173D" stroke-width="11" stroke-linecap="round" stroke-linejoin="round" stroke-dasharray="2.0119,30.178" x1="988.9" y1="1826.7" x2="199.3" y2="1826.7"/>
		<polyline fill="none" stroke="#1A173D" stroke-width="11" stroke-linecap="round" stroke-linejoin="round" points="184.2,1826.7 
			183.2,1826.7 183.2,1825.7 		"/>
		
			<line fill="none" stroke="#1A173D" stroke-width="11" stroke-linecap="round" stroke-linejoin="round" stroke-dasharray="2.0119,30.178" x1="183.2" y1="1795.5" x2="183.2" y2="1005.9"/>
		<polyline fill="none" stroke="#1A173D" stroke-width="11" stroke-linecap="round" stroke-linejoin="round" points="183.2,990.8 
			183.2,989.8 184.2,989.8 		"/>
		
			<line fill="none" stroke="#1A173D" stroke-width="11" stroke-linecap="round" stroke-linejoin="round" stroke-dasharray="2.0119,30.178" x1="214.3" y1="989.8" x2="1004" y2="989.8"/>
		<polyline fill="none" stroke="#1A173D" stroke-width="11" stroke-linecap="round" stroke-linejoin="round" points="1019.1,989.8 
			1020.1,989.8 1020.1,990.8 		"/>
		
			<line fill="none" stroke="#1A173D" stroke-width="11" stroke-linecap="round" stroke-linejoin="round" stroke-dasharray="2.0119,30.178" x1="1020.1" y1="1021" x2="1020.1" y2="1810.6"/>
	</g>
</g>
<path fill="none" stroke="#1A173D" stroke-width="13.6191" stroke-linecap="round" stroke-linejoin="round" stroke-miterlimit="10" d="
	M796.1,1679.1H404.5c-7.1,0-12.8-5.7-12.8-12.8v-511.6c0-7.1,5.7-12.8,12.8-12.8h391.6c7.1,0,12.8,5.7,12.8,12.8v511.6
	C808.9,1673.3,803.2,1679.1,796.1,1679.1z"/>
</svg>
