<?xml version="1.0" encoding="utf-8"?>
<!-- Generator: Adobe Illustrator 18.1.0, SVG Export Plug-In . SVG Version: 6.00 Build 0)  -->
<!DOCTYPE svg PUBLIC "-//W3C//DTD SVG 1.1//EN" "http://www.w3.org/Graphics/SVG/1.1/DTD/svg11.dtd">
<svg version="1.1" id="Calque_1" xmlns="http://www.w3.org/2000/svg" xmlns:xlink="http://www.w3.org/1999/xlink" x="0px" y="0px"
	 viewBox="0 -41 1190.6 923.8" enable-background="new 0 -41 1190.6 923.8" xml:space="preserve">
<path fill="#1A173D" stroke="#1A173D" stroke-width="5" stroke-linecap="round" stroke-linejoin="round" stroke-miterlimit="10" d="
	M878.1,263.4c-0.9-0.9-2.1-1.4-3.3-1.4H696.3l-19.1-57.4c-0.6-1.9-2.5-3.2-4.5-3.2H517.8c-2,0-3.8,1.3-4.5,3.2L494.2,262h-72.7v-29
	c0-1.2-0.5-2.5-1.4-3.3c-0.9-0.9-2.1-1.4-3.3-1.4h-47.1c-1.2,0-2.5,0.5-3.3,1.4c-0.9,0.9-1.4,2.1-1.4,3.3v29h-49.2
	c-1.2,0-2.5,0.5-3.3,1.4c-0.9,0.9-1.4,2.1-1.4,3.3v377.2c0,1.2,0.5,2.5,1.4,3.3c0.9,0.9,2.1,1.4,3.3,1.4h559c1.2,0,2.5-0.5,3.3-1.4
	c0.9-0.9,1.4-2.1,1.4-3.3V266.7C879.5,265.5,879,264.3,878.1,263.4z M521.2,210.8h148.1l17.1,51.2H504.2L521.2,210.8z M374.4,237.8
	h37.7V262h-37.7V237.8z M870.1,271.5v90.8H695.8c-25.7-23.7-59.9-38.4-97.6-38.4s-71.9,14.6-97.6,38.4H320.5v-90.8H870.1z
	 M598.2,333.3c74.4,0,134.7,60.3,134.7,134.7s-60.3,134.7-134.7,134.7c-74.4,0-134.7-60.3-134.7-134.7S523.8,333.3,598.2,333.3z
	 M320.5,371.7h170.8c-23,25.6-37.2,59.3-37.2,96.3c0,79.5,64.7,144.1,144.1,144.1S742.3,547.5,742.3,468c0-37-14.2-70.8-37.2-96.3
	h165v267.5H320.5V371.7z"/>
<path fill="#1A173D" stroke="#1A173D" stroke-width="5" stroke-miterlimit="10" d="M767,317.8h40.4c2.6,0,4.7-2.1,4.7-4.7
	c0-2.6-2.1-4.7-4.7-4.7H767c-2.6,0-4.7,2.1-4.7,4.7C762.3,315.7,764.4,317.8,767,317.8z"/>
<path fill="#1A173D" stroke="#1A173D" stroke-width="5" stroke-miterlimit="10" d="M619.1,557.9c34.9-8.1,62.2-36,69.5-71.3
	c0.5-2.6-1.1-5-3.7-5.6c-2.6-0.5-5,1.1-5.6,3.7c-6.5,31.6-31,56.8-62.4,64c-2.5,0.6-4.1,3.1-3.5,5.7
	C614,556.9,616.6,558.5,619.1,557.9z"/>
<g>
	<g>
		<polyline fill="none" stroke="#1A173D" stroke-width="11" stroke-linecap="round" stroke-linejoin="round" points="1013.7,842.5 
			1013.7,843.5 1012.7,843.5 		"/>
		
			<line fill="none" stroke="#1A173D" stroke-width="11" stroke-linecap="round" stroke-linejoin="round" stroke-dasharray="2.0119,30.178" x1="982.6" y1="843.5" x2="192.9" y2="843.5"/>
		<polyline fill="none" stroke="#1A173D" stroke-width="11" stroke-linecap="round" stroke-linejoin="round" points="177.8,843.5 
			176.8,843.5 176.8,842.5 		"/>
		
			<line fill="none" stroke="#1A173D" stroke-width="11" stroke-linecap="round" stroke-linejoin="round" stroke-dasharray="2.0119,30.178" x1="176.8" y1="812.3" x2="176.8" y2="22.6"/>
		<polyline fill="none" stroke="#1A173D" stroke-width="11" stroke-linecap="round" stroke-linejoin="round" points="176.8,7.6 
			176.8,6.6 177.8,6.6 		"/>
		
			<line fill="none" stroke="#1A173D" stroke-width="11" stroke-linecap="round" stroke-linejoin="round" stroke-dasharray="2.0119,30.178" x1="208" y1="6.6" x2="997.6" y2="6.6"/>
		<polyline fill="none" stroke="#1A173D" stroke-width="11" stroke-linecap="round" stroke-linejoin="round" points="1012.7,6.6 
			1013.7,6.6 1013.7,7.6 		"/>
		
			<line fill="none" stroke="#1A173D" stroke-width="11" stroke-linecap="round" stroke-linejoin="round" stroke-dasharray="2.0119,30.178" x1="1013.7" y1="37.7" x2="1013.7" y2="827.4"/>
	</g>
</g>
</svg>
