<?xml version="1.0" encoding="utf-8"?>
<!-- Generator: Adobe Illustrator 18.1.0, SVG Export Plug-In . SVG Version: 6.00 Build 0)  -->
<!DOCTYPE svg PUBLIC "-//W3C//DTD SVG 1.1//EN" "http://www.w3.org/Graphics/SVG/1.1/DTD/svg11.dtd">
<svg version="1.1" id="Calque_1" xmlns="http://www.w3.org/2000/svg" xmlns:xlink="http://www.w3.org/1999/xlink" x="0px" y="0px"
	 viewBox="0 0 1190.6 841.9" enable-background="new 0 0 1190.6 841.9" xml:space="preserve">
<g>
	<g>
		<polyline fill="none" stroke="#FFFFFF" stroke-width="11" stroke-linecap="round" stroke-linejoin="round" points="973.3,797.6 
			973.3,798.5 972.4,798.5 		"/>
		
			<line fill="none" stroke="#FFFFFF" stroke-width="11" stroke-linecap="round" stroke-linejoin="round" stroke-dasharray="2.0119,30.178" x1="945" y1="798.5" x2="227" y2="798.5"/>
		<polyline fill="none" stroke="#FFFFFF" stroke-width="11" stroke-linecap="round" stroke-linejoin="round" points="213.3,798.5 
			212.4,798.5 212.4,797.6 		"/>
		
			<line fill="none" stroke="#FFFFFF" stroke-width="11" stroke-linecap="round" stroke-linejoin="round" stroke-dasharray="2.0119,30.178" x1="212.4" y1="770.1" x2="212.4" y2="52.1"/>
		<polyline fill="none" stroke="#FFFFFF" stroke-width="11" stroke-linecap="round" stroke-linejoin="round" points="212.4,38.4 
			212.4,37.5 213.3,37.5 		"/>
		
			<line fill="none" stroke="#FFFFFF" stroke-width="11" stroke-linecap="round" stroke-linejoin="round" stroke-dasharray="2.0119,30.178" x1="240.7" y1="37.5" x2="958.7" y2="37.5"/>
		<polyline fill="none" stroke="#FFFFFF" stroke-width="11" stroke-linecap="round" stroke-linejoin="round" points="972.4,37.5 
			973.3,37.5 973.3,38.4 		"/>
		
			<line fill="none" stroke="#FFFFFF" stroke-width="11" stroke-linecap="round" stroke-linejoin="round" stroke-dasharray="2.0119,30.178" x1="973.3" y1="65.8" x2="973.3" y2="783.9"/>
	</g>
</g>
<path fill="none" stroke="#1A173D" stroke-width="13.4209" stroke-linecap="round" stroke-linejoin="round" stroke-miterlimit="10" d="
	M843.1,607.1H350.4c-6.4,0-11.5-5.1-11.5-11.5V269.6c0-6.4,5.1-11.5,11.5-11.5h492.6c6.4,0,11.5,5.1,11.5,11.5v326.1
	C854.5,602,849.4,607.1,843.1,607.1z"/>
<polygon fill="none" stroke="#1A173D" stroke-width="13.4209" stroke-linecap="round" stroke-linejoin="round" stroke-miterlimit="10" points="
	558.5,384.2 642.6,432.6 558.5,481.1 "/>
<circle fill="none" stroke="#1A173D" stroke-width="13.4209" stroke-linecap="round" stroke-linejoin="round" stroke-miterlimit="10" cx="588.6" cy="432.6" r="127.5"/>
<g>
	<g>
		<polyline fill="none" stroke="#1A173D" stroke-width="11" stroke-linecap="round" stroke-linejoin="round" points="973.3,797.6 
			973.3,798.5 972.4,798.5 		"/>
		
			<line fill="none" stroke="#1A173D" stroke-width="11" stroke-linecap="round" stroke-linejoin="round" stroke-dasharray="2.0119,30.178" x1="945" y1="798.5" x2="227" y2="798.5"/>
		<polyline fill="none" stroke="#1A173D" stroke-width="11" stroke-linecap="round" stroke-linejoin="round" points="213.3,798.5 
			212.4,798.5 212.4,797.6 		"/>
		
			<line fill="none" stroke="#1A173D" stroke-width="11" stroke-linecap="round" stroke-linejoin="round" stroke-dasharray="2.0119,30.178" x1="212.4" y1="770.1" x2="212.4" y2="52.1"/>
		<polyline fill="none" stroke="#1A173D" stroke-width="11" stroke-linecap="round" stroke-linejoin="round" points="212.4,38.4 
			212.4,37.5 213.3,37.5 		"/>
		
			<line fill="none" stroke="#1A173D" stroke-width="11" stroke-linecap="round" stroke-linejoin="round" stroke-dasharray="2.0119,30.178" x1="240.7" y1="37.5" x2="958.7" y2="37.5"/>
		<polyline fill="none" stroke="#1A173D" stroke-width="11" stroke-linecap="round" stroke-linejoin="round" points="972.4,37.5 
			973.3,37.5 973.3,38.4 		"/>
		
			<line fill="none" stroke="#1A173D" stroke-width="11" stroke-linecap="round" stroke-linejoin="round" stroke-dasharray="2.0119,30.178" x1="973.3" y1="65.8" x2="973.3" y2="783.9"/>
	</g>
</g>
</svg>
