<?xml version="1.0" encoding="utf-8"?>
<!-- Generator: Adobe Illustrator 21.0.0, SVG Export Plug-In . SVG Version: 6.00 Build 0)  -->
<svg version="1.1" id="Calque_1" xmlns="http://www.w3.org/2000/svg" xmlns:xlink="http://www.w3.org/1999/xlink" x="0px" y="0px"
	 viewBox="0 0 53 51.7" style="enable-background:new 0 0 53 51.7;" xml:space="preserve">
<style type="text/css">
	.st0{fill:url(#SVGID_1_);}
	.st1{fill:#D8A1FF;}
</style>
<g>
	
		<radialGradient id="SVGID_1_" cx="-797.2913" cy="97.0202" r="1.611197e-02" gradientTransform="matrix(2291.6716 0 0 -2218.7549 1827148 215276.8438)" gradientUnits="userSpaceOnUse">
		<stop  offset="0" style="stop-color:#442F55;stop-opacity:0.98"/>
		<stop  offset="1" style="stop-color:#12002C"/>
	</radialGradient>
	<path class="st0" d="M2.2,2.2h48.6v47.3H2.2V2.2z"/>
	<path class="st1" d="M2.2,2.2h48.6v47.3H2.2V2.2z M0,51.7h53V0H0V51.7z M37.5,24.9c1.1,0,1.5,0,1.6,0c0-0.2,0-0.3,0-0.4
		c0-1.2-0.6-3.4-2.9-3.4c-2.1,0-3,1.9-3.2,3.8H37.5L37.5,24.9z M33,27.9c0,3,1.5,5,4.8,5c1.3,0,2.4-0.2,3.6-0.7
		c0.2-0.1,0.3,0,0.3,0.2v2.8c0,0.2-0.1,0.3-0.2,0.4c-1.2,0.6-2.6,0.8-4.4,0.8c-5.8,0-8-4.3-8-9.1c0-5.2,2.7-9.5,7.4-9.5
		c4.8,0,6.5,4,6.5,7.3c0,1.1-0.1,1.9-0.2,2.3c0,0.2-0.1,0.2-0.3,0.3C42,27.9,40.7,28,38.8,28L33,27.9L33,27.9z M21.2,25.7
		c-0.6-2.5-2.1-7.8-2.7-10.4h0c-0.5,2.6-1.7,7-2.6,10.4H21.2z M15,29.3l-1.7,6.6c0,0.2-0.1,0.2-0.3,0.2H9.7c-0.2,0-0.3-0.1-0.2-0.3
		l6.3-21.9c0.1-0.4,0.2-0.7,0.2-1.8c0-0.2,0.1-0.2,0.2-0.2h4.6c0.2,0,0.2,0,0.3,0.2l7,23.8c0,0.2,0,0.3-0.2,0.3h-3.6
		c-0.2,0-0.3-0.1-0.3-0.2l-1.8-6.6L15,29.3L15,29.3z"/>
</g>
</svg>
