<?xml version="1.0" encoding="utf-8"?>
<!-- Generator: Adobe Illustrator 21.0.0, SVG Export Plug-In . SVG Version: 6.00 Build 0)  -->
<svg version="1.1" id="Calque_1" xmlns="http://www.w3.org/2000/svg" xmlns:xlink="http://www.w3.org/1999/xlink" x="0px" y="0px"
	 viewBox="0 0 52.2 50.9" style="enable-background:new 0 0 52.2 50.9;" xml:space="preserve">
<style type="text/css">
	.st0{fill:url(#SVGID_1_);}
	.st1{fill:#FF7F18;}
</style>
<g>
	
		<radialGradient id="SVGID_1_" cx="-797.7891" cy="97.1849" r="1.588397e-02" gradientTransform="matrix(2291.6716 0 0 -2218.7549 1828288.375 215642.0312)" gradientUnits="userSpaceOnUse">
		<stop  offset="0" style="stop-color:#423325;stop-opacity:0.98"/>
		<stop  offset="1" style="stop-color:#1C0A00"/>
	</radialGradient>
	<path class="st0" d="M2.2,2.2h47.9v46.6H2.2V2.2z"/>
	<path class="st1" d="M2.2,2.2h47.9v46.6H2.2V2.2z M0,50.9h52.2V0H0V50.9z M34.2,18.2c0-0.2,0.1-0.3,0.3-0.3h3.4
		c0.2,0,0.3,0.1,0.3,0.3v17.2c0,0.2,0,0.3-0.3,0.3h-3.4c-0.2,0-0.3-0.1-0.3-0.3L34.2,18.2L34.2,18.2L34.2,18.2z M34,13.2
		c0-1.4,1-2.2,2.2-2.2c1.3,0,2.2,0.9,2.2,2.2c0,1.4-0.9,2.2-2.3,2.2C34.9,15.4,34,14.7,34,13.2z M24.2,25.3c-0.6-2.4-2-7.7-2.6-10.2
		h0c-0.5,2.5-1.6,6.9-2.5,10.2H24.2z M18.1,28.8l-1.7,6.5c0,0.2-0.1,0.2-0.3,0.2h-3.2c-0.2,0-0.3-0.1-0.2-0.3l6.2-21.6
		c0.1-0.4,0.2-0.7,0.2-1.8c0-0.2,0.1-0.2,0.2-0.2h4.6c0.2,0,0.2,0,0.3,0.2L31,35.3c0,0.2,0,0.3-0.2,0.3h-3.6c-0.2,0-0.3,0-0.3-0.2
		l-1.8-6.6H18.1L18.1,28.8z"/>
</g>
</svg>
