<?xml version="1.0" encoding="utf-8"?>
<!-- Generator: Adobe Illustrator 21.0.0, SVG Export Plug-In . SVG Version: 6.00 Build 0)  -->
<svg version="1.1" id="Calque_1" xmlns="http://www.w3.org/2000/svg" xmlns:xlink="http://www.w3.org/1999/xlink" x="0px" y="0px"
	 viewBox="0 0 200 200" style="enable-background:new 0 0 200 200;" xml:space="preserve">
<style type="text/css">
	.st0{fill:none;}
	.st1{fill:#1D1D1B;}
	.st2{fill:#00C9FF;}
	.st3{fill:url(#SVGID_1_);}
	.st4{fill:url(#SVGID_3_);}
	.st5{fill:#FFFFFF;stroke:#00C9FF;stroke-width:2;stroke-linecap:round;stroke-linejoin:round;stroke-miterlimit:10;}
	.st6{fill:#1A1A1A;}
	.st7{fill:#92FE9D;}
	.st8{fill:none;stroke:#1A1A1A;stroke-width:2;stroke-linecap:round;stroke-miterlimit:10;}
	.st9{fill:none;stroke:#92FE9D;stroke-width:2;stroke-linecap:round;stroke-linejoin:round;stroke-miterlimit:10;}
	.st10{fill:#FFFFFF;stroke:#1A1A1A;stroke-width:2;stroke-linecap:round;stroke-linejoin:round;stroke-miterlimit:10;}
	.st11{fill:#FFFFFF;stroke:#92FE9D;stroke-width:2;stroke-linecap:round;stroke-linejoin:round;stroke-miterlimit:10;}
	.st12{fill:none;stroke:#00C9FF;stroke-width:2;stroke-linecap:round;stroke-linejoin:round;stroke-miterlimit:10;}
	.st13{fill:url(#SVGID_4_);}
</style>
<pattern  y="200" width="28.8" height="28.8" patternUnits="userSpaceOnUse" id="SVGID_2_" viewBox="3.6 -32.4 28.8 28.8" style="overflow:visible;">
	<g>
		<rect x="3.6" y="-32.4" class="st0" width="28.8" height="28.8"/>
		<g>
			<rect x="3.6" y="-32.4" class="st0" width="28.8" height="28.8"/>
			<g>
				<rect x="3.6" y="-32.4" class="st0" width="28.8" height="28.8"/>
				<g>
					<circle class="st1" cx="32.4" cy="-3.6" r="3.6"/>
					<circle class="st1" cx="18" cy="-3.6" r="3.6"/>
					<circle class="st1" cx="32.4" cy="-18" r="3.6"/>
					<circle class="st1" cx="18" cy="-18" r="3.6"/>
					<circle class="st1" cx="10.8" cy="-10.8" r="3.6"/>
					<circle class="st1" cx="25.2" cy="-10.8" r="3.6"/>
					<circle class="st1" cx="10.8" cy="-25.2" r="3.6"/>
					<circle class="st1" cx="25.2" cy="-25.2" r="3.6"/>
				</g>
				<g>
					<circle class="st1" cx="3.6" cy="-3.6" r="3.6"/>
					<circle class="st1" cx="3.6" cy="-18" r="3.6"/>
				</g>
				<g>
					<circle class="st1" cx="32.4" cy="-32.4" r="3.6"/>
					<circle class="st1" cx="18" cy="-32.4" r="3.6"/>
				</g>
				<g>
					<circle class="st1" cx="3.6" cy="-32.4" r="3.6"/>
				</g>
			</g>
		</g>
	</g>
</pattern>
<path class="st2" d="M-124.6,165.9l-42.5-42.4c-0.6-0.6-0.6-1.5,0-2.1l42.5-42.5c0.6-0.6,1.5-0.6,2.1,0l42.5,42.5
	c0.6,0.6,0.6,1.5,0,2.1l-42.5,42.5C-123.1,166.5-124.1,166.5-124.6,165.9z"/>
<pattern  id="SVGID_1_" xlink:href="#SVGID_2_" patternTransform="matrix(1 0 0 1 -373.4 16332.001)">
</pattern>
<circle class="st3" cx="-134" cy="85.7" r="42.8"/>
<g>
	
		<linearGradient id="SVGID_3_" gradientUnits="userSpaceOnUse" x1="-56.4931" y1="-30.0025" x2="-229.7069" y2="70.0024" gradientTransform="matrix(1 0 0 1 0 80)">
		<stop  offset="0" style="stop-color:#92FE9D"/>
		<stop  offset="1" style="stop-color:#00C9FF"/>
	</linearGradient>
	<path class="st4" d="M-143.1,2c54,0,98,44,98,98s-44,98-98,98s-98-44-98-98S-197.1,2-143.1,2 M-143.1,0c-55.2,0-100,44.8-100,100
		s44.8,100,100,100s100-44.8,100-100S-87.9,0-143.1,0L-143.1,0z"/>
</g>
<rect x="-155.1" y="78.2" transform="matrix(0.7071 -0.7071 0.7071 0.7071 -113.7817 -55.2507)" class="st5" width="63" height="63"/>
<g>
	<path class="st6" d="M-126.8,56l-18.6-18.3c-0.8-0.8-2.2-0.3-2.2,0.8l0,0v95.9c0,0.8,0.7,1.5,1.5,1.5h15c0.8,0,1.5-0.7,1.5-1.5
		l17.7-67.9C-111.9,65.7-126,56-126.8,56z"/>
</g>
<g>
	<path class="st7" d="M-171.1,119.7H-201c-0.9,0-1.6-0.7-1.6-1.6V58.2c0-0.9,0.7-1.6,1.6-1.6h29.9c17.4,0,31.5,14.1,31.5,31.5l0,0
		C-139.6,105.6-153.7,119.7-171.1,119.7z"/>
</g>
<line class="st8" x1="-162.2" y1="111.9" x2="-162.2" y2="159.2"/>
<line class="st8" x1="-169.9" y1="153.3" x2="-169.9" y2="111.9"/>
<line class="st8" x1="-177.8" y1="144.1" x2="-177.8" y2="111.9"/>
<line class="st9" x1="-144.1" y1="104.8" x2="-96.9" y2="104.8"/>
<line class="st9" x1="-102.8" y1="112.5" x2="-144.1" y2="112.5"/>
<line class="st9" x1="-112" y1="120.4" x2="-138.6" y2="120.4"/>
<polygon class="st10" points="-103.8,65.3 -140.6,32 -140.6,131 -122.6,131 "/>
<path class="st11" d="M-164.1,125h-31.5V62h31.5c14.9,0,27.3,10.3,30.6,24.2c0.6,2.4,0.9,4.8,0.9,7.3l0,0c0,2.2-0.2,4.3-0.6,6.3
	C-136.2,114.2-148.9,125-164.1,125z"/>
<line class="st12" x1="-161.1" y1="81.5" x2="-161.1" y2="47.2"/>
<line class="st12" x1="-169" y1="75.5" x2="-169" y2="38.8"/>
<line class="st12" x1="-177" y1="68.2" x2="-177" y2="26.9"/>
<linearGradient id="SVGID_4_" gradientUnits="userSpaceOnUse" x1="200" y1="100" x2="-1.818989e-12" y2="100">
	<stop  offset="0" style="stop-color:#92FE9D"/>
	<stop  offset="1" style="stop-color:#00C9FF"/>
</linearGradient>
<path class="st13" d="M133.3,178.6c-3.6-20.9-9.7-42.5-18.2-64.8h-0.3l-0.3,0.1c-1.4,0.5-3.3,1.2-5.6,2.1c-2.3,0.9-6.7,3-13.2,6.4
	c-6.4,3.3-12.4,6.9-17.8,10.7c-5.5,3.8-11.2,8.7-17.1,14.9s-10.4,12.6-13.4,19.3l-2-1.4c16,13,34.1,19.5,54.4,19.5
	C111.5,185.4,122.6,183.2,133.3,178.6z M109.2,99.6c-1.8-4.3-4.1-9.1-6.9-14.5c-27,8.1-56.2,12.1-87.6,12.1
	c-0.1,0.6-0.1,1.5-0.1,2.7c0,10.8,1.9,21,5.7,30.8s9.2,18.5,16.1,26.2c4.3-7.7,9.7-15,16.1-21.7s12.6-12.1,18.6-16.2
	c6-4.1,11.7-7.6,17-10.5s9.7-5,13-6.2l4.8-1.7c0.3-0.1,0.9-0.2,1.7-0.5S108.9,99.8,109.2,99.6z M95.3,72
	c-10.4-18.5-21-34.9-31.8-49.2c-12,5.6-22.1,13.7-30.5,24.2S19.2,69.3,16.4,82.4C42.6,82.4,68.9,78.9,95.3,72z M184.4,113.5
	c-18.2-5.2-36-6.5-53.3-3.8c7.6,20.7,13.1,41.1,16.7,61.1c9.6-6.5,17.7-14.7,24.1-24.7S182.5,125.3,184.4,113.5z M79.6,17.1
	c-0.1,0-0.2,0-0.3,0.1C79.4,17.1,79.5,17.1,79.6,17.1z M156.4,35.9c-16.1-14.2-34.9-21.4-56.4-21.4c-6.6,0-13.3,0.8-20.2,2.5
	c11.4,14.8,22,31.3,32,49.7c6-2.3,11.6-4.9,16.9-7.9c5.3-3,9.5-5.7,12.6-8c3.1-2.3,5.9-4.8,8.5-7.4c2.6-2.6,4.2-4.4,4.9-5.3
	L156.4,35.9z M185.4,99.1c-0.3-20.1-6.7-37.9-19.4-53.4l-0.1,0.1c-0.8,1-1.6,2.1-2.5,3.2c-0.9,1.1-2.8,3-5.7,5.8s-6,5.4-9.2,7.9
	c-3.3,2.5-7.6,5.3-13,8.5c-5.4,3.2-11.1,6-17.1,8.4c2.2,4.6,4.1,8.7,5.7,12.4c0.2,0.5,0.5,1.3,0.8,2.3c0.4,1,0.7,1.7,1,2.1
	c3.1-0.4,6.4-0.7,9.7-0.9c3.3-0.2,6.5-0.3,9.6-0.3c3,0,6,0.1,9,0.2c3,0.1,5.7,0.3,8.3,0.5s5.1,0.5,7.4,0.7c2.3,0.3,4.4,0.5,6.2,0.8
	c1.9,0.3,3.5,0.6,4.8,0.8s2.4,0.4,3.3,0.6L185.4,99.1z M200,100c0,18.1-4.5,34.9-13.4,50.2c-8.9,15.3-21.1,27.5-36.4,36.4
	c-15.3,8.9-32.1,13.4-50.2,13.4s-34.9-4.5-50.2-13.4c-15.3-8.9-27.5-21.1-36.4-36.4S0,118.1,0,100s4.5-34.9,13.4-50.2
	s21.1-27.5,36.4-36.4S81.9,0,100,0s34.9,4.5,50.2,13.4s27.5,21.1,36.4,36.4C195.5,65.1,200,81.9,200,100z"/>
</svg>
