<?xml version="1.0" encoding="utf-8"?>
<!-- Generator: Adobe Illustrator 21.0.0, SVG Export Plug-In . SVG Version: 6.00 Build 0)  -->
<svg version="1.1" id="Calque_1" xmlns="http://www.w3.org/2000/svg" xmlns:xlink="http://www.w3.org/1999/xlink" x="0px" y="0px"
	 viewBox="0 0 200 200" style="enable-background:new 0 0 200 200;" xml:space="preserve">
<style type="text/css">
	.st0{fill:none;}
	.st1{fill:#1D1D1B;}
	.st2{fill:#1A1A1A;}
	.st3{fill:#FFFFFF;stroke:#1A1A1A;stroke-width:2;stroke-linecap:round;stroke-linejoin:round;stroke-miterlimit:10;}
	.st4{fill:#00C9FF;}
	.st5{fill:url(#SVGID_1_);}
	.st6{fill:#FFFFFF;stroke:#00C9FF;stroke-width:2;stroke-linecap:round;stroke-linejoin:round;stroke-miterlimit:10;}
	.st7{fill:none;stroke:#1A1A1A;stroke-width:2;stroke-linecap:round;stroke-miterlimit:10;}
	.st8{fill:none;stroke:#92FE9D;stroke-width:2;stroke-linecap:round;stroke-linejoin:round;stroke-miterlimit:10;}
	.st9{fill:url(#SVGID_2_);}
	.st10{fill:url(#SVGID_3_);}
	.st11{fill:#92FE9D;}
	.st12{fill:#FFFFFF;stroke:#92FE9D;stroke-width:2;stroke-linecap:round;stroke-linejoin:round;stroke-miterlimit:10;}
	.st13{fill:none;stroke:#00C9FF;stroke-width:2;stroke-linecap:round;stroke-linejoin:round;stroke-miterlimit:10;}
</style>
<pattern  y="200" width="28.8" height="28.8" patternUnits="userSpaceOnUse" id="_x35_0_xA0__x25__10_ppp" viewBox="3.6 -32.4 28.8 28.8" style="overflow:visible;">
	<g>
		<rect x="3.6" y="-32.4" class="st0" width="28.8" height="28.8"/>
		<g>
			<rect x="3.6" y="-32.4" class="st0" width="28.8" height="28.8"/>
			<g>
				<circle class="st1" cx="32.4" cy="-32.4" r="3.6"/>
				<circle class="st1" cx="18" cy="-32.4" r="3.6"/>
				<circle class="st1" cx="32.4" cy="-18" r="3.6"/>
				<circle class="st1" cx="18" cy="-18" r="3.6"/>
				<circle class="st1" cx="10.8" cy="-25.2" r="3.6"/>
				<circle class="st1" cx="25.2" cy="-25.2" r="3.6"/>
				<circle class="st1" cx="10.8" cy="-10.8" r="3.6"/>
				<circle class="st1" cx="25.2" cy="-10.8" r="3.6"/>
			</g>
			<g>
				<circle class="st1" cx="3.6" cy="-32.4" r="3.6"/>
				<circle class="st1" cx="3.6" cy="-18" r="3.6"/>
			</g>
			<g>
				<circle class="st1" cx="32.4" cy="-3.6" r="3.6"/>
				<circle class="st1" cx="18" cy="-3.6" r="3.6"/>
			</g>
			<g>
				<circle class="st1" cx="3.6" cy="-3.6" r="3.6"/>
			</g>
		</g>
	</g>
</pattern>
<path class="st2" d="M130,114.2l-60,0.1c-0.8,0-1.5-0.6-1.5-1.5V52.7c0-0.8,0.6-1.5,1.5-1.5l60.1,0c0.8,0,1.5,0.6,1.5,1.5v60.1
	C131.5,113.6,130.8,114.3,130,114.2z"/>
<rect x="59.4" y="42.3" class="st3" width="63" height="63"/>
<path class="st4" d="M154.2,152.1l-60,0.1c-0.8,0-1.5-0.6-1.5-1.5V90.5c0-0.8,0.6-1.5,1.5-1.5l60.1,0c0.8,0,1.5,0.6,1.5,1.5v60.1
	C155.7,151.4,155,152.1,154.2,152.1z"/>
<g>
	
		<linearGradient id="SVGID_1_" gradientUnits="userSpaceOnUse" x1="186.6069" y1="150.0025" x2="13.3931" y2="49.9976" gradientTransform="matrix(1 0 0 -1 0 200)">
		<stop  offset="0" style="stop-color:#92FE9D"/>
		<stop  offset="1" style="stop-color:#00C9FF"/>
	</linearGradient>
	<path class="st5" d="M100,2c54,0,98,44,98,98s-44,98-98,98S2,154,2,100S46,2,100,2 M100,0C44.8,0,0,44.8,0,100s44.8,100,100,100
		s100-44.8,100-100S155.2,0,100,0L100,0z"/>
</g>
<rect x="83.7" y="80.1" class="st6" width="63" height="63"/>
<line class="st7" x1="73.9" y1="111.9" x2="73.9" y2="159.2"/>
<line class="st7" x1="66.2" y1="153.3" x2="66.2" y2="111.9"/>
<line class="st7" x1="58.3" y1="144.1" x2="58.3" y2="111.9"/>
<line class="st8" x1="92" y1="96.8" x2="139.2" y2="96.8"/>
<line class="st8" x1="133.3" y1="104.5" x2="92" y2="104.5"/>
<line class="st8" x1="124.1" y1="112.4" x2="97.5" y2="112.4"/>
<path class="st4" d="M-124.6,165.9l-42.5-42.4c-0.6-0.6-0.6-1.5,0-2.1l42.5-42.5c0.6-0.6,1.5-0.6,2.1,0l42.5,42.5
	c0.6,0.6,0.6,1.5,0,2.1l-42.5,42.5C-123.1,166.5-124.1,166.5-124.6,165.9z"/>
<pattern  id="SVGID_2_" xlink:href="#_x35_0_xA0__x25__10_ppp" patternTransform="matrix(1 0 0 -1 -358.6 -16455.6016)">
</pattern>
<circle class="st9" cx="-134" cy="85.7" r="42.8"/>
<g>
	
		<linearGradient id="SVGID_3_" gradientUnits="userSpaceOnUse" x1="-56.4434" y1="150.0025" x2="-229.6572" y2="49.9976" gradientTransform="matrix(1 0 0 -1 0 200)">
		<stop  offset="0" style="stop-color:#92FE9D"/>
		<stop  offset="1" style="stop-color:#00C9FF"/>
	</linearGradient>
	<path class="st10" d="M-143.1,2c54,0,98,44,98,98s-44,98-98,98s-98-44-98-98S-197.1,2-143.1,2 M-143.1,0c-55.2,0-100,44.8-100,100
		s44.8,100,100,100s100-44.8,100-100S-87.9,0-143.1,0L-143.1,0z"/>
</g>
<rect x="-155.1" y="78.2" transform="matrix(0.7071 -0.7071 0.7071 0.7071 -113.7556 -55.2451)" class="st6" width="63" height="63"/>
<g>
	<path class="st2" d="M-126.8,56l-18.6-18.3c-0.8-0.8-2.2-0.3-2.2,0.8l0,0v95.9c0,0.8,0.7,1.5,1.5,1.5h15c0.8,0,1.5-0.7,1.5-1.5
		l17.7-67.9C-111.9,65.7-126,56-126.8,56z"/>
</g>
<g>
	<path class="st11" d="M-171.1,119.7H-201c-0.9,0-1.6-0.7-1.6-1.6V58.2c0-0.9,0.7-1.6,1.6-1.6h29.9c17.4,0,31.5,14.1,31.5,31.5l0,0
		C-139.6,105.6-153.7,119.7-171.1,119.7z"/>
</g>
<line class="st7" x1="-162.2" y1="111.9" x2="-162.2" y2="159.2"/>
<line class="st7" x1="-169.9" y1="153.3" x2="-169.9" y2="111.9"/>
<line class="st7" x1="-177.8" y1="144.1" x2="-177.8" y2="111.9"/>
<line class="st8" x1="-144.1" y1="104.8" x2="-96.9" y2="104.8"/>
<line class="st8" x1="-102.8" y1="112.5" x2="-144.1" y2="112.5"/>
<line class="st8" x1="-112" y1="120.4" x2="-138.6" y2="120.4"/>
<polygon class="st3" points="-103.8,65.3 -140.6,32 -140.6,131 -122.6,131 "/>
<path class="st12" d="M-164.1,125h-31.5V62h31.5c14.9,0,27.3,10.3,30.6,24.2c0.6,2.4,0.9,4.8,0.9,7.3l0,0c0,2.2-0.2,4.3-0.6,6.3
	C-136.2,114.2-148.9,125-164.1,125z"/>
<line class="st13" x1="-161.1" y1="81.5" x2="-161.1" y2="47.2"/>
<line class="st13" x1="-169" y1="75.5" x2="-169" y2="38.8"/>
<line class="st13" x1="-177" y1="68.2" x2="-177" y2="26.9"/>
<line class="st6" x1="146.7" y1="89.1" x2="110.8" y2="89.1"/>
<line class="st3" x1="122.4" y1="42.3" x2="87.3" y2="77.5"/>
<line class="st3" x1="59.4" y1="42.3" x2="104.4" y2="87.2"/>
<g>
	<path class="st11" d="M72,119.7H42.1c-0.9,0-1.6-0.7-1.6-1.6V58.2c0-0.9,0.7-1.6,1.6-1.6H72c17.4,0,31.5,14.1,31.5,31.5l0,0
		C103.5,105.6,89.4,119.7,72,119.7z"/>
</g>
<path class="st12" d="M79,125H47.5V62H79c14.9,0,27.3,10.3,30.6,24.2c0.6,2.4,0.9,4.8,0.9,7.3l0,0c0,2.2-0.2,4.3-0.6,6.3
	C106.9,114.2,94.2,125,79,125z"/>
<line class="st13" x1="82" y1="81.5" x2="82" y2="47.2"/>
<line class="st13" x1="74.1" y1="75.5" x2="74.1" y2="38.8"/>
<line class="st13" x1="66.1" y1="68.2" x2="66.1" y2="26.9"/>
</svg>
