<?xml version="1.0" encoding="utf-8"?>
<!-- Generator: Adobe Illustrator 21.0.0, SVG Export Plug-In . SVG Version: 6.00 Build 0)  -->
<svg version="1.1" id="Calque_1" xmlns="http://www.w3.org/2000/svg" xmlns:xlink="http://www.w3.org/1999/xlink" x="0px" y="0px"
	 viewBox="0 0 200 200" style="enable-background:new 0 0 200 200;" xml:space="preserve">
<style type="text/css">
	.st0{fill:none;}
	.st1{fill:none;stroke:#1D1D1B;stroke-width:1.44;}
	.st2{fill:url(#_x32_0_xA0__x25__10_lpp);}
	.st3{fill:none;stroke:#92FE9D;stroke-miterlimit:10;}
	.st4{fill:#92FE9D;}
	.st5{fill:#FFFFFF;}
	.st6{fill:none;stroke:#1A1A1A;stroke-width:2;stroke-linecap:round;stroke-miterlimit:10;}
	.st7{fill:#00C9FF;}
	.st8{fill:#FFFFFF;stroke:#00C9FF;stroke-width:2;stroke-linecap:round;stroke-linejoin:round;stroke-miterlimit:10;}
	.st9{fill:#1A1A1A;}
	.st10{fill:none;stroke:#92FE9D;stroke-width:2;stroke-linecap:round;stroke-miterlimit:10;}
	.st11{fill-rule:evenodd;clip-rule:evenodd;fill:#FFFFFF;}
	.st12{fill:#FFFFFF;stroke:#92FE9D;stroke-width:2;stroke-linecap:round;stroke-miterlimit:10;}
	.st13{fill:url(#SVGID_1_);}
	.st14{fill:url(#SVGID_2_);}
	.st15{fill:url(#SVGID_3_);}
	.st16{fill:url(#);}
	.st17{fill:#FFFFFF;stroke:#1A1A1A;stroke-width:2;stroke-linecap:round;stroke-linejoin:round;stroke-miterlimit:10;}
	.st18{fill:#FFFFFF;stroke:#92FE9D;stroke-width:2;stroke-linecap:round;stroke-linejoin:round;stroke-miterlimit:10;}
	.st19{fill:none;stroke:#00C9FF;stroke-width:2;stroke-linecap:round;stroke-linejoin:round;stroke-miterlimit:10;}
	.st20{fill:#FFFFFF;stroke:#92FE9D;stroke-width:2;stroke-miterlimit:10;}
	.st21{fill:#FFFFFF;stroke:#1A1A1A;stroke-width:2;stroke-miterlimit:10;}
	.st22{fill:#FFFFFF;stroke:#1A1A1A;stroke-width:2;stroke-linecap:round;stroke-miterlimit:10;}
</style>
<pattern  x="-330" y="-193" width="72" height="72" patternUnits="userSpaceOnUse" id="_x32_0_xA0__x25__10_lpp" viewBox="72.2 -72 72 72" style="overflow:visible;">
	<g>
		<rect x="72.2" y="-72" class="st0" width="72" height="72"/>
		<g>
			<line class="st1" x1="144" y1="-3.6" x2="216.5" y2="-3.6"/>
			<line class="st1" x1="144" y1="-18" x2="216.5" y2="-18"/>
			<line class="st1" x1="144" y1="-32.4" x2="216.5" y2="-32.4"/>
			<line class="st1" x1="144" y1="-46.8" x2="216.5" y2="-46.8"/>
			<line class="st1" x1="144" y1="-61.2" x2="216.5" y2="-61.2"/>
			<line class="st1" x1="144" y1="-10.8" x2="216.5" y2="-10.8"/>
			<line class="st1" x1="144" y1="-25.2" x2="216.5" y2="-25.2"/>
			<line class="st1" x1="144" y1="-39.6" x2="216.5" y2="-39.6"/>
			<line class="st1" x1="144" y1="-54" x2="216.5" y2="-54"/>
			<line class="st1" x1="144" y1="-68.4" x2="216.5" y2="-68.4"/>
		</g>
		<g>
			<line class="st1" x1="72" y1="-3.6" x2="144.5" y2="-3.6"/>
			<line class="st1" x1="72" y1="-18" x2="144.5" y2="-18"/>
			<line class="st1" x1="72" y1="-32.4" x2="144.5" y2="-32.4"/>
			<line class="st1" x1="72" y1="-46.8" x2="144.5" y2="-46.8"/>
			<line class="st1" x1="72" y1="-61.2" x2="144.5" y2="-61.2"/>
			<line class="st1" x1="72" y1="-10.8" x2="144.5" y2="-10.8"/>
			<line class="st1" x1="72" y1="-25.2" x2="144.5" y2="-25.2"/>
			<line class="st1" x1="72" y1="-39.6" x2="144.5" y2="-39.6"/>
			<line class="st1" x1="72" y1="-54" x2="144.5" y2="-54"/>
			<line class="st1" x1="72" y1="-68.4" x2="144.5" y2="-68.4"/>
		</g>
		<g>
			<line class="st1" x1="0" y1="-3.6" x2="72.5" y2="-3.6"/>
			<line class="st1" x1="0" y1="-18" x2="72.5" y2="-18"/>
			<line class="st1" x1="0" y1="-32.4" x2="72.5" y2="-32.4"/>
			<line class="st1" x1="0" y1="-46.8" x2="72.5" y2="-46.8"/>
			<line class="st1" x1="0" y1="-61.2" x2="72.5" y2="-61.2"/>
			<line class="st1" x1="0" y1="-10.8" x2="72.5" y2="-10.8"/>
			<line class="st1" x1="0" y1="-25.2" x2="72.5" y2="-25.2"/>
			<line class="st1" x1="0" y1="-39.6" x2="72.5" y2="-39.6"/>
			<line class="st1" x1="0" y1="-54" x2="72.5" y2="-54"/>
			<line class="st1" x1="0" y1="-68.4" x2="72.5" y2="-68.4"/>
		</g>
	</g>
</pattern>
<circle class="st2" cx="100" cy="100" r="51.3"/>
<g>
	<linearGradient id="SVGID_1_" gradientUnits="userSpaceOnUse" x1="186.617" y1="49.9917" x2="13.383" y2="150.0083">
		<stop  offset="0" style="stop-color:#92FE9D"/>
		<stop  offset="1" style="stop-color:#00C9FF"/>
	</linearGradient>
	<path class="st13" d="M100,2c54,0,98,44,98,98s-44,98-98,98S2,154,2,100S46,2,100,2 M100,0C44.8,0,0,44.8,0,100s44.8,100,100,100
		s100-44.8,100-100S155.2,0,100,0L100,0z"/>
</g>
<path class="st7" d="M99.9,154.9H67.2c-0.9,0-1.6-0.7-1.6-1.6V39.6c0-0.9,0.7-1.6,1.6-1.6h32.7c0.9,0,1.6,0.7,1.6,1.6v113.7
	C101.6,154.2,100.9,154.9,99.9,154.9z"/>
<rect x="74.6" y="46.9" class="st8" width="36" height="117"/>
<g>
	<line class="st19" x1="93" y1="41" x2="75" y2="59"/>
	<line class="st11" x1="93" y1="41" x2="75" y2="59"/>
</g>
<g>
	<line class="st19" x1="93" y1="50" x2="75" y2="68"/>
	<line class="st11" x1="93" y1="50" x2="75" y2="68"/>
</g>
<g>
	<line class="st19" x1="93" y1="59" x2="75" y2="77"/>
	<line class="st11" x1="93" y1="59" x2="75" y2="77"/>
</g>
<g>
	<line class="st19" x1="93" y1="68" x2="75" y2="86"/>
	<line class="st11" x1="93" y1="68" x2="75" y2="86"/>
</g>
<g>
	<line class="st19" x1="93" y1="86" x2="75" y2="104"/>
	<line class="st11" x1="93" y1="86" x2="75" y2="104"/>
</g>
<g>
	<line class="st19" x1="93" y1="95" x2="75" y2="113"/>
	<line class="st11" x1="93" y1="95" x2="75" y2="113"/>
</g>
<g>
	<line class="st19" x1="93" y1="104" x2="75" y2="122"/>
	<line class="st11" x1="93" y1="104" x2="75" y2="122"/>
</g>
<g>
	<line class="st19" x1="93" y1="113" x2="75" y2="131"/>
	<line class="st11" x1="93" y1="113" x2="75" y2="131"/>
</g>
<g>
	<line class="st19" x1="93" y1="122" x2="75" y2="140"/>
	<line class="st11" x1="93" y1="122" x2="75" y2="140"/>
</g>
<g>
	<line class="st19" x1="93" y1="131" x2="75" y2="149"/>
	<line class="st11" x1="93" y1="131" x2="75" y2="149"/>
</g>
<g>
	<line class="st19" x1="93" y1="140" x2="75" y2="158"/>
	<line class="st11" x1="93" y1="140" x2="75" y2="158"/>
</g>
<g>
	<line class="st19" x1="93" y1="149" x2="78.1" y2="163.9"/>
	<line class="st11" x1="93" y1="149" x2="78.1" y2="163.9"/>
</g>
<g>
	<line class="st19" x1="93" y1="158" x2="87.1" y2="163.9"/>
	<line class="st11" x1="93" y1="158" x2="87.1" y2="163.9"/>
</g>
<g>
	<circle class="st4" cx="128" cy="102.7" r="36"/>
</g>
<circle class="st20" cx="115.3" cy="102.7" r="36"/>
<g>
	<path class="st9" d="M95,152.7V93.4c0-0.6-0.5-1.1-1.1-1.1H34.5c-0.9,0-1.4,1.1-0.8,1.8l59.4,59.4C93.8,154.2,95,153.7,95,152.7z"
		/>
</g>
<path class="st21" d="M101.3,146.4V87c0-0.6-0.5-1.1-1.1-1.1H40.9c-0.9,0-1.4,1.1-0.8,1.8l59.4,59.4
	C100.2,147.8,101.3,147.3,101.3,146.4z"/>
<line class="st20" x1="115.3" y1="66.7" x2="115.3" y2="138.7"/>
<line class="st20" x1="121.3" y1="66.7" x2="121.3" y2="138.7"/>
<line class="st20" x1="127.3" y1="68.7" x2="127.3" y2="136.6"/>
<line class="st20" x1="133.3" y1="71.5" x2="133.3" y2="133.8"/>
<line class="st20" x1="139.3" y1="75.9" x2="139.3" y2="129.5"/>
<line class="st20" x1="145.3" y1="82.8" x2="145.3" y2="122.5"/>
<line class="st21" x1="50.3" y1="85.9" x2="101.3" y2="136.9"/>
<line class="st22" x1="61.4" y1="85.9" x2="78.7" y2="103.3"/>
</svg>
