<?xml version="1.0" encoding="utf-8"?>
<!-- Generator: Adobe Illustrator 21.0.0, SVG Export Plug-In . SVG Version: 6.00 Build 0)  -->
<svg version="1.1" id="Calque_1" xmlns="http://www.w3.org/2000/svg" xmlns:xlink="http://www.w3.org/1999/xlink" x="0px" y="0px"
	 viewBox="0 0 200 200" style="enable-background:new 0 0 200 200;" xml:space="preserve">
<style type="text/css">
	.st0{fill:none;}
	.st1{fill:none;stroke:#1D1D1B;stroke-width:1.44;}
	.st2{fill:url(#SVGID_1_);}
	.st3{fill:url(#SVGID_2_);}
	.st4{fill:#00C9FF;}
	.st5{fill:#FFFFFF;stroke:#00C9FF;stroke-width:2;stroke-linecap:round;stroke-linejoin:round;stroke-miterlimit:10;}
	.st6{fill:none;stroke:#00C9FF;stroke-width:2;stroke-linecap:round;stroke-linejoin:round;stroke-miterlimit:10;}
	.st7{fill:#92FE9D;}
	.st8{fill:#FFFFFF;stroke:#92FE9D;stroke-width:2;stroke-miterlimit:10;}
	.st9{fill:#1A1A1A;}
	.st10{fill:#FFFFFF;stroke:#1A1A1A;stroke-width:2;stroke-miterlimit:10;}
	.st11{fill:none;stroke:#92FE9D;stroke-width:2;stroke-miterlimit:10;}
	.st12{fill:none;stroke:#1A1A1A;stroke-width:2;stroke-miterlimit:10;}
	.st13{fill:none;stroke:#1A1A1A;stroke-width:2;stroke-linecap:round;stroke-miterlimit:10;}
	.st14{fill:url(#SVGID_3_);}
</style>
<pattern  y="200" width="72" height="72" patternUnits="userSpaceOnUse" id="_x32_0_xA0__x25__10_lpp" viewBox="72.2 -72 72 72" style="overflow:visible;">
	<g>
		<rect x="72.2" y="-72" class="st0" width="72" height="72"/>
		<g>
			<rect x="72.2" y="-72" class="st0" width="72" height="72"/>
			<g>
				<line class="st1" x1="144" y1="-68.4" x2="216.5" y2="-68.4"/>
				<line class="st1" x1="144" y1="-54" x2="216.5" y2="-54"/>
				<line class="st1" x1="144" y1="-39.6" x2="216.5" y2="-39.6"/>
				<line class="st1" x1="144" y1="-25.2" x2="216.5" y2="-25.2"/>
				<line class="st1" x1="144" y1="-10.8" x2="216.5" y2="-10.8"/>
				<line class="st1" x1="144" y1="-61.2" x2="216.5" y2="-61.2"/>
				<line class="st1" x1="144" y1="-46.8" x2="216.5" y2="-46.8"/>
				<line class="st1" x1="144" y1="-32.4" x2="216.5" y2="-32.4"/>
				<line class="st1" x1="144" y1="-18" x2="216.5" y2="-18"/>
				<line class="st1" x1="144" y1="-3.6" x2="216.5" y2="-3.6"/>
			</g>
			<g>
				<line class="st1" x1="72" y1="-68.4" x2="144.5" y2="-68.4"/>
				<line class="st1" x1="72" y1="-54" x2="144.5" y2="-54"/>
				<line class="st1" x1="72" y1="-39.6" x2="144.5" y2="-39.6"/>
				<line class="st1" x1="72" y1="-25.2" x2="144.5" y2="-25.2"/>
				<line class="st1" x1="72" y1="-10.8" x2="144.5" y2="-10.8"/>
				<line class="st1" x1="72" y1="-61.2" x2="144.5" y2="-61.2"/>
				<line class="st1" x1="72" y1="-46.8" x2="144.5" y2="-46.8"/>
				<line class="st1" x1="72" y1="-32.4" x2="144.5" y2="-32.4"/>
				<line class="st1" x1="72" y1="-18" x2="144.5" y2="-18"/>
				<line class="st1" x1="72" y1="-3.6" x2="144.5" y2="-3.6"/>
			</g>
			<g>
				<line class="st1" x1="0" y1="-68.4" x2="72.5" y2="-68.4"/>
				<line class="st1" x1="0" y1="-54" x2="72.5" y2="-54"/>
				<line class="st1" x1="0" y1="-39.6" x2="72.5" y2="-39.6"/>
				<line class="st1" x1="0" y1="-25.2" x2="72.5" y2="-25.2"/>
				<line class="st1" x1="0" y1="-10.8" x2="72.5" y2="-10.8"/>
				<line class="st1" x1="0" y1="-61.2" x2="72.5" y2="-61.2"/>
				<line class="st1" x1="0" y1="-46.8" x2="72.5" y2="-46.8"/>
				<line class="st1" x1="0" y1="-32.4" x2="72.5" y2="-32.4"/>
				<line class="st1" x1="0" y1="-18" x2="72.5" y2="-18"/>
				<line class="st1" x1="0" y1="-3.6" x2="72.5" y2="-3.6"/>
			</g>
		</g>
	</g>
</pattern>
<pattern  id="SVGID_1_" xlink:href="#_x32_0_xA0__x25__10_lpp" patternTransform="matrix(1 0 0 -1 -442.2 -16527)">
</pattern>
<circle class="st2" cx="-199" cy="100" r="51.3"/>
<g>
	
		<linearGradient id="SVGID_2_" gradientUnits="userSpaceOnUse" x1="-112.3931" y1="150.0025" x2="-285.6069" y2="49.9976" gradientTransform="matrix(1 0 0 -1 0 200)">
		<stop  offset="0" style="stop-color:#92FE9D"/>
		<stop  offset="1" style="stop-color:#00C9FF"/>
	</linearGradient>
	<path class="st3" d="M-199,2c54,0,98,44,98,98s-44,98-98,98s-98-44-98-98S-253,2-199,2 M-199,0c-55.2,0-100,44.8-100,100
		s44.8,100,100,100s100-44.8,100-100S-143.8,0-199,0L-199,0z"/>
</g>
<path class="st4" d="M-199.1,154.9h-32.7c-0.9,0-1.6-0.7-1.6-1.6V39.6c0-0.9,0.7-1.6,1.6-1.6h32.7c0.9,0,1.6,0.7,1.6,1.6v113.7
	C-197.4,154.2-198.1,154.9-199.1,154.9z"/>
<rect x="-224.4" y="46.9" class="st5" width="36" height="117"/>
<g>
	<line class="st6" x1="-206" y1="41" x2="-224" y2="59"/>
	<line class="st0" x1="-206" y1="41" x2="-224" y2="59"/>
</g>
<g>
	<line class="st6" x1="-206" y1="50" x2="-224" y2="68"/>
	<line class="st0" x1="-206" y1="50" x2="-224" y2="68"/>
</g>
<g>
	<line class="st6" x1="-206" y1="59" x2="-224" y2="77"/>
	<line class="st0" x1="-206" y1="59" x2="-224" y2="77"/>
</g>
<g>
	<line class="st6" x1="-206" y1="68" x2="-224" y2="86"/>
	<line class="st0" x1="-206" y1="68" x2="-224" y2="86"/>
</g>
<g>
	<line class="st6" x1="-206" y1="86" x2="-224" y2="104"/>
	<line class="st0" x1="-206" y1="86" x2="-224" y2="104"/>
</g>
<g>
	<line class="st6" x1="-206" y1="95" x2="-224" y2="113"/>
	<line class="st0" x1="-206" y1="95" x2="-224" y2="113"/>
</g>
<g>
	<line class="st6" x1="-206" y1="104" x2="-224" y2="122"/>
	<line class="st0" x1="-206" y1="104" x2="-224" y2="122"/>
</g>
<g>
	<line class="st6" x1="-206" y1="113" x2="-224" y2="131"/>
	<line class="st0" x1="-206" y1="113" x2="-224" y2="131"/>
</g>
<g>
	<line class="st6" x1="-206" y1="122" x2="-224" y2="140"/>
	<line class="st0" x1="-206" y1="122" x2="-224" y2="140"/>
</g>
<g>
	<line class="st6" x1="-206" y1="131" x2="-224" y2="149"/>
	<line class="st0" x1="-206" y1="131" x2="-224" y2="149"/>
</g>
<g>
	<line class="st6" x1="-206" y1="140" x2="-224" y2="158"/>
	<line class="st0" x1="-206" y1="140" x2="-224" y2="158"/>
</g>
<g>
	<line class="st6" x1="-206" y1="149" x2="-220.9" y2="163.9"/>
	<line class="st0" x1="-206" y1="149" x2="-220.9" y2="163.9"/>
</g>
<g>
	<line class="st6" x1="-206" y1="158" x2="-211.9" y2="163.9"/>
	<line class="st0" x1="-206" y1="158" x2="-211.9" y2="163.9"/>
</g>
<g>
	<circle class="st7" cx="-171" cy="102.7" r="36"/>
</g>
<circle class="st8" cx="-183.7" cy="102.7" r="36"/>
<g>
	<path class="st9" d="M-204,152.7V93.4c0-0.6-0.5-1.1-1.1-1.1h-59.4c-0.9,0-1.4,1.1-0.8,1.8l59.4,59.4
		C-205.2,154.2-204,153.7-204,152.7z"/>
</g>
<path class="st10" d="M-197.7,146.4V87c0-0.6-0.5-1.1-1.1-1.1h-59.3c-0.9,0-1.4,1.1-0.8,1.8l59.4,59.4
	C-198.8,147.8-197.7,147.3-197.7,146.4z"/>
<line class="st11" x1="-183.7" y1="66.7" x2="-183.7" y2="138.7"/>
<line class="st11" x1="-177.7" y1="66.7" x2="-177.7" y2="138.7"/>
<line class="st11" x1="-171.7" y1="68.7" x2="-171.7" y2="136.6"/>
<line class="st11" x1="-165.7" y1="71.5" x2="-165.7" y2="133.8"/>
<line class="st11" x1="-159.7" y1="75.9" x2="-159.7" y2="129.5"/>
<line class="st11" x1="-153.7" y1="82.8" x2="-153.7" y2="122.5"/>
<line class="st12" x1="-248.7" y1="85.9" x2="-197.7" y2="136.9"/>
<line class="st13" x1="-237.6" y1="85.9" x2="-220.3" y2="103.3"/>
<linearGradient id="SVGID_3_" gradientUnits="userSpaceOnUse" x1="142.0784" y1="-8.042" x2="43.5922" y2="162.5411">
	<stop  offset="0" style="stop-color:#92FE9D"/>
	<stop  offset="1" style="stop-color:#00C9FF"/>
</linearGradient>
<path class="st14" d="M199.9,53.6c-0.8,19.3-14.4,46-40.8,80c-27.3,35.3-50.3,52.9-69,52.9c-11.6,0-21.5-10.8-29.5-32.3
	c-3.6-13.1-9-32.8-16.2-59.2C38.4,73.5,32,62.8,25.1,62.8c-1.5,0-6.7,3.1-15.6,9.3L0,60.1c2-1.7,6.4-5.7,13.3-11.9
	s12.2-10.9,16-14.2C42,22.8,51.9,16.8,58.8,16.1c7.8-0.7,14,1.5,18.8,6.8s8.1,13.6,9.9,25c3.6,23.5,6.3,38.8,8.1,45.8
	c4.5,20.4,9.4,30.6,14.7,30.6c4.2,0,10.5-6.6,18.9-19.8c8.3-13.2,12.7-23.3,13.4-30.2c1.1-11.4-3.4-17.1-13.4-17.1
	c-4.7,0-9.6,1.1-14.9,3.2c9.8-32.2,28.6-47.8,56.4-46.9C191.4,14.2,201.1,27.5,199.9,53.6z"/>
</svg>
