<?xml version="1.0" encoding="utf-8"?>
<!-- Generator: Adobe Illustrator 21.0.0, SVG Export Plug-In . SVG Version: 6.00 Build 0)  -->
<svg version="1.1" id="Calque_1" xmlns="http://www.w3.org/2000/svg" xmlns:xlink="http://www.w3.org/1999/xlink" x="0px" y="0px"
	 viewBox="0 0 200 200" style="enable-background:new 0 0 200 200;" xml:space="preserve">
<style type="text/css">
	.st0{fill:#92FE9D;}
	.st1{fill:#FFFFFF;}
	.st2{fill:none;stroke:#1A1A1A;stroke-width:2;stroke-linecap:round;stroke-miterlimit:10;}
	.st3{fill:#00C9FF;}
	.st4{fill:#FFFFFF;stroke:#00C9FF;stroke-width:2;stroke-linecap:round;stroke-linejoin:round;stroke-miterlimit:10;}
	.st5{fill:#1A1A1A;}
	.st6{fill:none;stroke:#92FE9D;stroke-width:2;stroke-linecap:round;stroke-miterlimit:10;}
	.st7{fill:none;}
	.st8{fill:none;stroke:#00C9FF;stroke-width:2;stroke-linecap:round;stroke-linejoin:round;stroke-miterlimit:10;}
	.st9{fill:url(#SVGID_1_);}
	.st10{fill:url(#SVGID_2_);}
</style>
<g>
	
		<ellipse transform="matrix(0.7071 -0.7071 0.7071 0.7071 -161.1546 -187.5584)" class="st0" cx="-307" cy="100.8" rx="45" ry="45"/>
</g>
<g>
	<path class="st1" d="M-294.3,144.8c-11.8,0-22.8-4.6-31.1-12.9c-8.3-8.3-12.9-19.4-12.9-31.1c0-11.8,4.6-22.8,12.9-31.1
		c8.3-8.3,19.4-12.9,31.1-12.9c11.7,0,22.8,4.6,31.1,12.9c8.3,8.3,12.9,19.4,12.9,31.1c0,11.8-4.6,22.8-12.9,31.1
		C-271.5,140.2-282.6,144.8-294.3,144.8z"/>
	<g>
		<path class="st0" d="M-294.3,57.8c11.5,0,22.3,4.5,30.4,12.6c16.8,16.8,16.8,44,0,60.8c-8.1,8.1-18.9,12.6-30.4,12.6
			s-22.3-4.5-30.4-12.6c-16.8-16.8-16.8-44,0-60.8C-316.6,62.2-305.8,57.8-294.3,57.8 M-294.3,55.8c-11.5,0-23,4.4-31.8,13.2
			c-17.6,17.6-17.6,46.1,0,63.6c8.8,8.8,20.3,13.2,31.8,13.2s23-4.4,31.8-13.2c17.6-17.6,17.6-46.1,0-63.6
			C-271.3,60.1-282.8,55.8-294.3,55.8L-294.3,55.8z"/>
	</g>
</g>
<g>
	<line class="st2" x1="-268.9" y1="100.8" x2="-319.8" y2="151.7"/>
</g>
<line class="st2" x1="-268.9" y1="75.3" x2="-319.8" y2="126.2"/>
<line class="st2" x1="-268.9" y1="88" x2="-319.8" y2="138.9"/>
<path class="st3" d="M-300,95.1l36.8,36.8c0.4,0.4,1,0.4,1.4,0l36.2-36.2c0.6-0.6,0.3-1.5-0.5-1.7l-29.3-5.9
	c-0.4-0.1-0.7-0.4-0.8-0.8l-5.9-29.3c-0.2-0.8-1.1-1.1-1.7-0.5L-300,93.7C-300.4,94.1-300.4,94.7-300,95.1z"/>
<polygon class="st4" points="-300.7,81.7 -262.5,119.8 -224.3,81.7 -256.1,75.3 -262.5,43.5 "/>
<g>
	<path class="st5" d="M-263.5,168.9l42-42c0.4-0.4,0.4-1.1,0-1.5l-42-42c-0.7-0.7-1.8-0.2-1.8,0.8v84
		C-265.3,169.1-264.2,169.6-263.5,168.9z"/>
</g>
<g>
	<path class="st1" d="M-274.2,168.3C-274.2,168.3-274.2,168.2-274.2,168.3l-0.1-84h0.1l42,42L-274.2,168.3L-274.2,168.3z"/>
	<path class="st5" d="M-273.2,86.5l39.7,39.7l-39.7,39.7V86.5 M-274.2,83.2c-0.5,0-1.1,0.4-1.1,1.1v84c0,0.6,0.5,1.1,1.1,1.1
		c0.3,0,0.5-0.1,0.7-0.3l42-42c0.4-0.4,0.4-1.1,0-1.5l-42-42C-273.6,83.3-273.9,83.2-274.2,83.2L-274.2,83.2z"/>
</g>
<g>
	<line class="st6" x1="-256.1" y1="138.9" x2="-218" y2="100.8"/>
	<line class="st7" x1="-256.1" y1="138.9" x2="-218" y2="100.8"/>
</g>
<line class="st6" x1="-262.5" y1="132.6" x2="-237" y2="107.1"/>
<line class="st8" x1="-313.4" y1="81.7" x2="-313.4" y2="30.7"/>
<line class="st8" x1="-307" y1="75.3" x2="-307" y2="37.1"/>
<g>
	
		<linearGradient id="SVGID_1_" gradientUnits="userSpaceOnUse" x1="-198.3931" y1="150.0025" x2="-371.6069" y2="49.9976" gradientTransform="matrix(1 0 0 -1 0 200)">
		<stop  offset="0" style="stop-color:#92FE9D"/>
		<stop  offset="1" style="stop-color:#00C9FF"/>
	</linearGradient>
	<path class="st9" d="M-285,2c54,0,98,44,98,98s-44,98-98,98s-98-44-98-98S-339,2-285,2 M-285,0c-55.2,0-100,44.8-100,100
		s44.8,100,100,100s100-44.8,100-100S-229.8,0-285,0L-285,0z"/>
</g>
<linearGradient id="SVGID_2_" gradientUnits="userSpaceOnUse" x1="108.3599" y1="32.8907" x2="83.2954" y2="175.0388">
	<stop  offset="0" style="stop-color:#92FE9D"/>
	<stop  offset="1" style="stop-color:#00C9FF"/>
</linearGradient>
<path class="st10" d="M180.5,45.6h-49.9v12.1h49.9V45.6z M155.9,87.2c-5.9,0-10.6,1.7-14.3,5.1s-5.7,8.1-6.1,13.9h39.8
	C174.2,93.6,167.7,87.2,155.9,87.2z M157.4,144.3c4.1,0,8.1-1,11.9-3.1s6.3-4.9,7.4-8.5h21.6c-6.5,20-20.4,30-41.7,30
	c-13.9,0-25-4.3-33.3-12.9S111,129.9,111,115.9c0-13.5,4.2-24.8,12.7-33.7s19.4-13.4,32.9-13.4c9,0,16.8,2.2,23.5,6.6
	s11.7,10.3,14.9,17.5s4.9,15.3,4.9,24.2c0,1.1-0.1,2.6-0.2,4.6h-64.3c0,7.2,1.9,12.8,5.6,16.7S150.3,144.3,157.4,144.3z M27.1,139.5
	H56c13.3,0,20-5.4,20-16.3c0-11.7-6.5-17.6-19.4-17.6H27.1V139.5z M27.1,87h27.4c5.1,0,9.1-1.2,12.1-3.6c3-2.4,4.4-6.1,4.4-11.1
	c0-9.4-6.2-14.1-18.6-14.1H27.1V87z M0,37.3h58c5.7,0,10.7,0.5,15.1,1.4s8.5,2.5,12.4,4.6s6.7,5.3,8.8,9.4s3.1,9.1,3.1,15
	c0,11.8-5.6,20.3-16.8,25.7c7.4,2.1,13,5.8,16.8,11.2s5.7,12,5.7,19.9c0,4.9-0.8,9.3-2.4,13.3s-3.7,7.4-6.4,10.1s-5.9,5-9.6,6.9
	s-7.6,3.3-11.8,4.1s-8.5,1.3-13.1,1.3H0V37.3z"/>
</svg>
