<?xml version="1.0" encoding="utf-8"?>
<!-- Generator: Adobe Illustrator 21.0.0, SVG Export Plug-In . SVG Version: 6.00 Build 0)  -->
<svg version="1.1" id="Calque_1" xmlns="http://www.w3.org/2000/svg" xmlns:xlink="http://www.w3.org/1999/xlink" x="0px" y="0px"
	 viewBox="0 0 53 51.7" style="enable-background:new 0 0 53 51.7;" xml:space="preserve">
<style type="text/css">
	.st0{fill:url(#SVGID_1_);}
	.st1{fill:#31C5F0;}
</style>
<g>
	
		<radialGradient id="SVGID_1_" cx="-797.5391" cy="97.4349" r="1.611197e-02" gradientTransform="matrix(2291.6716 0 0 -2218.7549 1827715.75 216196.9688)" gradientUnits="userSpaceOnUse">
		<stop  offset="0" style="stop-color:#34364E;stop-opacity:0.98"/>
		<stop  offset="1" style="stop-color:#0C0824"/>
	</radialGradient>
	<path class="st0" d="M2.2,2.2h48.6v47.3H2.2V2.2z"/>
	<path class="st1" d="M2.2,2.2h48.6v47.3H2.2V2.2z M0,51.7h53V0H0V51.7z M35.7,21.2c-1.7,0-2.3,0.9-2.3,1.6c0,0.8,0.4,1.3,2.7,2.6
		c3.5,1.7,4.5,3.3,4.5,5.7c0,3.5-2.7,5.4-6.3,5.4c-1.9,0-3.6-0.4-4.5-0.9c-0.2-0.1-0.2-0.2-0.2-0.4v-3.2c0-0.2,0.1-0.3,0.3-0.2
		c1.4,0.9,3,1.3,4.4,1.3c1.7,0,2.5-0.7,2.5-1.7c0-0.8-0.5-1.5-2.7-2.7c-3.1-1.5-4.4-3-4.4-5.6c0-2.8,2.2-5.2,6.1-5.2
		c1.9,0,3.2,0.3,4,0.6c0.2,0.1,0.2,0.3,0.2,0.4v3c0,0.2-0.1,0.3-0.3,0.2C38.6,21.6,37.2,21.2,35.7,21.2L35.7,21.2z M16.7,23.8
		c0.5,0,0.9,0,1.8,0c2.6,0,5-0.9,5-4.4c0-2.8-1.7-4.2-4.7-4.2c-0.9,0-1.7,0-2.1,0.1V23.8z M12.8,12.1c0-0.2,0.3-0.3,0.5-0.3
		c1.4-0.1,3.5-0.1,5.7-0.1c6.1,0,8.5,3.4,8.5,7.6c0,5.6-4.1,8-9.1,8c-0.8,0-1.1,0-1.7,0v8.5c0,0.2-0.1,0.3-0.3,0.3h-3.4
		c-0.2,0-0.3-0.1-0.3-0.3L12.8,12.1L12.8,12.1z"/>
</g>
</svg>
