<?xml version="1.0" encoding="utf-8"?>
<!-- Generator: Adobe Illustrator 21.0.0, SVG Export Plug-In . SVG Version: 6.00 Build 0)  -->
<svg version="1.1" id="Calque_1" xmlns="http://www.w3.org/2000/svg" xmlns:xlink="http://www.w3.org/1999/xlink" x="0px" y="0px"
	 viewBox="0 0 200 200" style="enable-background:new 0 0 200 200;" xml:space="preserve">
<style type="text/css">
	.st0{fill:url(#SVGID_1_);}
	.st1{fill:url(#SVGID_2_);}
	.st2{fill:url(#SVGID_3_);}
	.st3{fill:url(#SVGID_4_);}
	.st4{fill:url(#SVGID_5_);}
	.st5{fill:url(#SVGID_6_);}
	.st6{fill:url(#SVGID_7_);}
	.st7{fill:url(#SVGID_8_);}
	.st8{fill:url(#SVGID_9_);}
	.st9{fill:url(#SVGID_10_);}
	.st10{fill:url(#SVGID_11_);}
	.st11{fill:url(#SVGID_12_);}
	.st12{fill:url(#SVGID_13_);}
	.st13{fill:url(#SVGID_14_);}
	.st14{fill:url(#SVGID_15_);}
	.st15{fill:url(#SVGID_16_);}
	.st16{fill:url(#SVGID_17_);}
	.st17{clip-path:url(#SVGID_19_);}
	.st18{clip-path:url(#SVGID_21_);enable-background:new    ;}
	.st19{clip-path:url(#SVGID_23_);}
	.st20{clip-path:url(#SVGID_25_);fill:#FEEEB7;}
	.st21{clip-path:url(#SVGID_27_);}
	.st22{clip-path:url(#SVGID_29_);fill:#EA6C00;}
	.st23{clip-path:url(#SVGID_31_);}
	.st24{clip-path:url(#SVGID_33_);fill:#EA6C00;}
	.st25{clip-path:url(#SVGID_35_);}
	.st26{clip-path:url(#SVGID_37_);fill:#FDAD00;}
	.st27{clip-path:url(#SVGID_39_);}
	.st28{opacity:0;clip-path:url(#SVGID_41_);}
	.st29{opacity:0;}
	.st30{clip-path:url(#SVGID_41_);}
	.st31{clip-path:url(#SVGID_47_);}
	.st32{clip-path:url(#SVGID_49_);fill:#FDAD00;}
	.st33{clip-path:url(#SVGID_51_);}
	.st34{clip-path:url(#SVGID_53_);fill:#FDAD00;}
	.st35{clip-path:url(#SVGID_55_);}
	.st36{opacity:0;clip-path:url(#SVGID_57_);}
	.st37{clip-path:url(#SVGID_57_);}
	.st38{clip-path:url(#SVGID_63_);}
	.st39{clip-path:url(#SVGID_65_);fill:#FEEEB7;}
</style>
<g>
	
		<linearGradient id="SVGID_1_" gradientUnits="userSpaceOnUse" x1="525.7068" y1="-30.0024" x2="352.4931" y2="70.0024" gradientTransform="matrix(1 0 0 1 0 80)">
		<stop  offset="0" style="stop-color:#92FE9D"/>
		<stop  offset="1" style="stop-color:#00C9FF"/>
	</linearGradient>
	<path class="st0" d="M439.1,2c54,0,98,44,98,98s-44,98-98,98s-98-44-98-98S385.1,2,439.1,2 M439.1,0c-55.2,0-100,44.8-100,100
		s44.8,100,100,100s100-44.8,100-100S494.3,0,439.1,0L439.1,0z"/>
</g>
<g>
	
		<linearGradient id="SVGID_2_" gradientUnits="userSpaceOnUse" x1="-56.7931" y1="-214.4025" x2="-230.0069" y2="-114.3976" gradientTransform="matrix(1 0 0 1 0 80)">
		<stop  offset="0" style="stop-color:#92FE9D"/>
		<stop  offset="1" style="stop-color:#00C9FF"/>
	</linearGradient>
	<path class="st1" d="M-143.4-182.4c54,0,98,44,98,98s-44,98-98,98s-98-44-98-98S-197.4-182.4-143.4-182.4 M-143.4-184.4
		c-55.2,0-100,44.8-100,100s44.8,100,100,100s100-44.8,100-100S-88.2-184.4-143.4-184.4L-143.4-184.4z"/>
</g>
<g>
	
		<linearGradient id="SVGID_3_" gradientUnits="userSpaceOnUse" x1="-95.6349" y1="306.8021" x2="-189.6373" y2="252.5298" gradientTransform="matrix(1 0 0 -1 0 200)">
		<stop  offset="0" style="stop-color:#92FE9D"/>
		<stop  offset="1" style="stop-color:#00C9FF"/>
	</linearGradient>
	<path class="st2" d="M-110.8-126.6c-0.3,0-0.6-0.3-0.6-0.6v-5.9c0-0.6-0.3-2.1-1.4-3c-0.8-0.7-2-1-3.4-0.8
		c-20.2,3.4-58.7,10-60,10.4c-0.1,0-0.1,0-0.1,0s0,0-0.1,0c-1.5,0.1-2.6,1.3-2.6,2.8v89.2c0,1.6,1.3,2.8,2.8,2.8h65.2
		c1.6,0,2.8-1.3,2.8-2.8v-89.3C-108-125.3-109.2-126.6-110.8-126.6z M-157.6-127.8l41.8-7c0.5-0.1,1,0,1.4,0.3
		c0.5,0.4,0.7,1,0.7,1.4v5.9c0,0.3-0.3,0.6-0.6,0.6h-43.2c-0.3,0-0.6-0.2-0.6-0.6C-158.1-127.5-157.9-127.8-157.6-127.8z
		 M-110.2-34.6c0,0.3-0.3,0.6-0.6,0.6H-176c-0.3,0-0.6-0.3-0.6-0.6V-122c0-0.8,0.4-1.5,1-2.2c0.1-0.1,0.3-0.2,0.4-0.2h64.4
		c0.3,0,0.6,0.3,0.6,0.6L-110.2-34.6L-110.2-34.6z"/>
	
		<linearGradient id="SVGID_4_" gradientUnits="userSpaceOnUse" x1="-126.1948" y1="261.6835" x2="-160.6052" y2="241.8165" gradientTransform="matrix(1 0 0 -1 0 200)">
		<stop  offset="0" style="stop-color:#92FE9D"/>
		<stop  offset="1" style="stop-color:#00C9FF"/>
	</linearGradient>
	<path class="st3" d="M-161.8-45.5h36.8c0.9,0,1.6-0.7,1.6-1.6v-9.3c0-0.9-0.7-1.6-1.6-1.6h-36.8c-0.9,0-1.6,0.7-1.6,1.6v9.3
		C-163.4-46.2-162.7-45.5-161.8-45.5z M-161.2-55.2c0-0.3,0.3-0.6,0.6-0.6h34.3c0.3,0,0.6,0.3,0.6,0.6v6.9c0,0.3-0.3,0.6-0.6,0.6
		h-34.3c-0.3,0-0.6-0.3-0.6-0.6C-161.2-48.3-161.2-55.2-161.2-55.2z"/>
	
		<linearGradient id="SVGID_5_" gradientUnits="userSpaceOnUse" x1="-126.257" y1="301.1975" x2="-160.6597" y2="281.3351" gradientTransform="matrix(1 0 0 -1 0 200)">
		<stop  offset="0" style="stop-color:#92FE9D"/>
		<stop  offset="1" style="stop-color:#00C9FF"/>
	</linearGradient>
	<path class="st4" d="M-143.4-71.4c11,0,19.9-8.9,19.9-19.9s-8.9-19.9-19.9-19.9s-19.9,8.9-19.9,19.9S-154.4-71.4-143.4-71.4z
		 M-132.8-77c-1.2,0.9-2.4,1.6-3.7,2.1c-0.1,0-0.2,0.1-0.2,0.1c-0.2,0-0.3-0.1-0.5-0.2c-0.2-0.2-0.2-0.5-0.1-0.7
		c0.2-0.4,1.2-2.5,1.5-3.2c0.1-0.2,0.2-0.3,0.4-0.4c0.2-0.1,0.4,0,0.5,0c0.8,0.4,1.4,0.8,2.1,1.3c0.2,0.1,0.3,0.3,0.3,0.5
		C-132.5-77.3-132.6-77.2-132.8-77z M-130.2-79.5c-0.1,0.1-0.3,0.2-0.5,0.2c-0.1,0-0.3,0-0.4-0.1c-1.2-1-2.3-1.7-3.4-2.2
		c-0.3-0.1-0.4-0.4-0.3-0.7c0.5-2.2,0.8-4.6,0.9-7.2c0-0.3,0.3-0.6,0.6-0.6h6.8c0.2,0,0.3,0.1,0.5,0.2c0.1,0.1,0.2,0.3,0.2,0.5
		C-126.2-85.7-127.7-82.3-130.2-79.5z M-130.2-102.9c2.5,2.8,4,6.3,4.4,10c0,0.2,0,0.3-0.2,0.5c-0.1,0.1-0.3,0.2-0.5,0.2h-6.8
		c-0.3,0-0.6-0.3-0.6-0.6c-0.1-2.5-0.4-4.9-0.9-7.2c-0.1-0.3,0.1-0.6,0.3-0.7c1.1-0.5,2.2-1.3,3.4-2.2
		C-130.8-103.2-130.4-103.2-130.2-102.9z M-137.2-107.3c0.2-0.2,0.5-0.3,0.7-0.2c1.3,0.5,2.6,1.3,3.7,2.1c0.2,0.1,0.2,0.3,0.2,0.5
		s-0.1,0.4-0.2,0.5c-0.6,0.4-1.3,0.9-2.1,1.3c-0.1,0.1-0.2,0.1-0.3,0.1c-0.1,0-0.2,0-0.2,0c-0.2-0.1-0.3-0.2-0.4-0.4
		c-0.2-0.7-1.3-2.8-1.5-3.2C-137.4-106.8-137.4-107.1-137.2-107.3z M-142.3-107.6c0-0.2,0.1-0.5,0.4-0.6c0.2-0.1,0.5-0.1,0.7,0.1
		c2.3,2.2,3.2,4.5,3.5,5.4l0.1,0.2c0.1,0.2,0.1,0.3,0,0.5c-0.1,0.2-0.2,0.3-0.4,0.3c-1.1,0.3-2.3,0.6-3.5,0.7c0,0,0,0-0.1,0
		c-0.2,0-0.3-0.1-0.4-0.2s-0.2-0.3-0.2-0.5L-142.3-107.6L-142.3-107.6z M-142.3-98.1c0-0.3,0.2-0.6,0.6-0.6c1.5-0.1,2.9-0.4,4.2-0.8
		c0.2-0.1,0.3,0,0.5,0.1s0.3,0.2,0.3,0.4c0.4,2,0.7,4,0.8,6.1c0,0.2-0.1,0.3-0.2,0.5s-0.3,0.2-0.4,0.2h-5.1c-0.3,0-0.6-0.3-0.6-0.6
		v-5.3H-142.3z M-142.3-89.5c0-0.3,0.3-0.6,0.6-0.6h5.1c0.2,0,0.3,0.1,0.4,0.2s0.2,0.3,0.2,0.5c-0.1,2.1-0.3,4.2-0.8,6.1
		c0,0.2-0.1,0.3-0.3,0.4c-0.1,0.1-0.2,0.1-0.3,0.1c-0.1,0-0.1,0-0.2,0c-1.4-0.4-2.8-0.7-4.2-0.8c-0.3,0-0.6-0.3-0.6-0.6v-5.3H-142.3
		z M-142.3-80.9c0-0.2,0.1-0.3,0.2-0.5c0.1-0.1,0.3-0.2,0.5-0.2c1.1,0.1,2.3,0.3,3.5,0.7c0.2,0,0.3,0.2,0.4,0.3
		c0.1,0.2,0.1,0.3,0,0.5l-0.1,0.2c-0.2,0.8-0.8,2.4-3.5,5.4c-0.1,0.1-0.3,0.2-0.5,0.2c-0.1,0-0.1,0-0.2,0c-0.2-0.1-0.4-0.3-0.4-0.6
		v-6H-142.3z M-149.6-75.1c-0.1,0.1-0.3,0.2-0.5,0.2c-0.1,0-0.2,0-0.2,0c-1.3-0.6-2.6-1.3-3.7-2.1c-0.2-0.1-0.2-0.3-0.2-0.5
		s0.1-0.4,0.3-0.5c0.6-0.5,1.3-0.9,2.1-1.3c0.2-0.1,0.3-0.1,0.5,0c0.2,0.1,0.3,0.2,0.4,0.4c0.3,0.7,1.3,2.9,1.5,3.2
		C-149.4-75.6-149.5-75.3-149.6-75.1z M-144.5-74.8c0,0.3-0.2,0.5-0.4,0.6c-0.1,0-0.1,0-0.2,0c-0.2,0-0.4-0.1-0.5-0.2
		c-2.7-3.3-3.2-4.6-3.4-5.4l-0.1-0.2c-0.1-0.2-0.1-0.3,0-0.5s0.2-0.3,0.4-0.3c1.1-0.3,2.3-0.6,3.5-0.7c0.2,0,0.3,0,0.5,0.2
		c0.1,0.1,0.2,0.3,0.2,0.5V-74.8z M-144.5-84.3c0,0.3-0.2,0.6-0.6,0.6c-1.5,0.1-2.9,0.4-4.2,0.8c-0.1,0-0.1,0-0.2,0s-0.2,0-0.3-0.1
		c-0.2-0.1-0.3-0.2-0.3-0.4c-0.4-1.9-0.7-3.9-0.8-6.1c0-0.2,0.1-0.3,0.2-0.5c0.1-0.1,0.3-0.2,0.4-0.2h5.1c0.3,0,0.6,0.3,0.6,0.6v5.3
		H-144.5z M-149.1-102.4l0.1-0.2c0.3-0.9,1-2.9,3.4-5.4c0.2-0.2,0.4-0.2,0.7-0.1c0.2,0.1,0.4,0.3,0.4,0.6v6.1c0,0.2-0.1,0.3-0.2,0.5
		c-0.1,0.1-0.3,0.2-0.4,0.2c0,0,0,0-0.1,0c-1.1-0.1-2.3-0.3-3.5-0.7c-0.2,0-0.3-0.2-0.4-0.3C-149.2-102.1-149.2-102.3-149.1-102.4z
		 M-145.1-98.7c0.3,0,0.6,0.3,0.6,0.6v5.2c0,0.3-0.3,0.6-0.6,0.6h-5.1c-0.2,0-0.3-0.1-0.4-0.2s-0.2-0.3-0.2-0.5
		c0.1-2.1,0.3-4.2,0.8-6.1c0-0.2,0.1-0.3,0.3-0.4c0.1-0.1,0.3-0.1,0.5-0.1C-147.9-99.1-146.5-98.8-145.1-98.7z M-154.1-105.3
		c1.2-0.9,2.4-1.6,3.7-2.1c0.2-0.1,0.5,0,0.7,0.2s0.2,0.5,0.1,0.7c-0.2,0.4-1.2,2.5-1.5,3.2c-0.1,0.2-0.2,0.3-0.4,0.4
		c-0.1,0-0.1,0-0.2,0s-0.2,0-0.3-0.1c-0.8-0.4-1.4-0.8-2.1-1.3c-0.2-0.1-0.3-0.3-0.3-0.5C-154.3-105-154.2-105.2-154.1-105.3z
		 M-156.6-102.9c0.2-0.2,0.6-0.3,0.8-0.1c1.2,1,2.3,1.7,3.4,2.2c0.3,0.1,0.4,0.4,0.3,0.7c-0.5,2.3-0.8,4.7-0.9,7.2
		c0,0.3-0.3,0.6-0.6,0.6h-6.8c-0.2,0-0.3-0.1-0.5-0.2c-0.1-0.1-0.2-0.3-0.2-0.5C-160.7-96.7-159.1-100.1-156.6-102.9z M-160.9-89.9
		c0.1-0.1,0.3-0.2,0.5-0.2h6.8c0.3,0,0.6,0.3,0.6,0.6c0.1,2.5,0.4,4.9,0.9,7.2c0.1,0.3-0.1,0.6-0.3,0.7c-1.1,0.5-2.2,1.3-3.4,2.2
		c-0.1,0.1-0.2,0.1-0.4,0.1s-0.3-0.1-0.5-0.2c-2.5-2.8-4-6.2-4.4-10C-161-89.6-161-89.8-160.9-89.9z"/>
</g>
<g>
	
		<linearGradient id="SVGID_6_" gradientUnits="userSpaceOnUse" x1="143.8492" y1="-77.8207" x2="121.8584" y2="-90.5171" gradientTransform="matrix(1 0 0 -1 0 200)">
		<stop  offset="0" style="stop-color:#92FE9D"/>
		<stop  offset="1" style="stop-color:#00C9FF"/>
	</linearGradient>
	<path class="st5" d="M132.8,296.9c7,0,12.7-5.7,12.7-12.7s-5.7-12.7-12.7-12.7s-12.7,5.7-12.7,12.7S125.8,296.9,132.8,296.9z
		 M132.8,274.5c5.4,0,9.7,4.4,9.7,9.7s-4.4,9.7-9.7,9.7s-9.7-4.4-9.7-9.7S127.5,274.5,132.8,274.5z"/>
	
		<linearGradient id="SVGID_7_" gradientUnits="userSpaceOnUse" x1="143.8242" y1="-97.9098" x2="53.605" y2="-149.9979" gradientTransform="matrix(1 0 0 -1 0 200)">
		<stop  offset="0" style="stop-color:#92FE9D"/>
		<stop  offset="1" style="stop-color:#00C9FF"/>
	</linearGradient>
	<path class="st6" d="M133.3,300.6c-5.2,0-10.2,1.9-14,5.4c-4.2-5.9-11.1-9.7-18.9-9.7c-7.9,0-14.9,4-19.2,10
		c-3.9-3.6-9-5.7-14.4-5.7c-11.6,0-21,9.4-21,21v14.5c0,0.8,0.7,1.5,1.5,1.5s1.5-0.7,1.5-1.5v-14.5c0-9.9,8.1-18,18-18
		c4.8,0,9.4,2,12.8,5.3c-1.7,3.2-2.6,6.8-2.6,10.7v16.2c0,0.8,0.7,1.5,1.5,1.5s1.5-0.7,1.5-1.5v-16.2c0-11.2,9.1-20.3,20.3-20.3
		s20.3,9.1,20.3,20.3v16.2c0,0.8,0.7,1.5,1.5,1.5s1.5-0.7,1.5-1.5v-16.2c0-4-1-7.7-2.8-11c3.3-3.2,7.8-5,12.4-5c9.9,0,18,8.1,18,18
		v14.5c0,0.8,0.7,1.5,1.5,1.5s1.5-0.7,1.5-1.5v-14.5C154.3,310,144.8,300.6,133.3,300.6z"/>
	
		<linearGradient id="SVGID_8_" gradientUnits="userSpaceOnUse" x1="77.3432" y1="-77.8242" x2="55.3524" y2="-90.5205" gradientTransform="matrix(1 0 0 -1 0 200)">
		<stop  offset="0" style="stop-color:#92FE9D"/>
		<stop  offset="1" style="stop-color:#00C9FF"/>
	</linearGradient>
	<path class="st7" d="M66.3,296.9c7,0,12.7-5.7,12.7-12.7s-5.7-12.7-12.7-12.7s-12.7,5.7-12.7,12.7S59.3,296.9,66.3,296.9z
		 M66.3,274.5c5.4,0,9.7,4.4,9.7,9.7s-4.4,9.7-9.7,9.7s-9.7-4.4-9.7-9.7S61,274.5,66.3,274.5z"/>
	
		<linearGradient id="SVGID_9_" gradientUnits="userSpaceOnUse" x1="111.9322" y1="-70.5827" x2="87.6007" y2="-84.6304" gradientTransform="matrix(1 0 0 -1 0 200)">
		<stop  offset="0" style="stop-color:#92FE9D"/>
		<stop  offset="1" style="stop-color:#00C9FF"/>
	</linearGradient>
	<path class="st8" d="M99.8,291.7c7.7,0,14.1-6.3,14.1-14.1s-6.3-14.1-14.1-14.1s-14.1,6.3-14.1,14.1S92.1,291.7,99.8,291.7z
		 M99.8,266.6c6.1,0,11.1,5,11.1,11.1s-5,11.1-11.1,11.1s-11.1-5-11.1-11.1S93.7,266.6,99.8,266.6z"/>
</g>
<g>
	
		<linearGradient id="SVGID_10_" gradientUnits="userSpaceOnUse" x1="-300.1931" y1="-30.0024" x2="-473.4069" y2="70.0024" gradientTransform="matrix(1 0 0 1 0 80)">
		<stop  offset="0" style="stop-color:#92FE9D"/>
		<stop  offset="1" style="stop-color:#00C9FF"/>
	</linearGradient>
	<path class="st9" d="M-386.8,2c54,0,98,44,98,98s-44,98-98,98s-98-44-98-98S-440.8,2-386.8,2 M-386.8,0c-55.2,0-100,44.8-100,100
		s44.8,100,100,100s100-44.8,100-100S-331.6,0-386.8,0L-386.8,0z"/>
</g>
<g>
	
		<linearGradient id="SVGID_11_" gradientUnits="userSpaceOnUse" x1="-342.9046" y1="122.7482" x2="-364.8954" y2="110.0518" gradientTransform="matrix(1 0 0 -1 0 200)">
		<stop  offset="0" style="stop-color:#92FE9D"/>
		<stop  offset="1" style="stop-color:#00C9FF"/>
	</linearGradient>
	<path class="st10" d="M-353.9,96.3c7,0,12.7-5.7,12.7-12.7s-5.7-12.7-12.7-12.7s-12.7,5.7-12.7,12.7S-360.9,96.3-353.9,96.3z
		 M-353.9,73.8c5.4,0,9.7,4.4,9.7,9.7s-4.4,9.7-9.7,9.7s-9.7-4.4-9.7-9.7S-359.3,73.8-353.9,73.8z"/>
	
		<linearGradient id="SVGID_12_" gradientUnits="userSpaceOnUse" x1="-342.9593" y1="102.6996" x2="-433.195" y2="50.6021" gradientTransform="matrix(1 0 0 -1 0 200)">
		<stop  offset="0" style="stop-color:#92FE9D"/>
		<stop  offset="1" style="stop-color:#00C9FF"/>
	</linearGradient>
	<path class="st11" d="M-353.5,100c-5.2,0-10.2,1.9-14,5.4c-4.2-5.9-11.1-9.7-18.9-9.7c-7.9,0-14.9,4-19.2,10
		c-3.9-3.6-9-5.7-14.4-5.7c-11.6,0-21,9.4-21,21v14.5c0,0.8,0.7,1.5,1.5,1.5s1.5-0.7,1.5-1.5V121c0-9.9,8.1-18,18-18
		c4.8,0,9.4,2,12.8,5.3c-1.7,3.2-2.6,6.8-2.6,10.7v16.2c0,0.8,0.7,1.5,1.5,1.5s1.5-0.7,1.5-1.5V119c0-11.2,9.1-20.3,20.3-20.3
		c11.2,0,20.3,9.1,20.3,20.3v16.2c0,0.8,0.7,1.5,1.5,1.5s1.5-0.7,1.5-1.5V119c0-4-1-7.7-2.8-11c3.3-3.2,7.8-5,12.4-5
		c9.9,0,18,8.1,18,18v14.5c0,0.8,0.7,1.5,1.5,1.5s1.5-0.7,1.5-1.5V121C-332.5,109.4-341.9,100-353.5,100z"/>
	
		<linearGradient id="SVGID_13_" gradientUnits="userSpaceOnUse" x1="-409.4046" y1="122.7482" x2="-431.3954" y2="110.0518" gradientTransform="matrix(1 0 0 -1 0 200)">
		<stop  offset="0" style="stop-color:#92FE9D"/>
		<stop  offset="1" style="stop-color:#00C9FF"/>
	</linearGradient>
	<path class="st12" d="M-420.4,96.3c7,0,12.7-5.7,12.7-12.7s-5.7-12.7-12.7-12.7s-12.7,5.7-12.7,12.7S-427.4,96.3-420.4,96.3z
		 M-420.4,73.8c5.4,0,9.7,4.4,9.7,9.7s-4.4,9.7-9.7,9.7s-9.7-4.4-9.7-9.7S-425.8,73.8-420.4,73.8z"/>
	
		<linearGradient id="SVGID_14_" gradientUnits="userSpaceOnUse" x1="-374.8115" y1="129.9926" x2="-399.143" y2="115.9448" gradientTransform="matrix(1 0 0 -1 0 200)">
		<stop  offset="0" style="stop-color:#92FE9D"/>
		<stop  offset="1" style="stop-color:#00C9FF"/>
	</linearGradient>
	<path class="st13" d="M-387,91.1c7.7,0,14.1-6.3,14.1-14.1s-6.3-14-14.1-14s-14,6.3-14,14.1S-394.7,91.1-387,91.1z M-387,66
		c6.1,0,11.1,5,11.1,11.1s-5,11.1-11.1,11.1s-11.1-5-11.1-11.1S-393,66-387,66z"/>
</g>
<g>
	
		<linearGradient id="SVGID_15_" gradientUnits="userSpaceOnUse" x1="-525.0931" y1="-30.0025" x2="-698.3069" y2="70.0024" gradientTransform="matrix(1 0 0 1 0 80)">
		<stop  offset="0" style="stop-color:#92FE9D"/>
		<stop  offset="1" style="stop-color:#00C9FF"/>
	</linearGradient>
	<path class="st14" d="M-611.7,2c54,0,98,44,98,98s-44,98-98,98s-98-44-98-98S-665.7,2-611.7,2 M-611.7,0c-55.2,0-100,44.8-100,100
		s44.8,100,100,100s100-44.8,100-100S-556.5,0-611.7,0L-611.7,0z"/>
</g>
<g>
	
		<linearGradient id="SVGID_16_" gradientUnits="userSpaceOnUse" x1="-573.7774" y1="109.171" x2="-658.8208" y2="60.0712" gradientTransform="matrix(1 0 0 -1 0 200)">
		<stop  offset="0" style="stop-color:#92FE9D"/>
		<stop  offset="1" style="stop-color:#00C9FF"/>
	</linearGradient>
	<path class="st15" d="M-602.5,70.2c-11.2-0.7-23,4.5-30.2,16.9l0,0c-4.1,8.3-6.6,18-10.8,25.8c-4.2,7.7-9.8,13.6-20.5,14.7
		c-1.5,0.2-1.2,2.4,0.2,2.2c11.5-1.2,17.9-7.8,22.3-16c4.3-8.1,6.8-17.8,10.8-25.8c6.7-11.7,17.7-16.4,28.2-15.8
		c9.1,0.5,17.8,5.2,22.8,12.9c-11,3.8-16.1,14.5-14.3,24.5c1.8,10.5,11.1,20,27.7,20c1.5,0,1.5-2.2,0-2.2
		c-15.7,0-23.8-8.7-25.5-18.1c-1.7-9.5,3.2-19.6,14.2-22.7c0.7-0.2,1.1-1,0.7-1.6C-582.3,76.1-592.1,70.7-602.5,70.2L-602.5,70.2z"
		/>
</g>
<g>
	
		<linearGradient id="SVGID_17_" gradientUnits="userSpaceOnUse" x1="480.8478" y1="115.6258" x2="402.8901" y2="70.617" gradientTransform="matrix(1 0 0 -1 0 200)">
		<stop  offset="0" style="stop-color:#92FE9D"/>
		<stop  offset="1" style="stop-color:#00C9FF"/>
	</linearGradient>
	<path class="st16" d="M470.8,118.1V67.3c0-0.4-0.2-0.8-0.6-1.1c-0.2-0.1-0.8-0.3-1.2-0.2l-45.1,12.8c-0.5,0.2-1,0.8-1,1.4v32.5
		l-1.7-1.4c-2.3-2-5.3-3.1-8.4-3.1c-7.1,0-12.8,5.8-12.8,12.8s5.8,12.8,12.8,12.8s12.8-5.8,12.8-12.8V81.4L468,69.2v43.4l-1.6-1.4
		c-2.3-1.9-5.2-3-8.2-3c-7.1,0-12.8,5.8-12.8,12.8s5.6,13,12.7,13s12.8-5.8,12.8-12.8c0-0.6-0.1-1.8-0.1-2.5
		C470.8,118.3,470.8,118.1,470.8,118.1z M412.8,131c-5.5,0-9.9-4.3-9.9-9.9s4.3-9.9,9.9-9.9c5.5,0,9.9,4.3,9.9,9.9
		S418.4,131,412.8,131z M458.1,131c-5.5,0-9.9-4.3-9.9-9.9s4.3-9.9,9.9-9.9c5.5,0,9.9,4.4,9.9,9.9C468,126.7,463.7,131,458.1,131z"
		/>
</g>
<g>
	<defs>
		<polygon id="SVGID_18_" points="44,15.7 100.2,9.7 156.1,15.7 200,74.2 100,190.3 0,74.2 		"/>
	</defs>
	<clipPath id="SVGID_19_">
		<use xlink:href="#SVGID_18_"  style="overflow:visible;"/>
	</clipPath>
	<g class="st17">
		<defs>
			<rect id="SVGID_20_" x="-3.2" y="-3.2" width="206.4" height="206.4"/>
		</defs>
		<clipPath id="SVGID_21_">
			<use xlink:href="#SVGID_20_"  style="overflow:visible;"/>
		</clipPath>
		<g class="st18">
			<g>
				<defs>
					<rect id="SVGID_22_" x="-1.2" y="8.7" width="202.2" height="182.9"/>
				</defs>
				<clipPath id="SVGID_23_">
					<use xlink:href="#SVGID_22_"  style="overflow:visible;"/>
				</clipPath>
				<g class="st19">
					<defs>
						<rect id="SVGID_24_" x="0" y="9.7" width="200" height="180.6"/>
					</defs>
					<clipPath id="SVGID_25_">
						<use xlink:href="#SVGID_24_"  style="overflow:visible;"/>
					</clipPath>
					<rect x="-1" y="8.7" class="st20" width="202" height="182.7"/>
				</g>
				<g class="st19">
					<defs>
						<polygon id="SVGID_26_" points="159.3,74.2 200,74.2 100,190.3 						"/>
					</defs>
					<clipPath id="SVGID_27_">
						<use xlink:href="#SVGID_26_"  style="overflow:visible;"/>
					</clipPath>
					<g class="st21">
						<defs>
							<rect id="SVGID_28_" x="0" y="9.7" width="200" height="180.6"/>
						</defs>
						<clipPath id="SVGID_29_">
							<use xlink:href="#SVGID_28_"  style="overflow:visible;"/>
						</clipPath>
						<rect x="99" y="73.2" class="st22" width="102" height="118.1"/>
					</g>
				</g>
				<g class="st19">
					<defs>
						<polygon id="SVGID_30_" points="40.7,74.2 0,74.2 100,190.3 						"/>
					</defs>
					<clipPath id="SVGID_31_">
						<use xlink:href="#SVGID_30_"  style="overflow:visible;"/>
					</clipPath>
					<g class="st23">
						<defs>
							<rect id="SVGID_32_" x="0" y="9.7" width="200" height="180.6"/>
						</defs>
						<clipPath id="SVGID_33_">
							<use xlink:href="#SVGID_32_"  style="overflow:visible;"/>
						</clipPath>
						<rect x="-1" y="73.2" class="st24" width="102" height="118.2"/>
					</g>
				</g>
				<g class="st19">
					<defs>
						<polygon id="SVGID_34_" points="40.7,74.2 159.3,74.2 100,190.3 						"/>
					</defs>
					<clipPath id="SVGID_35_">
						<use xlink:href="#SVGID_34_"  style="overflow:visible;"/>
					</clipPath>
					<g class="st25">
						<defs>
							<rect id="SVGID_36_" x="0" y="9.7" width="200" height="180.6"/>
						</defs>
						<clipPath id="SVGID_37_">
							<use xlink:href="#SVGID_36_"  style="overflow:visible;"/>
						</clipPath>
						<rect x="39.7" y="73.2" class="st26" width="120.6" height="118.1"/>
					</g>
				</g>
				<g class="st19">
					<defs>
						<polygon id="SVGID_38_" points="156,15.7 159.3,74.2 100.2,9.7 						"/>
					</defs>
					<clipPath id="SVGID_39_">
						<use xlink:href="#SVGID_38_"  style="overflow:visible;"/>
					</clipPath>
					<g class="st27">
						<defs>
							<rect id="SVGID_40_" x="0" y="9.7" width="200" height="180.6"/>
						</defs>
						<clipPath id="SVGID_41_">
							<use xlink:href="#SVGID_40_"  style="overflow:visible;"/>
						</clipPath>
						<g class="st28">
							<g class="st29">
								<g>
									<defs>
										<rect id="SVGID_42_" x="0" y="9.7" width="200" height="180.6"/>
									</defs>
									<clipPath id="SVGID_43_">
										<use xlink:href="#SVGID_42_"  style="overflow:visible;"/>
									</clipPath>
									<g style="clip-path:url(#SVGID_43_);">
										
											<image style="overflow:visible;" width="834" height="755" xlink:href="B9EBF86D3278D5D3.jpg"  transform="matrix(0.24 0 0 0.24 0 9.44)">
										</image>
									</g>
								</g>
							</g>
						</g>
						<g class="st30">
							<g>
								<defs>
									<rect id="SVGID_44_" x="0" y="9.7" width="200" height="180.6"/>
								</defs>
								<clipPath id="SVGID_45_">
									<use xlink:href="#SVGID_44_"  style="overflow:visible;"/>
								</clipPath>
								<g style="clip-path:url(#SVGID_45_);">
									
										<image style="overflow:visible;" width="834" height="755" xlink:href="B9EBF86D3278D5D1.jpg"  transform="matrix(0.24 0 0 0.24 0 9.44)">
									</image>
								</g>
							</g>
						</g>
					</g>
				</g>
				<g class="st19">
					<defs>
						<polygon id="SVGID_46_" points="156,15.7 159.3,74.2 200,74.2 						"/>
					</defs>
					<clipPath id="SVGID_47_">
						<use xlink:href="#SVGID_46_"  style="overflow:visible;"/>
					</clipPath>
					<g class="st31">
						<defs>
							<rect id="SVGID_48_" x="0" y="9.7" width="200" height="180.6"/>
						</defs>
						<clipPath id="SVGID_49_">
							<use xlink:href="#SVGID_48_"  style="overflow:visible;"/>
						</clipPath>
						<rect x="155" y="14.7" class="st32" width="46" height="60.5"/>
					</g>
				</g>
				<g class="st19">
					<defs>
						<polygon id="SVGID_50_" points="44,15.7 40.7,74.2 0,74.2 						"/>
					</defs>
					<clipPath id="SVGID_51_">
						<use xlink:href="#SVGID_50_"  style="overflow:visible;"/>
					</clipPath>
					<g class="st33">
						<defs>
							<rect id="SVGID_52_" x="0" y="9.7" width="200" height="180.6"/>
						</defs>
						<clipPath id="SVGID_53_">
							<use xlink:href="#SVGID_52_"  style="overflow:visible;"/>
						</clipPath>
						<rect x="-1" y="14.7" class="st34" width="46" height="60.5"/>
					</g>
				</g>
				<g class="st19">
					<defs>
						<polygon id="SVGID_54_" points="44,15.7 40.7,74.2 100.2,9.7 						"/>
					</defs>
					<clipPath id="SVGID_55_">
						<use xlink:href="#SVGID_54_"  style="overflow:visible;"/>
					</clipPath>
					<g class="st35">
						<defs>
							<rect id="SVGID_56_" x="0" y="9.7" width="200" height="180.6"/>
						</defs>
						<clipPath id="SVGID_57_">
							<use xlink:href="#SVGID_56_"  style="overflow:visible;"/>
						</clipPath>
						<g class="st36">
							<g class="st29">
								<g>
									<defs>
										<rect id="SVGID_58_" x="0" y="9.7" width="200" height="180.6"/>
									</defs>
									<clipPath id="SVGID_59_">
										<use xlink:href="#SVGID_58_"  style="overflow:visible;"/>
									</clipPath>
									<g style="clip-path:url(#SVGID_59_);">
										
											<image style="overflow:visible;" width="834" height="755" xlink:href="B9EBF86D3278D5D7.jpg"  transform="matrix(0.24 0 0 0.24 0 9.44)">
										</image>
									</g>
								</g>
							</g>
						</g>
						<g class="st37">
							<g>
								<defs>
									<rect id="SVGID_60_" x="0" y="9.7" width="200" height="180.6"/>
								</defs>
								<clipPath id="SVGID_61_">
									<use xlink:href="#SVGID_60_"  style="overflow:visible;"/>
								</clipPath>
								<g style="clip-path:url(#SVGID_61_);">
									
										<image style="overflow:visible;" width="834" height="755" xlink:href="B9EBF86D3278D5D0.jpg"  transform="matrix(0.24 0 0 0.24 0 9.44)">
									</image>
								</g>
							</g>
						</g>
					</g>
				</g>
				<g class="st19">
					<defs>
						<polygon id="SVGID_62_" points="40.7,74.2 159.3,74.2 100.2,9.7 						"/>
					</defs>
					<clipPath id="SVGID_63_">
						<use xlink:href="#SVGID_62_"  style="overflow:visible;"/>
					</clipPath>
					<g class="st38">
						<defs>
							<rect id="SVGID_64_" x="0" y="9.7" width="200" height="180.6"/>
						</defs>
						<clipPath id="SVGID_65_">
							<use xlink:href="#SVGID_64_"  style="overflow:visible;"/>
						</clipPath>
						<rect x="39.7" y="8.7" class="st39" width="120.6" height="66.5"/>
					</g>
				</g>
			</g>
		</g>
	</g>
</g>
</svg>
