<?xml version="1.0" encoding="utf-8"?>
<!-- Generator: Adobe Illustrator 21.0.0, SVG Export Plug-In . SVG Version: 6.00 Build 0)  -->
<svg version="1.1" id="Calque_1" xmlns="http://www.w3.org/2000/svg" xmlns:xlink="http://www.w3.org/1999/xlink" x="0px" y="0px"
	 viewBox="0 0 200 200" style="enable-background:new 0 0 200 200;" xml:space="preserve">
<style type="text/css">
	.st0{fill:url(#SVGID_1_);}
	.st1{fill:url(#SVGID_2_);}
	.st2{fill:url(#SVGID_3_);}
	.st3{fill:url(#SVGID_4_);}
	.st4{fill:url(#SVGID_5_);}
	.st5{fill:url(#SVGID_6_);}
	.st6{fill:url(#SVGID_7_);}
	.st7{fill:url(#SVGID_8_);}
	.st8{fill:url(#SVGID_9_);}
	.st9{fill:url(#SVGID_10_);}
	.st10{fill:url(#SVGID_11_);}
	.st11{fill:url(#SVGID_12_);}
	.st12{fill:url(#SVGID_13_);}
	.st13{fill:url(#SVGID_14_);}
	.st14{fill:url(#SVGID_15_);}
	.st15{fill:url(#SVGID_16_);}
	.st16{fill:url(#SVGID_17_);}
	.st17{fill:#FF7F18;}
</style>
<g>
	
		<linearGradient id="SVGID_1_" gradientUnits="userSpaceOnUse" x1="525.7068" y1="-30.0024" x2="352.4931" y2="70.0024" gradientTransform="matrix(1 0 0 1 0 80)">
		<stop  offset="0" style="stop-color:#92FE9D"/>
		<stop  offset="1" style="stop-color:#00C9FF"/>
	</linearGradient>
	<path class="st0" d="M439.1,2c54,0,98,44,98,98s-44,98-98,98s-98-44-98-98S385.1,2,439.1,2 M439.1,0c-55.2,0-100,44.8-100,100
		s44.8,100,100,100s100-44.8,100-100S494.3,0,439.1,0L439.1,0z"/>
</g>
<g>
	
		<linearGradient id="SVGID_2_" gradientUnits="userSpaceOnUse" x1="376.2069" y1="-269.8025" x2="202.9931" y2="-169.7976" gradientTransform="matrix(1 0 0 1 0 80)">
		<stop  offset="0" style="stop-color:#92FE9D"/>
		<stop  offset="1" style="stop-color:#00C9FF"/>
	</linearGradient>
	<path class="st1" d="M289.6-237.8c54,0,98,44,98,98s-44,98-98,98s-98-44-98-98S235.6-237.8,289.6-237.8 M289.6-239.8
		c-55.2,0-100,44.8-100,100s44.8,100,100,100s100-44.8,100-100S344.8-239.8,289.6-239.8L289.6-239.8z"/>
</g>
<g>
	
		<linearGradient id="SVGID_3_" gradientUnits="userSpaceOnUse" x1="337.3435" y1="362.2396" x2="243.3411" y2="307.9673" gradientTransform="matrix(1 0 0 -1 0 200)">
		<stop  offset="0" style="stop-color:#92FE9D"/>
		<stop  offset="1" style="stop-color:#00C9FF"/>
	</linearGradient>
	<path class="st2" d="M322.2-182c-0.3,0-0.6-0.3-0.6-0.6v-5.9c0-0.6-0.3-2.1-1.4-3c-0.8-0.7-2-1-3.4-0.8c-20.2,3.4-58.7,10-60,10.4
		c-0.1,0-0.1,0-0.1,0s0,0-0.1,0c-1.5,0.1-2.6,1.3-2.6,2.8V-90c0,1.6,1.3,2.8,2.8,2.8H322c1.6,0,2.8-1.3,2.8-2.8v-89.2
		C325-180.7,323.7-182,322.2-182z M275.4-183.2l41.8-7c0.5-0.1,1,0,1.4,0.3c0.5,0.4,0.7,1,0.7,1.4v5.9c0,0.3-0.3,0.6-0.6,0.6h-43.2
		c-0.3,0-0.6-0.2-0.6-0.6C274.9-182.9,275.1-183.2,275.4-183.2z M322.8-90c0,0.3-0.3,0.6-0.6,0.6H257c-0.3,0-0.6-0.3-0.6-0.6v-87.4
		c0-0.8,0.4-1.5,1-2.2c0.1-0.1,0.3-0.2,0.4-0.2h64.4c0.3,0,0.6,0.3,0.6,0.6V-90z"/>
	
		<linearGradient id="SVGID_4_" gradientUnits="userSpaceOnUse" x1="306.7441" y1="317.1481" x2="272.3336" y2="297.2813" gradientTransform="matrix(1 0 0 -1 0 200)">
		<stop  offset="0" style="stop-color:#92FE9D"/>
		<stop  offset="1" style="stop-color:#00C9FF"/>
	</linearGradient>
	<path class="st3" d="M271.2-101H308c0.9,0,1.6-0.7,1.6-1.6v-9.3c0-0.9-0.7-1.6-1.6-1.6h-36.8c-0.9,0-1.6,0.7-1.6,1.6v9.3
		C269.6-101.7,270.3-101,271.2-101z M271.8-110.6c0-0.3,0.3-0.6,0.6-0.6h34.3c0.3,0,0.6,0.3,0.6,0.6v6.9c0,0.3-0.3,0.6-0.6,0.6
		h-34.3c-0.3,0-0.6-0.3-0.6-0.6V-110.6z"/>
	
		<linearGradient id="SVGID_5_" gradientUnits="userSpaceOnUse" x1="306.7457" y1="356.5991" x2="272.343" y2="336.7367" gradientTransform="matrix(1 0 0 -1 0 200)">
		<stop  offset="0" style="stop-color:#92FE9D"/>
		<stop  offset="1" style="stop-color:#00C9FF"/>
	</linearGradient>
	<path class="st4" d="M289.6-126.8c11,0,19.9-8.9,19.9-19.9s-8.9-19.9-19.9-19.9s-19.9,8.9-19.9,19.9S278.6-126.8,289.6-126.8z
		 M300.2-132.5c-1.2,0.9-2.4,1.6-3.7,2.1c-0.1,0-0.2,0.1-0.2,0.1c-0.2,0-0.3-0.1-0.5-0.2c-0.2-0.2-0.2-0.5-0.1-0.7
		c0.2-0.4,1.2-2.5,1.5-3.2c0.1-0.2,0.2-0.3,0.4-0.4c0.2-0.1,0.4,0,0.5,0c0.8,0.4,1.4,0.8,2.1,1.3c0.2,0.1,0.3,0.3,0.3,0.5
		C300.5-132.8,300.4-132.6,300.2-132.5z M302.8-134.9c-0.1,0.1-0.3,0.2-0.5,0.2c-0.1,0-0.3,0-0.4-0.1c-1.2-1-2.3-1.7-3.4-2.2
		c-0.3-0.1-0.4-0.4-0.3-0.7c0.5-2.2,0.8-4.6,0.9-7.2c0-0.3,0.3-0.6,0.6-0.6h6.8c0.2,0,0.3,0.1,0.5,0.2c0.1,0.1,0.2,0.3,0.2,0.5
		C306.8-141.2,305.3-137.7,302.8-134.9z M302.8-158.4c2.5,2.8,4,6.3,4.4,10c0,0.2,0,0.3-0.2,0.5c-0.1,0.1-0.3,0.2-0.5,0.2h-6.8
		c-0.3,0-0.6-0.3-0.6-0.6c-0.1-2.5-0.4-4.9-0.9-7.2c-0.1-0.3,0.1-0.6,0.3-0.7c1.1-0.5,2.2-1.3,3.4-2.2
		C302.2-158.6,302.5-158.6,302.8-158.4z M295.8-162.7c0.2-0.2,0.5-0.3,0.7-0.2c1.3,0.5,2.6,1.3,3.7,2.1c0.2,0.1,0.2,0.3,0.2,0.5
		s-0.1,0.4-0.2,0.5c-0.6,0.4-1.3,0.9-2.1,1.3c-0.1,0.1-0.2,0.1-0.3,0.1c-0.1,0-0.2,0-0.2,0c-0.2-0.1-0.3-0.2-0.4-0.4
		c-0.2-0.7-1.3-2.8-1.5-3.2C295.6-162.2,295.6-162.5,295.8-162.7z M290.7-163c0-0.2,0.1-0.5,0.4-0.6c0.2-0.1,0.5-0.1,0.7,0.1
		c2.3,2.2,3.2,4.5,3.5,5.4l0.1,0.2c0.1,0.2,0.1,0.3,0,0.5s-0.2,0.3-0.4,0.3c-1.1,0.3-2.3,0.6-3.5,0.7c0,0,0,0-0.1,0
		c-0.2,0-0.3-0.1-0.4-0.2c-0.1-0.1-0.2-0.3-0.2-0.5v-5.9H290.7z M290.7-153.5c0-0.3,0.2-0.6,0.6-0.6c1.5-0.1,2.9-0.4,4.2-0.8
		c0.2-0.1,0.3,0,0.5,0.1s0.3,0.2,0.3,0.4c0.4,2,0.7,4,0.8,6.1c0,0.2-0.1,0.3-0.2,0.5c-0.1,0.1-0.3,0.2-0.4,0.2h-5.1
		c-0.3,0-0.6-0.3-0.6-0.6L290.7-153.5L290.7-153.5z M290.7-144.9c0-0.3,0.3-0.6,0.6-0.6h5.1c0.2,0,0.3,0.1,0.4,0.2
		c0.1,0.1,0.2,0.3,0.2,0.5c-0.1,2.1-0.3,4.2-0.8,6.1c0,0.2-0.1,0.3-0.3,0.4c-0.1,0.1-0.2,0.1-0.3,0.1c-0.1,0-0.1,0-0.2,0
		c-1.4-0.4-2.8-0.7-4.2-0.8c-0.3,0-0.6-0.3-0.6-0.6L290.7-144.9L290.7-144.9z M290.7-136.3c0-0.2,0.1-0.3,0.2-0.5
		c0.1-0.1,0.3-0.2,0.5-0.2c1.1,0.1,2.3,0.3,3.5,0.7c0.2,0,0.3,0.2,0.4,0.3c0.1,0.2,0.1,0.3,0,0.5l-0.1,0.2c-0.2,0.8-0.8,2.4-3.5,5.4
		c-0.1,0.1-0.3,0.2-0.5,0.2c-0.1,0-0.1,0-0.2,0c-0.2-0.1-0.4-0.3-0.4-0.6v-6H290.7z M283.4-130.5c-0.1,0.1-0.3,0.2-0.5,0.2
		c-0.1,0-0.2,0-0.2,0c-1.3-0.6-2.6-1.3-3.7-2.1c-0.2-0.1-0.2-0.3-0.2-0.5s0.1-0.4,0.3-0.5c0.6-0.5,1.3-0.9,2.1-1.3
		c0.2-0.1,0.3-0.1,0.5,0s0.3,0.2,0.4,0.4c0.3,0.7,1.3,2.9,1.5,3.2C283.5-131,283.5-130.7,283.4-130.5z M288.5-130.2
		c0,0.3-0.2,0.5-0.4,0.6c-0.1,0-0.1,0-0.2,0c-0.2,0-0.4-0.1-0.5-0.2c-2.7-3.3-3.2-4.6-3.4-5.4l-0.1-0.2c-0.1-0.2-0.1-0.3,0-0.5
		s0.2-0.3,0.4-0.3c1.1-0.3,2.3-0.6,3.5-0.7c0.2,0,0.3,0,0.5,0.2c0.1,0.1,0.2,0.3,0.2,0.5V-130.2z M288.5-139.7
		c0,0.3-0.2,0.6-0.6,0.6c-1.5,0.1-2.9,0.4-4.2,0.8c-0.1,0-0.1,0-0.2,0s-0.2,0-0.3-0.1c-0.2-0.1-0.3-0.2-0.3-0.4
		c-0.4-1.9-0.7-3.9-0.8-6.1c0-0.2,0.1-0.3,0.2-0.5c0.1-0.1,0.3-0.2,0.4-0.2h5.1c0.3,0,0.6,0.3,0.6,0.6L288.5-139.7L288.5-139.7z
		 M283.9-157.9l0.1-0.2c0.3-0.9,1-2.9,3.4-5.4c0.2-0.2,0.4-0.2,0.7-0.1c0.2,0.1,0.4,0.3,0.4,0.6v6.1c0,0.2-0.1,0.3-0.2,0.5
		c-0.1,0.1-0.3,0.2-0.4,0.2c0,0,0,0-0.1,0c-1.1-0.1-2.3-0.3-3.5-0.7c-0.2,0-0.3-0.2-0.4-0.3C283.8-157.5,283.8-157.7,283.9-157.9z
		 M287.9-154.1c0.3,0,0.6,0.3,0.6,0.6v5.2c0,0.3-0.3,0.6-0.6,0.6h-5.1c-0.2,0-0.3-0.1-0.4-0.2c-0.1-0.1-0.2-0.3-0.2-0.5
		c0.1-2.1,0.3-4.2,0.8-6.1c0-0.2,0.1-0.3,0.3-0.4c0.1-0.1,0.3-0.1,0.5-0.1C285.1-154.5,286.5-154.3,287.9-154.1z M278.9-160.7
		c1.2-0.9,2.4-1.6,3.7-2.1c0.2-0.1,0.5,0,0.7,0.2s0.2,0.5,0.1,0.7c-0.2,0.4-1.2,2.5-1.5,3.2c-0.1,0.2-0.2,0.3-0.4,0.4
		c-0.1,0-0.1,0-0.2,0s-0.2,0-0.3-0.1c-0.8-0.4-1.4-0.8-2.1-1.3c-0.2-0.1-0.3-0.3-0.3-0.5C278.7-160.4,278.8-160.6,278.9-160.7z
		 M276.4-158.4c0.2-0.2,0.6-0.3,0.8-0.1c1.2,1,2.3,1.7,3.4,2.2c0.3,0.1,0.4,0.4,0.3,0.7c-0.5,2.3-0.8,4.7-0.9,7.2
		c0,0.3-0.3,0.6-0.6,0.6h-6.8c-0.2,0-0.3-0.1-0.5-0.2c-0.1-0.1-0.2-0.3-0.2-0.5C272.3-152.1,273.9-155.5,276.4-158.4z M272.1-145.3
		c0.1-0.1,0.3-0.2,0.5-0.2h6.8c0.3,0,0.6,0.3,0.6,0.6c0.1,2.5,0.4,4.9,0.9,7.2c0.1,0.3-0.1,0.6-0.3,0.7c-1.1,0.5-2.2,1.3-3.4,2.2
		c-0.1,0.1-0.2,0.1-0.4,0.1c-0.2,0-0.3-0.1-0.5-0.2c-2.5-2.8-4-6.2-4.4-10C271.9-145,272-145.2,272.1-145.3z"/>
</g>
<g>
	
		<linearGradient id="SVGID_6_" gradientUnits="userSpaceOnUse" x1="143.8492" y1="-77.8207" x2="121.8584" y2="-90.5171" gradientTransform="matrix(1 0 0 -1 0 200)">
		<stop  offset="0" style="stop-color:#92FE9D"/>
		<stop  offset="1" style="stop-color:#00C9FF"/>
	</linearGradient>
	<path class="st5" d="M132.8,296.9c7,0,12.7-5.7,12.7-12.7s-5.7-12.7-12.7-12.7s-12.7,5.7-12.7,12.7S125.8,296.9,132.8,296.9z
		 M132.8,274.5c5.4,0,9.7,4.4,9.7,9.7s-4.4,9.7-9.7,9.7s-9.7-4.4-9.7-9.7S127.5,274.5,132.8,274.5z"/>
	
		<linearGradient id="SVGID_7_" gradientUnits="userSpaceOnUse" x1="143.8242" y1="-97.9098" x2="53.605" y2="-149.9979" gradientTransform="matrix(1 0 0 -1 0 200)">
		<stop  offset="0" style="stop-color:#92FE9D"/>
		<stop  offset="1" style="stop-color:#00C9FF"/>
	</linearGradient>
	<path class="st6" d="M133.3,300.6c-5.2,0-10.2,1.9-14,5.4c-4.2-5.9-11.1-9.7-18.9-9.7c-7.9,0-14.9,4-19.2,10
		c-3.9-3.6-9-5.7-14.4-5.7c-11.6,0-21,9.4-21,21v14.5c0,0.8,0.7,1.5,1.5,1.5s1.5-0.7,1.5-1.5v-14.5c0-9.9,8.1-18,18-18
		c4.8,0,9.4,2,12.8,5.3c-1.7,3.2-2.6,6.8-2.6,10.7v16.2c0,0.8,0.7,1.5,1.5,1.5s1.5-0.7,1.5-1.5v-16.2c0-11.2,9.1-20.3,20.3-20.3
		s20.3,9.1,20.3,20.3v16.2c0,0.8,0.7,1.5,1.5,1.5s1.5-0.7,1.5-1.5v-16.2c0-4-1-7.7-2.8-11c3.3-3.2,7.8-5,12.4-5c9.9,0,18,8.1,18,18
		v14.5c0,0.8,0.7,1.5,1.5,1.5s1.5-0.7,1.5-1.5v-14.5C154.3,310,144.8,300.6,133.3,300.6z"/>
	
		<linearGradient id="SVGID_8_" gradientUnits="userSpaceOnUse" x1="77.3432" y1="-77.8242" x2="55.3524" y2="-90.5205" gradientTransform="matrix(1 0 0 -1 0 200)">
		<stop  offset="0" style="stop-color:#92FE9D"/>
		<stop  offset="1" style="stop-color:#00C9FF"/>
	</linearGradient>
	<path class="st7" d="M66.3,296.9c7,0,12.7-5.7,12.7-12.7s-5.7-12.7-12.7-12.7s-12.7,5.7-12.7,12.7S59.3,296.9,66.3,296.9z
		 M66.3,274.5c5.4,0,9.7,4.4,9.7,9.7s-4.4,9.7-9.7,9.7s-9.7-4.4-9.7-9.7S61,274.5,66.3,274.5z"/>
	
		<linearGradient id="SVGID_9_" gradientUnits="userSpaceOnUse" x1="111.9322" y1="-70.5827" x2="87.6007" y2="-84.6304" gradientTransform="matrix(1 0 0 -1 0 200)">
		<stop  offset="0" style="stop-color:#92FE9D"/>
		<stop  offset="1" style="stop-color:#00C9FF"/>
	</linearGradient>
	<path class="st8" d="M99.8,291.7c7.7,0,14.1-6.3,14.1-14.1s-6.3-14.1-14.1-14.1s-14.1,6.3-14.1,14.1S92.1,291.7,99.8,291.7z
		 M99.8,266.6c6.1,0,11.1,5,11.1,11.1s-5,11.1-11.1,11.1s-11.1-5-11.1-11.1S93.7,266.6,99.8,266.6z"/>
</g>
<g>
	
		<linearGradient id="SVGID_10_" gradientUnits="userSpaceOnUse" x1="106.7069" y1="-422.4024" x2="-66.5069" y2="-322.3976" gradientTransform="matrix(1 0 0 1 0 80)">
		<stop  offset="0" style="stop-color:#92FE9D"/>
		<stop  offset="1" style="stop-color:#00C9FF"/>
	</linearGradient>
	<path class="st9" d="M20.1-390.4c54,0,98,44,98,98s-44,98-98,98s-98-44-98-98S-33.9-390.4,20.1-390.4 M20.1-392.4
		c-55.2,0-100,44.8-100,100s44.8,100,100,100s100-44.8,100-100S75.3-392.4,20.1-392.4L20.1-392.4z"/>
</g>
<g>
	
		<linearGradient id="SVGID_11_" gradientUnits="userSpaceOnUse" x1="63.9954" y1="515.2482" x2="42.0046" y2="502.5518" gradientTransform="matrix(1 0 0 -1 0 200)">
		<stop  offset="0" style="stop-color:#92FE9D"/>
		<stop  offset="1" style="stop-color:#00C9FF"/>
	</linearGradient>
	<path class="st10" d="M53-296.2c7,0,12.7-5.7,12.7-12.7S60-321.6,53-321.6s-12.7,5.7-12.7,12.7S46-296.2,53-296.2z M53-318.6
		c5.4,0,9.7,4.4,9.7,9.7s-4.4,9.7-9.7,9.7s-9.7-4.4-9.7-9.7S47.6-318.6,53-318.6z"/>
	
		<linearGradient id="SVGID_12_" gradientUnits="userSpaceOnUse" x1="63.9215" y1="495.1886" x2="-26.295" y2="443.1021" gradientTransform="matrix(1 0 0 -1 0 200)">
		<stop  offset="0" style="stop-color:#92FE9D"/>
		<stop  offset="1" style="stop-color:#00C9FF"/>
	</linearGradient>
	<path class="st11" d="M53.4-292.5c-5.2,0-10.2,1.9-14,5.4c-4.2-5.9-11.1-9.7-18.9-9.7c-7.9,0-14.9,4-19.2,10
		c-3.9-3.6-9-5.7-14.4-5.7c-11.6,0-21,9.4-21,21v14.5c0,0.8,0.7,1.5,1.5,1.5s1.5-0.7,1.5-1.5v-14.5c0-9.9,8.1-18,18-18
		c4.8,0,9.4,2,12.8,5.3c-1.7,3.2-2.6,6.8-2.6,10.7v16.2c0,0.8,0.7,1.5,1.5,1.5s1.5-0.7,1.5-1.5v-16.2c0-11.2,9.1-20.3,20.3-20.3
		s20.3,9.1,20.3,20.3v16.2c0,0.8,0.7,1.5,1.5,1.5s1.5-0.7,1.5-1.5v-16.2c0-4-1-7.7-2.8-11c3.3-3.2,7.8-5,12.4-5c9.9,0,18,8.1,18,18
		v14.5c0,0.8,0.7,1.5,1.5,1.5s1.5-0.7,1.5-1.5v-14.5C74.4-283,65-292.5,53.4-292.5z"/>
	
		<linearGradient id="SVGID_13_" gradientUnits="userSpaceOnUse" x1="-2.5046" y1="515.2482" x2="-24.4954" y2="502.5518" gradientTransform="matrix(1 0 0 -1 0 200)">
		<stop  offset="0" style="stop-color:#92FE9D"/>
		<stop  offset="1" style="stop-color:#00C9FF"/>
	</linearGradient>
	<path class="st12" d="M-13.5-296.2c7,0,12.7-5.7,12.7-12.7s-5.7-12.7-12.7-12.7s-12.7,5.7-12.7,12.7S-20.5-296.2-13.5-296.2z
		 M-13.5-318.6c5.4,0,9.7,4.4,9.7,9.7s-4.4,9.7-9.7,9.7s-9.7-4.4-9.7-9.7S-18.9-318.6-13.5-318.6z"/>
	
		<linearGradient id="SVGID_14_" gradientUnits="userSpaceOnUse" x1="32.1195" y1="522.41" x2="7.7879" y2="508.3622" gradientTransform="matrix(1 0 0 -1 0 200)">
		<stop  offset="0" style="stop-color:#92FE9D"/>
		<stop  offset="1" style="stop-color:#00C9FF"/>
	</linearGradient>
	<path class="st13" d="M20-301.3c7.7,0,14.1-6.3,14.1-14.1s-6.3-14.1-14.1-14.1s-14.1,6.3-14.1,14.1S12.2-301.3,20-301.3z M20-326.4
		c6.1,0,11.1,5,11.1,11.1s-5,11.1-11.1,11.1s-11.1-5-11.1-11.1S13.9-326.4,20-326.4z"/>
</g>
<g>
	
		<linearGradient id="SVGID_15_" gradientUnits="userSpaceOnUse" x1="-118.6612" y1="-90.7495" x2="-291.875" y2="9.2554" gradientTransform="matrix(1 0 0 1 0 80)">
		<stop  offset="0" style="stop-color:#92FE9D"/>
		<stop  offset="1" style="stop-color:#00C9FF"/>
	</linearGradient>
	<path class="st14" d="M-205.3-58.7c54,0,98,44,98,98s-44,98-98,98s-98-44-98-98S-259.3-58.7-205.3-58.7 M-205.3-60.7
		c-55.2,0-100,44.8-100,100s44.8,100,100,100s100-44.8,100-100S-150.1-60.7-205.3-60.7L-205.3-60.7z"/>
</g>
<g>
	
		<linearGradient id="SVGID_16_" gradientUnits="userSpaceOnUse" x1="-167.3219" y1="169.9517" x2="-252.3653" y2="120.8519" gradientTransform="matrix(1 0 0 -1 0 200)">
		<stop  offset="0" style="stop-color:#92FE9D"/>
		<stop  offset="1" style="stop-color:#00C9FF"/>
	</linearGradient>
	<path class="st15" d="M-196.1,9.5c-11.2-0.7-23,4.4-30.2,16.9l0,0c-4.1,8.3-6.6,18-10.8,25.8c-4.2,7.7-9.8,13.6-20.5,14.7
		c-1.5,0.2-1.2,2.4,0.2,2.2c11.5-1.2,17.9-7.8,22.3-16c4.3-8.1,6.8-17.8,10.8-25.8c6.7-11.7,17.7-16.4,28.2-15.8
		c9.1,0.5,17.8,5.2,22.8,12.9c-11,3.8-16.1,14.5-14.3,24.5c1.8,10.5,11.1,20,27.7,20c1.5,0,1.5-2.2,0-2.2
		c-15.7,0-23.8-8.7-25.5-18.1c-1.7-9.5,3.2-19.6,14.2-22.7c0.7-0.2,1.1-1,0.7-1.6C-175.9,15.4-185.7,10-196.1,9.5L-196.1,9.5z"/>
</g>
<g>
	
		<linearGradient id="SVGID_17_" gradientUnits="userSpaceOnUse" x1="480.8478" y1="115.6258" x2="402.8901" y2="70.617" gradientTransform="matrix(1 0 0 -1 0 200)">
		<stop  offset="0" style="stop-color:#92FE9D"/>
		<stop  offset="1" style="stop-color:#00C9FF"/>
	</linearGradient>
	<path class="st16" d="M470.8,118.1V67.3c0-0.4-0.2-0.8-0.6-1.1c-0.2-0.1-0.8-0.3-1.2-0.2l-45.1,12.8c-0.5,0.2-1,0.8-1,1.4v32.5
		l-1.7-1.4c-2.3-2-5.3-3.1-8.4-3.1c-7.1,0-12.8,5.8-12.8,12.8s5.8,12.8,12.8,12.8s12.8-5.8,12.8-12.8V81.4L468,69.2v43.4l-1.6-1.4
		c-2.3-1.9-5.2-3-8.2-3c-7.1,0-12.8,5.8-12.8,12.8s5.6,13,12.7,13s12.8-5.8,12.8-12.8c0-0.6-0.1-1.8-0.1-2.5
		C470.8,118.3,470.8,118.1,470.8,118.1z M412.8,131c-5.5,0-9.9-4.3-9.9-9.9s4.3-9.9,9.9-9.9c5.5,0,9.9,4.3,9.9,9.9
		S418.4,131,412.8,131z M458.1,131c-5.5,0-9.9-4.3-9.9-9.9s4.3-9.9,9.9-9.9c5.5,0,9.9,4.4,9.9,9.9C468,126.7,463.7,131,458.1,131z"
		/>
</g>
<path class="st17" d="M8.3,10.8h183.3v178.3H8.3V10.8z M0,197.5h200V2.5H0V197.5z M131,72c0-0.7,0.2-1,1-1h13.1c0.7,0,1,0.2,1,1
	v65.8c0,0.7-0.2,1-1,1h-12.9c-0.8,0-1.1-0.4-1.1-1.1L131,72L131,72L131,72z M130.1,53.1c0-5.3,3.7-8.5,8.5-8.5
	c5.1,0,8.5,3.4,8.5,8.5c0,5.5-3.6,8.5-8.7,8.5C133.6,61.6,130.1,58.6,130.1,53.1z M92.6,99.4c-2.3-9.3-7.8-29.4-9.9-39.2h-0.2
	c-1.8,9.8-6.2,26.2-9.7,39.2H92.6z M69.4,112.9l-6.6,25c-0.2,0.7-0.4,0.8-1.2,0.8H49.3c-0.8,0-1-0.2-0.8-1.2l23.7-82.8
	c0.4-1.5,0.7-2.8,0.8-6.9c0-0.6,0.2-0.8,0.7-0.8h17.5c0.6,0,0.8,0.2,1,0.8l26.5,89.9c0.2,0.7,0,1.1-0.7,1.1h-13.8
	c-0.7,0-1.1-0.2-1.2-0.7l-6.8-25.1H69.4L69.4,112.9z"/>
</svg>
