<?xml version="1.0" encoding="utf-8"?>
<!-- Generator: Adobe Illustrator 21.0.0, SVG Export Plug-In . SVG Version: 6.00 Build 0)  -->
<svg version="1.1" id="Calque_1" xmlns="http://www.w3.org/2000/svg" xmlns:xlink="http://www.w3.org/1999/xlink" x="0px" y="0px"
	 viewBox="0 0 200 200" style="enable-background:new 0 0 200 200;" xml:space="preserve">
<style type="text/css">
	.st0{fill:url(#SVGID_1_);}
	.st1{fill:url(#SVGID_2_);}
	.st2{fill:url(#SVGID_3_);}
	.st3{fill:url(#SVGID_4_);}
	.st4{fill:url(#SVGID_5_);}
	.st5{fill:url(#SVGID_6_);}
	.st6{fill:url(#SVGID_7_);}
	.st7{fill:url(#SVGID_8_);}
	.st8{fill:url(#SVGID_9_);}
	.st9{fill:url(#SVGID_10_);}
	.st10{fill:url(#SVGID_11_);}
	.st11{fill:url(#SVGID_12_);}
	.st12{fill:url(#SVGID_13_);}
	.st13{fill:url(#SVGID_14_);}
	.st14{fill:url(#SVGID_15_);}
	.st15{fill:url(#SVGID_16_);}
	.st16{fill:url(#SVGID_17_);}
	.st17{fill:url(#SVGID_18_);}
	.st18{fill:url(#SVGID_19_);}
</style>
<g>
	
		<linearGradient id="SVGID_1_" gradientUnits="userSpaceOnUse" x1="525.7082" y1="150.0025" x2="352.4944" y2="49.9976" gradientTransform="matrix(1 0 0 -1 0 200)">
		<stop  offset="0" style="stop-color:#92FE9D"/>
		<stop  offset="1" style="stop-color:#00C9FF"/>
	</linearGradient>
	<path class="st0" d="M439.1,2c54,0,98,44,98,98s-44,98-98,98s-98-44-98-98S385.1,2,439.1,2 M439.1,0c-55.2,0-100,44.8-100,100
		s44.8,100,100,100s100-44.8,100-100S494.3,0,439.1,0L439.1,0z"/>
</g>
<g>
	
		<linearGradient id="SVGID_2_" gradientUnits="userSpaceOnUse" x1="376.192" y1="389.8346" x2="202.9782" y2="289.8297" gradientTransform="matrix(1 0 0 -1 0 200)">
		<stop  offset="0" style="stop-color:#92FE9D"/>
		<stop  offset="1" style="stop-color:#00C9FF"/>
	</linearGradient>
	<path class="st1" d="M289.6-237.8c54,0,98,44,98,98s-44,98-98,98s-98-44-98-98S235.6-237.8,289.6-237.8 M289.6-239.8
		c-55.2,0-100,44.8-100,100s44.8,100,100,100s100-44.8,100-100S344.8-239.8,289.6-239.8L289.6-239.8z"/>
</g>
<g>
	<linearGradient id="SVGID_3_" gradientUnits="userSpaceOnUse" x1="337.3845" y1="-162.2016" x2="243.3821" y2="-107.9293">
		<stop  offset="0" style="stop-color:#92FE9D"/>
		<stop  offset="1" style="stop-color:#00C9FF"/>
	</linearGradient>
	<path class="st2" d="M322.2-182c-0.3,0-0.6-0.3-0.6-0.6v-5.9c0-0.6-0.3-2.1-1.4-3c-0.8-0.7-2-1-3.4-0.8c-20.2,3.4-58.7,10-60,10.4
		c-0.1,0-0.1,0-0.1,0c0,0,0,0-0.1,0c-1.5,0.1-2.6,1.3-2.6,2.8V-90c0,1.6,1.3,2.8,2.8,2.8h65.2c1.6,0,2.8-1.3,2.8-2.8v-89.2
		C325-180.7,323.7-182,322.2-182z M275.4-183.2l41.8-7c0.5-0.1,1,0,1.4,0.3c0.5,0.4,0.7,1,0.7,1.4v5.9c0,0.3-0.3,0.6-0.6,0.6h-43.2
		c-0.3,0-0.6-0.2-0.6-0.6C274.9-182.9,275.1-183.2,275.4-183.2z M322.8-90c0,0.3-0.3,0.6-0.6,0.6h-65.2c-0.3,0-0.6-0.3-0.6-0.6
		v-87.4c0-0.8,0.4-1.5,1-2.2c0.1-0.1,0.3-0.2,0.4-0.2h64.4c0.3,0,0.6,0.3,0.6,0.6V-90z"/>
	<linearGradient id="SVGID_4_" gradientUnits="userSpaceOnUse" x1="306.7523" y1="-117.134" x2="272.3762" y2="-97.287">
		<stop  offset="0" style="stop-color:#92FE9D"/>
		<stop  offset="1" style="stop-color:#00C9FF"/>
	</linearGradient>
	<path class="st3" d="M271.2-101H308c0.9,0,1.6-0.7,1.6-1.6v-9.3c0-0.9-0.7-1.6-1.6-1.6h-36.8c-0.9,0-1.6,0.7-1.6,1.6v9.3
		C269.6-101.7,270.3-101,271.2-101z M271.8-110.6c0-0.3,0.3-0.6,0.6-0.6h34.3c0.3,0,0.6,0.3,0.6,0.6v6.9c0,0.3-0.3,0.6-0.6,0.6
		h-34.3c-0.3,0-0.6-0.3-0.6-0.6V-110.6z"/>
	<linearGradient id="SVGID_5_" gradientUnits="userSpaceOnUse" x1="306.7656" y1="-156.5646" x2="272.3629" y2="-136.7022">
		<stop  offset="0" style="stop-color:#92FE9D"/>
		<stop  offset="1" style="stop-color:#00C9FF"/>
	</linearGradient>
	<path class="st4" d="M289.6-126.8c11,0,19.9-8.9,19.9-19.9s-8.9-19.9-19.9-19.9s-19.9,8.9-19.9,19.9S278.6-126.8,289.6-126.8z
		 M300.2-132.5c-1.2,0.9-2.4,1.6-3.7,2.1c-0.1,0-0.2,0.1-0.2,0.1c-0.2,0-0.3-0.1-0.5-0.2c-0.2-0.2-0.2-0.5-0.1-0.7
		c0.2-0.4,1.2-2.5,1.5-3.2c0.1-0.2,0.2-0.3,0.4-0.4c0.2-0.1,0.4,0,0.5,0c0.8,0.4,1.4,0.8,2.1,1.3c0.2,0.1,0.3,0.3,0.3,0.5
		C300.5-132.8,300.4-132.6,300.2-132.5z M302.8-134.9c-0.1,0.1-0.3,0.2-0.5,0.2c-0.1,0-0.3,0-0.4-0.1c-1.2-1-2.3-1.7-3.4-2.2
		c-0.3-0.1-0.4-0.4-0.3-0.7c0.5-2.2,0.8-4.6,0.9-7.2c0-0.3,0.3-0.6,0.6-0.6h6.8c0.2,0,0.3,0.1,0.5,0.2c0.1,0.1,0.2,0.3,0.2,0.5
		C306.8-141.2,305.3-137.7,302.8-134.9z M302.8-158.4c2.5,2.8,4,6.3,4.4,10c0,0.2,0,0.3-0.2,0.5c-0.1,0.1-0.3,0.2-0.5,0.2h-6.8
		c-0.3,0-0.6-0.3-0.6-0.6c-0.1-2.5-0.4-4.9-0.9-7.2c-0.1-0.3,0.1-0.6,0.3-0.7c1.1-0.5,2.2-1.3,3.4-2.2
		C302.2-158.6,302.5-158.6,302.8-158.4z M295.8-162.7c0.2-0.2,0.5-0.3,0.7-0.2c1.3,0.5,2.6,1.3,3.7,2.1c0.2,0.1,0.2,0.3,0.2,0.5
		s-0.1,0.4-0.2,0.5c-0.6,0.4-1.3,0.9-2.1,1.3c-0.1,0.1-0.2,0.1-0.3,0.1c-0.1,0-0.2,0-0.2,0c-0.2-0.1-0.3-0.2-0.4-0.4
		c-0.2-0.7-1.3-2.8-1.5-3.2C295.6-162.2,295.6-162.5,295.8-162.7z M290.7-163c0-0.2,0.1-0.5,0.4-0.6c0.2-0.1,0.5-0.1,0.7,0.1
		c2.3,2.2,3.2,4.5,3.5,5.4l0.1,0.2c0.1,0.2,0.1,0.3,0,0.5c-0.1,0.2-0.2,0.3-0.4,0.3c-1.1,0.3-2.3,0.6-3.5,0.7c0,0,0,0-0.1,0
		c-0.2,0-0.3-0.1-0.4-0.2c-0.1-0.1-0.2-0.3-0.2-0.5V-163z M290.7-153.5c0-0.3,0.2-0.6,0.6-0.6c1.5-0.1,2.9-0.4,4.2-0.8
		c0.2-0.1,0.3,0,0.5,0.1c0.2,0.1,0.3,0.2,0.3,0.4c0.4,2,0.7,4,0.8,6.1c0,0.2-0.1,0.3-0.2,0.5c-0.1,0.1-0.3,0.2-0.4,0.2h-5.1
		c-0.3,0-0.6-0.3-0.6-0.6V-153.5z M290.7-144.9c0-0.3,0.3-0.6,0.6-0.6h5.1c0.2,0,0.3,0.1,0.4,0.2c0.1,0.1,0.2,0.3,0.2,0.5
		c-0.1,2.1-0.3,4.2-0.8,6.1c0,0.2-0.1,0.3-0.3,0.4c-0.1,0.1-0.2,0.1-0.3,0.1c-0.1,0-0.1,0-0.2,0c-1.4-0.4-2.8-0.7-4.2-0.8
		c-0.3,0-0.6-0.3-0.6-0.6V-144.9z M290.7-136.3c0-0.2,0.1-0.3,0.2-0.5c0.1-0.1,0.3-0.2,0.5-0.2c1.1,0.1,2.3,0.3,3.5,0.7
		c0.2,0,0.3,0.2,0.4,0.3c0.1,0.2,0.1,0.3,0,0.5l-0.1,0.2c-0.2,0.8-0.8,2.4-3.5,5.4c-0.1,0.1-0.3,0.2-0.5,0.2c-0.1,0-0.1,0-0.2,0
		c-0.2-0.1-0.4-0.3-0.4-0.6V-136.3z M283.4-130.5c-0.1,0.1-0.3,0.2-0.5,0.2c-0.1,0-0.2,0-0.2,0c-1.3-0.6-2.6-1.3-3.7-2.1
		c-0.2-0.1-0.2-0.3-0.2-0.5s0.1-0.4,0.3-0.5c0.6-0.5,1.3-0.9,2.1-1.3c0.2-0.1,0.3-0.1,0.5,0c0.2,0.1,0.3,0.2,0.4,0.4
		c0.3,0.7,1.3,2.9,1.5,3.2C283.5-131,283.5-130.7,283.4-130.5z M288.5-130.2c0,0.3-0.2,0.5-0.4,0.6c-0.1,0-0.1,0-0.2,0
		c-0.2,0-0.4-0.1-0.5-0.2c-2.7-3.3-3.2-4.6-3.4-5.4l-0.1-0.2c-0.1-0.2-0.1-0.3,0-0.5c0.1-0.2,0.2-0.3,0.4-0.3
		c1.1-0.3,2.3-0.6,3.5-0.7c0.2,0,0.3,0,0.5,0.2c0.1,0.1,0.2,0.3,0.2,0.5V-130.2z M288.5-139.7c0,0.3-0.2,0.6-0.6,0.6
		c-1.5,0.1-2.9,0.4-4.2,0.8c-0.1,0-0.1,0-0.2,0c-0.1,0-0.2,0-0.3-0.1c-0.2-0.1-0.3-0.2-0.3-0.4c-0.4-1.9-0.7-3.9-0.8-6.1
		c0-0.2,0.1-0.3,0.2-0.5c0.1-0.1,0.3-0.2,0.4-0.2h5.1c0.3,0,0.6,0.3,0.6,0.6V-139.7z M283.9-157.9l0.1-0.2c0.3-0.9,1-2.9,3.4-5.4
		c0.2-0.2,0.4-0.2,0.7-0.1c0.2,0.1,0.4,0.3,0.4,0.6v6.1c0,0.2-0.1,0.3-0.2,0.5c-0.1,0.1-0.3,0.2-0.4,0.2c0,0,0,0-0.1,0
		c-1.1-0.1-2.3-0.3-3.5-0.7c-0.2,0-0.3-0.2-0.4-0.3C283.8-157.5,283.8-157.7,283.9-157.9z M287.9-154.1c0.3,0,0.6,0.3,0.6,0.6v5.2
		c0,0.3-0.3,0.6-0.6,0.6h-5.1c-0.2,0-0.3-0.1-0.4-0.2c-0.1-0.1-0.2-0.3-0.2-0.5c0.1-2.1,0.3-4.2,0.8-6.1c0-0.2,0.1-0.3,0.3-0.4
		c0.1-0.1,0.3-0.1,0.5-0.1C285.1-154.5,286.5-154.3,287.9-154.1z M278.9-160.7c1.2-0.9,2.4-1.6,3.7-2.1c0.2-0.1,0.5,0,0.7,0.2
		c0.2,0.2,0.2,0.5,0.1,0.7c-0.2,0.4-1.2,2.5-1.5,3.2c-0.1,0.2-0.2,0.3-0.4,0.4c-0.1,0-0.1,0-0.2,0c-0.1,0-0.2,0-0.3-0.1
		c-0.8-0.4-1.4-0.8-2.1-1.3c-0.2-0.1-0.3-0.3-0.3-0.5C278.7-160.4,278.8-160.6,278.9-160.7z M276.4-158.4c0.2-0.2,0.6-0.3,0.8-0.1
		c1.2,1,2.3,1.7,3.4,2.2c0.3,0.1,0.4,0.4,0.3,0.7c-0.5,2.3-0.8,4.7-0.9,7.2c0,0.3-0.3,0.6-0.6,0.6h-6.8c-0.2,0-0.3-0.1-0.5-0.2
		c-0.1-0.1-0.2-0.3-0.2-0.5C272.3-152.1,273.9-155.5,276.4-158.4z M272.1-145.3c0.1-0.1,0.3-0.2,0.5-0.2h6.8c0.3,0,0.6,0.3,0.6,0.6
		c0.1,2.5,0.4,4.9,0.9,7.2c0.1,0.3-0.1,0.6-0.3,0.7c-1.1,0.5-2.2,1.3-3.4,2.2c-0.1,0.1-0.2,0.1-0.4,0.1c-0.2,0-0.3-0.1-0.5-0.2
		c-2.5-2.8-4-6.2-4.4-10C271.9-145,272-145.2,272.1-145.3z"/>
</g>
<g>
	<linearGradient id="SVGID_6_" gradientUnits="userSpaceOnUse" x1="143.8521" y1="277.8258" x2="121.847" y2="290.5305">
		<stop  offset="0" style="stop-color:#92FE9D"/>
		<stop  offset="1" style="stop-color:#00C9FF"/>
	</linearGradient>
	<path class="st5" d="M132.8,296.9c7,0,12.7-5.7,12.7-12.7s-5.7-12.7-12.7-12.7s-12.7,5.7-12.7,12.7S125.8,296.9,132.8,296.9z
		 M132.8,274.5c5.4,0,9.7,4.4,9.7,9.7s-4.4,9.7-9.7,9.7s-9.7-4.4-9.7-9.7S127.5,274.5,132.8,274.5z"/>
	<linearGradient id="SVGID_7_" gradientUnits="userSpaceOnUse" x1="143.8341" y1="297.9229" x2="53.5507" y2="350.0481">
		<stop  offset="0" style="stop-color:#92FE9D"/>
		<stop  offset="1" style="stop-color:#00C9FF"/>
	</linearGradient>
	<path class="st6" d="M133.3,300.6c-5.2,0-10.2,1.9-14,5.4c-4.2-5.9-11.1-9.7-18.9-9.7c-7.9,0-14.9,4-19.2,10
		c-3.9-3.6-9-5.7-14.4-5.7c-11.6,0-21,9.4-21,21v14.5c0,0.8,0.7,1.5,1.5,1.5s1.5-0.7,1.5-1.5v-14.5c0-9.9,8.1-18,18-18
		c4.8,0,9.4,2,12.8,5.3c-1.7,3.2-2.6,6.8-2.6,10.7v16.2c0,0.8,0.7,1.5,1.5,1.5s1.5-0.7,1.5-1.5v-16.2c0-11.2,9.1-20.3,20.3-20.3
		c11.2,0,20.3,9.1,20.3,20.3v16.2c0,0.8,0.7,1.5,1.5,1.5s1.5-0.7,1.5-1.5v-16.2c0-4-1-7.7-2.8-11c3.3-3.2,7.8-5,12.4-5
		c9.9,0,18,8.1,18,18v14.5c0,0.8,0.7,1.5,1.5,1.5s1.5-0.7,1.5-1.5v-14.5C154.3,310,144.8,300.6,133.3,300.6z"/>
	<linearGradient id="SVGID_8_" gradientUnits="userSpaceOnUse" x1="77.3441" y1="277.8257" x2="55.3384" y2="290.5306">
		<stop  offset="0" style="stop-color:#92FE9D"/>
		<stop  offset="1" style="stop-color:#00C9FF"/>
	</linearGradient>
	<path class="st7" d="M66.3,296.9c7,0,12.7-5.7,12.7-12.7s-5.7-12.7-12.7-12.7s-12.7,5.7-12.7,12.7S59.3,296.9,66.3,296.9z
		 M66.3,274.5c5.4,0,9.7,4.4,9.7,9.7s-4.4,9.7-9.7,9.7s-9.7-4.4-9.7-9.7S61,274.5,66.3,274.5z"/>
	<linearGradient id="SVGID_9_" gradientUnits="userSpaceOnUse" x1="111.9854" y1="270.6748" x2="87.6539" y2="284.7226">
		<stop  offset="0" style="stop-color:#92FE9D"/>
		<stop  offset="1" style="stop-color:#00C9FF"/>
	</linearGradient>
	<path class="st8" d="M99.8,291.7c7.7,0,14.1-6.3,14.1-14.1s-6.3-14.1-14.1-14.1s-14.1,6.3-14.1,14.1S92.1,291.7,99.8,291.7z
		 M99.8,266.6c6.1,0,11.1,5,11.1,11.1s-5,11.1-11.1,11.1s-11.1-5-11.1-11.1S93.7,266.6,99.8,266.6z"/>
</g>
<g>
	
		<linearGradient id="SVGID_10_" gradientUnits="userSpaceOnUse" x1="186.4265" y1="150.0025" x2="13.2127" y2="49.9976" gradientTransform="matrix(1 0 0 -1 0 200)">
		<stop  offset="0" style="stop-color:#92FE9D"/>
		<stop  offset="1" style="stop-color:#00C9FF"/>
	</linearGradient>
	<path class="st9" d="M99.8,2c54,0,98,44,98,98s-44,98-98,98s-98-44-98-98S45.8,2,99.8,2 M99.8,0C44.6,0-0.2,44.8-0.2,100
		s44.8,100,100,100s100-44.8,100-100S155,0,99.8,0L99.8,0z"/>
</g>
<g>
	<linearGradient id="SVGID_11_" gradientUnits="userSpaceOnUse" x1="135.5725" y1="81.408" x2="117.6316" y2="91.7662">
		<stop  offset="0" style="stop-color:#92FE9D"/>
		<stop  offset="1" style="stop-color:#00C9FF"/>
	</linearGradient>
	<path class="st10" d="M126.6,96.9c5.7,0,10.4-4.6,10.4-10.4c0-5.7-4.6-10.4-10.4-10.4c-5.7,0-10.4,4.6-10.4,10.4
		C116.2,92.3,120.9,96.9,126.6,96.9z M126.6,78.7c4.4,0,7.9,3.6,7.9,7.9c0,4.4-3.6,7.9-7.9,7.9s-7.9-3.6-7.9-7.9
		C118.7,82.2,122.2,78.7,126.6,78.7z"/>
	<linearGradient id="SVGID_12_" gradientUnits="userSpaceOnUse" x1="135.5578" y1="97.7933" x2="61.9491" y2="140.2914">
		<stop  offset="0" style="stop-color:#92FE9D"/>
		<stop  offset="1" style="stop-color:#00C9FF"/>
	</linearGradient>
	<path class="st11" d="M126.9,100c-4.2,0-8.3,1.6-11.4,4.4c-3.5-4.8-9.1-7.9-15.4-7.9c-6.5,0-12.2,3.2-15.6,8.2
		c-3.2-3-7.3-4.6-11.7-4.6c-9.4,0-17.1,7.7-17.1,17.1v11.8c0,0.7,0.5,1.2,1.2,1.2s1.2-0.5,1.2-1.2v-11.8c0-8.1,6.6-14.7,14.7-14.7
		c3.9,0,7.7,1.6,10.4,4.4c-1.3,2.6-2.1,5.6-2.1,8.7v13.2c0,0.7,0.5,1.2,1.2,1.2s1.2-0.5,1.2-1.2v-13.2c0-9.1,7.4-16.6,16.6-16.6
		c9.1,0,16.6,7.4,16.6,16.6v13.2c0,0.7,0.5,1.2,1.2,1.2c0.7,0,1.2-0.5,1.2-1.2v-13.2c0-3.2-0.8-6.3-2.3-9c2.7-2.6,6.3-4.1,10.1-4.1
		c8.1,0,14.7,6.6,14.7,14.7v11.8c0,0.7,0.5,1.2,1.2,1.2c0.7,0,1.2-0.5,1.2-1.2v-11.8C144.1,107.7,136.4,100,126.9,100z"/>
	<linearGradient id="SVGID_13_" gradientUnits="userSpaceOnUse" x1="81.348" y1="81.4079" x2="63.4067" y2="91.7663">
		<stop  offset="0" style="stop-color:#92FE9D"/>
		<stop  offset="1" style="stop-color:#00C9FF"/>
	</linearGradient>
	<path class="st12" d="M72.4,96.9c5.7,0,10.4-4.6,10.4-10.4c0-5.7-4.6-10.4-10.4-10.4S62,80.9,62,86.6C62,92.3,66.7,96.9,72.4,96.9z
		 M72.4,78.7c4.4,0,7.9,3.6,7.9,7.9c0,4.4-3.6,7.9-7.9,7.9c-4.4,0-7.9-3.6-7.9-7.9C64.5,82.2,68,78.7,72.4,78.7z"/>
	<linearGradient id="SVGID_14_" gradientUnits="userSpaceOnUse" x1="109.5913" y1="75.5777" x2="89.7537" y2="87.031">
		<stop  offset="0" style="stop-color:#92FE9D"/>
		<stop  offset="1" style="stop-color:#00C9FF"/>
	</linearGradient>
	<path class="st13" d="M99.7,92.8c6.3,0,11.5-5.1,11.5-11.5c0-6.3-5.1-11.5-11.5-11.5c-6.3,0-11.5,5.1-11.5,11.5
		C88.2,87.6,93.4,92.8,99.7,92.8z M99.7,72.3c5,0,9,4,9,9c0,5-4,9-9,9s-9-4-9-9C90.7,76.3,94.7,72.3,99.7,72.3z"/>
</g>
<g>
	
		<linearGradient id="SVGID_15_" gradientUnits="userSpaceOnUse" x1="-134.6883" y1="-178.6767" x2="-307.9021" y2="-278.6815" gradientTransform="matrix(1 0 0 -1 0 200)">
		<stop  offset="0" style="stop-color:#92FE9D"/>
		<stop  offset="1" style="stop-color:#00C9FF"/>
	</linearGradient>
	<path class="st14" d="M-221.3,330.7c54,0,98,44,98,98s-44,98-98,98s-98-44-98-98S-275.3,330.7-221.3,330.7 M-221.3,328.7
		c-55.2,0-100,44.8-100,100s44.8,100,100,100s100-44.8,100-100S-166.1,328.7-221.3,328.7L-221.3,328.7z"/>
</g>
<g>
	
		<linearGradient id="SVGID_16_" gradientUnits="userSpaceOnUse" x1="-245.2973" y1="150.0025" x2="-418.5111" y2="49.9976" gradientTransform="matrix(1 0 0 -1 0 200)">
		<stop  offset="0" style="stop-color:#92FE9D"/>
		<stop  offset="1" style="stop-color:#00C9FF"/>
	</linearGradient>
	<path class="st15" d="M-331.9,2c54,0,98,44,98,98s-44,98-98,98s-98-44-98-98S-385.9,2-331.9,2 M-331.9,0c-55.2,0-100,44.8-100,100
		s44.8,100,100,100s100-44.8,100-100S-276.7,0-331.9,0L-331.9,0z"/>
</g>
<g>
	<linearGradient id="SVGID_17_" gradientUnits="userSpaceOnUse" x1="-293.9404" y1="90.8257" x2="-378.9838" y2="139.9255">
		<stop  offset="0" style="stop-color:#92FE9D"/>
		<stop  offset="1" style="stop-color:#00C9FF"/>
	</linearGradient>
	<path class="st16" d="M-322.7,70.2c-11.2-0.7-23,4.5-30.2,16.9l0,0c-4.1,8.3-6.6,18-10.8,25.8c-4.2,7.7-9.8,13.6-20.5,14.7
		c-1.5,0.2-1.2,2.4,0.2,2.2c11.5-1.2,17.9-7.8,22.3-16c4.3-8.1,6.8-17.8,10.8-25.8c6.7-11.7,17.7-16.4,28.2-15.8
		c9.1,0.5,17.8,5.2,22.8,12.9c-11,3.8-16.1,14.5-14.3,24.5c1.8,10.5,11.1,20,27.7,20c1.5,0,1.5-2.2,0-2.2
		c-15.7,0-23.8-8.7-25.5-18.1c-1.7-9.5,3.2-19.6,14.2-22.7c0.7-0.2,1.1-1,0.7-1.6C-302.5,76.1-312.3,70.7-322.7,70.2L-322.7,70.2z"
		/>
</g>
<g>
	<linearGradient id="SVGID_18_" gradientUnits="userSpaceOnUse" x1="480.8192" y1="84.4044" x2="402.8019" y2="129.4477">
		<stop  offset="0" style="stop-color:#92FE9D"/>
		<stop  offset="1" style="stop-color:#00C9FF"/>
	</linearGradient>
	<path class="st17" d="M470.8,118.1V67.3c0-0.4-0.2-0.8-0.6-1.1c-0.2-0.1-0.8-0.3-1.2-0.2l-45.1,12.8c-0.5,0.2-1,0.8-1,1.4v32.5
		l-1.7-1.4c-2.3-2-5.3-3.1-8.4-3.1c-7.1,0-12.8,5.8-12.8,12.8s5.8,12.8,12.8,12.8s12.8-5.8,12.8-12.8V81.4L468,69.2v43.4l-1.6-1.4
		c-2.3-1.9-5.2-3-8.2-3c-7.1,0-12.8,5.8-12.8,12.8S451,134,458.1,134s12.8-5.8,12.8-12.8c0-0.6-0.1-1.8-0.1-2.5
		C470.8,118.3,470.8,118.1,470.8,118.1z M412.8,131c-5.5,0-9.9-4.3-9.9-9.9s4.3-9.9,9.9-9.9c5.5,0,9.9,4.3,9.9,9.9
		S418.4,131,412.8,131z M458.1,131c-5.5,0-9.9-4.3-9.9-9.9s4.3-9.9,9.9-9.9c5.5,0,9.9,4.4,9.9,9.9C468,126.7,463.7,131,458.1,131z"
		/>
</g>
<g>
	<linearGradient id="SVGID_19_" gradientUnits="userSpaceOnUse" x1="-188.7987" y1="413.9716" x2="-249.9784" y2="449.2937">
		<stop  offset="0" style="stop-color:#92FE9D"/>
		<stop  offset="1" style="stop-color:#00C9FF"/>
	</linearGradient>
	<path class="st18" d="M-199.8,397.7c-5.9-5.5-13.4-8.5-21.4-8.5c-0.7,0-1.3,0-2,0.1h0c-16.6,1-29.8,14.8-30,31.3
		c-0.1,9.1,3.6,17.8,10.4,24c4.6,4.2,7.2,10.2,7.2,16.5v3.2l-0.3,0.1c-1.6,0.6-2.6,2-2.6,3.7c0,2.2,1.8,3.9,3.9,3.9h3.5l0.1,0.4
		c0.7,4,4.1,6.9,8.2,6.9h2.9c4.1,0,7.5-2.9,8.2-6.9l0.1-0.4h3.5c2.2,0,3.9-1.8,3.9-3.9c0-1.6-1-3.1-2.6-3.7l-0.3-0.1V461
		c0-6.3,2.6-12.3,7.2-16.5c6.6-6,10.4-14.6,10.4-23.5C-189.7,412.2-193.4,403.7-199.8,397.7z M-213.8,472.5
		c-0.7,2.8-3.3,4.8-6.2,4.8h-2.9c-2.9,0-5.4-2-6.2-4.8l-0.2-0.6h15.6L-213.8,472.5z M-206.3,468c0,1.1-0.9,2-2,2h-26.4
		c-1.1,0-2-0.9-2-2c0-1.1,0.9-2,2-2h26.4C-207.2,466-206.3,466.9-206.3,468z M-201.4,443c-5,4.5-7.8,11.1-7.8,17.9v3.1h-11.3v-20.2
		l0.4-0.1c4-0.7,6.9-4.1,6.9-8.2c0-4.6-3.7-8.3-8.3-8.3s-8.3,3.7-8.3,8.3c0,4.1,2.9,7.5,6.9,8.2l0.4,0.1V464h-11.3V461
		c0-6.9-2.9-13.4-7.9-18c-6.3-5.8-9.9-14-9.7-22.5c0.2-15.5,12.3-28.1,28.2-29.4c8.2-0.6,16.1,2.3,22.3,8.2c6.2,5.9,9.6,14,9.3,21.6
		C-192,429.8-195.5,437.7-201.4,443z M-221.5,442c-3.5,0-6.4-2.9-6.4-6.4c0-3.5,2.9-6.4,6.4-6.4c3.5,0,6.4,2.9,6.4,6.4
		C-215.1,439.2-218,442-221.5,442z"/>
</g>
</svg>
