<?xml version="1.0" encoding="utf-8"?>
<!-- Generator: Adobe Illustrator 21.0.0, SVG Export Plug-In . SVG Version: 6.00 Build 0)  -->
<svg version="1.1" id="Calque_1" xmlns="http://www.w3.org/2000/svg" xmlns:xlink="http://www.w3.org/1999/xlink" x="0px" y="0px"
	 viewBox="0 0 200 200" style="enable-background:new 0 0 200 200;" xml:space="preserve">
<style type="text/css">
	.st0{fill:url(#SVGID_1_);}
	.st1{fill:url(#SVGID_2_);}
	.st2{enable-background:new    ;}
	.st3{fill:#FFFFFF;}
	.st4{fill:url(#SVGID_3_);}
	.st5{fill:url(#SVGID_4_);}
	.st6{fill:url(#SVGID_5_);}
	.st7{fill:url(#SVGID_6_);}
</style>
<g class="st2">
	<path class="st3" d="M36,110V92.1h2.9V110H36z"/>
	<path class="st3" d="M46.2,110h-2.9V91h2.9V110z"/>
	<path class="st3" d="M53.2,110h-2.9V91h2.9V110z"/>
	<path class="st3" d="M66.8,110l-0.4-1.8h-0.1c-0.4,0.6-1,1.1-1.7,1.5c-0.7,0.4-1.6,0.5-2.5,0.5c-1.6,0-2.9-0.4-3.7-1.2
		s-1.2-2-1.2-3.7v-8.8h2.9v8.3c0,1,0.2,1.8,0.6,2.3c0.4,0.5,1.1,0.8,2,0.8c1.2,0,2.1-0.4,2.7-1.1c0.6-0.7,0.8-1.9,0.8-3.6v-6.7h2.9
		V110H66.8z"/>
	<path class="st3" d="M82.2,106.1c0,1.3-0.5,2.3-1.4,3c-1,0.7-2.3,1.1-4.1,1.1c-1.8,0-3.2-0.3-4.3-0.8v-2.5c1.6,0.7,3.1,1.1,4.4,1.1
		c1.8,0,2.6-0.5,2.6-1.6c0-0.3-0.1-0.6-0.3-0.9c-0.2-0.2-0.5-0.5-1-0.7c-0.4-0.2-1.1-0.5-1.9-0.8c-1.6-0.6-2.6-1.2-3.2-1.8
		c-0.5-0.6-0.8-1.4-0.8-2.3c0-1.2,0.5-2.1,1.4-2.7c0.9-0.6,2.2-1,3.8-1c1.6,0,3.1,0.3,4.5,1l-0.9,2.2c-1.5-0.6-2.7-0.9-3.7-0.9
		c-1.5,0-2.3,0.4-2.3,1.3c0,0.4,0.2,0.8,0.6,1.1c0.4,0.3,1.3,0.7,2.6,1.2c1.1,0.4,1.9,0.8,2.4,1.2c0.5,0.4,0.9,0.8,1.1,1.2
		S82.2,105.5,82.2,106.1z"/>
	<path class="st3" d="M90.4,107.9c0.7,0,1.4-0.1,2.1-0.3v2.2c-0.3,0.1-0.7,0.3-1.2,0.3c-0.5,0.1-1,0.1-1.6,0.1
		c-2.7,0-4.1-1.4-4.1-4.3v-7.3h-1.8v-1.3l2-1l1-2.9h1.8v3h3.8v2.2h-3.8v7.2c0,0.7,0.2,1.2,0.5,1.5C89.3,107.8,89.8,107.9,90.4,107.9
		z"/>
	<path class="st3" d="M102,96.2c0.6,0,1.1,0,1.4,0.1l-0.3,2.7c-0.4-0.1-0.8-0.1-1.3-0.1c-1.1,0-2.1,0.4-2.8,1.1
		c-0.7,0.7-1.1,1.7-1.1,2.9v7.1h-2.9V96.5h2.2l0.4,2.4h0.1c0.4-0.8,1-1.4,1.8-1.9C100.4,96.5,101.2,96.2,102,96.2z"/>
	<path class="st3" d="M114.4,110l-0.6-1.9h-0.1c-0.7,0.8-1.3,1.4-2,1.7s-1.5,0.4-2.5,0.4c-1.3,0-2.4-0.4-3.1-1.1
		c-0.7-0.7-1.1-1.7-1.1-3c0-1.4,0.5-2.4,1.6-3.2c1-0.7,2.6-1.1,4.7-1.2l2.3-0.1V101c0-0.9-0.2-1.5-0.6-1.9c-0.4-0.4-1-0.6-1.9-0.6
		c-0.7,0-1.4,0.1-2,0.3c-0.6,0.2-1.2,0.4-1.8,0.7l-0.9-2.1c0.7-0.4,1.5-0.7,2.4-0.9c0.9-0.2,1.7-0.3,2.5-0.3c1.7,0,3,0.4,3.9,1.1
		c0.9,0.7,1.3,1.9,1.3,3.5v9.1H114.4z M110.1,108c1,0,1.9-0.3,2.5-0.9c0.6-0.6,0.9-1.4,0.9-2.4v-1.2l-1.7,0.1
		c-1.4,0-2.3,0.3-2.9,0.7c-0.6,0.4-0.9,1-0.9,1.8c0,0.6,0.2,1.1,0.5,1.4C108.9,107.9,109.4,108,110.1,108z"/>
	<path class="st3" d="M125.5,107.9c0.7,0,1.4-0.1,2.1-0.3v2.2c-0.3,0.1-0.7,0.3-1.2,0.3c-0.5,0.1-1,0.1-1.6,0.1
		c-2.7,0-4.1-1.4-4.1-4.3v-7.3h-1.8v-1.3l2-1l1-2.9h1.8v3h3.8v2.2h-3.8v7.2c0,0.7,0.2,1.2,0.5,1.5
		C124.5,107.8,124.9,107.9,125.5,107.9z"/>
	<path class="st3" d="M130.1,92.9c0-0.5,0.1-0.9,0.4-1.2c0.3-0.3,0.7-0.4,1.2-0.4c0.5,0,0.9,0.1,1.2,0.4c0.3,0.3,0.4,0.7,0.4,1.2
		c0,0.5-0.1,0.9-0.4,1.2c-0.3,0.3-0.7,0.4-1.2,0.4c-0.5,0-0.9-0.1-1.2-0.4C130.2,93.8,130.1,93.4,130.1,92.9z M133.1,110h-2.9V96.5
		h2.9V110z"/>
	<path class="st3" d="M149.2,103.2c0,2.2-0.6,3.9-1.7,5.2s-2.7,1.9-4.7,1.9c-1.3,0-2.4-0.3-3.3-0.9c-1-0.6-1.7-1.4-2.2-2.5
		c-0.5-1.1-0.8-2.3-0.8-3.7c0-2.2,0.6-3.9,1.7-5.1c1.1-1.2,2.7-1.8,4.7-1.8c2,0,3.5,0.6,4.6,1.9C148.6,99.4,149.2,101.1,149.2,103.2
		z M139.4,103.2c0,3.1,1.2,4.7,3.5,4.7c2.3,0,3.4-1.6,3.4-4.7c0-3.1-1.1-4.6-3.4-4.6c-1.2,0-2.1,0.4-2.6,1.2
		C139.7,100.6,139.4,101.7,139.4,103.2z"/>
	<path class="st3" d="M164.4,110h-2.9v-8.3c0-1-0.2-1.8-0.6-2.3c-0.4-0.5-1.1-0.8-2-0.8c-1.2,0-2.1,0.4-2.7,1.1s-0.8,1.9-0.8,3.6
		v6.7h-2.9V96.5h2.2l0.4,1.8h0.1c0.4-0.6,1-1.1,1.7-1.5c0.7-0.3,1.6-0.5,2.5-0.5c3.2,0,4.9,1.6,4.9,4.9V110z"/>
</g>
<g>
	
		<linearGradient id="SVGID_1_" gradientUnits="userSpaceOnUse" x1="186.6071" y1="150.0025" x2="13.3933" y2="49.9976" gradientTransform="matrix(1 0 0 -1 0 200)">
		<stop  offset="0" style="stop-color:#92FE9D"/>
		<stop  offset="1" style="stop-color:#00C9FF"/>
	</linearGradient>
	<path class="st0" d="M100,2c54,0,98,44,98,98s-44,98-98,98S2,154,2,100S46,2,100,2 M100,0C44.8,0,0,44.8,0,100s44.8,100,100,100
		s100-44.8,100-100S155.2,0,100,0L100,0z"/>
</g>
<linearGradient id="SVGID_2_" gradientUnits="userSpaceOnUse" x1="29.3473" y1="100.7518" x2="170.8351" y2="100.7518">
	<stop  offset="0" style="stop-color:#00C9FF"/>
	<stop  offset="1" style="stop-color:#92FE9D"/>
</linearGradient>
<rect x="29.3" y="84.1" class="st1" width="141.5" height="33.3"/>
<g>
	<path class="st3" d="M142.8,98.3c-1.2,0-2.1,0.4-2.6,1.2c-0.5,0.8-0.8,1.9-0.8,3.4c0,3.1,1.2,4.7,3.5,4.7c2.3,0,3.4-1.6,3.4-4.7
		C146.3,99.9,145.1,98.3,142.8,98.3z"/>
	<path class="st3" d="M108.9,104c-0.6,0.4-0.9,1-0.9,1.8c0,0.6,0.2,1.1,0.5,1.4c0.4,0.3,0.9,0.5,1.6,0.5c1,0,1.9-0.3,2.5-0.9
		c0.6-0.6,0.9-1.4,0.9-2.4v-1.2l-1.7,0.1C110.5,103.4,109.5,103.6,108.9,104z"/>
	<path class="st3" d="M27.4,82.9v36.3h144.7V82.9H27.4z M38.9,109.7H36V91.9h2.9V109.7z M46.2,109.7h-2.9v-19h2.9V109.7z
		 M53.2,109.7h-2.9v-19h2.9V109.7z M69.1,109.7h-2.3l-0.4-1.8h-0.1c-0.4,0.6-1,1.1-1.7,1.5c-0.7,0.4-1.6,0.5-2.5,0.5
		c-1.6,0-2.9-0.4-3.7-1.2s-1.2-2-1.2-3.7v-8.8h2.9v8.3c0,1,0.2,1.8,0.6,2.3c0.4,0.5,1.1,0.8,2,0.8c1.2,0,2.1-0.4,2.7-1.1
		c0.6-0.7,0.8-1.9,0.8-3.6v-6.7h2.9V109.7z M80.8,108.9c-1,0.7-2.3,1.1-4.1,1.1c-1.8,0-3.2-0.3-4.3-0.8v-2.5
		c1.6,0.7,3.1,1.1,4.4,1.1c1.8,0,2.6-0.5,2.6-1.6c0-0.3-0.1-0.6-0.3-0.9c-0.2-0.2-0.5-0.5-1-0.7c-0.4-0.2-1.1-0.5-1.9-0.8
		c-1.6-0.6-2.6-1.2-3.2-1.8c-0.5-0.6-0.8-1.4-0.8-2.3c0-1.2,0.5-2.1,1.4-2.7c0.9-0.6,2.2-1,3.8-1c1.6,0,3.1,0.3,4.5,1l-0.9,2.2
		c-1.5-0.6-2.7-0.9-3.7-0.9c-1.5,0-2.3,0.4-2.3,1.3c0,0.4,0.2,0.8,0.6,1.1c0.4,0.3,1.3,0.7,2.6,1.2c1.1,0.4,1.9,0.8,2.4,1.2
		c0.5,0.4,0.9,0.8,1.1,1.2s0.4,1,0.4,1.7C82.2,107.2,81.8,108.2,80.8,108.9z M92.5,109.5c-0.3,0.1-0.7,0.3-1.2,0.3
		c-0.5,0.1-1,0.1-1.6,0.1c-2.7,0-4.1-1.4-4.1-4.3v-7.3h-1.8v-1.3l2-1l1-2.9h1.8v3h3.8v2.2h-3.8v7.2c0,0.7,0.2,1.2,0.5,1.5
		c0.3,0.3,0.8,0.5,1.4,0.5c0.7,0,1.4-0.1,2.1-0.3V109.5z M103.2,98.8c-0.4-0.1-0.8-0.1-1.3-0.1c-1.1,0-2.1,0.4-2.8,1.1
		c-0.7,0.7-1.1,1.7-1.1,2.9v7.1h-2.9V96.2h2.2l0.4,2.4h0.1c0.4-0.8,1-1.4,1.8-1.9c0.7-0.5,1.5-0.7,2.3-0.7c0.6,0,1.1,0,1.4,0.1
		L103.2,98.8z M116.4,109.7h-2.1l-0.6-1.9h-0.1c-0.7,0.8-1.3,1.4-2,1.7s-1.5,0.4-2.5,0.4c-1.3,0-2.4-0.4-3.1-1.1
		c-0.7-0.7-1.1-1.7-1.1-3c0-1.4,0.5-2.4,1.6-3.2c1-0.7,2.6-1.1,4.7-1.2l2.3-0.1v-0.7c0-0.9-0.2-1.5-0.6-1.9c-0.4-0.4-1-0.6-1.9-0.6
		c-0.7,0-1.4,0.1-2,0.3c-0.6,0.2-1.2,0.4-1.8,0.7l-0.9-2.1c0.7-0.4,1.5-0.7,2.4-0.9c0.9-0.2,1.7-0.3,2.5-0.3c1.7,0,3,0.4,3.9,1.1
		c0.9,0.7,1.3,1.9,1.3,3.5V109.7z M127.6,109.5c-0.3,0.1-0.7,0.3-1.2,0.3c-0.5,0.1-1,0.1-1.6,0.1c-2.7,0-4.1-1.4-4.1-4.3v-7.3h-1.8
		v-1.3l2-1l1-2.9h1.8v3h3.8v2.2h-3.8v7.2c0,0.7,0.2,1.2,0.5,1.5c0.3,0.3,0.8,0.5,1.4,0.5c0.7,0,1.4-0.1,2.1-0.3V109.5z M133.1,109.7
		h-2.9V96.2h2.9V109.7z M132.9,93.8c-0.3,0.3-0.7,0.4-1.2,0.4c-0.5,0-0.9-0.1-1.2-0.4c-0.3-0.3-0.4-0.7-0.4-1.2
		c0-0.5,0.1-0.9,0.4-1.2c0.3-0.3,0.7-0.4,1.2-0.4c0.5,0,0.9,0.1,1.2,0.4c0.3,0.3,0.4,0.7,0.4,1.2C133.3,93.1,133.2,93.5,132.9,93.8z
		 M147.5,108.1c-1.1,1.2-2.7,1.9-4.7,1.9c-1.3,0-2.4-0.3-3.3-0.9c-1-0.6-1.7-1.4-2.2-2.5c-0.5-1.1-0.8-2.3-0.8-3.7
		c0-2.2,0.6-3.9,1.7-5.1c1.1-1.2,2.7-1.8,4.7-1.8c2,0,3.5,0.6,4.6,1.9c1.1,1.3,1.7,3,1.7,5.1C149.2,105.2,148.6,106.9,147.5,108.1z
		 M164.4,109.7h-2.9v-8.3c0-1-0.2-1.8-0.6-2.3c-0.4-0.5-1.1-0.8-2-0.8c-1.2,0-2.1,0.4-2.7,1.1s-0.8,1.9-0.8,3.6v6.7h-2.9V96.2h2.2
		l0.4,1.8h0.1c0.4-0.6,1-1.1,1.7-1.5c0.7-0.3,1.6-0.5,2.5-0.5c3.2,0,4.9,1.6,4.9,4.9V109.7z"/>
</g>
</svg>
