<?xml version="1.0" encoding="utf-8"?>
<!-- Generator: Adobe Illustrator 21.0.0, SVG Export Plug-In . SVG Version: 6.00 Build 0)  -->
<svg version="1.1" id="Calque_1" xmlns="http://www.w3.org/2000/svg" xmlns:xlink="http://www.w3.org/1999/xlink" x="0px" y="0px"
	 viewBox="0 0 200 200" style="enable-background:new 0 0 200 200;" xml:space="preserve">
<style type="text/css">
	.st0{fill:url(#SVGID_1_);}
	.st1{enable-background:new    ;}
	.st2{fill:#FFFFFF;}
	.st3{fill:url(#SVGID_2_);}
	.st4{fill:url(#SVGID_3_);}
	.st5{fill:url(#SVGID_4_);}
</style>
<linearGradient id="SVGID_1_" gradientUnits="userSpaceOnUse" x1="12.9364" y1="100.2977" x2="188.7251" y2="100.2977">
	<stop  offset="0" style="stop-color:#00C9FF"/>
	<stop  offset="1" style="stop-color:#92FE9D"/>
</linearGradient>
<rect x="12.9" y="85.7" class="st0" width="175.8" height="29.1"/>
<g>
	
		<linearGradient id="SVGID_2_" gradientUnits="userSpaceOnUse" x1="186.6069" y1="150.0025" x2="13.3931" y2="49.9976" gradientTransform="matrix(1 0 0 -1 0 200)">
		<stop  offset="0" style="stop-color:#92FE9D"/>
		<stop  offset="1" style="stop-color:#00C9FF"/>
	</linearGradient>
	<path class="st3" d="M100,2c54,0,98,44,98,98s-44,98-98,98S2,154,2,100S46,2,100,2 M100,0C44.8,0,0,44.8,0,100s44.8,100,100,100
		s100-44.8,100-100S155.2,0,100,0L100,0z"/>
</g>
<g>
	<path class="st2" d="M131.1,95.3c-0.9,0-1.6,0.3-2.2,0.9c-0.5,0.6-0.9,1.4-1,2.5h6.1c0-1.1-0.3-2-0.8-2.5
		C132.7,95.6,132,95.3,131.1,95.3z"/>
	<path class="st2" d="M75.3,95.5c-1.2,0-2.1,0.4-2.6,1.2c-0.5,0.8-0.8,1.9-0.8,3.4c0,3.1,1.2,4.7,3.5,4.7c2.3,0,3.4-1.6,3.4-4.7
		C78.8,97,77.6,95.5,75.3,95.5z"/>
	<path class="st2" d="M160.1,109c0,0.6,0.3,1.1,0.8,1.4c0.6,0.3,1.3,0.5,2.3,0.5c1.6,0,2.7-0.2,3.5-0.7c0.8-0.4,1.1-1,1.1-1.8
		c0-0.6-0.2-1-0.6-1.3c-0.4-0.2-1.2-0.4-2.3-0.4h-2.2c-0.8,0-1.5,0.2-2,0.6C160.3,107.8,160.1,108.3,160.1,109z"/>
	<path class="st2" d="M43.3,95.5c-1.2,0-2.1,0.4-2.6,1.2c-0.5,0.8-0.8,1.9-0.8,3.4c0,3.1,1.2,4.7,3.5,4.7c2.3,0,3.4-1.6,3.4-4.7
		C46.7,97,45.6,95.5,43.3,95.5z"/>
	<path class="st2" d="M113.1,91.5h-2.5v13h2.1c4.3,0,6.4-2.2,6.4-6.5C119.1,93.6,117.1,91.5,113.1,91.5z"/>
	<path class="st2" d="M11.3,83.3v33.3h179V83.3H11.3z M33.3,106.9h-2.8v-8.8c0-0.9,0-2,0.1-3.5c0-1.4,0.1-2.3,0.1-2.6h-0.1
		l-5.4,14.9h-2.6L17.5,92h-0.1c0.1,2.2,0.2,4.3,0.2,6.2v8.7h-2.6V89H19l5,14.2h0.1L29.2,89h4.1V106.9z M48,105.3
		c-1.1,1.2-2.7,1.9-4.7,1.9c-1.3,0-2.4-0.3-3.3-0.9c-1-0.6-1.7-1.4-2.2-2.5c-0.5-1.1-0.8-2.3-0.8-3.7c0-2.2,0.6-3.9,1.7-5.1
		c1.1-1.2,2.7-1.8,4.7-1.8c2,0,3.5,0.6,4.6,1.9c1.1,1.3,1.7,3,1.7,5.1C49.7,102.3,49.1,104,48,105.3z M60.1,106.6
		c-0.3,0.1-0.7,0.3-1.2,0.3c-0.5,0.1-1,0.1-1.6,0.1c-2.7,0-4.1-1.4-4.1-4.3v-7.3h-1.8v-1.3l2-1l1-2.9h1.8v3H60v2.2h-3.8v7.2
		c0,0.7,0.2,1.2,0.5,1.5c0.3,0.3,0.8,0.5,1.4,0.5c0.7,0,1.4-0.1,2.1-0.3V106.6z M65.7,106.9h-2.9V93.4h2.9V106.9z M65.4,91
		c-0.3,0.3-0.7,0.4-1.2,0.4c-0.5,0-0.9-0.1-1.2-0.4c-0.3-0.3-0.4-0.7-0.4-1.2c0-0.5,0.1-0.9,0.4-1.2c0.3-0.3,0.7-0.4,1.2-0.4
		c0.5,0,0.9,0.1,1.2,0.4c0.3,0.3,0.4,0.7,0.4,1.2C65.8,90.3,65.7,90.7,65.4,91z M80,105.3c-1.1,1.2-2.7,1.9-4.7,1.9
		c-1.3,0-2.4-0.3-3.3-0.9c-1-0.6-1.7-1.4-2.2-2.5c-0.5-1.1-0.8-2.3-0.8-3.7c0-2.2,0.6-3.9,1.7-5.1c1.1-1.2,2.7-1.8,4.7-1.8
		c2,0,3.5,0.6,4.6,1.9c1.1,1.3,1.7,3,1.7,5.1C81.7,102.3,81.2,104,80,105.3z M96.9,106.9H94v-8.3c0-1-0.2-1.8-0.6-2.3
		c-0.4-0.5-1.1-0.8-2-0.8c-1.2,0-2.1,0.4-2.7,1.1s-0.8,1.9-0.8,3.6v6.7H85V93.4h2.2l0.4,1.8h0.1c0.4-0.6,1-1.1,1.7-1.5
		c0.7-0.3,1.6-0.5,2.5-0.5c3.2,0,4.9,1.6,4.9,4.9V106.9z M119.8,104.6c-1.6,1.6-4,2.3-7.1,2.3h-5V89h5.5c2.8,0,5,0.8,6.6,2.3
		c1.6,1.5,2.4,3.7,2.4,6.5C122.2,100.7,121.4,103,119.8,104.6z M136.9,100.8h-9c0,1.3,0.4,2.3,1.1,3c0.7,0.7,1.6,1.1,2.8,1.1
		c0.8,0,1.5-0.1,2.2-0.2c0.7-0.2,1.4-0.4,2.2-0.8v2.3c-0.7,0.3-1.4,0.6-2.1,0.7c-0.7,0.1-1.5,0.2-2.5,0.2c-2.1,0-3.7-0.6-4.9-1.8
		c-1.2-1.2-1.8-2.9-1.8-5.1c0-2.2,0.5-3.9,1.6-5.2c1.1-1.3,2.6-1.9,4.5-1.9c1.8,0,3.2,0.5,4.2,1.6c1,1.1,1.6,2.6,1.6,4.5V100.8z
		 M147.8,106.1c-1,0.7-2.3,1.1-4.1,1.1c-1.8,0-3.2-0.3-4.3-0.8v-2.5c1.6,0.7,3.1,1.1,4.4,1.1c1.8,0,2.6-0.5,2.6-1.6
		c0-0.3-0.1-0.6-0.3-0.9c-0.2-0.2-0.5-0.5-1-0.7c-0.4-0.2-1.1-0.5-1.9-0.8c-1.6-0.6-2.6-1.2-3.2-1.8c-0.5-0.6-0.8-1.4-0.8-2.3
		c0-1.2,0.5-2.1,1.4-2.7c0.9-0.6,2.2-1,3.8-1c1.6,0,3.1,0.3,4.5,1l-0.9,2.2c-1.5-0.6-2.7-0.9-3.7-0.9c-1.5,0-2.3,0.4-2.3,1.3
		c0,0.4,0.2,0.8,0.6,1.1c0.4,0.3,1.3,0.7,2.6,1.2c1.1,0.4,1.9,0.8,2.4,1.2c0.5,0.4,0.9,0.8,1.1,1.2s0.4,1,0.4,1.7
		C149.2,104.4,148.7,105.4,147.8,106.1z M155.2,106.9h-2.9V93.4h2.9V106.9z M155,91c-0.3,0.3-0.7,0.4-1.2,0.4
		c-0.5,0-0.9-0.1-1.2-0.4c-0.3-0.3-0.4-0.7-0.4-1.2c0-0.5,0.1-0.9,0.4-1.2c0.3-0.3,0.7-0.4,1.2-0.4c0.5,0,0.9,0.1,1.2,0.4
		c0.3,0.3,0.4,0.7,0.4,1.2C155.4,90.3,155.2,90.7,155,91z M170.7,95l-2.3,0.4c0.2,0.3,0.4,0.6,0.5,1s0.2,0.9,0.2,1.3
		c0,1.4-0.5,2.5-1.4,3.3c-1,0.8-2.3,1.2-4,1.2c-0.4,0-0.8,0-1.2-0.1c-0.6,0.4-0.9,0.8-0.9,1.3c0,0.3,0.1,0.5,0.4,0.7
		s0.8,0.2,1.6,0.2h2.4c1.5,0,2.6,0.3,3.4,1c0.8,0.6,1.2,1.5,1.2,2.7c0,1.5-0.6,2.7-1.9,3.5c-1.3,0.8-3.1,1.2-5.5,1.2
		c-1.8,0-3.2-0.3-4.2-1s-1.5-1.6-1.5-2.8c0-0.8,0.3-1.5,0.8-2.1c0.5-0.6,1.3-1,2.2-1.2c-0.4-0.2-0.7-0.4-0.9-0.8
		c-0.2-0.4-0.4-0.7-0.4-1.1c0-0.5,0.1-0.9,0.4-1.3c0.3-0.3,0.7-0.7,1.3-1c-0.7-0.3-1.3-0.8-1.7-1.5s-0.7-1.5-0.7-2.4
		c0-1.5,0.5-2.6,1.4-3.4c0.9-0.8,2.2-1.2,3.9-1.2c0.4,0,0.8,0,1.2,0.1c0.4,0.1,0.7,0.1,0.9,0.2h4.7V95z M185.1,106.9h-2.9v-8.3
		c0-1-0.2-1.8-0.6-2.3c-0.4-0.5-1.1-0.8-2-0.8c-1.2,0-2.1,0.4-2.7,1.1c-0.6,0.7-0.8,1.9-0.8,3.6v6.7h-2.9V93.4h2.2l0.4,1.8h0.1
		c0.4-0.6,1-1.1,1.7-1.5c0.7-0.3,1.6-0.5,2.5-0.5c3.2,0,4.9,1.6,4.9,4.9V106.9z"/>
	<path class="st2" d="M163.8,95c-0.8,0-1.5,0.2-1.9,0.7c-0.4,0.5-0.6,1.2-0.6,2.1c0,0.8,0.2,1.5,0.7,2s1.1,0.7,1.9,0.7
		c1.7,0,2.5-0.9,2.5-2.7c0-0.9-0.2-1.6-0.6-2C165.3,95.2,164.7,95,163.8,95z"/>
</g>
</svg>
