<?xml version="1.0" encoding="utf-8"?>
<!-- Generator: Adobe Illustrator 21.0.0, SVG Export Plug-In . SVG Version: 6.00 Build 0)  -->
<svg version="1.1" id="Calque_1" xmlns="http://www.w3.org/2000/svg" xmlns:xlink="http://www.w3.org/1999/xlink" x="0px" y="0px"
	 viewBox="0 0 200 200" style="enable-background:new 0 0 200 200;" xml:space="preserve">
<style type="text/css">
	.st0{fill:url(#SVGID_1_);}
	.st1{fill:url(#SVGID_2_);}
	.st2{fill:url(#SVGID_3_);}
	.st3{enable-background:new    ;}
	.st4{fill:#FFFFFF;}
	.st5{fill:url(#SVGID_4_);}
	.st6{fill:url(#SVGID_5_);}
	.st7{fill:url(#SVGID_6_);}
</style>
<linearGradient id="SVGID_1_" gradientUnits="userSpaceOnUse" x1="25.8636" y1="103.6259" x2="171.4433" y2="103.6259">
	<stop  offset="0" style="stop-color:#00C9FF"/>
	<stop  offset="1" style="stop-color:#92FE9D"/>
</linearGradient>
<rect x="25.9" y="88.4" class="st0" width="145.6" height="30.5"/>
<g>
	
		<linearGradient id="SVGID_2_" gradientUnits="userSpaceOnUse" x1="186.6069" y1="150.0025" x2="13.3931" y2="49.9976" gradientTransform="matrix(1 0 0 -1 0 200)">
		<stop  offset="0" style="stop-color:#92FE9D"/>
		<stop  offset="1" style="stop-color:#00C9FF"/>
	</linearGradient>
	<path class="st1" d="M100,2c54,0,98,44,98,98s-44,98-98,98S2,154,2,100S46,2,100,2 M100,0C44.8,0,0,44.8,0,100s44.8,100,100,100
		s100-44.8,100-100S155.2,0,100,0L100,0z"/>
</g>
<g>
	<path class="st4" d="M143.7,112.2c0,0.6,0.3,1.1,0.8,1.4c0.6,0.3,1.3,0.5,2.3,0.5c1.6,0,2.7-0.2,3.5-0.7c0.8-0.4,1.1-1,1.1-1.8
		c0-0.6-0.2-1-0.6-1.3s-1.2-0.4-2.3-0.4h-2.2c-0.8,0-1.5,0.2-2,0.6C143.9,111,143.7,111.5,143.7,112.2z"/>
	<path class="st4" d="M96.8,94.7h-2.5v13h2.1c4.3,0,6.4-2.2,6.4-6.5C102.7,96.8,100.7,94.7,96.8,94.7z"/>
	<path class="st4" d="M75.1,98.7c-1.2,0-2,0.3-2.5,1c-0.5,0.7-0.8,1.8-0.8,3.4v0.2c0,1.6,0.3,2.8,0.8,3.6c0.5,0.7,1.4,1.1,2.6,1.1
		c1,0,1.8-0.4,2.3-1.2c0.5-0.8,0.8-2,0.8-3.5C78.2,100.2,77.2,98.7,75.1,98.7z"/>
	<path class="st4" d="M24,87.2v33.2h149.6V87.2H24z M47.7,110.1h-3.2l-3-10.6c-0.1-0.5-0.3-1.1-0.5-2s-0.3-1.5-0.4-1.8
		c-0.1,0.5-0.2,1.2-0.4,2c-0.2,0.8-0.3,1.4-0.5,1.9l-3,10.6h-3.2l-2.3-8.9L29,92.2h3l2.6,10.4c0.4,1.7,0.7,3.1,0.9,4.4
		c0.1-0.7,0.2-1.5,0.4-2.3c0.2-0.9,0.3-1.5,0.5-2.1l2.9-10.4h2.9l3,10.5c0.3,1,0.6,2.4,0.9,4.3c0.1-1.2,0.4-2.6,0.9-4.4l2.5-10.4h3
		L47.7,110.1z M65.7,104h-9c0,1.3,0.4,2.3,1.1,3c0.7,0.7,1.6,1.1,2.8,1.1c0.8,0,1.5-0.1,2.2-0.2c0.7-0.2,1.4-0.4,2.2-0.8v2.3
		c-0.7,0.3-1.4,0.6-2.1,0.7c-0.7,0.1-1.5,0.2-2.5,0.2c-2.1,0-3.7-0.6-4.9-1.8c-1.2-1.2-1.8-2.9-1.8-5.1c0-2.2,0.5-3.9,1.6-5.2
		c1.1-1.3,2.6-1.9,4.5-1.9c1.8,0,3.2,0.5,4.2,1.6c1,1.1,1.6,2.6,1.6,4.5V104z M79.7,108.5c-1,1.2-2.3,1.8-4,1.8c-1.7,0-3-0.6-4-1.8
		h-0.2l-0.5,1.6h-2.1v-19h2.9v4.5c0,0.3,0,0.8,0,1.5c0,0.7-0.1,1.1-0.1,1.3h0.1c0.9-1.3,2.3-2,4-2c1.7,0,3,0.6,3.9,1.8
		c0.9,1.2,1.4,2.9,1.4,5.1C81.2,105.5,80.7,107.2,79.7,108.5z M103.4,107.7c-1.6,1.6-4,2.3-7.1,2.3h-5V92.2h5.5c2.8,0,5,0.8,6.6,2.3
		s2.4,3.7,2.4,6.5C105.8,103.9,105,106.2,103.4,107.7z M120.5,104h-9c0,1.3,0.4,2.3,1.1,3s1.6,1.1,2.8,1.1c0.8,0,1.5-0.1,2.2-0.2
		s1.4-0.4,2.2-0.8v2.3c-0.7,0.3-1.4,0.6-2.1,0.7c-0.7,0.1-1.5,0.2-2.5,0.2c-2.1,0-3.7-0.6-4.9-1.8c-1.2-1.2-1.8-2.9-1.8-5.1
		c0-2.2,0.5-3.9,1.6-5.2c1.1-1.3,2.6-1.9,4.5-1.9c1.8,0,3.2,0.5,4.2,1.6c1,1.1,1.5,2.6,1.5,4.5V104z M131.4,109.3
		c-1,0.7-2.3,1.1-4.1,1.1c-1.8,0-3.2-0.3-4.3-0.8V107c1.6,0.7,3.1,1.1,4.4,1.1c1.8,0,2.6-0.5,2.6-1.6c0-0.3-0.1-0.6-0.3-0.9
		c-0.2-0.2-0.5-0.5-1-0.7s-1.1-0.5-1.9-0.8c-1.6-0.6-2.6-1.2-3.2-1.8c-0.5-0.6-0.8-1.4-0.8-2.3c0-1.2,0.5-2.1,1.4-2.7
		c0.9-0.6,2.2-1,3.8-1c1.6,0,3.1,0.3,4.5,1l-0.9,2.2c-1.5-0.6-2.7-0.9-3.7-0.9c-1.5,0-2.3,0.4-2.3,1.3c0,0.4,0.2,0.8,0.6,1.1
		s1.3,0.7,2.6,1.2c1.1,0.4,1.9,0.8,2.4,1.2s0.9,0.8,1.1,1.2s0.4,1,0.4,1.7C132.8,107.6,132.3,108.6,131.4,109.3z M138.8,110.1h-2.9
		V96.6h2.9V110.1z M138.6,94.2c-0.3,0.3-0.7,0.4-1.2,0.4c-0.5,0-0.9-0.1-1.2-0.4c-0.3-0.3-0.4-0.7-0.4-1.2c0-0.5,0.1-0.9,0.4-1.2
		c0.3-0.3,0.7-0.4,1.2-0.4c0.5,0,0.9,0.1,1.2,0.4c0.3,0.3,0.4,0.7,0.4,1.2C139,93.5,138.8,93.9,138.6,94.2z M154.3,98.2l-2.3,0.4
		c0.2,0.3,0.4,0.6,0.5,1c0.1,0.4,0.2,0.9,0.2,1.3c0,1.4-0.5,2.5-1.4,3.3c-1,0.8-2.3,1.2-4,1.2c-0.4,0-0.8,0-1.2-0.1
		c-0.6,0.4-0.9,0.8-0.9,1.3c0,0.3,0.1,0.5,0.4,0.7c0.3,0.2,0.8,0.2,1.6,0.2h2.4c1.5,0,2.6,0.3,3.4,1s1.2,1.5,1.2,2.7
		c0,1.5-0.6,2.7-1.9,3.5s-3.1,1.2-5.5,1.2c-1.8,0-3.2-0.3-4.2-1c-1-0.7-1.5-1.6-1.5-2.8c0-0.8,0.3-1.5,0.8-2.1
		c0.5-0.6,1.3-1,2.2-1.2c-0.4-0.2-0.7-0.4-0.9-0.8s-0.4-0.7-0.4-1.1c0-0.5,0.1-0.9,0.4-1.3c0.3-0.3,0.7-0.7,1.3-1
		c-0.7-0.3-1.3-0.8-1.7-1.5c-0.4-0.7-0.7-1.5-0.7-2.4c0-1.5,0.5-2.6,1.4-3.4c0.9-0.8,2.2-1.2,3.9-1.2c0.4,0,0.8,0,1.2,0.1
		c0.4,0.1,0.7,0.1,0.9,0.2h4.7V98.2z M168.7,110.1h-2.9v-8.3c0-1-0.2-1.8-0.6-2.3c-0.4-0.5-1.1-0.8-2-0.8c-1.2,0-2.1,0.4-2.7,1.1
		s-0.8,1.9-0.8,3.6v6.7h-2.9V96.6h2.2l0.4,1.8h0.1c0.4-0.6,1-1.1,1.7-1.5c0.7-0.3,1.6-0.5,2.5-0.5c3.2,0,4.9,1.6,4.9,4.9V110.1z"/>
	<path class="st4" d="M114.7,98.5c-0.9,0-1.6,0.3-2.2,0.9c-0.5,0.6-0.9,1.4-1,2.5h6.1c0-1.1-0.3-2-0.8-2.5
		C116.3,98.8,115.6,98.5,114.7,98.5z"/>
	<path class="st4" d="M147.4,98.2c-0.8,0-1.5,0.2-1.9,0.7c-0.4,0.5-0.6,1.2-0.6,2.1c0,0.8,0.2,1.5,0.7,2c0.4,0.5,1.1,0.7,1.9,0.7
		c1.7,0,2.5-0.9,2.5-2.7c0-0.9-0.2-1.6-0.6-2C148.9,98.4,148.3,98.2,147.4,98.2z"/>
	<path class="st4" d="M59.9,98.5c-0.9,0-1.6,0.3-2.2,0.9c-0.5,0.6-0.9,1.4-1,2.5h6.1c0-1.1-0.3-2-0.8-2.5
		C61.5,98.8,60.8,98.5,59.9,98.5z"/>
</g>
</svg>
